<svg xmlns="http://www.w3.org/2000/svg" viewBox="0 0 566.37 1583.03"><defs><style>.cls-1{fill:#e5b173;}</style></defs><title>Asset 1</title><g id="Layer_2" data-name="Layer 2"><g id="Layer_1-2" data-name="Layer 1"><path class="cls-1" d="M84.39,1253.37c8,33,41.12,60.25,61.23,101.66,13.53,27.87,25.61,246.3-4.92,226.76-10.45-6.69-1.42-138-3.3-149.24-7.55-45.1-28.74-64.17-51-102.27-71.9-123.24,33.8-149.75,49.59-254.4C156.43,940.6-1.66,879.66,94.62,754.8c30.79-39.92,70.49-76,114.85-98.74,40.18-20.64,144-25.17,175.12-60.94C432.33,540.28,358,567,345.3,514.68c-11.55-47.67,68-61.1,108.78-81.63C626,346.55,474.71,305.8,368.34,262.72,362.84,260.5-44.62,48.1,4,0-13.62,17.45,216.39,179.37,424.57,261.62c55.19,21.8,171.12,35.82,134.93,116.65-19.82,44.26-189.75,77.38-192.63,110.64s69.46,31.57,62.66,80.31c-4.55,32.66-90.25,51.42-112.64,59.14-78.19,26.95-216.07,67.23-236,167.34-16.21,81.21,78,151.61,80.8,236.56C163,1073.57,64.39,1209.37,84.39,1253.37Z"/></g></g></svg>