<svg xmlns="http://www.w3.org/2000/svg" viewBox="0 0 391 391"><defs><style>.cls-1{fill:#e5b173;}</style></defs><title>Asset 2</title><g id="Layer_2" data-name="Layer 2"><g id="Layer_1-2" data-name="Layer 1"><path class="cls-1" d="M343.24,145.66A10.52,10.52,0,0,0,353,142a4.82,4.82,0,0,0,.23-4.42,4.92,4.92,0,0,0-3.09-3.23,8.23,8.23,0,0,0-5.33.51,8.31,8.31,0,0,0-4.38,3.11,5.62,5.62,0,0,0,2.84,7.66Z"/><path class="cls-1" d="M294.41,78.08a2.62,2.62,0,0,0,3,.34,13.34,13.34,0,0,0,4.06-3.62,13.43,13.43,0,0,0,2.85-4.64,2.71,2.71,0,0,0-3.81-3.23,13.62,13.62,0,0,0-4.08,3.66,13.49,13.49,0,0,0-2.87,4.65A2.6,2.6,0,0,0,294.41,78.08Z"/><path class="cls-1" d="M50.36,248.6a2.62,2.62,0,0,0-2.4-1.8,13.3,13.3,0,0,0-5.34,1.08,13.43,13.43,0,0,0-4.81,2.57,2.71,2.71,0,0,0,1.66,4.71,13.62,13.62,0,0,0,5.37-1.1,13.49,13.49,0,0,0,4.83-2.56A2.6,2.6,0,0,0,50.36,248.6Z"/><path class="cls-1" d="M353.78,160.14a3,3,0,0,0,2.72.46,2.87,2.87,0,0,0,2.08-1.52,4.82,4.82,0,0,0,0-3.14l-.5-2-6.33,1.55.38,1.56A5.77,5.77,0,0,0,353.78,160.14Z"/><path class="cls-1" d="M159.87,346.65a4.87,4.87,0,0,0-4.37.76,10.53,10.53,0,0,0-2.4,10.1,4.82,4.82,0,0,0,3.55,2.65,4.92,4.92,0,0,0,4.41-.77,10.38,10.38,0,0,0,2.39-10.08A4.88,4.88,0,0,0,159.87,346.65Z"/><path class="cls-1" d="M40.89,216a2.72,2.72,0,0,0-.57-5,13.35,13.35,0,0,0-5.44-.21,13.41,13.41,0,0,0-5.27,1.37,2.71,2.71,0,0,0,.51,5,13.59,13.59,0,0,0,5.48.19A13.51,13.51,0,0,0,40.89,216Z"/><path class="cls-1" d="M137.61,348.12a3,3,0,0,0-1.89,2,2.88,2.88,0,0,0,.1,2.57,4.82,4.82,0,0,0,2.59,1.78l2,.72,2.23-6.12-1.51-.55A5.77,5.77,0,0,0,137.61,348.12Z"/><path class="cls-1" d="M35.71,201.58a2.65,2.65,0,0,0,1.47.45,4.69,4.69,0,0,0,3-1,3,3,0,0,0,1.19-2.49,2.91,2.91,0,0,0-1-2.35,4.28,4.28,0,0,0-2.84-.79,3.74,3.74,0,0,0-2.5.82,2.9,2.9,0,0,0-.88,2.35,3.87,3.87,0,0,0,.44,1.77A3.26,3.26,0,0,0,35.71,201.58Z"/><path class="cls-1" d="M215.72,43.55a2.62,2.62,0,0,0,2.69-1.31A13.32,13.32,0,0,0,219.9,37a13.44,13.44,0,0,0-.09-5.45,2.71,2.71,0,0,0-4.95-.68,13.62,13.62,0,0,0-1.48,5.28,13.5,13.5,0,0,0,.07,5.47A2.6,2.6,0,0,0,215.72,43.55Z"/><path class="cls-1" d="M69.57,95.6a8.31,8.31,0,0,0,4.84,2.33,5.62,5.62,0,0,0,5.33-6.18,8.33,8.33,0,0,0-3.06-4.44A8.34,8.34,0,0,0,71.87,85a4.81,4.81,0,0,0-4,1.93,4.92,4.92,0,0,0-1.34,4.27A8.23,8.23,0,0,0,69.57,95.6Z"/><path class="cls-1" d="M86.38,72.93A2.88,2.88,0,0,0,84,71.84a4.83,4.83,0,0,0-2.77,1.49l-1.54,1.43,4.42,4.78,1.18-1.09a5.76,5.76,0,0,0,2-2.92A3,3,0,0,0,86.38,72.93Z"/><path class="cls-1" d="M264.37,58.43a2.91,2.91,0,0,0,2.56.17,4.29,4.29,0,0,0,2-2.16,3.74,3.74,0,0,0,.42-2.59A2.91,2.91,0,0,0,267.66,52a3.87,3.87,0,0,0-1.77-.42,3.26,3.26,0,0,0-1.65.44,2.63,2.63,0,0,0-1.07,1.1,4.69,4.69,0,0,0-.47,3.13A3,3,0,0,0,264.37,58.43Z"/><path class="cls-1" d="M254.34,340.87a2.72,2.72,0,0,0-4.64,1.83,18.74,18.74,0,0,0,3.91,10,2.71,2.71,0,0,0,4.66-1.78,19.22,19.22,0,0,0-3.93-10.1Z"/><path class="cls-1" d="M250.77,52.41a2.62,2.62,0,0,0,2.93-.64A13.31,13.31,0,0,0,256.36,47a13.45,13.45,0,0,0,1.19-5.32,2.71,2.71,0,0,0-4.65-1.82,13.62,13.62,0,0,0-2.67,4.79A13.5,13.5,0,0,0,249,50,2.6,2.6,0,0,0,250.77,52.41Z"/><path class="cls-1" d="M32.31,162.53a13.58,13.58,0,0,0,5.12,1.94,13.53,13.53,0,0,0,5.45.42A2.72,2.72,0,0,0,43.94,160a13.34,13.34,0,0,0-5.08-1.94,13.43,13.43,0,0,0-5.44-.4,2.71,2.71,0,0,0-1.12,4.87Z"/><path class="cls-1" d="M195.5,8.5c-103.28,0-187,83.72-187,187s83.72,187,187,187,187-83.72,187-187S298.78,8.5,195.5,8.5ZM365.86,186.89l-14.39,9.55v.08l2.12-.17q1.83-.13,2.85-.17l9.7-.31.09,2.77-18.52.59-.12-3.71,14.47-9.57v-.1l-.82.09q-2.35.25-4.3.31l-9.63.31-.09-2.75,18.52-.59Zm-.71-9.22-2.53.36-1.06-7.37-5,.72,1,6.91-2.51.36-1-6.91-5.76.83,1.06,7.38-2.55.37-1.49-10.37,18.34-2.63Zm-4-22.14a8.07,8.07,0,0,1-.14,5.39,5.1,5.1,0,0,1-3.65,2.68,5.4,5.4,0,0,1-4.77-.79,8.37,8.37,0,0,1-2.79-4.89l-.46-1.87-6.73,1.65-.72-2.94,18-4.41Zm-17.46-23.66q4.3-1.61,7.39-.35a8.33,8.33,0,0,1,4.56,5.19,8.17,8.17,0,0,1-.1,6.86q-1.55,3-5.8,4.57a10.13,10.13,0,0,1-7.38.34,9.5,9.5,0,0,1-4.52-12Q339.37,133.48,343.67,131.87Zm-6.13-17.77a5,5,0,1,1-5-5A5,5,0,0,1,337.54,114.1Zm-7-21.9-2,1.68-4.44-5.42L320.28,91l.82.73a10.06,10.06,0,0,1,1.07,1.15,6.35,6.35,0,0,1,1.66,4.37,5.19,5.19,0,0,1-2.09,3.83,5.91,5.91,0,0,1-4.76,1.5,7.64,7.64,0,0,1-4.63-3A10,10,0,0,1,310,95.16l2.09-1.71a9,9,0,0,0,.8,2.39A10.68,10.68,0,0,0,314.24,98a4.59,4.59,0,0,0,2.64,1.8,3.28,3.28,0,0,0,2.71-.86q2.57-2.1-.11-5.38a10.88,10.88,0,0,0-1-1.06q-.65-.6-1.18-1L317,89.93l7.45-5.18ZM309.86,75.64l6.88.86,1.75,1.76-13.17,13-2.09-2.12,8.5-8.42q1.52-1.51,2.48-2.32-.42,0-1,0T309.57,78ZM299.93,64.1a5.87,5.87,0,0,1,7.17,6.13q-.34,2.89-3.34,6.49T298,81.23a5.86,5.86,0,0,1-7.19-6.11q.33-2.88,3.33-6.47Q297.25,64.89,299.93,64.1Zm-22.29,1.58,6.66-1.25a40.41,40.41,0,0,0,4.05-.94,7.39,7.39,0,0,0,1.8-.83,4.59,4.59,0,0,0,1.23-1.23,2.61,2.61,0,0,0,.5-2.06,2.89,2.89,0,0,0-1.31-1.77,5.56,5.56,0,0,0-1.92-.84,9.66,9.66,0,0,0-2.7-.13l-.21-2.53a10.37,10.37,0,0,1,3.52.18,8.83,8.83,0,0,1,2.87,1.31A6.11,6.11,0,0,1,294.77,59a4.56,4.56,0,0,1-.77,3.88,6.39,6.39,0,0,1-1.72,1.71,9.7,9.7,0,0,1-2.46,1.13,31.62,31.62,0,0,1-4.39.91l-4.42.75-.07.11,7.25,5-1.49,2.16-10.35-7.11Zm-3.75-21a11.07,11.07,0,0,1,2,1.24l-1.11,2.22a8,8,0,0,0-1.87-1.24,5.84,5.84,0,0,0-4.72-.56q-2,.76-3.73,3.86l.14.07a4.09,4.09,0,0,1,2.21-.68,5.4,5.4,0,0,1,2.52.62,5,5,0,0,1,2.83,3.13,6,6,0,0,1-.61,4.38,6.37,6.37,0,0,1-3.51,3.4,5.88,5.88,0,0,1-4.73-.46,6.19,6.19,0,0,1-2.67-2.4,6.1,6.1,0,0,1-.78-3.5,11.05,11.05,0,0,1,1.25-4.3Q266,40.72,273.89,44.66ZM275,65a2,2,0,0,1-1.14,1,2.13,2.13,0,0,1-2.41-1.41,2,2,0,0,1,.31-1.48,2,2,0,0,1,1.14-1,1.86,1.86,0,0,1,1.45.28,1.84,1.84,0,0,1,1,1.16A2,2,0,0,1,275,65ZM247.42,43.6q1.76-4.58,4-6.19a5.87,5.87,0,0,1,8.77,3.48q.62,2.84-1.06,7.22t-4,6.14a5.86,5.86,0,0,1-8.78-3.45Q245.75,48,247.42,43.6ZM238.57,49a2,2,0,0,1,.87-1.22,1.86,1.86,0,0,1,1.48-.07,1.84,1.84,0,0,1,1.2.9,2,2,0,0,1,.05,1.48,2,2,0,0,1-.88,1.22,2.13,2.13,0,0,1-2.67-.81A2,2,0,0,1,238.57,49Zm-4.86-18.74,2.42.55L232,48.85l-2.9-.66,2.67-11.66q.48-2.09.85-3.29-.35.23-.85.5t-3.29,1.64l-1-2.17ZM210.4,35.76q.64-4.86,2.48-7a5.87,5.87,0,0,1,9.34,1.33q1.27,2.62.66,7.27t-2.47,6.91a5.86,5.86,0,0,1-9.34-1.3Q209.8,40.4,210.4,35.76Zm-10.13-9.84v2.56l-7.45,0,0,5,7,0v2.53l-7,0,0,5.82,7.45,0v2.57l-10.48.05L189.8,26Zm-27.65,5.7a7.56,7.56,0,0,1,2.7-3.62,9.27,9.27,0,0,1,4.56-1.63,11.65,11.65,0,0,1,5.34.64l-.82,2.62a16.35,16.35,0,0,0-2.05-.57,7.13,7.13,0,0,0-2.22-.11,5,5,0,0,0-3.89,2.26,7.9,7.9,0,0,0-1,5.23,8,8,0,0,0,2,5,5.08,5.08,0,0,0,4.32,1.31,10.93,10.93,0,0,0,2.24-.47q1.07-.35,2.22-.83l.27,2.58a13.87,13.87,0,0,1-4.83,1.33A7.9,7.9,0,0,1,175,43.54q-2.42-2.23-2.89-6.79A11.38,11.38,0,0,1,172.62,31.62ZM154.06,31l12.09,12.33.07,0q-.09-.28-.56-2t-.7-2.77L162.82,29l2.71-.61,4.07,18.07-3.62.82-12.13-12.4-.1,0,.24.79q.69,2.26,1.12,4.17l2.11,9.39-2.68.6-4.07-18.07Zm-9.48,2.71,5.69,17.63-2.88.93L141.7,34.62Zm-16.12,7.07a6.84,6.84,0,0,1,3.6-2.89,13,13,0,0,1,5.35-.9l0,2.65a11.57,11.57,0,0,0-4.48.69,3.39,3.39,0,0,0-1.83,1.43,2.1,2.1,0,0,0-.07,1.85,2.39,2.39,0,0,0,.74,1,3.11,3.11,0,0,0,1.29.52,16.85,16.85,0,0,0,2.78.18,13.74,13.74,0,0,1,3.37.35,4.66,4.66,0,0,1,1.91,1,5,5,0,0,1,1.23,1.85,4.66,4.66,0,0,1-.21,4.27,7.77,7.77,0,0,1-4,3.15A11.74,11.74,0,0,1,133,57l-1.07-2.65a14.12,14.12,0,0,0,2.85-.14,11.4,11.4,0,0,0,2.59-.68,4.22,4.22,0,0,0,2.21-1.63,2.23,2.23,0,0,0,.11-2,2.31,2.31,0,0,0-1.39-1.34,11.83,11.83,0,0,0-3.65-.37,8.59,8.59,0,0,1-4.19-.83,5,5,0,0,1-2.15-2.55A4.44,4.44,0,0,1,128.46,40.76ZM104.85,52l15.33,8,.06,0q-.17-.24-1.17-1.77t-1.53-2.42l-5-8.33L114.95,46l9.49,15.91-3.19,1.9-15.39-8-.09.05.48.68q1.36,1.93,2.36,3.61l4.93,8.27-2.36,1.41-9.49-15.91Zm-7.72,5.1,1.55,2-5.94,4.5,3,4,5.56-4.22,1.53,2-5.56,4.22,3.51,4.63,5.94-4.5,1.55,2L100,78.18,88.77,63.42ZM79.71,71.33a8.07,8.07,0,0,1,4.78-2.49,5.1,5.1,0,0,1,4.11,1.9,5.41,5.41,0,0,1,1.62,4.56A8.38,8.38,0,0,1,87.3,80.1l-1.42,1.31,4.7,5.09-2.22,2.06L75.79,74.95ZM65.92,85.22A8.16,8.16,0,0,1,72,82q3.36-.08,6.81,2.87a10.13,10.13,0,0,1,3.86,6.3,9.51,9.51,0,0,1-8.36,9.76q-3.35.09-6.83-2.9t-3.87-6.31A8.33,8.33,0,0,1,65.92,85.22ZM195.5,61.5a134,134,0,1,1-134,134A134,134,0,0,1,195.5,61.5Zm109,245.23a1.86,1.86,0,0,1-.66,1.33,1.84,1.84,0,0,1-1.37.61,2,2,0,0,1-1.32-.67,2,2,0,0,1-.64-1.36,2.13,2.13,0,0,1,2-2,2,2,0,0,1,1.34.69A2,2,0,0,1,304.5,306.73Zm-28.66,22.36a1.86,1.86,0,0,1-.95,1.14,1.84,1.84,0,0,1-1.47.28,2,2,0,0,1-1.13-1,2,2,0,0,1-.31-1.47,2.13,2.13,0,0,1,2.4-1.43,2,2,0,0,1,1.15,1A2,2,0,0,1,275.84,329.09Zm-222.3-223a5,5,0,1,1-5,5A5,5,0,0,1,53.54,106.1ZM41,124.17l2.43,1.05-2.79,6.43,4,2.21.27-1.06a10.19,10.19,0,0,1,.53-1.48,6.35,6.35,0,0,1,3.13-3.48A5.19,5.19,0,0,1,53,128a5.91,5.91,0,0,1,3.51,3.55,7.64,7.64,0,0,1-.57,5.5A10,10,0,0,1,53,141.08L50.55,140a8.89,8.89,0,0,0,1.76-1.8,10.75,10.75,0,0,0,1.28-2.14,4.59,4.59,0,0,0,.4-3.17,3.28,3.28,0,0,0-2-2q-3-1.32-4.73,2.56a11.22,11.22,0,0,0-.48,1.4q-.24.85-.36,1.51l-1.25.91-8-4.26Zm-6.87,17.15L51.75,147l-.92,2.83-11.38-3.7q-2-.66-3.2-1.15.2.37.42.89T38,149.35l-2.26.84-2.39-6.5Zm-5.31,17.89a5.26,5.26,0,0,1,3.4-4.06q2.72-1,7.3,0t6.66,3.07a5.86,5.86,0,0,1-2.12,9.19q-2.71,1-7.27,0-4.79-1.06-6.72-3.08A5.3,5.3,0,0,1,28.82,159.21Zm17.26,65.87a2,2,0,0,1-1.32.73,2,2,0,0,1-1.48-.22,2.2,2.2,0,0,1-.48-2.76,2,2,0,0,1,1.29-.72,2,2,0,0,1,1.49.23,2.13,2.13,0,0,1,.5,2.75Zm-20-49.87a6.11,6.11,0,0,1,1.85-3.94,4.55,4.55,0,0,1,3.8-1.1,6.37,6.37,0,0,1,2.31.74,9.68,9.68,0,0,1,2.14,1.66A31.88,31.88,0,0,1,39,176l2.69,3.58.13,0,1.09-8.73,2.6.32L44,183.69l-2.24-.28-4.17-5.33a40.06,40.06,0,0,0-2.7-3.16,7.28,7.28,0,0,0-1.57-1.21,4.57,4.57,0,0,0-1.66-.53,2.61,2.61,0,0,0-2.06.5,2.89,2.89,0,0,0-1,2,5.55,5.55,0,0,0,.14,2.09,9.62,9.62,0,0,0,1.12,2.46l-2.15,1.35a10.39,10.39,0,0,1-1.46-3.21A8.79,8.79,0,0,1,26.08,175.2Zm18.07,12.9a1.81,1.81,0,0,1-.59,1.36,2,2,0,0,1-1.46.4,2,2,0,0,1-1.39-.56,1.86,1.86,0,0,1-.42-1.42,1.84,1.84,0,0,1,.59-1.38,2,2,0,0,1,1.42-.4,2,2,0,0,1,1.4.57A1.81,1.81,0,0,1,44.15,188.11ZM24.95,194l2.48,0a8.06,8.06,0,0,0-.25,2.23,5.84,5.84,0,0,0,1.66,4.45q1.62,1.47,5.14,1.55V202a4.08,4.08,0,0,1-1.61-1.65,5.4,5.4,0,0,1-.6-2.53,5,5,0,0,1,1.49-4,6,6,0,0,1,4.17-1.47A6.37,6.37,0,0,1,42.06,194a5.88,5.88,0,0,1,1.76,4.42,6.2,6.2,0,0,1-.91,3.47,6.11,6.11,0,0,1-2.76,2.3,11.06,11.06,0,0,1-4.39.85q-10.87.16-11-8.7A11,11,0,0,1,24.95,194Zm.8,21.17a5.26,5.26,0,0,1,1.91-4.94q2.24-1.85,6.91-2.36t7.3.77a5.86,5.86,0,0,1,.95,9.39q-2.23,1.85-6.88,2.36-4.87.53-7.35-.76A5.3,5.3,0,0,1,25.75,215.17Zm3.94,21.1,18-4.57.74,2.88-11.59,3q-2.07.53-3.32.74.37.21.83.53t3,2.18l-1.46,1.92-5.5-4.22Zm8.85,21.61A5.87,5.87,0,0,1,35.45,249q1.75-2.33,6.16-3.91t7.27-1A5.86,5.86,0,0,1,52,253q-1.74,2.32-6.14,3.9Q41.25,258.55,38.54,257.87Zm3.21,12.53L44,269.22l3.46,6.6,4.47-2.34L48.7,267.3l2.25-1.17,3.24,6.18,5.15-2.7L55.88,263l2.28-1.19L63,271.1l-16.41,8.59Zm13.34,21.24a9.27,9.27,0,0,1-3.55-3.3,11.67,11.67,0,0,1-1.88-5l2.71-.47a16.3,16.3,0,0,0,.44,2.09,7.14,7.14,0,0,0,.93,2,5,5,0,0,0,3.8,2.42,7.91,7.91,0,0,0,5.09-1.56,8,8,0,0,0,3.52-4,5.08,5.08,0,0,0-.82-4.44,11,11,0,0,0-1.45-1.78q-.8-.79-1.76-1.59l2.17-1.42a13.88,13.88,0,0,1,3.4,3.68,7.9,7.9,0,0,1,1.37,6.58q-.86,3.17-4.7,5.69a11.39,11.39,0,0,1-4.81,1.89A7.55,7.55,0,0,1,55.09,291.64Zm12.4,17.5,5.41-16.4,0-.06-1.56,1.44q-1.35,1.23-2.14,1.89l-7.44,6.24-1.78-2.13,14.19-11.91,2.39,2.84-5.45,16.47.06.08.59-.58q1.69-1.65,3.19-2.9l7.38-6.19L84,300,69.85,312Zm6.74,7.17L87.3,303.18l2.15,2.13L76.38,318.45Zm22.71-.67a11.45,11.45,0,0,0-1.79-2,4.21,4.21,0,0,0-2.46-1.22,2.23,2.23,0,0,0-1.85.83,2.31,2.31,0,0,0-.56,1.85,11.82,11.82,0,0,0,1.34,3.42,8.58,8.58,0,0,1,1.17,4.11,5,5,0,0,1-1.28,3.08,4.44,4.44,0,0,1-3.63,1.68,6.83,6.83,0,0,1-4.22-1.88,13,13,0,0,1-3.25-4.34l2.34-1.24a11.59,11.59,0,0,0,2.66,3.67,3.38,3.38,0,0,0,2.11,1,2.1,2.1,0,0,0,1.68-.78,2.38,2.38,0,0,0,.58-1.13,3.12,3.12,0,0,0-.12-1.39,16.87,16.87,0,0,0-1.11-2.55,13.73,13.73,0,0,1-1.23-3.15,4.65,4.65,0,0,1,0-2.17,5,5,0,0,1,1.09-1.94,4.66,4.66,0,0,1,3.89-1.77A7.78,7.78,0,0,1,97,311.85a11.77,11.77,0,0,1,3.26,4.1l-1.87,2.17A14,14,0,0,0,96.94,315.65Zm11.72,27.63.08-17.27-.06,0q-.13.26-1,1.85t-1.45,2.46L101,338.52,98.69,337l9.82-15.71,3.15,2-.1,17.35.09.05L112,340q1.1-2.09,2.13-3.75l5.11-8.17,2.33,1.46-9.82,15.71Zm8.06,4.54,1.11-2.31,6.72,3.22,2.18-4.55-6.29-3,1.1-2.28,6.29,3,2.52-5.24-6.72-3.22,1.11-2.32,9.45,4.53-8,16.7Zm25.64,10.8-5-1.83a8.07,8.07,0,0,1-4.4-3.11,5.1,5.1,0,0,1-.19-4.52,5.4,5.4,0,0,1,3.31-3.53,8.37,8.37,0,0,1,5.61.4l1.81.66,2.37-6.51,2.85,1Zm24.36-3.18q-1.06,4.46-3.82,6.34a8.34,8.34,0,0,1-6.85.91,8.17,8.17,0,0,1-5.64-3.9q-1.62-2.95-.58-7.36a10.13,10.13,0,0,1,3.82-6.32A9.5,9.5,0,0,1,166.16,348Q167.78,351,166.72,355.44Zm23.82,9.66a5,5,0,1,1,5-5A5,5,0,0,1,190.54,365.1Zm31,0-.47-2.6,6.89-1.26-.41-4.59-1,.37a10.34,10.34,0,0,1-1.52.38,6.36,6.36,0,0,1-4.63-.66,5.19,5.19,0,0,1-2.33-3.69,5.9,5.9,0,0,1,1-4.89,7.63,7.63,0,0,1,4.89-2.59,10,10,0,0,1,5,.11l.48,2.66a9,9,0,0,0-2.48-.46,10.79,10.79,0,0,0-2.49.13,4.6,4.6,0,0,0-2.86,1.43,3.27,3.27,0,0,0-.56,2.78q.6,3.27,4.76,2.51a11.25,11.25,0,0,0,1.42-.38q.84-.28,1.46-.54l1.45.53.92,9ZM242,360.58l-2.39.68-5-17.83,2.87-.81,3.25,11.51q.58,2.06.83,3.29.2-.37.51-.84t2.1-3l2,1.41Zm19-8.75a5.86,5.86,0,0,1-8.83,3.32q-2.37-1.69-4.07-6.06T247,341.85a5.86,5.86,0,0,1,8.82-3.35q2.37,1.68,4.06,6Q261.62,349.11,261,351.83Zm13.78-4.62a8.79,8.79,0,0,1-2.53,1.88,6.11,6.11,0,0,1-4.31.66,4.56,4.56,0,0,1-3-2.54,6.38,6.38,0,0,1-.67-2.33,9.69,9.69,0,0,1,.19-2.7,31.55,31.55,0,0,1,1.31-4.29l1.47-4.23-.06-.11-7.86,4-1.18-2.34,11.22-5.64,1,2L268.27,338a40.81,40.81,0,0,0-1.13,4,7.37,7.37,0,0,0-.13,2,4.6,4.6,0,0,0,.49,1.67,2.61,2.61,0,0,0,1.56,1.43,2.89,2.89,0,0,0,2.19-.29,5.55,5.55,0,0,0,1.66-1.28,9.69,9.69,0,0,0,1.42-2.3l2.32,1A10.4,10.4,0,0,1,274.79,347.21Zm15.8-8.83a11,11,0,0,1-2.06,1.17l-1.41-2a8.1,8.1,0,0,0,2-1,5.85,5.85,0,0,0,2.77-3.86q.32-2.17-1.58-5.13l-.12.09a4.07,4.07,0,0,1-.47,2.26,5.39,5.39,0,0,1-1.76,1.91,5,5,0,0,1-4.11,1,6,6,0,0,1-3.55-2.64,6.36,6.36,0,0,1-1.29-4.71,5.87,5.87,0,0,1,2.69-3.92,6.19,6.19,0,0,1,3.39-1.18,6.1,6.1,0,0,1,3.45,1,11,11,0,0,1,3.16,3.17Q297.87,333.33,290.59,338.38Zm15-11.3a5.26,5.26,0,0,1-5.16,1.17q-2.79-.83-5.81-4.42t-3.44-6.48a5.86,5.86,0,0,1,7.26-6q2.78.82,5.8,4.39,3.16,3.75,3.47,6.53A5.3,5.3,0,0,1,305.64,327.08Zm17-16.88L321,312.05l-13.8-12.36,2-2.22,8.91,8q1.59,1.43,2.46,2.34c0-.28,0-.61,0-1s.06-1.6.16-3.68l2.4.15ZM333,297.88a5.26,5.26,0,0,1-4.75,2.33q-2.91-.16-6.68-2.95t-4.85-5.51a5.86,5.86,0,0,1,5.67-7.54q2.9.16,6.66,2.93,3.94,2.91,4.89,5.55A5.3,5.3,0,0,1,333,297.88ZM342.6,283l-2.25-1.23,3.57-6.54-4.43-2.42L336.16,279l-2.22-1.21,3.34-6.13-5.11-2.79-3.57,6.54-2.26-1.23,5-9.2,16.26,8.87Zm9.47-18.11a11.68,11.68,0,0,1-3.14,4.37l-1.9-2a16.58,16.58,0,0,0,1.49-1.52,7.15,7.15,0,0,0,1.17-1.89,5,5,0,0,0-.1-4.5,9.71,9.71,0,0,0-9.43-4.05,5.08,5.08,0,0,0-3.23,3.15,10.9,10.9,0,0,0-.67,2.19q-.21,1.11-.34,2.35l-2.39-1a13.89,13.89,0,0,1,1.17-4.87,7.9,7.9,0,0,1,4.7-4.79q3.12-1,7.34.74A11.4,11.4,0,0,1,351,256a7.55,7.55,0,0,1,1.87,4.11A9.26,9.26,0,0,1,352.08,264.93Zm8.41-24.83-16.63,4.64,0,.07,2.07.49q1.78.44,2.77.72l9.32,2.7-.77,2.67-17.79-5.15,1-3.57L357.17,238l0-.1-.81-.17q-2.31-.48-4.19-1L343,234.06l.76-2.64,17.8,5.15Zm2.19-9.6L344.49,227l.57-3,18.19,3.52Zm2.38-13a13,13,0,0,1-1.79,5.12l-2.34-1.25a11.59,11.59,0,0,0,1.56-4.25,3.38,3.38,0,0,0-.37-2.29,2.1,2.1,0,0,0-1.59-1,2.38,2.38,0,0,0-1.26.15,3.1,3.1,0,0,0-1.08.88,16.88,16.88,0,0,0-1.5,2.35,13.75,13.75,0,0,1-1.93,2.78,4.66,4.66,0,0,1-1.81,1.19,5,5,0,0,1-2.22.18,4.66,4.66,0,0,1-3.64-2.24,7.78,7.78,0,0,1-.81-5.06,11.76,11.76,0,0,1,1.58-5l2.84.34a14,14,0,0,0-1.25,2.56,11.4,11.4,0,0,0-.66,2.6,4.22,4.22,0,0,0,.36,2.72,2.23,2.23,0,0,0,1.72,1.07,2.3,2.3,0,0,0,1.84-.57,11.8,11.8,0,0,0,2.09-3,8.58,8.58,0,0,1,2.76-3.27,5,5,0,0,1,3.27-.65,4.44,4.44,0,0,1,3.43,2.07A6.83,6.83,0,0,1,365.06,217.49Z"/><path class="cls-1" d="M302,317.67A13.48,13.48,0,0,0,297.9,314a2.72,2.72,0,0,0-3.8,3.24,18.71,18.71,0,0,0,6.95,8.24,2.71,2.71,0,0,0,3.84-3.19A13.6,13.6,0,0,0,302,317.67Z"/><path class="cls-1" d="M327.28,289.57a13.49,13.49,0,0,0-4.81-2.59,2.72,2.72,0,0,0-2.95,4,18.75,18.75,0,0,0,8.67,6.4,2.71,2.71,0,0,0,3-4A13.59,13.59,0,0,0,327.28,289.57Z"/><path class="cls-1" d="M285.86,323a3,3,0,0,0-2.73.41,2.91,2.91,0,0,0-1.38,2.16,4.28,4.28,0,0,0,.93,2.8,3.74,3.74,0,0,0,2.07,1.62,2.91,2.91,0,0,0,2.44-.58,3.87,3.87,0,0,0,1.22-1.35,3.27,3.27,0,0,0,.41-1.66,2.64,2.64,0,0,0-.45-1.47A4.69,4.69,0,0,0,285.86,323Z"/><path class="cls-1" d="M195.5,0C87.7,0,0,87.7,0,195.5S87.7,391,195.5,391,391,303.3,391,195.5,303.3,0,195.5,0Zm0,387C89.91,387,4,301.09,4,195.5S89.91,4,195.5,4,387,89.91,387,195.5,301.09,387,195.5,387Z"/><path class="cls-1" d="M119.8,194.75q-2.27,2.93-9.66,10.5L93.5,222.07v9.75h46.35V220H111v-.64l8.53-8a122,122,0,0,0,11.91-12,33,33,0,0,0,5-8.23,22.88,22.88,0,0,0,1.61-8.59,16.87,16.87,0,0,0-2.63-9.34,17.52,17.52,0,0,0-7.39-6.35,25.26,25.26,0,0,0-11-2.27,36.06,36.06,0,0,0-8.53.93,29.84,29.84,0,0,0-7,2.65,49.77,49.77,0,0,0-8.12,5.9l7.62,9a38.63,38.63,0,0,1,7.57-5,16.89,16.89,0,0,1,7.48-1.77,8.53,8.53,0,0,1,5.87,2q2.2,2,2.2,5.94a13.81,13.81,0,0,1-1,5.17A23.1,23.1,0,0,1,119.8,194.75Z"/><path class="cls-1" d="M169.28,232.73q11.84,0,17.53-8.35t5.69-25.72q0-16.78-5.87-25.49t-17.35-8.71q-11.79,0-17.46,8.32t-5.67,25.88q0,16.83,5.83,25.44T169.28,232.73Zm-7.08-51.59q2.13-5.33,7.08-5.33t7.05,5.33q2.2,5.33,2.2,17.53t-2.18,17.42q-2.18,5.35-7.08,5.35t-7.1-5.28q-2.11-5.28-2.11-17.49T162.21,181.14Z"/><path class="cls-1" d="M215.68,184.84q1.36-1.09,4.85-4.58l-.23,6.89-.14,6.3v38.37h14V165.52H222.67l-21.36,17,6.76,8.44Z"/><path class="cls-1" d="M290.84,226.75q6.85-6,6.85-17.1,0-9.39-5.69-14.79t-15.31-5.4a31.25,31.25,0,0,0-6.85.63l-1.59.32,1.22-13h23.68V165.52h-36l-2.49,33.79,5.58,3a38.7,38.7,0,0,1,4.72-1,33,33,0,0,1,5.31-.48q13.29,0,13.29,10,0,10.52-12.84,10.52A40.26,40.26,0,0,1,253.37,217v12.11q6.8,3.58,17.87,3.58Q284,232.73,290.84,226.75Z"/></g></g></svg>