<svg xmlns="http://www.w3.org/2000/svg" viewBox="0 0 211 211"><defs><style>.cls-1{fill:none;}.cls-2{fill:#c49653;}</style></defs><title>2015</title><g id="Layer_2" data-name="Layer 2"><g id="Layer_1-2" data-name="Layer 1"><rect class="cls-1" width="211" height="211"/><g id="Layer_2-2" data-name="Layer 2"><g id="Layer_1-2-2" data-name="Layer 1-2"><path class="cls-2" d="M160.29,87a3.9,3.9,0,0,0,3.62-1.36A1.79,1.79,0,0,0,164,84a1.82,1.82,0,0,0-1.15-1.2,3.85,3.85,0,0,0-3.6,1.34,2.08,2.08,0,0,0,.95,2.79l.11,0Z"/><path class="cls-2" d="M142.18,62a1,1,0,0,0,1.11.13A6.94,6.94,0,0,0,145.86,59a1,1,0,0,0-1.41-1.2,7.1,7.1,0,0,0-2.58,3.08A1,1,0,0,0,142.18,62Z"/><path class="cls-2" d="M51.68,125.19a1,1,0,0,0-.89-.67,4.93,4.93,0,0,0-2,.4,5,5,0,0,0-1.78,1,1,1,0,0,0,.62,1.75,5.05,5.05,0,0,0,2-.41,5,5,0,0,0,1.79-.95A1,1,0,0,0,51.68,125.19Z"/><path class="cls-2" d="M164.2,92.39a1.11,1.11,0,0,0,1,.17A1.06,1.06,0,0,0,166,92a1.79,1.79,0,0,0,0-1.16l-.19-.74-2.35.57.14.58A2.14,2.14,0,0,0,164.2,92.39Z"/><path class="cls-2" d="M92.29,161.55a1.81,1.81,0,0,0-1.62.28,3.9,3.9,0,0,0-.89,3.75,1.79,1.79,0,0,0,1.32,1,1.82,1.82,0,0,0,1.64-.29,3.85,3.85,0,0,0,.89-3.74A1.81,1.81,0,0,0,92.29,161.55Z"/><path class="cls-2" d="M48.16,113.1a1,1,0,0,0-.21-1.85,5,5,0,0,0-2-.08,5,5,0,0,0-2,.51,1,1,0,0,0,.19,1.85,5,5,0,0,0,2,.07A5,5,0,0,0,48.16,113.1Z"/><path class="cls-2" d="M84,162.1a1.11,1.11,0,0,0-.7.74,1.07,1.07,0,0,0,0,1,1.79,1.79,0,0,0,1,.66l.74.27.83-2.27-.56-.2A2.14,2.14,0,0,0,84,162.1Z"/><path class="cls-2" d="M46.24,107.75a1,1,0,0,0,.55.17,1.74,1.74,0,0,0,1.11-.37,1.11,1.11,0,0,0,.44-.92,1.08,1.08,0,0,0-.37-.87,1.59,1.59,0,0,0-1.05-.29,1.39,1.39,0,0,0-.93.3,1.08,1.08,0,0,0-.33.87,1.44,1.44,0,0,0,.16.66A1.21,1.21,0,0,0,46.24,107.75Z"/><path class="cls-2" d="M113,49.15a1,1,0,0,0,1-.49,4.94,4.94,0,0,0,.55-1.94,5,5,0,0,0,0-2,1,1,0,0,0-1.84-.25,5.05,5.05,0,0,0-.55,2,5,5,0,0,0,0,2A1,1,0,0,0,113,49.15Z"/><path class="cls-2" d="M58.8,68.45a3.08,3.08,0,0,0,1.79.86,2.08,2.08,0,0,0,2-2.18s0-.08,0-.11a3.87,3.87,0,0,0-2.92-2.5,1.78,1.78,0,0,0-1.48.72,1.82,1.82,0,0,0-.5,1.58A3.05,3.05,0,0,0,58.8,68.45Z"/><path class="cls-2" d="M65,60a1.07,1.07,0,0,0-.88-.4,1.79,1.79,0,0,0-1,.55l-.57.53,1.64,1.77.44-.4A2.14,2.14,0,0,0,65.37,61,1.11,1.11,0,0,0,65,60Z"/><path class="cls-2" d="M131,54.67a1.08,1.08,0,0,0,.95.06,1.59,1.59,0,0,0,.74-.8,1.39,1.39,0,0,0,.16-1,1.08,1.08,0,0,0-.63-.69,1.44,1.44,0,0,0-.66-.16,1.21,1.21,0,0,0-.61.16,1,1,0,0,0-.4.41,1.74,1.74,0,0,0-.17,1.16A1.11,1.11,0,0,0,131,54.67Z"/><path class="cls-2" d="M127.32,159.41a1,1,0,0,0-1.72.68A7,7,0,0,0,127,163.8a1,1,0,0,0,1.73-.66,7.13,7.13,0,0,0-1.46-3.75Z"/><path class="cls-2" d="M126,52.44a1,1,0,0,0,1.09-.24,4.94,4.94,0,0,0,1-1.77,5,5,0,0,0,.44-2,1,1,0,0,0-1.72-.67,5.05,5.05,0,0,0-1,1.78,5,5,0,0,0-.46,2A1,1,0,0,0,126,52.44Z"/><path class="cls-2" d="M45,93.27a5,5,0,0,0,1.9.72,5,5,0,0,0,2,.16,1,1,0,0,0,.39-1.81,5,5,0,0,0-1.88-.72,5,5,0,0,0-2-.15A1,1,0,0,0,45,93.27Z"/><path class="cls-2" d="M105.5,36.15a69.35,69.35,0,1,0,69.35,69.35A69.35,69.35,0,0,0,105.5,36.15Zm63.18,66.15-5.34,3.54v0l.79-.06,1.06-.06,3.6-.11,0,1-6.87.22,0-1.38,5.37-3.55v0l-.3,0q-.87.09-1.59.11l-3.57.11,0-1,6.87-.22Zm-.26-3.42-.94.13-.39-2.73-1.85.27.37,2.56-.93.13-.37-2.56-2.14.31.39,2.74-.95.14L161.06,96l6.8-1Zm-1.48-8.21a3,3,0,0,1-.05,2,1.89,1.89,0,0,1-1.35,1,2,2,0,0,1-1.77-.29,3.1,3.1,0,0,1-1-1.81l-.17-.69-2.5.61-.27-1.09,6.68-1.64Zm-6.47-8.77a3.71,3.71,0,0,1,2.74-.13,3.09,3.09,0,0,1,1.69,1.92,3,3,0,0,1,0,2.54A4.48,4.48,0,0,1,160,88.06a3.52,3.52,0,0,1-1.68-4.45,3.75,3.75,0,0,1,2.16-1.71Zm-2.27-6.59a1.85,1.85,0,1,1-1.85-1.85,1.85,1.85,0,0,1,1.85,1.85Zm-2.6-8.12-.74.62-1.65-2-1.42.94.3.27a3.73,3.73,0,0,1,.4.43,2.35,2.35,0,0,1,.62,1.62,1.92,1.92,0,0,1-.78,1.42,2.19,2.19,0,0,1-1.77.56,2.83,2.83,0,0,1-1.72-1.11,3.71,3.71,0,0,1-.87-1.64l.78-.63a3.34,3.34,0,0,0,.3.89,4,4,0,0,0,.5.8,1.7,1.7,0,0,0,1,.67,1.22,1.22,0,0,0,1-.32q1-.78,0-2a4,4,0,0,0-.37-.39q-.24-.22-.44-.37l-.11-.58,2.76-1.92Zm-7.68-6.14,2.55.32.65.65-4.88,4.82-.78-.79,3.15-3.12q.56-.56.92-.86h-.37q-.22,0-1.35-.15Zm-3.68-4.28A2.18,2.18,0,0,1,146.89,59a4.86,4.86,0,0,1-1.24,2.41,5.05,5.05,0,0,1-2.14,1.67,2.17,2.17,0,0,1-2.67-2.27,6.37,6.37,0,0,1,3.38-4.09Zm-8.27.59,2.47-.46a15,15,0,0,0,1.5-.35,2.74,2.74,0,0,0,.67-.31,1.7,1.7,0,0,0,.46-.46,1,1,0,0,0,.19-.76,1.07,1.07,0,0,0-.49-.66A2.06,2.06,0,0,0,140,54a3.58,3.58,0,0,0-1,0l-.08-.94a3.85,3.85,0,0,1,1.31.07,3.27,3.27,0,0,1,1.06.49,2.27,2.27,0,0,1,1,1.26,1.69,1.69,0,0,1-.29,1.44,2.37,2.37,0,0,1-.64.63,3.6,3.6,0,0,1-.91.42,11.73,11.73,0,0,1-1.63.34l-1.64.28,0,0,2.69,1.85-.55.8L135.48,58Zm-1.39-7.79a4.11,4.11,0,0,1,.74.46l-.41.82a3,3,0,0,0-.69-.46,2.17,2.17,0,0,0-1.75-.21,3,3,0,0,0-1.38,1.43l.05,0a1.52,1.52,0,0,1,.82-.25,2,2,0,0,1,.93.23,1.85,1.85,0,0,1,1,1.16,2.23,2.23,0,0,1-.23,1.62,2.36,2.36,0,0,1-1.3,1.26,2.18,2.18,0,0,1-1.75-.17,2.3,2.3,0,0,1-1-.89,2.26,2.26,0,0,1-.29-1.3,4.1,4.1,0,0,1,.46-1.59q1.81-3.61,4.74-2.15ZM135,57.1a.74.74,0,0,1-.42.37.79.79,0,0,1-.89-.52.89.89,0,0,1,.54-.92.69.69,0,0,1,.54.1.68.68,0,0,1,.37.43A.74.74,0,0,1,135,57.1Zm-10.23-7.94a5,5,0,0,1,1.48-2.3,2.18,2.18,0,0,1,3.25,1.29,4.83,4.83,0,0,1-.39,2.68,5.08,5.08,0,0,1-1.48,2.28,2.17,2.17,0,0,1-3.26-1.28A4.9,4.9,0,0,1,124.75,49.17Zm-3.28,2a.74.74,0,0,1,.32-.45.69.69,0,0,1,.55,0,.68.68,0,0,1,.45.33.86.86,0,0,1-.31,1,.79.79,0,0,1-1-.3A.74.74,0,0,1,121.47,51.17Zm-1.8-6.95.9.2L119,51.12,118,50.87l1-4.32q.18-.78.32-1.22l-.32.19-1.22.61-.37-.8Zm-8.64,2a5,5,0,0,1,.92-2.6,2.18,2.18,0,0,1,3.46.49,4.83,4.83,0,0,1,.24,2.7,5.06,5.06,0,0,1-.92,2.56,2.17,2.17,0,0,1-3.46-.48A4.75,4.75,0,0,1,111,46.26Zm-3.76-3.65v.95h-2.76v1.85h2.6v.94h-2.6v2.16h2.76v1l-3.89,0V42.64ZM97,44.73a2.8,2.8,0,0,1,1-1.34,3.44,3.44,0,0,1,1.69-.6,4.32,4.32,0,0,1,2,.24l-.3,1a6.06,6.06,0,0,0-.76-.21,2.64,2.64,0,0,0-.82,0,1.85,1.85,0,0,0-1.44.84A2.93,2.93,0,0,0,98,46.51a3,3,0,0,0,.74,1.85,1.88,1.88,0,0,0,1.6.49,4.05,4.05,0,0,0,.83-.17q.4-.13.82-.31l.1,1a5.14,5.14,0,0,1-1.79.49,2.93,2.93,0,0,1-2.4-.67,3.83,3.83,0,0,1-1.07-2.52A4.22,4.22,0,0,1,97,44.73Zm-6.88-.23,4.48,4.57h0q0-.1-.21-.74t-.26-1l-.79-3.55,1-.23,1.51,6.7-1.34.3-4.5-4.6h0l.09.29q.26.84.42,1.55l.78,3.48-1,.22-1.51-6.7Zm-3.52,1L88.73,52l-1.07.34-2.11-6.55Zm-6,2.62A2.54,2.54,0,0,1,82,47.05a4.82,4.82,0,0,1,2-.33v1A4.29,4.29,0,0,0,82.3,48a1.26,1.26,0,0,0-.68.53.78.78,0,0,0,0,.69.89.89,0,0,0,.27.37,1.15,1.15,0,0,0,.48.19,6.25,6.25,0,0,0,1,.07,5.1,5.1,0,0,1,1.25.13,1.73,1.73,0,0,1,.71.37,1.85,1.85,0,0,1,.46.69,1.73,1.73,0,0,1-.08,1.58,2.88,2.88,0,0,1-1.48,1.17,4.35,4.35,0,0,1-1.91.4l-.4-1A5.24,5.24,0,0,0,83,53.1a4.23,4.23,0,0,0,1-.25,1.56,1.56,0,0,0,.82-.6.83.83,0,0,0,0-.74.86.86,0,0,0-.52-.5,4.39,4.39,0,0,0-1.35-.14,3.19,3.19,0,0,1-1.55-.31,1.85,1.85,0,0,1-.8-.95,1.65,1.65,0,0,1,.06-1.5Zm-8.76,4.16,5.69,3h0l-.43-.66q-.37-.57-.57-.9l-1.85-3.09.89-.55L79.15,56l-1.18.7-5.71-3,0,0,.18.25q.5.72.88,1.34l1.83,3.07-.88.52L70.71,53ZM69,54.18l.57.74-2.2,1.67,1.11,1.48,2.06-1.56.57.74-2.06,1.56,1.3,1.72,2.2-1.67.57.74L70.08,62l-4.16-5.47Zm-6.46,5.28a3,3,0,0,1,1.77-.92,1.89,1.89,0,0,1,1.52.7,2,2,0,0,1,.6,1.69,3.11,3.11,0,0,1-1.08,1.78l-.53.49,1.74,1.89-.82.76-4.66-5ZM57.45,64.6a3,3,0,0,1,2.25-1.19,4.48,4.48,0,0,1,4,3.4,3.53,3.53,0,0,1-3.1,3.62A3.77,3.77,0,0,1,58,69.35,3.72,3.72,0,0,1,56.59,67,3.09,3.09,0,0,1,57.45,64.6Zm48.05-8.8A49.69,49.69,0,1,1,55.81,105.5,49.69,49.69,0,0,1,105.5,55.81Zm40.42,90.94a.69.69,0,0,1-.24.49.68.68,0,0,1-.51.23.85.85,0,0,1-.73-.75.79.79,0,0,1,.74-.74.87.87,0,0,1,.74.78ZM135.29,155a.69.69,0,0,1-.35.42.68.68,0,0,1-.55.1.89.89,0,0,1-.53-.92.79.79,0,0,1,.89-.53.88.88,0,0,1,.54.92ZM52.85,72.34A1.85,1.85,0,1,1,51,74.2a1.85,1.85,0,0,1,1.85-1.85ZM48.2,79l.9.39-1,2.38,1.48.82.1-.39a3.78,3.78,0,0,1,.2-.55A2.35,2.35,0,0,1,51,80.41a1.92,1.92,0,0,1,1.64.06A2.19,2.19,0,0,1,54,81.78a2.83,2.83,0,0,1-.21,2,3.71,3.71,0,0,1-1.09,1.49l-.91-.4a3.3,3.3,0,0,0,.65-.67,4,4,0,0,0,.47-.79A1.7,1.7,0,0,0,53,82.28a1.22,1.22,0,0,0-.74-.74q-1.11-.49-1.75.95a4.16,4.16,0,0,0-.18.52q-.09.32-.13.56l-.46.34-3-1.58Zm-2.55,6.36,6.53,2.11-.34,1-4.22-1.37q-.74-.24-1.19-.43.07.14.16.33t.49,1.29l-.84.31-.89-2.41Zm-2,6.63a2,2,0,0,1,1.26-1.51,5,5,0,0,1,2.71,0,5,5,0,0,1,2.47,1.14,2.17,2.17,0,0,1-.79,3.41,4.92,4.92,0,0,1-2.7,0,4.9,4.9,0,0,1-2.49-1.14,2,2,0,0,1-.46-1.9Zm6.4,24.43a.87.87,0,0,1-1,.19.82.82,0,0,1-.18-1,.85.85,0,0,1,1-.18.79.79,0,0,1,.19,1ZM42.67,98a2.27,2.27,0,0,1,.69-1.46,1.69,1.69,0,0,1,1.41-.41,2.36,2.36,0,0,1,.86.27,3.59,3.59,0,0,1,.79.62,11.82,11.82,0,0,1,1,1.27l1,1.33h0l.4-3.24,1,.12-.56,4.64-.83-.1-1.55-2a14.86,14.86,0,0,0-1-1.17,2.7,2.7,0,0,0-.58-.45,1.69,1.69,0,0,0-.62-.2,1,1,0,0,0-.76.19,1.07,1.07,0,0,0-.37.74,2.06,2.06,0,0,0,.05.78,3.57,3.57,0,0,0,.42.91l-.8.5a3.85,3.85,0,0,1-.54-1.19A3.26,3.26,0,0,1,42.67,98Zm6.7,4.78a.67.67,0,0,1-.22.5.87.87,0,0,1-1.06-.06.69.69,0,0,1-.16-.53.68.68,0,0,1,.22-.51.85.85,0,0,1,1,.06.67.67,0,0,1,.17.53Zm-7.12,2.18h.92a3,3,0,0,0-.09.83,2.17,2.17,0,0,0,.62,1.65,2.88,2.88,0,0,0,1.91.57v-.09a1.51,1.51,0,0,1-.6-.61,2,2,0,0,1-.22-.94,1.85,1.85,0,0,1,.55-1.48,2.23,2.23,0,0,1,1.55-.55,2.36,2.36,0,0,1,1.72.61,2.18,2.18,0,0,1,.65,1.64,2.3,2.3,0,0,1-.34,1.29,2.27,2.27,0,0,1-1,.85,4.1,4.1,0,0,1-1.63.32q-4,.06-4.08-3.23A4.08,4.08,0,0,1,42.25,104.94Zm.3,7.85a2,2,0,0,1,.71-1.83,4.83,4.83,0,0,1,2.56-.88,5,5,0,0,1,2.71.29,2.17,2.17,0,0,1,.35,3.48,4.8,4.8,0,0,1-2.55.88,4.92,4.92,0,0,1-2.73-.28A2,2,0,0,1,42.55,112.79ZM44,120.62l6.68-1.69L51,120l-4.3,1.11q-.77.2-1.23.27l.31.2,1.11.81-.54.71-2-1.56Zm3.28,8a2.18,2.18,0,0,1-1.15-3.29,4.82,4.82,0,0,1,2.28-1.45,5.19,5.19,0,0,1,2.7-.37,2.17,2.17,0,0,1,1.16,3.3A4.8,4.8,0,0,1,50,128.27a4.9,4.9,0,0,1-2.71.36Zm1.19,4.65.83-.44,1.28,2.45,1.66-.87-1.2-2.29.83-.43L53.1,134,55,133l-1.28-2.45.85-.44,1.79,3.45-6.09,3.19Zm4.95,7.88a3.44,3.44,0,0,1-1.32-1.22,4.33,4.33,0,0,1-.7-1.85l1-.17a6,6,0,0,0,.16.78,2.65,2.65,0,0,0,.34.74,1.85,1.85,0,0,0,1.41.9,2.93,2.93,0,0,0,1.89-.58,3,3,0,0,0,1.31-1.48,1.88,1.88,0,0,0-.3-1.65,4.08,4.08,0,0,0-.54-.66q-.3-.29-.65-.59l.8-.53a5.15,5.15,0,0,1,1.26,1.36,2.93,2.93,0,0,1,.51,2.44,3.82,3.82,0,0,1-1.74,2.11,4.22,4.22,0,0,1-1.78.7,2.8,2.8,0,0,1-1.65-.3Zm4.6,6.49,2-6.08v0l-.58.53-.79.7-2.76,2.31-.66-.79,5.26-4.42.89,1.05-2,6.11,0,0,.22-.22q.63-.61,1.18-1.08l2.74-2.3.62.76L58.9,148.7Zm2.5,2.66,4.85-4.87.8.79-4.85,4.87Zm8.42-.25a4.25,4.25,0,0,0-.66-.74,1.56,1.56,0,0,0-.91-.45.83.83,0,0,0-.69.31.86.86,0,0,0-.21.69,4.38,4.38,0,0,0,.5,1.27,3.18,3.18,0,0,1,.43,1.52,1.85,1.85,0,0,1-.47,1.14,1.65,1.65,0,0,1-1.35.62,2.53,2.53,0,0,1-1.56-.7,4.82,4.82,0,0,1-1.21-1.61l.87-.46a4.3,4.3,0,0,0,1,1.36,1.25,1.25,0,0,0,.78.37.78.78,0,0,0,.62-.29.88.88,0,0,0,.22-.42,1.16,1.16,0,0,0,0-.52,6.26,6.26,0,0,0-.41-.95,5.09,5.09,0,0,1-.46-1.17,1.72,1.72,0,0,1,0-.8,1.85,1.85,0,0,1,.4-.72,1.73,1.73,0,0,1,1.44-.66,2.89,2.89,0,0,1,1.74.79,4.36,4.36,0,0,1,1.21,1.52l-.69.8A5.19,5.19,0,0,0,68.95,150.06ZM73.3,160.3l0-6.4h0l-.37.69q-.32.59-.54.91l-1.94,3L69.6,158l3.64-5.83,1.17.74,0,6.43,0,0,.13-.26q.41-.78.79-1.39l1.9-3,.86.54L74.44,161Zm3,1.68.41-.86,2.49,1.19.81-1.69-2.33-1.11.41-.85,2.33,1.11.93-1.94-2.49-1.19.41-.86,3.5,1.68-3,6.19Zm9.51,4-1.85-.68a3,3,0,0,1-1.63-1.15,1.89,1.89,0,0,1-.07-1.68,2,2,0,0,1,1.23-1.31,3.1,3.1,0,0,1,2.08.15l.67.24.88-2.41,1.06.37Zm9-1.18a3.75,3.75,0,0,1-1.42,2.35,3.09,3.09,0,0,1-2.54.34,3,3,0,0,1-2.09-1.45A4.47,4.47,0,0,1,90,161a3.52,3.52,0,0,1,4.64,1.07,3.82,3.82,0,0,1,.21,2.76Zm8.83,3.58a1.85,1.85,0,1,1,1.85-1.85,1.85,1.85,0,0,1-1.85,1.85Zm11.5,0-.17-1,2.56-.47-.15-1.7-.37.14a3.83,3.83,0,0,1-.56.14,2.36,2.36,0,0,1-1.72-.24,1.92,1.92,0,0,1-.86-1.37,2.19,2.19,0,0,1,.37-1.81,2.83,2.83,0,0,1,1.81-1,3.71,3.71,0,0,1,1.85,0l.18,1a3.34,3.34,0,0,0-.92-.17,4,4,0,0,0-.92,0,1.71,1.71,0,0,0-1.06.53,1.21,1.21,0,0,0-.21,1q.22,1.21,1.77.93a4.17,4.17,0,0,0,.53-.14l.54-.2.54.2.34,3.34Zm7.59-1.68-.89.25L120,160.36l1.06-.3,1.21,4.27q.22.76.31,1.22.07-.14.19-.31l.78-1.11.74.52Zm7-3.24a2.17,2.17,0,0,1-3.27,1.23,6.2,6.2,0,0,1-1.92-4.93,2.17,2.17,0,0,1,3.27-1.24,4.79,4.79,0,0,1,1.51,2.23A5,5,0,0,1,129.79,163.47Zm5.11-1.71a3.26,3.26,0,0,1-.94.7,2.27,2.27,0,0,1-1.6.24,1.69,1.69,0,0,1-1.11-.94,2.37,2.37,0,0,1-.25-.86,3.59,3.59,0,0,1,.07-1,11.7,11.7,0,0,1,.49-1.59l.55-1.57,0,0-2.91,1.48-.44-.87,4.16-2.09.37.74-.78,2.38a15.13,15.13,0,0,0-.42,1.48,2.73,2.73,0,0,0,0,.74,1.71,1.71,0,0,0,.18.62,1,1,0,0,0,.58.53,1.07,1.07,0,0,0,.81-.11,2.06,2.06,0,0,0,.62-.47,3.59,3.59,0,0,0,.53-.85l.86.37a3.86,3.86,0,0,1-.69,1.11Zm5.86-3.27a4.08,4.08,0,0,1-.76.43l-.52-.74a3,3,0,0,0,.74-.37,2.17,2.17,0,0,0,1-1.43,2.87,2.87,0,0,0-.59-1.9l0,0a1.51,1.51,0,0,1-.17.84,2,2,0,0,1-.65.71,1.85,1.85,0,0,1-1.52.37,2.23,2.23,0,0,1-1.32-1,2.36,2.36,0,0,1-.48-1.75,2.18,2.18,0,0,1,1-1.45,2.3,2.3,0,0,1,1.26-.44,2.26,2.26,0,0,1,1.28.37,4.08,4.08,0,0,1,1.17,1.18q2.29,3.26-.41,5.13Zm5.56-4.19a2,2,0,0,1-1.91.43,4.82,4.82,0,0,1-2.15-1.64,5.09,5.09,0,0,1-1.28-2.4,2.17,2.17,0,0,1,2.69-2.23,4.81,4.81,0,0,1,2.15,1.63,4.91,4.91,0,0,1,1.29,2.42,2,2,0,0,1-.76,1.78Zm6.3-6.26-.59.69-5.12-4.58.74-.82,3.3,3q.59.53.91.87v-.37c0-.14,0-.59.06-1.36l.89.06Zm3.86-4.57a2,2,0,0,1-1.76.86,4.82,4.82,0,0,1-2.48-1.09,5.08,5.08,0,0,1-1.8-2,2.17,2.17,0,0,1,2.1-2.8,4.83,4.83,0,0,1,2.47,1.09,4.91,4.91,0,0,1,1.81,2.06A2,2,0,0,1,156.49,143.47Zm3.56-5.52-.83-.46,1.32-2.43-1.64-.9-1.23,2.3-.82-.45,1.24-2.27-1.9-1-1.32,2.43-.84-.46,1.85-3.41,6,3.29Zm3.51-6.72a4.33,4.33,0,0,1-1.16,1.62l-.7-.74a6.15,6.15,0,0,0,.55-.56,2.65,2.65,0,0,0,.43-.7,1.85,1.85,0,0,0,0-1.67,3.6,3.6,0,0,0-3.5-1.5,1.88,1.88,0,0,0-1.2,1.17,4,4,0,0,0-.25.81q-.08.41-.13.87l-.89-.37a5.15,5.15,0,0,1,.43-1.81,2.93,2.93,0,0,1,1.74-1.78,4,4,0,0,1,2.72.27,4.23,4.23,0,0,1,1.58,1.09,2.8,2.8,0,0,1,.69,1.52,3.43,3.43,0,0,1-.29,1.79Zm3.12-9.21-6.17,1.72v0l.77.18,1,.27,3.46,1-.29,1-6.6-1.91.37-1.32,6.2-1.72v0l-.3-.06q-.86-.18-1.55-.37l-3.4-1,.28-1,6.6,1.91Zm.81-3.56-6.74-1.28.21-1.11,6.75,1.31Zm.88-4.82a4.82,4.82,0,0,1-.66,1.9l-.87-.46a4.3,4.3,0,0,0,.58-1.58,1.25,1.25,0,0,0-.14-.85.78.78,0,0,0-.59-.37.88.88,0,0,0-.47.06,1.15,1.15,0,0,0-.4.33,6.26,6.26,0,0,0-.56.87,5.1,5.1,0,0,1-.72,1,1.73,1.73,0,0,1-.67.44,1.85,1.85,0,0,1-.82.07,1.73,1.73,0,0,1-1.35-.83,2.89,2.89,0,0,1-.3-1.88,4.36,4.36,0,0,1,.59-1.85l1.05.13a5.19,5.19,0,0,0-.46.95,4.23,4.23,0,0,0-.24,1,1.56,1.56,0,0,0,.13,1,.83.83,0,0,0,.64.4.85.85,0,0,0,.68-.21,4.38,4.38,0,0,0,.78-1.11,3.18,3.18,0,0,1,1-1.21,1.85,1.85,0,0,1,1.21-.24,1.65,1.65,0,0,1,1.27.77,2.53,2.53,0,0,1,.3,1.71Z"/><path class="cls-2" d="M145,150.81a5,5,0,0,0-1.52-1.36,1,1,0,0,0-1.41,1.2,6.94,6.94,0,0,0,2.58,3.06,1,1,0,0,0,1.42-1.18A5,5,0,0,0,145,150.81Z"/><path class="cls-2" d="M154.37,140.39a5,5,0,0,0-1.78-1,1,1,0,0,0-1.09,1.48,7,7,0,0,0,3.22,2.37,1,1,0,0,0,1.11-1.48A5,5,0,0,0,154.37,140.39Z"/><path class="cls-2" d="M139,152.78a1.11,1.11,0,0,0-1,.15,1.08,1.08,0,0,0-.51.8,1.59,1.59,0,0,0,.34,1,1.39,1.39,0,0,0,.77.6,1.08,1.08,0,0,0,.9-.22,1.44,1.44,0,0,0,.45-.5,1.21,1.21,0,0,0,.15-.62,1,1,0,0,0-.17-.55A1.74,1.74,0,0,0,139,152.78Z"/><path class="cls-2" d="M105.5,33A72.5,72.5,0,1,0,178,105.5,72.58,72.58,0,0,0,105.5,33Zm0,143.52a71,71,0,1,1,71-71A71.1,71.1,0,0,1,105.5,176.52Z"/><path class="cls-2" d="M77.43,105.22q-.84,1.09-3.58,3.89l-6.17,6.24V119H84.86v-4.38H74.16v-.24l3.16-3a45.24,45.24,0,0,0,4.42-4.45,12.24,12.24,0,0,0,1.85-3.05,8.48,8.48,0,0,0,.6-3.19,6.26,6.26,0,0,0-1-3.46,6.5,6.5,0,0,0-2.74-2.35A9.37,9.37,0,0,0,76.4,94a13.37,13.37,0,0,0-3.16.34,11.07,11.07,0,0,0-2.6,1,18.46,18.46,0,0,0-3,2.19l2.83,3.34A14.33,14.33,0,0,1,73.26,99,6.26,6.26,0,0,1,76,98.38a3.16,3.16,0,0,1,2.18.74,2.83,2.83,0,0,1,.82,2.2,5.12,5.12,0,0,1-.37,1.92A8.57,8.57,0,0,1,77.43,105.22Z"/><path class="cls-2" d="M95.78,119.31a7.32,7.32,0,0,0,6.5-3.1q2.11-3.1,2.11-9.54,0-6.22-2.18-9.45a8.18,8.18,0,0,0-12.91-.14q-2.1,3.09-2.1,9.6,0,6.24,2.16,9.43A7.26,7.26,0,0,0,95.78,119.31Zm-2.63-19.13a2.72,2.72,0,0,1,5.24,0,18.55,18.55,0,0,1,.82,6.5,18.34,18.34,0,0,1-.81,6.46,2.74,2.74,0,0,1-5.26,0,19.12,19.12,0,0,1-.78-6.49,18.93,18.93,0,0,1,.8-6.5Z"/><path class="cls-2" d="M113,101.55q.5-.4,1.8-1.7l-.09,2.56-.05,2.34V119h5.19V94.38h-4.26l-7.92,6.3,2.51,3.13Z"/><path class="cls-2" d="M140.86,117.09a8,8,0,0,0,2.54-6.34,7.2,7.2,0,0,0-2.11-5.48,7.91,7.91,0,0,0-5.68-2,11.59,11.59,0,0,0-2.54.23l-.59.12.45-4.82h8.78V94.38H128.36l-.92,12.53,2.07,1.11a14.35,14.35,0,0,1,1.75-.37,12.24,12.24,0,0,1,2-.18q4.93,0,4.93,3.71,0,3.9-4.76,3.9a14.93,14.93,0,0,1-6.43-1.61V118a14.24,14.24,0,0,0,6.63,1.33Q138.32,119.31,140.86,117.09Z"/></g></g></g></g></svg>