<svg xmlns="http://www.w3.org/2000/svg" xmlns:xlink="http://www.w3.org/1999/xlink" viewBox="0 0 211 211"><defs><style>.cls-1{fill:none;}.cls-2{clip-path:url(#clip-path);}.cls-3{fill:url(#linear-gradient);}.cls-4{clip-path:url(#clip-path-2);}.cls-5{fill:url(#linear-gradient-2);}.cls-6{fill:url(#linear-gradient-3);}.cls-7{fill:url(#linear-gradient-4);}.cls-8{fill:url(#linear-gradient-5);}</style><clipPath id="clip-path"><polygon class="cls-1" points="14.86 88.31 27.04 105.5 14.86 122.75 40.75 122.75 40.75 88.31 14.86 88.31"/></clipPath><linearGradient id="linear-gradient" x1="887.78" y1="-546.65" x2="890.48" y2="-546.65" gradientTransform="translate(-159981.67 222669.05) rotate(-22.69) scale(262.73)" gradientUnits="userSpaceOnUse"><stop offset="0" stop-color="#a77b3e"/><stop offset="0.08" stop-color="#a77b3e"/><stop offset="0.17" stop-color="#ae8143"/><stop offset="0.3" stop-color="#c19353"/><stop offset="0.46" stop-color="#e0b06b"/><stop offset="0.5" stop-color="#e9b872"/><stop offset="0.64" stop-color="#cb9d5b"/><stop offset="0.8" stop-color="#b18446"/><stop offset="0.9" stop-color="#a77b3e"/><stop offset="1" stop-color="#a77b3e"/></linearGradient><clipPath id="clip-path-2"><polygon class="cls-1" points="167.53 88.31 167.53 122.75 196.15 122.75 182.67 105.5 196.15 88.31 167.53 88.31"/></clipPath><linearGradient id="linear-gradient-2" x1="887.38" y1="-546.56" x2="890.19" y2="-546.56" gradientTransform="translate(-159967.67 222702.05) rotate(-22.69) scale(262.73)" xlink:href="#linear-gradient"/><linearGradient id="linear-gradient-3" x1="887.9" y1="-546.62" x2="890.04" y2="-546.62" gradientTransform="translate(-159974.62 222685.55) rotate(-22.69) scale(262.73)" xlink:href="#linear-gradient"/><linearGradient id="linear-gradient-4" x1="887.9" y1="-546.55" x2="890.04" y2="-546.55" gradientTransform="translate(-159974.62 222685.55) rotate(-22.69) scale(262.73)" xlink:href="#linear-gradient"/><linearGradient id="linear-gradient-5" x1="887.9" y1="-546.61" x2="890.04" y2="-546.61" gradientTransform="translate(-159974.62 222685.55) rotate(-22.69) scale(262.73)" xlink:href="#linear-gradient"/></defs><title>2016</title><g id="Layer_2" data-name="Layer 2"><g id="Layer_1-2" data-name="Layer 1"><rect class="cls-1" width="211" height="211"/><g id="Layer_2-2" data-name="Layer 2"><g id="teksts"><g class="cls-2"><polygon class="cls-3" points="6.92 93.43 36.88 74.07 48.69 117.63 18.72 136.99 6.92 93.43"/></g><g class="cls-4"><polygon class="cls-5" points="158.77 93.43 191.87 74.07 204.9 117.63 171.8 136.99 158.77 93.43"/></g><path class="cls-6" d="M105.78,93.2a3.4,3.4,0,0,0-.7-1.23,1.32,1.32,0,0,0-1-.32,2.72,2.72,0,0,0-1.79.76,8.79,8.79,0,0,0-1.67,2.11,20.24,20.24,0,0,0-1.49,3A31,31,0,0,0,98,101.31a41.92,41.92,0,0,0-.79,4.22,32.75,32.75,0,0,0-.29,4.31v2.11a8.47,8.47,0,0,0,.38,1.82A3.25,3.25,0,0,0,98,115a1.7,1.7,0,0,0,1.26.5,2.93,2.93,0,0,0,1.82-.76,8.06,8.06,0,0,0,1.67-2.08,18.45,18.45,0,0,0,1.41-3.08,31.17,31.17,0,0,0,1.08-3.84,40,40,0,0,0,.7-4.28,39.13,39.13,0,0,0,.26-4.42,16.67,16.67,0,0,0,0-2.11A9,9,0,0,0,105.78,93.2Z"/><path class="cls-7" d="M129.62,109.69a13,13,0,0,0,.32,2.46,5.62,5.62,0,0,0,.62,1.73,2.46,2.46,0,0,0,.94,1,2.55,2.55,0,0,0,2.93-.29,5.65,5.65,0,0,0,1.41-1.64,9.84,9.84,0,0,0,1-2.49,12,12,0,0,0,.38-3.1,6.47,6.47,0,0,0-.23-1.85,3.49,3.49,0,0,0-.64-1.23,2.31,2.31,0,0,0-1-.67,3.4,3.4,0,0,0-1.23-.21,4.1,4.1,0,0,0-2,.44,3.63,3.63,0,0,0-1.35,1.26,5.86,5.86,0,0,0-.76,2A12.86,12.86,0,0,0,129.62,109.69Z"/><path class="cls-8" d="M162,82.86H45.44v45.29H162ZM88.94,99a9.84,9.84,0,0,1-1.29,2.26A15.47,15.47,0,0,1,86,103.36q-1.05,1-2.23,1.9l-2.37,1.85q-1.2.91-2.28,1.85a24.31,24.31,0,0,0-2,1.9,9.84,9.84,0,0,0-1.46,2,7.62,7.62,0,0,1,1.2-.23H78a12.1,12.1,0,0,1,1.82,0l1.67.29,1.52.29a7.59,7.59,0,0,0,1.38,0,4.28,4.28,0,0,0,1.85-.41,6.24,6.24,0,0,0,1.87-1.52h0a7.06,7.06,0,0,1,.5,2.37,4.19,4.19,0,0,1-.41,1.87A4.51,4.51,0,0,1,87.09,117a5.21,5.21,0,0,1-1.64.94,5.59,5.59,0,0,1-1.93.32,7.26,7.26,0,0,1-1.85-.23l-1.9-.53-2-.53a9.09,9.09,0,0,0-4.1,0,9.46,9.46,0,0,0-2.31,1h0a7.5,7.5,0,0,1-.23-1.79,6.62,6.62,0,0,1,.56-2.58,11.45,11.45,0,0,1,1.46-2.43,23.84,23.84,0,0,1,2.05-2.31l2.31-2.28,2.31-2.34a20.86,20.86,0,0,0,2-2.46,12.68,12.68,0,0,0,1.44-2.64,8,8,0,0,0,.53-2.93,10.46,10.46,0,0,0-.15-1.87,4.66,4.66,0,0,0-.59-1.44,2.75,2.75,0,0,0-.88-1A2.28,2.28,0,0,0,81,91.64a2.79,2.79,0,0,0-2.17.91,3.08,3.08,0,0,0-.62,1,3.25,3.25,0,0,0-.23,1.2,4.86,4.86,0,0,0,.53,2.37,3.66,3.66,0,0,0,1.29,1.44v.15a5.39,5.39,0,0,1-1.41.94,3.54,3.54,0,0,1-1.46.35,2.28,2.28,0,0,1-1.05-.26A2.55,2.55,0,0,1,75,99a4.07,4.07,0,0,1-.67-1.46,5.86,5.86,0,0,1-.23-1.67,5.59,5.59,0,0,1,.53-2.28,6.56,6.56,0,0,1,1.58-1.9,7.79,7.79,0,0,1,2.49-1.52,9.43,9.43,0,0,1,3.46-.59A9,9,0,0,1,85,90a6.77,6.77,0,0,1,2.34,1.38,6.12,6.12,0,0,1,1.52,2.2,7.47,7.47,0,0,1,.56,2.93A6.91,6.91,0,0,1,88.94,99Zm22.26,2.43a28.58,28.58,0,0,1-.5,3.25,31.58,31.58,0,0,1-.88,3.34,23,23,0,0,1-1.26,3.19,18.34,18.34,0,0,1-1.7,2.93,11.72,11.72,0,0,1-2.2,2.28,9.93,9.93,0,0,1-2.69,1.52,9.08,9.08,0,0,1-3.22.56,8.29,8.29,0,0,1-3.72-.73,6.09,6.09,0,0,1-2.37-2,8.35,8.35,0,0,1-1.23-2.93,18.37,18.37,0,0,1-.35-3.72,30.52,30.52,0,0,1,.41-5.1,26,26,0,0,1,1.23-4.66,20.86,20.86,0,0,1,2.08-4.19A14.88,14.88,0,0,1,97.37,92a11.25,11.25,0,0,1,3.16-2,9.26,9.26,0,0,1,3.63-.73,7.53,7.53,0,0,1,3.25.67,6.09,6.09,0,0,1,2.28,1.85,8.06,8.06,0,0,1,1.35,2.93,15,15,0,0,1,.44,3.75q0,1.35-.18,3ZM117.64,118h-5.48l5-23.73h-3.6l.44-1.76h1.76a12.83,12.83,0,0,0,2.17-.38,20.94,20.94,0,0,0,2.61-.88,23.61,23.61,0,0,0,3.16-1.64Zm25-22.85a3.69,3.69,0,0,1-.59,1.11,2.93,2.93,0,0,1-.88.73,2.34,2.34,0,0,1-1.11.26,2.2,2.2,0,0,1-1.17-.32,1.85,1.85,0,0,1-.76-.88,2.08,2.08,0,0,0,.94-.94,2.93,2.93,0,0,0,.32-1.26,2.69,2.69,0,0,0,0-.79,2,2,0,0,0-.38-.67,1.85,1.85,0,0,0-.62-.47,2,2,0,0,0-.88-.18,3.66,3.66,0,0,0-2.31.94,10,10,0,0,0-2.17,2.64,20.5,20.5,0,0,0-1.79,4,29.29,29.29,0,0,0-1.35,5h0a5.1,5.1,0,0,1,2.26-2.67,7.29,7.29,0,0,1,3.69-.88,6.18,6.18,0,0,1,2.37.44,5,5,0,0,1,1.85,1.29,6.18,6.18,0,0,1,1.2,2.08,8.38,8.38,0,0,1,.44,2.75,10.63,10.63,0,0,1-.35,2.78,11.72,11.72,0,0,1-1,2.58,11.28,11.28,0,0,1-1.58,2.23,10.9,10.9,0,0,1-2.05,1.76,9.81,9.81,0,0,1-2.4,1.17,8.41,8.41,0,0,1-2.64.41,9.61,9.61,0,0,1-3.46-.56,5.62,5.62,0,0,1-2.43-1.79,8,8,0,0,1-1.44-3.1,19.48,19.48,0,0,1-.29-4.66,25.69,25.69,0,0,1,.47-5,23.79,23.79,0,0,1,1.32-4.45A19.07,19.07,0,0,1,127.92,95,14.82,14.82,0,0,1,130.62,92a11.72,11.72,0,0,1,3.16-1.87,9.75,9.75,0,0,1,3.57-.67,7.94,7.94,0,0,1,2.26.29,5.27,5.27,0,0,1,1.76.88A3.87,3.87,0,0,1,142.48,92a4,4,0,0,1,.38,1.76,4.28,4.28,0,0,1-.18,1.41Z"/></g></g></g></g></svg>