<svg xmlns="http://www.w3.org/2000/svg" xmlns:xlink="http://www.w3.org/1999/xlink" viewBox="0 0 211 211"><defs><style>.cls-1{fill:none;}.cls-2{clip-path:url(#clip-path);}.cls-3{fill:url(#linear-gradient);}.cls-4{fill:url(#linear-gradient-2);}.cls-5{fill:url(#linear-gradient-3);}.cls-6{fill:url(#linear-gradient-4);}</style><clipPath id="clip-path"><polygon class="cls-1" points="13.86 88.09 26.18 105.5 13.86 122.94 40.03 122.94 40.03 88.09 13.86 88.09"/></clipPath><linearGradient id="linear-gradient" x1="916.89" y1="-694.11" x2="919.61" y2="-694.11" gradientTransform="translate(-152094.42 261362.24) rotate(-22.69) scale(262.73)" gradientUnits="userSpaceOnUse"><stop offset="0" stop-color="#a77b3e"/><stop offset="0.08" stop-color="#a77b3e"/><stop offset="0.17" stop-color="#ae8143"/><stop offset="0.3" stop-color="#c19353"/><stop offset="0.46" stop-color="#e0b06b"/><stop offset="0.5" stop-color="#e9b872"/><stop offset="0.64" stop-color="#cb9d5b"/><stop offset="0.8" stop-color="#b18446"/><stop offset="0.9" stop-color="#a77b3e"/><stop offset="1" stop-color="#a77b3e"/></linearGradient><linearGradient id="linear-gradient-2" x1="916.98" y1="-694.06" x2="919.17" y2="-694.06" gradientTransform="translate(-152087.36 261378.74) rotate(-22.69) scale(262.73)" xlink:href="#linear-gradient"/><linearGradient id="linear-gradient-3" x1="916.98" y1="-694.07" x2="919.17" y2="-694.07" gradientTransform="translate(-152087.36 261378.74) rotate(-22.69) scale(262.73)" xlink:href="#linear-gradient"/><linearGradient id="linear-gradient-4" x1="916.45" y1="-694.02" x2="919.29" y2="-694.02" gradientTransform="translate(-152080.42 261395.24) rotate(-22.69) scale(262.73)" xlink:href="#linear-gradient"/></defs><title>2017</title><g id="Layer_2" data-name="Layer 2"><g id="Layer_1-2" data-name="Layer 1"><rect class="cls-1" width="211" height="211"/><g id="Layer_2-2" data-name="Layer 2"><g id="step"><g class="cls-2"><polygon class="cls-3" points="5.83 93.3 36.13 73.72 48.06 117.76 17.76 137.34 5.83 93.3"/></g><polygon class="cls-1" points="197.15 88.09 197.12 88.09 197.12 88.12 197.15 88.09"/><polygon class="cls-1" points="168.21 88.09 168.21 88.09 168.21 88.09 168.21 88.09"/><polygon class="cls-1" points="168.21 122.94 168.24 122.94 168.21 122.94 168.21 122.94"/><polygon class="cls-1" points="197.12 122.94 197.15 122.94 197.15 122.94 197.12 122.94"/><path class="cls-4" d="M162.58,82.61H44.77v45.79H162.58ZM89.2,98.9a10,10,0,0,1-1.3,2.28,15.61,15.61,0,0,1-1.9,2.07q-1.07,1-2.25,1.93L81.35,107q-1.21.92-2.31,1.87a25.08,25.08,0,0,0-2,1.93,10.1,10.1,0,0,0-1.48,2,7.73,7.73,0,0,1,1.21-.24h1.16a12,12,0,0,1,1.84,0l1.69.3,1.54.3a7.79,7.79,0,0,0,1.39,0,4.32,4.32,0,0,0,1.87-.41,6.31,6.31,0,0,0,1.9-1.54h0a7.17,7.17,0,0,1,.5,2.4,4.24,4.24,0,0,1-.41,1.9,4.5,4.5,0,0,1-1.13,1.48,5.27,5.27,0,0,1-1.66.95,5.63,5.63,0,0,1-2,.33,7.29,7.29,0,0,1-1.87-.24l-1.75-.21-2-.53a9.06,9.06,0,0,0-2.1-.24,8.88,8.88,0,0,0-2,.24,9.6,9.6,0,0,0-2.22.86h-.15a7.55,7.55,0,0,1-.24-1.81,6.63,6.63,0,0,1,.56-2.61,11.67,11.67,0,0,1,1.48-2.46A24.11,24.11,0,0,1,75.22,109l2.34-2.31,2.34-2.37a21.23,21.23,0,0,0,2-2.49,12.68,12.68,0,0,0,1.45-2.67,8,8,0,0,0,.53-3,10.57,10.57,0,0,0-.15-1.9,4.71,4.71,0,0,0-.5-1.51,3,3,0,0,0-.89-1A2.31,2.31,0,0,0,81,91.49a2.94,2.94,0,0,0-2.19.89,3.14,3.14,0,0,0-.62,1,3.29,3.29,0,0,0-.24,1.21,4.92,4.92,0,0,0,.53,2.4,3.7,3.7,0,0,0,1.3,1.45v.15a5.36,5.36,0,0,1-1.42.95,3.58,3.58,0,0,1-1.48.36,2.31,2.31,0,0,1-1.07-.27,2.58,2.58,0,0,1-.89-.77,4.09,4.09,0,0,1-.59-1.24,5.92,5.92,0,0,1-.24-1.69,5.63,5.63,0,0,1,.53-2.31,6.6,6.6,0,0,1,1.54-2.13A7.91,7.91,0,0,1,78.68,90a9.54,9.54,0,0,1,3.49-.59,9.09,9.09,0,0,1,3,.47,6.87,6.87,0,0,1,2.37,1.39A6.22,6.22,0,0,1,89,93.45a7.52,7.52,0,0,1,.56,3A7,7,0,0,1,89.2,98.9Zm22.51,2.46a28.9,28.9,0,0,1-.5,3.29,31.84,31.84,0,0,1-.89,3.38,23.48,23.48,0,0,1-1.27,3.23,18.75,18.75,0,0,1-1.72,3,11.85,11.85,0,0,1-2.22,2.31,10.1,10.1,0,0,1-2.72,1.54,9.18,9.18,0,0,1-3.26.56,8.38,8.38,0,0,1-3.76-.74,6.16,6.16,0,0,1-2.4-2,8.44,8.44,0,0,1-1.24-3,18.54,18.54,0,0,1-.36-3.76,30.89,30.89,0,0,1,.36-5.33A26.39,26.39,0,0,1,93,99.07a21.23,21.23,0,0,1,2-4.06,14.81,14.81,0,0,1,2.72-3.14,11.31,11.31,0,0,1,3.2-2,9.33,9.33,0,0,1,3.67-.74,7.64,7.64,0,0,1,3.29.65,6.19,6.19,0,0,1,2.31,1.87,8.2,8.2,0,0,1,1.36,3,15.16,15.16,0,0,1,.44,3.79q-.06,1.39-.21,3Zm6.4,16.79h-5.66l5.06-24H114l.44-1.78h1.78a12.79,12.79,0,0,0,2.16-.44A21.2,21.2,0,0,0,121,91a23.69,23.69,0,0,0,3.26-1.66Zm26.21-26.89q-.58,1.19-1.27,2.31l-1.81,3-2.13,3.14q-1.07,1.69-2.07,3.47t-1.81,3.58a25.14,25.14,0,0,0-1.3,3.52,12.5,12.5,0,0,0-.5,3.38,11.43,11.43,0,0,0,.18,2,12.62,12.62,0,0,0,.5,1.93,5.92,5.92,0,0,1-1.39.53,5.51,5.51,0,0,1-1.33.18,3.91,3.91,0,0,1-1.6-.33,3.32,3.32,0,0,1-1.21-.92,4.26,4.26,0,0,1-.77-1.48,6.46,6.46,0,0,1-.27-2,9.74,9.74,0,0,1,.5-3,18.18,18.18,0,0,1,1.27-3,24.79,24.79,0,0,1,1.81-3q1-1.42,2.07-2.72t2.07-2.49q1-1.18,1.81-2.19a19,19,0,0,0,1.27-1.78,2.72,2.72,0,0,0,.5-1.33l-1.3.36a5.27,5.27,0,0,1-1.27.15,5.92,5.92,0,0,1-1.24,0l-1.16-.27-1.24-.3a6.34,6.34,0,0,0-1.33,0,4.26,4.26,0,0,0-2,.47,6.22,6.22,0,0,0-1.78,1.54h0A5.66,5.66,0,0,1,127.1,95a5.92,5.92,0,0,1,0-1.16,4.32,4.32,0,0,1,.15-2.16,4,4,0,0,1,1.1-1.42,5.15,5.15,0,0,1,1.69-.89,6.93,6.93,0,0,1,2.13-.33,7.94,7.94,0,0,1,1.84.21l1.69.41,1.78.41a9.57,9.57,0,0,0,2,.21,15.87,15.87,0,0,0,2.34-.21,24.43,24.43,0,0,0,3-.62v.15a4,4,0,0,1-.5,1.69Z"/><path class="cls-5" d="M106.08,93.06a3.44,3.44,0,0,0-.71-1.24,1.33,1.33,0,0,0-1-.33,2.75,2.75,0,0,0-1.81.77,8.88,8.88,0,0,0-1.69,2.13,20.29,20.29,0,0,0-1.54,3,31.07,31.07,0,0,0-1.18,3.85,41.46,41.46,0,0,0-.8,4.26,33.11,33.11,0,0,0-.3,4.35V112a8.5,8.5,0,0,0,.38,1.84,3.29,3.29,0,0,0,.77,1.3,1.72,1.72,0,0,0,1.27.5,3,3,0,0,0,1.84-.77,8.14,8.14,0,0,0,1.69-2.1,18.78,18.78,0,0,0,1.42-3.11,31.45,31.45,0,0,0,1.1-3.88,40.72,40.72,0,0,0,.71-4.32,39.51,39.51,0,0,0,.27-4.47,16.58,16.58,0,0,0,0-2.13A9.06,9.06,0,0,0,106.08,93.06Z"/><polygon class="cls-6" points="183.52 105.5 197.12 88.12 197.12 88.09 168.21 88.09 168.21 88.09 168.21 122.94 168.24 122.94 197.12 122.94 197.15 122.94 183.52 105.5"/></g></g></g></g></svg>