<svg xmlns="http://www.w3.org/2000/svg" xmlns:xlink="http://www.w3.org/1999/xlink" viewBox="0 0 867.34 275.64"><defs><style>.cls-1{fill:none;}.cls-2{clip-path:url(#clip-path);}.cls-3{fill:url(#linear-gradient);}.cls-4{clip-path:url(#clip-path-2);}.cls-5{fill:url(#linear-gradient-2);}.cls-6{fill:url(#linear-gradient-3);}.cls-7{fill:url(#linear-gradient-4);}.cls-8{fill:url(#linear-gradient-5);}.cls-9{fill:url(#linear-gradient-6);}</style><clipPath id="clip-path"><polygon class="cls-1" points="34.78 62.37 88.16 137.69 34.78 213.27 148.21 213.27 148.21 62.37 34.78 62.37"/></clipPath><linearGradient id="linear-gradient" x1="-1440.39" y1="-1880.38" x2="-1428.58" y2="-1880.38" gradientTransform="translate(538886.58 310353.62) rotate(-22.69) scale(262.73)" gradientUnits="userSpaceOnUse"><stop offset="0" stop-color="#a77b3e"/><stop offset="0.08" stop-color="#a77b3e"/><stop offset="0.17" stop-color="#ae8143"/><stop offset="0.3" stop-color="#c19353"/><stop offset="0.46" stop-color="#e0b06b"/><stop offset="0.5" stop-color="#e9b872"/><stop offset="0.64" stop-color="#cb9d5b"/><stop offset="0.8" stop-color="#b18446"/><stop offset="0.9" stop-color="#a77b3e"/><stop offset="1" stop-color="#a77b3e"/></linearGradient><clipPath id="clip-path-2"><polygon class="cls-1" points="703.6 62.37 703.6 213.27 828.97 213.27 769.94 137.69 828.97 62.37 703.6 62.37"/></clipPath><linearGradient id="linear-gradient-2" x1="-1442.18" y1="-1879.52" x2="-1429.86" y2="-1879.52" gradientTransform="translate(538900.58 310386.62) rotate(-22.69) scale(262.73)" xlink:href="#linear-gradient"/><linearGradient id="linear-gradient-3" x1="-453.74" y1="141" x2="1326.26" y2="129" gradientTransform="matrix(1, 0, 0, 1, 0, 0)" xlink:href="#linear-gradient"/><linearGradient id="linear-gradient-4" x1="-453.96" y1="107.29" x2="1326.04" y2="95.29" gradientTransform="matrix(1, 0, 0, 1, 0, 0)" xlink:href="#linear-gradient"/><linearGradient id="linear-gradient-5" x1="-453.55" y1="169.07" x2="1326.45" y2="157.07" gradientTransform="matrix(1, 0, 0, 1, 0, 0)" xlink:href="#linear-gradient"/><linearGradient id="linear-gradient-6" x1="-453.72" y1="143.59" x2="1326.28" y2="131.59" gradientTransform="matrix(1, 0, 0, 1, 0, 0)" xlink:href="#linear-gradient"/></defs><title>2018</title><g id="Layer_2" data-name="Layer 2"><g id="Layer_1-2" data-name="Layer 1"><g class="cls-2"><polygon class="cls-3" points="0 84.82 131.28 0 182.99 190.82 51.71 275.64 0 84.82"/></g><g class="cls-4"><polygon class="cls-5" points="665.23 84.82 810.23 0 867.34 190.82 722.33 275.64 665.23 84.82"/></g><path class="cls-6" d="M404,91a14.57,14.57,0,0,0-3-5.22,5.65,5.65,0,0,0-4.27-1.91,11.69,11.69,0,0,0-7.7,3.31,37.54,37.54,0,0,0-7.22,9,85.93,85.93,0,0,0-6.38,13.36,131.61,131.61,0,0,0-5.06,16.39A173.7,173.7,0,0,0,367,144a140.11,140.11,0,0,0-1.24,18.42q0,4.63.44,9a35.45,35.45,0,0,0,1.59,7.82,13.89,13.89,0,0,0,3.23,5.5,7.33,7.33,0,0,0,5.42,2.07,11.93,11.93,0,0,0,7.78-3.23,34.53,34.53,0,0,0,7.1-8.85,79.23,79.23,0,0,0,6.06-13.24,133.42,133.42,0,0,0,4.71-16.43,176.14,176.14,0,0,0,3-18.34,169.26,169.26,0,0,0,1.08-19,71,71,0,0,0-.56-9.09A38.06,38.06,0,0,0,404,91Z"/><path class="cls-7" d="M533.35,81.7a13.74,13.74,0,0,0-10.45,4.63,15.59,15.59,0,0,0-3,5.14,19.06,19.06,0,0,0-1.08,6.5,18.79,18.79,0,0,0,1,6,26,26,0,0,0,2.59,5.5,41.77,41.77,0,0,0,3.79,5.14q2.15,2.51,4.71,5a42.47,42.47,0,0,0,9.73-12.28,33.31,33.31,0,0,0,2.67-6.74A25.19,25.19,0,0,0,544.2,94q0-5.74-2.91-9A10.09,10.09,0,0,0,533.35,81.7Z"/><path class="cls-8" d="M529,151.52a59.5,59.5,0,0,0-5.5-6.94q-3.11-3.39-6.46-6.74a37.72,37.72,0,0,0-12,12.92,33.42,33.42,0,0,0-4.19,16.43,27.63,27.63,0,0,0,1.16,8.25,19.49,19.49,0,0,0,3.23,6.34,14.19,14.19,0,0,0,4.9,4,14,14,0,0,0,6.26,1.4,16.08,16.08,0,0,0,7.22-1.63,17.84,17.84,0,0,0,5.7-4.43,20.94,20.94,0,0,0,3.75-6.5,22.7,22.7,0,0,0,1.36-7.85,22.93,22.93,0,0,0-1.56-7.94A37.46,37.46,0,0,0,529,151.52Z"/><path class="cls-9" d="M166.75,38.5V236.89H677.22V38.5Zm165.53,77.26a42.21,42.21,0,0,1-5.5,9.73,67,67,0,0,1-8,8.85q-4.55,4.23-9.53,8.21t-10.13,7.85q-5.14,3.87-9.81,7.86a104.79,104.79,0,0,0-8.53,8.13,42.54,42.54,0,0,0-6.34,8.69,32.82,32.82,0,0,1,5.1-1q2.39-.24,4.86-.24a52.34,52.34,0,0,1,7.78.56q3.71.56,7.14,1.28t6.5,1.28a32.7,32.7,0,0,0,5.86.56,18.33,18.33,0,0,0,7.93-1.79,26.79,26.79,0,0,0,8-6.5l.48.32a30.39,30.39,0,0,1,2.07,10.13,18,18,0,0,1-1.79,8.09,19.42,19.42,0,0,1-4.82,6.22,22.41,22.41,0,0,1-7,4,24,24,0,0,1-8.25,1.44,31.31,31.31,0,0,1-7.89-1q-4-1-8.13-2.23T283.79,194a37.61,37.61,0,0,0-17.54,0,40.5,40.5,0,0,0-9.45,3.67h-.64a32.12,32.12,0,0,1-1-7.66,28.25,28.25,0,0,1,2.43-11.08,50,50,0,0,1,6.22-10.37,102.6,102.6,0,0,1,8.77-9.93q4.9-4.9,10-9.85t10-10a88.62,88.62,0,0,0,8.73-10.57,54.27,54.27,0,0,0,6.14-11.36,34,34,0,0,0,2.31-12.52,45.17,45.17,0,0,0-.68-8.09,20.3,20.3,0,0,0-2.19-6.38A11.94,11.94,0,0,0,303,85.61a9.83,9.83,0,0,0-5.5-1.51,13.11,13.11,0,0,0-5.26,1A12,12,0,0,0,288.21,88a13.22,13.22,0,0,0-2.63,4.23,13.94,13.94,0,0,0-1,5.14,20.75,20.75,0,0,0,2.31,10.17,15.73,15.73,0,0,0,5.5,6.1v.64a22.91,22.91,0,0,1-6.06,4,15.28,15.28,0,0,1-6.3,1.48,9.73,9.73,0,0,1-4.55-1.12,10.9,10.9,0,0,1-3.75-3.27,17.24,17.24,0,0,1-2.55-5.3,24.82,24.82,0,0,1-1-7.22A24,24,0,0,1,270.51,93,28,28,0,0,1,277,84a33.23,33.23,0,0,1,10.73-6.54,40.4,40.4,0,0,1,14.79-2.51,38.47,38.47,0,0,1,12.76,2,29,29,0,0,1,10,5.86A26.35,26.35,0,0,1,332,92.19a31.9,31.9,0,0,1,2.35,12.56A29.44,29.44,0,0,1,332.27,115.76Zm95.46,10.49q-.68,6.82-2.11,14a136.79,136.79,0,0,1-3.71,14.31,100.41,100.41,0,0,1-5.46,13.72,79.91,79.91,0,0,1-7.34,12.2,50.61,50.61,0,0,1-9.37,9.81,42.74,42.74,0,0,1-11.56,6.54,38.89,38.89,0,0,1-13.84,2.39q-9.57,0-15.95-3.19a26.07,26.07,0,0,1-10.13-8.69,35.67,35.67,0,0,1-5.3-13,78.22,78.22,0,0,1-1.56-16,131.5,131.5,0,0,1,1.79-21.89,112.52,112.52,0,0,1,5.22-20,90,90,0,0,1,8.33-17.15,63.47,63.47,0,0,1,11.08-13.36,48.07,48.07,0,0,1,13.52-8.69A39.63,39.63,0,0,1,397,74.13,32.24,32.24,0,0,1,411,77a26.16,26.16,0,0,1,9.81,8,34.93,34.93,0,0,1,5.74,12.4,64.45,64.45,0,0,1,1.87,16.11Q428.41,119.42,427.73,126.24Zm3.63,71.25L452.89,95.58H437.42l1.91-7.5q3.35,0,7.5-.32a54,54,0,0,0,9.25-1.63,88.13,88.13,0,0,0,11.24-3.83,100.35,100.35,0,0,0,13.56-7l-26,122.17Zm113.92-64.24a60.25,60.25,0,0,1,6.66,7.9,41,41,0,0,1,4.79,9,31.49,31.49,0,0,1,2,10.45,33.65,33.65,0,0,1-3.23,14.51,37.84,37.84,0,0,1-8.89,12,43.06,43.06,0,0,1-13.4,8.17,47.94,47.94,0,0,1-31.54,1A35,35,0,0,1,490,190a29.08,29.08,0,0,1-10.65-22.65,32.12,32.12,0,0,1,1.79-10.81,29.93,29.93,0,0,1,5.58-9.49,46.61,46.61,0,0,1,9.65-8.33,93,93,0,0,1,14-7.5q-3-3-5.58-6.22a55.68,55.68,0,0,1-4.67-6.54,33.44,33.44,0,0,1-3.23-7,24.51,24.51,0,0,1-1.2-7.66,26,26,0,0,1,2.67-11.64,29.93,29.93,0,0,1,7.38-9.49,35.5,35.5,0,0,1,11.13-6.42,40.39,40.39,0,0,1,14-2.35A43.43,43.43,0,0,1,543,75.52a31.17,31.17,0,0,1,9.73,4.63,22.57,22.57,0,0,1,6.46,7.14,19.71,19.71,0,0,1,2.51,9.25q0,8.21-5.9,15.51t-18.1,14Q541.57,129.55,545.28,133.26Z"/></g></g></svg>