<svg xmlns="http://www.w3.org/2000/svg" xmlns:xlink="http://www.w3.org/1999/xlink" viewBox="0 0 211 211"><defs><style>.cls-1{fill:none;}.cls-2{clip-path:url(#clip-path);}.cls-3{fill:url(#linear-gradient);}.cls-4{clip-path:url(#clip-path-2);}.cls-5{fill:url(#linear-gradient-2);}.cls-6{fill:url(#linear-gradient-3);}.cls-7{fill:url(#linear-gradient-4);}.cls-8{fill:url(#linear-gradient-5);}.cls-9{fill:url(#linear-gradient-6);}</style><clipPath id="clip-path"><polygon class="cls-1" points="16.39 88.36 28.37 105.26 16.39 122.22 41.84 122.22 41.84 88.36 16.39 88.36"/></clipPath><linearGradient id="linear-gradient" x1="-650.44" y1="2439.97" x2="-647.79" y2="2439.97" gradientTransform="matrix(242.4, -101.35, -101.35, -242.4, 404767.51, 525710.93)" gradientUnits="userSpaceOnUse"><stop offset="0" stop-color="#a77b3e"/><stop offset="0.08" stop-color="#a77b3e"/><stop offset="0.17" stop-color="#ae8143"/><stop offset="0.3" stop-color="#c19353"/><stop offset="0.46" stop-color="#e0b06b"/><stop offset="0.5" stop-color="#e9b872"/><stop offset="0.64" stop-color="#cb9d5b"/><stop offset="0.8" stop-color="#b18446"/><stop offset="0.9" stop-color="#a77b3e"/><stop offset="1" stop-color="#a77b3e"/></linearGradient><clipPath id="clip-path-2"><polygon class="cls-1" points="166.48 88.36 166.48 122.22 194.61 122.22 181.36 105.26 194.61 88.36 166.48 88.36"/></clipPath><linearGradient id="linear-gradient-2" x1="-650.84" y1="2439.88" x2="-648.07" y2="2439.88" gradientTransform="matrix(242.4, -101.35, -101.35, -242.4, 404781.51, 525743.93)" xlink:href="#linear-gradient"/><linearGradient id="linear-gradient-3" x1="-93.24" y1="-66" x2="306.2" y2="-63.31" gradientTransform="matrix(1, 0, 0, -1, 0, 40)" xlink:href="#linear-gradient"/><linearGradient id="linear-gradient-4" x1="-93.29" y1="-58.44" x2="306.15" y2="-55.75" gradientTransform="matrix(1, 0, 0, -1, 0, 40)" xlink:href="#linear-gradient"/><linearGradient id="linear-gradient-5" x1="-93.19" y1="-72.3" x2="306.25" y2="-69.6" gradientTransform="matrix(1, 0, 0, -1, 0, 40)" xlink:href="#linear-gradient"/><linearGradient id="linear-gradient-6" x1="-93.23" y1="-66.58" x2="306.21" y2="-63.89" gradientTransform="matrix(1, 0, 0, -1, 0, 40)" xlink:href="#linear-gradient"/></defs><title>2018</title><g id="Layer_2" data-name="Layer 2"><g id="Layer_1-2" data-name="Layer 1"><rect class="cls-1" width="211" height="211"/><g id="Layer_2-2" data-name="Layer 2"><g id="Layer_1-2-2" data-name="Layer 1-2"><g class="cls-2"><polygon class="cls-3" points="8.59 93.39 38.05 74.36 49.65 117.18 20.19 136.22 8.59 93.39"/></g><g class="cls-4"><polygon class="cls-5" points="157.87 93.39 190.41 74.36 203.22 117.18 170.68 136.22 157.87 93.39"/></g><path class="cls-6" d="M99.24,94.78a3.27,3.27,0,0,0-.67-1.17,1.27,1.27,0,0,0-1-.43,2.62,2.62,0,0,0-1.73.74,8.42,8.42,0,0,0-1.62,2,19.28,19.28,0,0,0-1.43,3,29.53,29.53,0,0,0-1.14,3.68,39,39,0,0,0-.76,4.05,31.44,31.44,0,0,0-.28,4.13,20.15,20.15,0,0,0,.1,2,8,8,0,0,0,.36,1.75,3.12,3.12,0,0,0,.72,1.23,1.64,1.64,0,0,0,1.22.46,2.68,2.68,0,0,0,1.75-.72,7.75,7.75,0,0,0,1.59-2,17.78,17.78,0,0,0,1.36-3,29.94,29.94,0,0,0,1.06-3.69,39.53,39.53,0,0,0,.67-4.12,38,38,0,0,0,.24-4.26,15.93,15.93,0,0,0-.13-2A8.54,8.54,0,0,0,99.24,94.78Z"/><path class="cls-7" d="M128.27,92.69a3.08,3.08,0,0,0-2.35,1,3.5,3.5,0,0,0-.67,1.15,4.28,4.28,0,0,0-.24,1.46,4.22,4.22,0,0,0,.22,1.35,5.83,5.83,0,0,0,.58,1.23,9.37,9.37,0,0,0,.85,1.15q.48.56,1.06,1.12a9.53,9.53,0,0,0,2.18-2.76,7.47,7.47,0,0,0,.6-1.51,5.65,5.65,0,0,0,.2-1.48,2.93,2.93,0,0,0-.65-2A2.26,2.26,0,0,0,128.27,92.69Z"/><path class="cls-8" d="M127.3,108.36a13.35,13.35,0,0,0-1.23-1.56q-.7-.76-1.45-1.51a8.46,8.46,0,0,0-2.69,2.9,7.5,7.5,0,0,0-.94,3.69,6.2,6.2,0,0,0,.26,1.85,4.37,4.37,0,0,0,.72,1.42,3.18,3.18,0,0,0,1.1.9,3.14,3.14,0,0,0,1.4.31,3.61,3.61,0,0,0,1.62-.37,4,4,0,0,0,1.28-1,4.7,4.7,0,0,0,.84-1.46,5.09,5.09,0,0,0,.31-1.76,5.15,5.15,0,0,0-.35-1.78A8.41,8.41,0,0,0,127.3,108.36Z"/><path class="cls-9" d="M46,83v44.52H160.56V83Zm37.15,17.34a9.47,9.47,0,0,1-1.23,2.18,15,15,0,0,1-1.8,2q-1,.95-2.14,1.84t-2.27,1.76q-1.15.87-2.2,1.76a23.52,23.52,0,0,0-1.91,1.82,9.55,9.55,0,0,0-1.42,2,7.36,7.36,0,0,1,1.14-.22,10.91,10.91,0,0,1,1.09-.05,11.75,11.75,0,0,1,1.75.13q.83.13,1.6.29l1.46.29a7.34,7.34,0,0,0,1.32.13,4.11,4.11,0,0,0,1.78-.4,6,6,0,0,0,1.8-1.46l.11.07a6.82,6.82,0,0,1,.46,2.27,4,4,0,0,1-.4,1.82,4.36,4.36,0,0,1-1.08,1.4,5,5,0,0,1-1.57.9,5.39,5.39,0,0,1-1.85.32,7,7,0,0,1-1.77-.22q-.9-.22-1.82-.5t-1.91-.49a8.44,8.44,0,0,0-3.94,0,9.09,9.09,0,0,0-2.12.82h-.14a7.21,7.21,0,0,1-.22-1.72,6.34,6.34,0,0,1,.55-2.49,11.22,11.22,0,0,1,1.4-2.33,23,23,0,0,1,2-2.23q1.1-1.1,2.24-2.21t2.24-2.24a19.89,19.89,0,0,0,2-2.37,12.18,12.18,0,0,0,1.38-2.55,7.63,7.63,0,0,0,.52-2.81A10.14,10.14,0,0,0,77.94,96a4.56,4.56,0,0,0-.49-1.43,2.68,2.68,0,0,0-.87-1,2.21,2.21,0,0,0-1.23-.34,2.94,2.94,0,0,0-1.18.22,2.69,2.69,0,0,0-.9.65,3,3,0,0,0-.59.95,3.13,3.13,0,0,0-.22,1.15A4.66,4.66,0,0,0,73,98.49a3.53,3.53,0,0,0,1.23,1.37V100a5.14,5.14,0,0,1-1.36.9,3.43,3.43,0,0,1-1.41.33,2.18,2.18,0,0,1-1-.25,2.45,2.45,0,0,1-.84-.73A3.87,3.87,0,0,1,69,99.06a5.57,5.57,0,0,1-.22-1.62,5.39,5.39,0,0,1,.52-2.21,6.28,6.28,0,0,1,1.46-2,7.46,7.46,0,0,1,2.41-1.47,9.07,9.07,0,0,1,3.32-.56,8.63,8.63,0,0,1,2.86.45,6.51,6.51,0,0,1,2.24,1.32A5.91,5.91,0,0,1,83.09,95a7.16,7.16,0,0,1,.53,2.82,6.61,6.61,0,0,1-.47,2.47Zm21.42,2.35q-.15,1.53-.47,3.14a30.7,30.7,0,0,1-.83,3.21,22.53,22.53,0,0,1-1.23,3.08,17.93,17.93,0,0,1-1.65,2.74,11.36,11.36,0,0,1-2.1,2.2,9.59,9.59,0,0,1-2.59,1.47,8.73,8.73,0,0,1-3.11.54,8,8,0,0,1-3.58-.72,5.85,5.85,0,0,1-2.27-2,8,8,0,0,1-1.19-2.92,17.55,17.55,0,0,1-.35-3.59,29.51,29.51,0,0,1,.4-4.91,25.25,25.25,0,0,1,1.17-4.49,20.2,20.2,0,0,1,1.87-3.85,14.24,14.24,0,0,1,2.49-3,10.79,10.79,0,0,1,3-2,8.89,8.89,0,0,1,3.51-.7,7.23,7.23,0,0,1,3.14.64,5.87,5.87,0,0,1,2.2,1.8,7.84,7.84,0,0,1,1.29,2.78,14.46,14.46,0,0,1,.42,3.62q0,1.33-.15,2.86Zm.81,16,4.83-22.87h-3.47l.43-1.68q.75,0,1.68-.07a12.12,12.12,0,0,0,2.08-.37,19.78,19.78,0,0,0,2.52-.86,22.52,22.52,0,0,0,3-1.57l-5.83,27.42ZM131,104.26a13.52,13.52,0,0,1,1.49,1.77,9.2,9.2,0,0,1,1.07,2,7.07,7.07,0,0,1,.45,2.35,7.55,7.55,0,0,1-.72,3.26,8.49,8.49,0,0,1-2,2.69,9.66,9.66,0,0,1-3,1.83,10.76,10.76,0,0,1-7.08.22,7.85,7.85,0,0,1-2.62-1.41,6.53,6.53,0,0,1-2.39-5.08,7.21,7.21,0,0,1,.4-2.43,6.72,6.72,0,0,1,1.25-2.13,10.46,10.46,0,0,1,2.17-1.87,20.87,20.87,0,0,1,3.14-1.68,17.06,17.06,0,0,1-1.25-1.4,12.5,12.5,0,0,1-1-1.47,7.5,7.5,0,0,1-.72-1.57,5.5,5.5,0,0,1-.27-1.72,5.83,5.83,0,0,1,.6-2.61,6.72,6.72,0,0,1,1.66-2.13,8,8,0,0,1,2.5-1.44,9.06,9.06,0,0,1,3.14-.53,9.75,9.75,0,0,1,2.72.36,7,7,0,0,1,2.18,1,5.06,5.06,0,0,1,1.45,1.6,4.42,4.42,0,0,1,.56,2.08,5.45,5.45,0,0,1-1.32,3.48,13.56,13.56,0,0,1-4.06,3.14q.87.79,1.7,1.62Z"/></g></g></g></g></svg>