<svg xmlns="http://www.w3.org/2000/svg" viewBox="0 0 200 199.3"><defs><style>.cls-1{fill:#e5b173;}</style></defs><title>Asset 3</title><g id="Layer_2" data-name="Layer 2"><g id="Layer_1-2" data-name="Layer 1"><path class="cls-1" d="M86,0h28a8.6,8.6,0,0,0,1.79.79Q180.41,13.39,197.52,77c1,3.64,1.66,7.36,2.48,11v24a15.9,15.9,0,0,0-.93,2.8c-3.25,23.15-13.93,42.61-30.91,58.19-17.5,16.05-38.24,25.37-62.5,26.25C59.42,200.9,18.91,173.36,5.23,130.17,2.85,122.65,1.71,114.73,0,107V92a16.36,16.36,0,0,0,.87-2.76C6.34,48,28.83,20.11,67.43,5.15,73.39,2.84,79.8,1.69,86,0Zm90,56a29.36,29.36,0,0,0,4.52,2.74,15.69,15.69,0,0,1,10.25,11.74c1.19,5,3,9.76,4.57,14.64,0-4.95-1.48-9.52-2.21-14.21-1.56-10-9.15-12.57-17.2-14.81-1.08-.64-2.1-1.67-3.26-1.86-5.36-.89-8.34-4.57-11.66-8.45-6.35-7.39-13.43-14.15-20.05-21.32a8.34,8.34,0,0,1-1.8-4.62c-.28-2.95-.08-5.94-.08-8.91a14.94,14.94,0,0,0-1,7.15c.22,3.48-1.05,4.75-4.75,5.18-7.23.84-14.69,1.61-21.42,4.12S99.09,30.51,93,26.44L77.59,23l-11.73-1.8V9.35C49.78,12.62,23.74,34.55,17.33,50c2.38,0,4.65,0,6.92,0,7.53.19,7.12.47,8,7.92,1,9.12,3.19,18.11,4.86,27.16l-.12-.24A57.26,57.26,0,0,1,35,92.25q-5.37,13.33-11.13,26.51c-.6,1.37-2.14,3.17-3.36,3.27-4.65.39-9.36.16-14,.16l0,1.43c4,0,8.19.55,12.1-.16,3.75-.67,4.93,1,6.93,3.62,6.4,8.44,13.15,16.64,20.26,24.49,2.42,2.67,4.6,4.72,4.6,8.67,0,3,1.16,5.91,1.81,8.86a30.31,30.31,0,0,0-.76-9.38c-.79-3.44-.07-5.29,3.61-6.71a251.21,251.21,0,0,0,23.21-10.35c3.44-1.74,6.12-1.72,9.74-.52,11.15,3.71,22.51,6.79,33.81,10.1,1.18,1.2,3,2.21,3.42,3.63,2.43,8.18,4.52,16.46,6.69,24.56,3.93-.46,8.21-.9,12.48-1.47,16.17-2.16,28-9.75,33-26.15,2.31-7.63,5-15.13,7.21-21.7-1.85,3.68-5,3.27-9.21.94-4.77-2.65-10-4.42-15-6.74a29.59,29.59,0,0,1-4.37-3c-.83,1.43-1.49,3.49-2.87,4.78-8,7.49-16.08,14.91-24.37,22.08-1.88,1.63-4.69,2.18-7.07,3.23a16.86,16.86,0,0,0-2.75-1.48c-10.08-3.24-20.16-6.49-30.29-9.6-3.4-1-5-3.11-5.71-6.61-2.2-10.72-4.86-21.35-7.06-32.07-.43-2.08.44-4.43.72-6.65l26.2-24.89c2.12-.67,4.55-2.38,6.31-1.85C121.31,72.86,133.43,77,145.54,81c.8.27,1.29,1.45,1.6,1.82,1.42-2.71,2.54-5.27,4-7.59,2.88-4.48,6.08-8.75,9-13.23,5.3-8.27,5.24-8.31,14.86-6A3.46,3.46,0,0,0,176,56ZM110,193.7c-24.54,1.11-40.18-2.44-52.39-12.22l-6.19,2.17C70.5,193,89.13,199.78,110,193.7Z"/><path class="cls-1" d="M102.76,71.05,76.56,95.95c-2,0-4.16.52-6.08.07-9.14-2.13-18.18-4.77-27.36-6.67-3.08-.64-5-1.78-6.18-4.47l.12.24c-1.25-7.52-2.87-15-3.61-22.56-.45-4.65-1.35-10.79,1-13.91C45.27,34.55,57,21,77.59,23L93,26.44c.76.75,1.4,1.86,2.31,2.18,4.59,1.63,6.55,4.74,7,9.6.73,7.56,1.89,15.1,3.31,22.56C106.38,64.88,106,68.25,102.76,71.05Z"/></g></g></svg>