<svg xmlns="http://www.w3.org/2000/svg" viewBox="0 0 215.24 215.32"><defs><style>.cls-1{fill:#e5b173;}</style></defs><title>Asset 4</title><g id="Layer_2" data-name="Layer 2"><g id="Layer_1-2" data-name="Layer 1"><path class="cls-1" d="M125,.93q69.79,13.6,88.27,82.25C216,94,215.14,123,215,124.06c-3.51,25-15,46-33.38,62.84-18.9,17.34-41.3,27.4-67.5,28.35C64.17,217,20.42,187.3,5.65,140.65c-2.57-8.12-3.8-16.67-5.65-25V99.43a17.67,17.67,0,0,0,.94-3C6.85,51.88,32,23.91,72.82,5.63,92-3,124.38.8,125,.93Zm65,59.62a31.71,31.71,0,0,0,4.88,3A17,17,0,0,1,206,76.18c1.29,5.36,3.26,10.54,4.93,15.81,0-5.34-1.59-10.28-2.39-15.35-1.69-10.75-9.88-13.58-18.57-16-1.17-.69-2.27-1.81-3.52-2-5.79-1-9-4.94-12.6-9.12-6.86-8-14.51-15.28-21.66-23a9,9,0,0,1-1.95-5c-.31-3.18-.09-6.42-.09-9.63a16.14,16.14,0,0,0-1.09,7.72c.23,3.76-1.14,5.13-5.13,5.59-7.8.9-15.87,1.74-23.14,4.45S107,33,100.39,28.63L83.8,24.93,71.13,23V10.16C53.76,13.7,25.64,37.38,18.71,54.1c2.57,0,5-.05,7.47,0,8.13.21,7.69.5,8.59,8.56C35.88,72.52,38.22,82.23,40,92l-.13-.26a61.85,61.85,0,0,1-2.08,8q-5.8,14.4-12,28.63c-.65,1.48-2.31,3.42-3.63,3.53-5,.42-10.11.17-15.17.17l0,1.55c4.37,0,8.84.59,13.07-.17,4.05-.73,5.33,1.06,7.49,3.91,6.91,9.11,14.2,18,21.88,26.44,2.61,2.88,5,5.1,5,9.37,0,3.19,1.26,6.38,2,9.57a32.74,32.74,0,0,0-.82-10.13c-.86-3.71-.07-5.72,3.9-7.24a271.31,271.31,0,0,0,25.07-11.18c3.71-1.88,6.61-1.86,10.52-.56,12,4,24.31,7.34,36.51,10.91,1.27,1.29,3.24,2.38,3.69,3.92,2.62,8.84,4.88,17.78,7.22,26.52,4.24-.5,8.87-1,13.48-1.59,17.47-2.34,30.24-10.53,35.6-28.25,2.49-8.24,5.42-16.35,7.79-23.44-2,4-5.44,3.53-9.95,1-5.15-2.87-10.82-4.77-16.18-7.28a32,32,0,0,1-4.72-3.28c-.9,1.54-1.61,3.77-3.1,5.16-8.65,8.09-17.37,16.1-26.32,23.84-2,1.76-5.07,2.36-7.64,3.49a18.21,18.21,0,0,0-3-1.59c-10.89-3.5-21.78-7-32.71-10.37-3.67-1.13-5.39-3.36-6.17-7.14-2.38-11.58-5.25-23.06-7.62-34.64-.46-2.25.48-4.78.77-7.18L111,76.81c2.29-.73,4.91-2.57,6.81-2,13.22,4,26.3,8.37,39.39,12.76.86.29,1.39,1.57,1.73,2,1.54-2.93,2.75-5.69,4.36-8.2,3.11-4.83,6.57-9.45,9.67-14.29,5.72-8.93,5.66-9,16-6.45A3.74,3.74,0,0,0,190.06,60.54ZM118.77,209.26c-26.5,1.2-43.39-2.63-56.58-13.19l-6.69,2.35C76.14,208.47,96.26,215.83,118.77,209.26Z"/><path class="cls-1" d="M108.76,75.1,82.56,100c-2,0-4.16.52-6.08.07-9.14-2.13-18.18-4.77-27.36-6.67-3.08-.64-5-1.78-6.18-4.47l.12.24c-1.25-7.52-2.87-15-3.61-22.56C39,62,38.1,55.81,40.49,52.69,51.27,38.59,63,25.08,83.59,27.06c5.12,1.14,16.76,5.28,17.67,5.6,4.59,1.63,6.55,4.74,7,9.6.73,7.56,1.89,15.1,3.31,22.56C112.38,68.93,112,72.29,108.76,75.1Z"/></g></g></svg>