<svg xmlns="http://www.w3.org/2000/svg" xmlns:xlink="http://www.w3.org/1999/xlink" viewBox="0 0 67.59 21.48"><defs><style>.cls-1{fill:none;}.cls-2{clip-path:url(#clip-path);}.cls-3{fill:url(#linear-gradient);}.cls-4{clip-path:url(#clip-path-2);}.cls-5{fill:url(#linear-gradient-2);}.cls-6{fill:url(#linear-gradient-3);}.cls-7{fill:url(#linear-gradient-4);}.cls-8{fill:url(#linear-gradient-5);}</style><clipPath id="clip-path"><polygon class="cls-1" points="2.71 4.86 6.87 10.73 2.71 16.62 11.55 16.62 11.55 4.86 2.71 4.86"/></clipPath><linearGradient id="linear-gradient" x1="100.58" y1="1563.37" x2="101.5" y2="1563.37" gradientTransform="matrix(242.4, -101.34, -101.34, -242.4, 133987.29, 389193.97)" gradientUnits="userSpaceOnUse"><stop offset="0" stop-color="#a77b3e"/><stop offset="0.08" stop-color="#a77b3e"/><stop offset="0.17" stop-color="#ae8143"/><stop offset="0.3" stop-color="#c19353"/><stop offset="0.46" stop-color="#e0b06b"/><stop offset="0.5" stop-color="#e9b872"/><stop offset="0.64" stop-color="#cb9d5b"/><stop offset="0.8" stop-color="#b18446"/><stop offset="0.9" stop-color="#a77b3e"/><stop offset="1" stop-color="#a77b3e"/></linearGradient><clipPath id="clip-path-2"><polygon class="cls-1" points="54.83 4.86 54.83 16.62 64.6 16.62 60 10.73 64.6 4.86 54.83 4.86"/></clipPath><linearGradient id="linear-gradient-2" x1="100.44" y1="1563.43" x2="101.4" y2="1563.43" gradientTransform="matrix(242.4, -101.34, -101.34, -242.4, 134001.29, 389226.97)" xlink:href="#linear-gradient"/><linearGradient id="linear-gradient-3" x1="100.62" y1="1563.4" x2="101.35" y2="1563.4" gradientTransform="matrix(242.4, -101.34, -101.34, -242.4, 133994.35, 389210.47)" xlink:href="#linear-gradient"/><linearGradient id="linear-gradient-4" x1="100.62" y1="1563.38" x2="101.35" y2="1563.38" gradientTransform="matrix(242.4, -101.34, -101.34, -242.4, 133994.35, 389210.47)" xlink:href="#linear-gradient"/><linearGradient id="linear-gradient-5" x1="100.62" y1="1563.4" x2="101.35" y2="1563.4" gradientTransform="matrix(242.4, -101.34, -101.34, -242.4, 133994.35, 389210.47)" xlink:href="#linear-gradient"/></defs><title>6</title><g id="Layer_2" data-name="Layer 2"><g id="teksts"><g class="cls-2"><polygon class="cls-3" points="0 6.61 10.23 0 14.26 14.87 4.03 21.48 0 6.61"/></g><g class="cls-4"><polygon class="cls-5" points="51.84 6.61 63.14 0 67.59 14.87 56.29 21.48 51.84 6.61"/></g><path class="cls-6" d="M33.75,6.53a1.16,1.16,0,0,0-.24-.42A.45.45,0,0,0,33.17,6a.93.93,0,0,0-.61.26,3,3,0,0,0-.57.72A6.91,6.91,0,0,0,31.48,8a10.59,10.59,0,0,0-.4,1.3,14.31,14.31,0,0,0-.27,1.44,11.18,11.18,0,0,0-.1,1.47q0,.37,0,.72a2.89,2.89,0,0,0,.13.62,1.11,1.11,0,0,0,.26.44.58.58,0,0,0,.43.17,1,1,0,0,0,.62-.26,2.75,2.75,0,0,0,.57-.71,6.3,6.3,0,0,0,.48-1.05,10.64,10.64,0,0,0,.37-1.31,13.65,13.65,0,0,0,.24-1.46,13.36,13.36,0,0,0,.09-1.51,5.69,5.69,0,0,0,0-.72A3.06,3.06,0,0,0,33.75,6.53Z"/><path class="cls-7" d="M41.89,12.16A4.44,4.44,0,0,0,42,13a1.92,1.92,0,0,0,.21.59.84.84,0,0,0,.32.33.87.87,0,0,0,1-.1,1.93,1.93,0,0,0,.48-.56,3.36,3.36,0,0,0,.34-.85,4.1,4.1,0,0,0,.13-1.06,2.21,2.21,0,0,0-.08-.63,1.19,1.19,0,0,0-.22-.42.79.79,0,0,0-.33-.23,1.16,1.16,0,0,0-.42-.07,1.4,1.4,0,0,0-.68.15,1.24,1.24,0,0,0-.46.43,2,2,0,0,0-.26.68A4.39,4.39,0,0,0,41.89,12.16Z"/><path class="cls-8" d="M52.93,3H13.15V18.46H52.93ZM28,8.5a3.36,3.36,0,0,1-.44.77A5.28,5.28,0,0,1,27,10q-.36.34-.76.65l-.81.63q-.41.31-.78.63a8.3,8.3,0,0,0-.68.65,3.36,3.36,0,0,0-.5.69,2.6,2.6,0,0,1,.41-.08l.39,0a4.13,4.13,0,0,1,.62,0l.57.1.52.1a2.59,2.59,0,0,0,.47,0,1.46,1.46,0,0,0,.63-.14,2.13,2.13,0,0,0,.64-.52l0,0a2.41,2.41,0,0,1,.17.81,1.43,1.43,0,0,1-.14.64,1.54,1.54,0,0,1-.38.5,1.78,1.78,0,0,1-.56.32,1.91,1.91,0,0,1-.66.11,2.48,2.48,0,0,1-.63-.08l-.65-.18-.68-.18a3,3,0,0,0-.71-.08,3,3,0,0,0-.69.08A3.23,3.23,0,0,0,22,15H22a2.56,2.56,0,0,1-.08-.61,2.26,2.26,0,0,1,.19-.88,3.91,3.91,0,0,1,.5-.83,8.14,8.14,0,0,1,.7-.79l.79-.78.79-.8a7.12,7.12,0,0,0,.69-.84,4.33,4.33,0,0,0,.49-.9,2.72,2.72,0,0,0,.18-1,3.57,3.57,0,0,0-.05-.64A1.59,1.59,0,0,0,26,6.44a.94.94,0,0,0-.3-.33A.78.78,0,0,0,25.28,6a1,1,0,0,0-.42.08,1,1,0,0,0-.32.23,1.05,1.05,0,0,0-.21.34,1.11,1.11,0,0,0-.08.41,1.66,1.66,0,0,0,.18.81,1.25,1.25,0,0,0,.44.49v.05a1.84,1.84,0,0,1-.48.32,1.21,1.21,0,0,1-.5.12.78.78,0,0,1-.36-.09.87.87,0,0,1-.3-.26A1.39,1.39,0,0,1,23,8a2,2,0,0,1-.08-.57,1.91,1.91,0,0,1,.18-.78A2.24,2.24,0,0,1,23.64,6a2.66,2.66,0,0,1,.85-.52,3.22,3.22,0,0,1,1.18-.2,3.07,3.07,0,0,1,1,.16,2.31,2.31,0,0,1,.8.47,2.09,2.09,0,0,1,.52.75,2.55,2.55,0,0,1,.19,1A2.36,2.36,0,0,1,28,8.5Zm7.6.83q-.05.54-.17,1.11a10.78,10.78,0,0,1-.3,1.14,7.85,7.85,0,0,1-.43,1.09,6.26,6.26,0,0,1-.58,1,4,4,0,0,1-.75.78,3.39,3.39,0,0,1-.92.52,3.1,3.1,0,0,1-1.1.19,2.83,2.83,0,0,1-1.27-.25,2.08,2.08,0,0,1-.81-.69,2.85,2.85,0,0,1-.42-1,6.27,6.27,0,0,1-.12-1.27,10.42,10.42,0,0,1,.14-1.74,8.87,8.87,0,0,1,.42-1.59A7.12,7.12,0,0,1,30,7.19a5.08,5.08,0,0,1,.88-1.06,3.84,3.84,0,0,1,1.08-.69,3.16,3.16,0,0,1,1.24-.25,2.57,2.57,0,0,1,1.11.23,2.08,2.08,0,0,1,.78.63,2.75,2.75,0,0,1,.46,1,5.12,5.12,0,0,1,.15,1.28Q35.69,8.79,35.64,9.34ZM37.8,15H35.93L37.64,6.9H36.41l.15-.6.6,0a4.38,4.38,0,0,0,.74-.13,7.15,7.15,0,0,0,.89-.3,8.06,8.06,0,0,0,1.08-.56Zm8.55-7.8a1.26,1.26,0,0,1-.2.38,1,1,0,0,1-.3.25.8.8,0,0,1-.38.09.75.75,0,0,1-.4-.11.63.63,0,0,1-.26-.3.71.71,0,0,0,.32-.32,1,1,0,0,0,.11-.43.92.92,0,0,0,0-.27.67.67,0,0,0-.13-.23.63.63,0,0,0-.21-.16.69.69,0,0,0-.3-.06,1.25,1.25,0,0,0-.79.32,3.42,3.42,0,0,0-.74.9,7,7,0,0,0-.61,1.36A10,10,0,0,0,42,10.33h0a1.74,1.74,0,0,1,.77-.91,2.49,2.49,0,0,1,1.26-.3,2.11,2.11,0,0,1,.81.15,1.71,1.71,0,0,1,.63.44,2.11,2.11,0,0,1,.41.71,2.86,2.86,0,0,1,.15.94,3.63,3.63,0,0,1-.12.95,4,4,0,0,1-.35.88,3.85,3.85,0,0,1-.54.76,3.72,3.72,0,0,1-.7.6,3.35,3.35,0,0,1-.82.4,2.87,2.87,0,0,1-.9.14,3.28,3.28,0,0,1-1.18-.19,1.92,1.92,0,0,1-.83-.61,2.73,2.73,0,0,1-.49-1.06A6.65,6.65,0,0,1,40,11.64a8.77,8.77,0,0,1,.16-1.7,8.12,8.12,0,0,1,.45-1.52,6.51,6.51,0,0,1,.7-1.29,5.06,5.06,0,0,1,.92-1,4,4,0,0,1,1.08-.64,3.33,3.33,0,0,1,1.22-.23,2.71,2.71,0,0,1,.77.1,1.8,1.8,0,0,1,.6.3,1.32,1.32,0,0,1,.38.47,1.36,1.36,0,0,1,.13.6A1.46,1.46,0,0,1,46.35,7.21Z"/></g></g></svg>