<svg xmlns="http://www.w3.org/2000/svg" viewBox="0 0 211 211"><defs><style>.cls-1{fill:none;}.cls-2{fill:#c49653;}</style></defs><title>comedy club</title><g id="Layer_2" data-name="Layer 2"><g id="Layer_1-2" data-name="Layer 1"><rect class="cls-1" width="211" height="211"/><path class="cls-2" d="M165.39,135.23c-1.47-.06-2.95-.22-4.42-.21-1,0-1-.31-.58-1.06,1-2,2-3.94,2.93-6a61,61,0,0,0,5.37-26.92A62.57,62.57,0,0,0,167.45,90a60.38,60.38,0,0,0-18-32.45,66.79,66.79,0,0,0-15.65-11.18C121.27,40.05,108,38.59,94.38,41,76.24,44.12,62.07,53.59,52.15,69.08,43.24,83,40.45,98.24,43.45,114.5A61.9,61.9,0,0,0,50.23,133c1,1.79.75,2.14-1.33,2.15h-4c.19.4.3.65.43.89A59.67,59.67,0,0,0,55,149.47c12.21,12.74,27,20.17,44.72,21.43A72.63,72.63,0,0,0,126,168.16c17.66-5.3,30.19-17,39.83-32.2C166.16,135.37,166,135.25,165.39,135.23Zm-59.21-73c21.32.3,39.23,17.68,39,39.43a39.33,39.33,0,0,1-39.58,39.15c-21.41.2-39.7-17.89-39.46-39.75C66.4,80.23,84,61.87,106.18,62.18Zm51.61,42.23a1.42,1.42,0,0,0-.82,1.2,69.8,69.8,0,0,1-4.9,18.68c-5.93,13.72-16.21,22.57-30.32,27.16a69.54,69.54,0,0,1-13.88,2.95c-.67.07-.89.27-.87,1,0,2.39,0,4.78,0,7.17,0,1.61-.35,2.06-1.79,2.08s-2.06-.4-2-2c.09-2.35.07-4.7,0-7.05,0-.94-.28-1.13-1.18-1.19a51.83,51.83,0,0,1-45.79-34,50.89,50.89,0,0,1-2.92-14.72,1.45,1.45,0,0,0-.78-1.35,8.73,8.73,0,0,1-1.81-1.44c-3.76-3.71-1.35-9.25,2.7-10.38A6.44,6.44,0,0,1,61.62,100a6.54,6.54,0,0,1-3.47,4.18,1.75,1.75,0,0,0-1,1.84,44.86,44.86,0,0,0,9.17,25.27,47.22,47.22,0,0,0,30.89,18.82,53.61,53.61,0,0,0,8.5.65,47.27,47.27,0,0,0,34.66-15.14,46.24,46.24,0,0,0,12.36-25.25c.24-1.56.28-3.15.46-4.72a1.31,1.31,0,0,0-.7-1.37c-1.69-1.14-3.17-2.47-3.52-4.64a6.45,6.45,0,0,1,4.55-7.15A6,6,0,0,1,160,94.31a5.87,5.87,0,0,1,1.22,6.55A7.36,7.36,0,0,1,157.79,104.41Z"/><path class="cls-2" d="M106,129.85a28.46,28.46,0,1,0-28.76-28.43A28.47,28.47,0,0,0,106,129.85Z"/></g></g></svg>