<svg xmlns="http://www.w3.org/2000/svg" viewBox="0 0 211 211"><defs><style>.cls-1{fill:none;}.cls-2{fill:#c49653;}</style></defs><title>de-phazz</title><g id="Layer_2" data-name="Layer 2"><g id="Layer_1-2" data-name="Layer 1"><rect class="cls-1" width="211" height="211"/><path class="cls-2" d="M26.07,93.33c-3.88-.95-7.84-.36-11.75-.56-1.17-.06-1.6.24-1.57,1.5.09,3.78,0,7.56,0,11.34s0,7.77,0,11.65c0,.57-.22,1.3.81,1.26,3.93-.15,7.88.37,11.78-.32,5.92-1.06,10.32-6,10.47-11.55C36,99.78,32.44,94.89,26.07,93.33ZM26.9,112c-2.1,1.92-4.69,1.72-7.24,1.62-.62,0-.63-.63-.63-1.05,0-4.69,0-9.38,0-14.07,0-.71.34-.87.95-.84s.92,0,1.38,0c3.84,0,6.29,1.46,7.47,4.43C30.17,105.59,29.38,109.74,26.9,112Z"/><path class="cls-2" d="M127.6,105.44c0-3.88,0-7.77,0-11.65,0-1-.21-1.39-1.26-1.32a33.37,33.37,0,0,1-4,0c-1-.05-1.21.34-1.2,1.24,0,2.61,0,5.21,0,7.82,0,1-.23,1.36-1.27,1.33-2.45-.07-4.91-.06-7.36,0-.93,0-1.25-.26-1.23-1.21.06-2.61,0-5.21,0-7.82,0-1.1-.34-1.43-1.4-1.36a34.81,34.81,0,0,1-3.68,0c-.81,0-1.19.17-1.19,1.09q0,11.81,0,23.61c0,.79.23,1.09,1,1.06a38.41,38.41,0,0,1,4,0c1.06.07,1.44-.26,1.39-1.36-.12-2.6-.09-5.21-.2-7.81,0-1,.24-1.46,1.35-1.42,2.4.08,4.81.07,7.21,0,1,0,1.31.31,1.3,1.31,0,2.71.05,5.42,0,8.12,0,.85.24,1.19,1.13,1.14a34.71,34.71,0,0,1,4,0c1,.07,1.27-.33,1.26-1.3C127.57,113.11,127.6,109.28,127.6,105.44Z"/><path class="cls-2" d="M147.49,93.22c-.23-.67-.63-.8-1.26-.79-1.74,0-3.48.07-5.22,0a1.66,1.66,0,0,0-2,1.35c-1.56,4.75-3.25,9.46-4.88,14.19-1.16,3.37-2.3,6.74-3.5,10.26a44.18,44.18,0,0,1,4.59,0c1.67.18,2.6-.38,2.8-2.06.22-1.85,1.2-2.58,3.08-2.3a20.56,20.56,0,0,0,3.06,0c3.61,0,3.63,0,4.81,3.29.23.66.47,1,1.25,1,1.89-.05,3.78,0,5.7,0a2.49,2.49,0,0,0,0-.53Q151.7,105.46,147.49,93.22Zm-2.06,15.84c-1.38,0-2.76,0-4.14,0-.42,0-.87,0-.65-.65.87-2.6,1.72-5.21,2.7-8.18,1,2.93,1.83,5.48,2.69,8C146.23,108.85,146.08,109.08,145.43,109.07Z"/><path class="cls-2" d="M94.55,92.76c-3.76-.58-7.55-.11-11.32-.3-1.21-.06-1.44.39-1.42,1.49.06,3.78,0,7.56,0,11.34s0,7.77,0,11.65c0,1,.25,1.37,1.27,1.3a25.42,25.42,0,0,1,3.68,0c1.12.09,1.55-.23,1.48-1.42-.14-2.29-.08-4.59-.2-6.88-.07-1.22.23-1.81,1.57-1.66a16,16,0,0,0,2.76,0c2.75-.17,5.45-.62,7.27-3A7.69,7.69,0,0,0,94.55,92.76Zm-2.28,10.69h-.15c-1.3-.13-3.29.65-3.77-.23-.84-1.53-.25-3.56-.26-5.39,0-.51.44-.47.8-.48h1.68c2.84,0,3.79.49,4.28,2.23A2.94,2.94,0,0,1,92.27,103.45Z"/><path class="cls-2" d="M176.44,93.76c-.06-1-.29-1.31-1.3-1.3-4.5,0-9,0-13.5,0-3.43,0-3.38,0-3.42,3.46,0,1.17.33,1.46,1.46,1.44,3-.08,6.08,0,9.34,0-.35.56-.55.9-.77,1.23-2.77,4.11-5.45,8.28-8.35,12.29a8.59,8.59,0,0,0-1.7,5.67c0,1.28.26,1.75,1.67,1.72,4.34-.1,8.69,0,13,0,3.58,0,3.54,0,3.52-3.63,0-1.05-.37-1.27-1.33-1.26-3.06.05-6.11,0-9.48,0,3.11-4.61,5.91-9,9-13.21A9.24,9.24,0,0,0,176.44,93.76Z"/><path class="cls-2" d="M196.85,113.33c-3,.07-6.1,0-9.36,0,.34-.57.56-1,.8-1.33,2.68-4,5.25-8,8.1-11.91a9.16,9.16,0,0,0,1.84-6.39c-.07-1-.38-1.27-1.34-1.26-4.45,0-8.89,0-13.34,0-3.56,0-3.49,0-3.54,3.49,0,1.23.43,1.42,1.5,1.4,3-.07,6,0,9.35,0-3.11,4.62-6,9-9,13.3a9,9,0,0,0-1.85,6.24c.08,1.06.33,1.37,1.39,1.36,4.45-.06,8.89,0,13.34,0,3.51,0,3.47,0,3.48-3.51C198.22,113.65,197.94,113.31,196.85,113.33Z"/><path class="cls-2" d="M52.2,113.37c-.56,0-1.12,0-1.69,0-4.77,0-4.75,0-4.52-4.77,0-.78.24-1.1,1.06-1.07,1.23.05,2.45,0,3.68,0,3.61,0,3.56,0,3.55-3.62,0-1.09-.41-1.27-1.35-1.25-1.94.05-3.89,0-5.83,0-.75,0-1.14-.19-1.11-1,0-1.12,0-2.25,0-3.37,0-.73.26-1,1-1,1.64,0,3.27,0,4.91,0,3.56,0,3.53,0,3.5-3.56,0-.94-.19-1.35-1.26-1.33q-6.52.09-13,0c-1.13,0-1.34.39-1.33,1.41.05,3.83,0,7.67,0,11.51s0,7.77,0,11.66c0,.59-.16,1.25.84,1.24,4.65,0,9.31,0,14,0,.38,0,.77-.05.75-.54,0-1.37.49-2.92-.24-4C54.6,112.86,53.2,113.45,52.2,113.37Z"/><path class="cls-2" d="M75.16,102.66c-3.62.11-7.23,0-10.85.15-4.12.17-4.1.07-3.9,4.21,0,.8.28,1.07,1.07,1.05,2.29,0,4.59,0,6.88,0H72.8c3.87,0,3.82,0,3.84-3.94C76.65,103,76.28,102.62,75.16,102.66Z"/></g></g></svg>