<svg xmlns="http://www.w3.org/2000/svg" viewBox="0 0 51.14 37.07"><defs><style>.cls-1{fill:#b0915d;}.cls-2{fill:#241e1b;}</style></defs><title>dinamo</title><g id="Layer_2" data-name="Layer 2"><g id="ikonas"><g id="dinamo-riga-2017-1280-10-404"><g id="Group-56"><g id="Group"><g id="dinamo-logo-copy"><path id="Shape" class="cls-1" d="M41.12,22c-.15-1-.53-2.56-.87-4-.1-.44-.59-2.43-1.06-4.32l-.63-2.55c-.09-.34-.16-.63-.21-.82a2,2,0,0,1-.06-.24s0,0,0-.07v0h0s0,0,0,0h0l0,0A.59.59,0,0,0,38,9.71l-.1,0-.07,0a.43.43,0,0,0-.2,0c-.12,0-1,.09-1.55.09h-.26a5.43,5.43,0,0,1-2.66-.86,9.69,9.69,0,0,1-1.57-1.53c-.14-.15-.44.23-2.2.53a30.07,30.07,0,0,1-4.51.26,14.9,14.9,0,0,1-2.84-.06c-2.12-.37-2.36-1-2.51-.81a11.53,11.53,0,0,1-1.42,1.69,3.55,3.55,0,0,1-2.39.78h-.26c-.3,0-.7,0-1,0l-.39,0h-.2a.49.49,0,0,0-.35.15.46.46,0,0,0-.11.15c0,.08,0,.07,0,.09s0,.07,0,.14c-.24.9-1.76,7.07-2,7.89-.34,1.4-.73,3-.87,4a9.62,9.62,0,0,0-.14,1.57,8,8,0,0,0,2.79,6.06,19.88,19.88,0,0,0,7.08,3.84,16.7,16.7,0,0,1,3.14,1.62,12.93,12.93,0,0,1,1.3,1l1.11,1,1.14-1a12.54,12.54,0,0,1,1.07-.85l.23-.16a16.53,16.53,0,0,1,3.13-1.61,19.89,19.89,0,0,0,7.08-3.84,8,8,0,0,0,2.79-6.06A15,15,0,0,0,41.12,22"/><path id="Shape-2" data-name="Shape" class="cls-2" d="M31.36,8a23.36,23.36,0,0,1-5.53.79c-2,0-4.28.08-6.09-.86l-.57.75a4.16,4.16,0,0,1-3.37,1.62,18.25,18.25,0,0,1-1.91-.08s-1.78,7.11-2,8c-.34,1.4-.73,3-.87,3.92-.92,5.35,3.07,8.71,9.39,10.86a16.92,16.92,0,0,1,3.25,1.67c.8.52,2.2,1.69,2.14,2-.06-.26,1.35-1.43,2.15-2a17.51,17.51,0,0,1,3.25-1.67c6.31-2.15,10.3-5.51,9.39-10.86-.15-.93-.53-2.52-.87-3.92-.2-.86-2-8-2-8a17.5,17.5,0,0,1-1.91.09,5.64,5.64,0,0,1-3.12-1.14"/><path id="Shape-3" data-name="Shape" d="M37.73,10.13h0m0,0h0m.1,0h0a0,0,0,0,0,0,0s0,0,0,0h0m0,.08h0m-23.84,0s0,.13-.06.23-.12.48-.21.81c-.17.68-.4,1.6-.63,2.54-.47,1.89-1,3.88-1.06,4.31-.34,1.4-.73,3-.87,3.91A8.57,8.57,0,0,0,11,23.56c0,4.47,3.78,7.38,9.48,9.33a17.21,17.21,0,0,1,3.26,1.67,12.75,12.75,0,0,1,1.38,1.07,4.6,4.6,0,0,1,.75.78,4.21,4.21,0,0,1,.74-.78A12.85,12.85,0,0,1,28,34.55a17,17,0,0,1,3.26-1.67c5.7-1.94,9.48-4.86,9.48-9.33a8.54,8.54,0,0,0-.13-1.47c-.15-.92-.52-2.52-.87-3.91-.19-.82-1.81-7.34-2-7.94H37.6l-.41,0c-.32,0-.74,0-1.06,0h-.29a5.67,5.67,0,0,1-3.16-1.16L31.35,8A24.2,24.2,0,0,1,26,8.81h-.14c-2,0-4.25.08-6.07-.85l-.54.72a4.22,4.22,0,0,1-3.41,1.65h-.29c-.57,0-1.39-.07-1.59-.09v0M25.78,36.57s0-.06,0-.08l0-.08a1.71,1.71,0,0,0-.17-.2,6.15,6.15,0,0,0-.51-.49,12.79,12.79,0,0,0-1.36-1.06A16.89,16.89,0,0,0,20.41,33c-5.72-1.94-9.55-4.89-9.55-9.43A8.66,8.66,0,0,1,11,22.1c.15-.93.52-2.53.87-3.92.18-.75,1.54-6.28,1.9-7.67a2,2,0,0,1,.09-.33s0,0,0,0,1,.09,1.62.09h.28a4.13,4.13,0,0,0,3.33-1.6l.57-.75,0,0,0,0c1.78.93,4.07.83,6.06.86H26a24.33,24.33,0,0,0,5.37-.79h0l0,0L32.73,9.1a5.61,5.61,0,0,0,3.09,1.13h.28c.6,0,1.5-.08,1.61-.09s0,0,0,0h0l0,0v0a.44.44,0,0,0,0,.06s0,.13.06.23.12.48.21.82c.17.69.4,1.6.63,2.55.47,1.89,1,3.88,1.06,4.32.34,1.4.73,3,.88,3.92a8.76,8.76,0,0,1,.13,1.49c0,4.54-3.84,7.49-9.55,9.44A17.58,17.58,0,0,0,28,34.69a14,14,0,0,0-1.36,1.06l-.07.07a5.39,5.39,0,0,0-.48.48l-.15.19s0,.1-.09.13l-.06,0"/><path id="Shape-4" data-name="Shape" class="cls-1" d="M27.4,3l.84-.81.2,1.15-.84.8L27.4,3Zm-3.79.34.2-1.16.83.81-.2,1.15-.84-.8Zm8.57,1-1-1L31.42,2a.27.27,0,0,0-.1-.25.24.24,0,0,0-.26,0l-1.25.66L28.56,1.7a.26.26,0,0,0-.15,0,.24.24,0,0,0-.13-.07l-1.4-.21L26.26.14A.26.26,0,0,0,26,0a.27.27,0,0,0-.23.14L25.18,1.4l-1.4.21a.26.26,0,0,0-.14.07.21.21,0,0,0-.15,0l-1.25.66L21,1.71a.26.26,0,0,0-.26,0,.25.25,0,0,0-.1.25l.25,1.39-1,1a.25.25,0,0,0,.14.42l1.4.2L22,6.23a.26.26,0,0,0,.23.14h0a.25.25,0,0,0,.22-.14L23.09,5l1.4-.21a.21.21,0,0,0,.13-.07.17.17,0,0,0,.14,0L26,4l1.25.66.12,0h0a.22.22,0,0,0,.13.06l1.4.21.62,1.26a.24.24,0,0,0,.23.14A.25.25,0,0,0,30,6.22L30.63,5l1.4-.2a.23.23,0,0,0,.2-.17.21.21,0,0,0,0-.25Z"/><path id="Shape-5" data-name="Shape" d="M26.06,3.67l1.24.65-.24-1.37a.09.09,0,0,1,0-.07l1-1-1.38-.2a.09.09,0,0,1-.06,0L26,.42l-.62,1.25a.07.07,0,0,1-.06,0L24,1.9l1,1a.06.06,0,0,1,0,.07l-.24,1.37L26,3.67h.06m1.3.84L26,3.81l-1.33.7a.08.08,0,0,1-.08,0,.09.09,0,0,1,0-.07l.26-1.48-1.08-1a.07.07,0,0,1,0-.08.06.06,0,0,1,.06,0l1.5-.22L26,.22a.07.07,0,0,1,.07,0,.1.1,0,0,1,.07,0l.67,1.34,1.49.22a.06.06,0,0,1,.06,0,.07.07,0,0,1,0,.08l-1.08,1,.26,1.48a.08.08,0,0,1,0,.07h-.08"/><path id="Shape-6" data-name="Shape" d="M28.77,3.43a.09.09,0,0,1,0,.07l-1,1,1.38.21a.08.08,0,0,1,.06,0L29.79,6l.62-1.24a.07.07,0,0,1,.06,0l1.39-.2-1-1a.06.06,0,0,1,0-.07l.25-1.37-1.24.65h-.07l-1.23-.66.22,1.37Zm1,2.71-.66-1.35-1.5-.22a.06.06,0,0,1-.06,0,.07.07,0,0,1,0-.08l1.08-1-.26-1.48a.08.08,0,0,1,.11-.08l1.33.71,1.34-.7a.08.08,0,0,1,.08,0,.09.09,0,0,1,0,.07L31,3.41l1.07,1a.08.08,0,0,1,0,.08.06.06,0,0,1-.06,0l-1.5.21-.67,1.34a.07.07,0,0,1-.07,0s0,0-.06,0Z"/><path id="Shape-7" data-name="Shape" d="M20.85,2l0-.07,0,.07Zm.36,1.44a.1.1,0,0,1,0,.07l-1,1,1.39.2a.08.08,0,0,1,.06,0L22.26,6l.61-1.25a.07.07,0,0,1,.06,0l1.38-.21-1-1a.06.06,0,0,1,0-.07L23.52,2l-1.23.66h-.07L21,2.06l.23,1.38Zm1,2.71-.67-1.34L20,4.61a.06.06,0,0,1-.06,0,.08.08,0,0,1,0-.08l1.07-1L20.8,2a.06.06,0,0,1,0-.07.08.08,0,0,1,.08,0l1.34.7,1.33-.71a.07.07,0,0,1,.08,0,.09.09,0,0,1,0,.07l-.26,1.48,1.08,1a.08.08,0,0,1,0,.08.06.06,0,0,1-.06,0L23,4.8l-.66,1.35a.07.07,0,0,1-.07,0,.11.11,0,0,1-.07,0Z"/><path id="Shape-8" data-name="Shape" class="cls-2" d="M40.18,22.07c-.14-.89-.51-2.41-.85-3.74-.2-.82-1.93-7.63-1.94-7.63a15,15,0,0,1-1.86.08,6.35,6.35,0,0,1-4.32-2.26,20.13,20.13,0,0,1-5.46.66v26.7a.13.13,0,0,1,0,.06c0-.25,1.32-1.4,2.09-1.9A16.78,16.78,0,0,1,31,32.43c6.16-2,10.05-5.25,9.16-10.37"/><path id="Shape-9" data-name="Shape" class="cls-1" d="M51,17.12a1.58,1.58,0,0,0-1-1,1.75,1.75,0,0,0-.46-.07,1.16,1.16,0,0,0-.91.37.36.36,0,0,0,0,.38.39.39,0,0,0,.32.22,1,1,0,0,1,.42.1.31.31,0,0,1,.18.22v0a.67.67,0,0,1,0,.13.48.48,0,0,1-.21.36.91.91,0,0,1-.51.19h0a1.64,1.64,0,0,1-.74-.24c-.29-.16-.59-.34-.92-.53a3.57,3.57,0,0,0-1.31-.45,2.65,2.65,0,0,0,.28-.43,1.45,1.45,0,0,0,.2-.7v-.12c0-.09,0-.17,0-.25a.41.41,0,0,0,.18-.19,1.08,1.08,0,0,0,.09-.44.61.61,0,0,0,0-.19A.76.76,0,0,0,46,14L46,14a.51.51,0,0,0-.11-.11,1.84,1.84,0,0,0-1-.49,3.2,3.2,0,0,0-.54,0H44l-.09-.12a1.76,1.76,0,0,0-.14-.18.62.62,0,0,0-.37-.21,8.61,8.61,0,0,0-1-.09H42l-.63,0a1.88,1.88,0,0,0-.69.18,2.11,2.11,0,0,0-1.3-.79,2.69,2.69,0,0,1-.64-.08,3.73,3.73,0,0,1-.31-.23l-.34-.25a.34.34,0,0,0-.34,0,.33.33,0,0,0-.23.26,4.76,4.76,0,0,0-.19,1.89c0,.17,0,.14-.12.21-.61.25-.92.9-1.45,1.26a.91.91,0,0,0-.27.31.5.5,0,0,0-.08.14,2.2,2.2,0,0,0,0,.25,9.54,9.54,0,0,0-.11,1c-.07.87,0,1.78,0,2.66v1a8.71,8.71,0,0,0,.16,1.61c.12.67.18,1.35.33,2,0,0,0,0,0,0,.06.24.08.5.14.74a.93.93,0,0,1,0,.23.46.46,0,0,1,0,.16,1.15,1.15,0,0,0,0,.19.35.35,0,0,1,0,.09.86.86,0,0,1-.18.24,4.3,4.3,0,0,0-.55.55.66.66,0,0,0-.13.29s0,.1,0,.14-.07,0-.08.08.11.12.17.14a2.83,2.83,0,0,0,.7.13h.35a2.81,2.81,0,0,0,.4-.07c.18,0,.32.1.45.2a1.73,1.73,0,0,0,.6.29,1.78,1.78,0,0,0,.38.06.61.61,0,0,0,.19,0l.15-.08h0l.16,0,.23,0h0a.57.57,0,0,0,.28-.07.66.66,0,0,0,.27-.13,1.05,1.05,0,0,0,.31-.43.71.71,0,0,0,.2.09,1.67,1.67,0,0,0,.53.13h.1a.31.31,0,0,1,.14,0l.07.06a2.77,2.77,0,0,0,.29.26,1.9,1.9,0,0,0,.27.19l.16.1a1.21,1.21,0,0,0,.48.14H42a1.56,1.56,0,0,0,.36,0,1,1,0,0,0,.22-.1.58.58,0,0,0,.31-.18,1,1,0,0,0,.21-.38,1.77,1.77,0,0,0,.08-.2,1.9,1.9,0,0,0,0-.41c0-.06-.08-.2,0-.25a.33.33,0,0,1,.15-.06,1.42,1.42,0,0,1,.35,0,2.84,2.84,0,0,0,.29,0c.07,0,.06,0,.1,0s0,.13,0,.23a1.6,1.6,0,0,0,0,.21.58.58,0,0,1,0,.19c0,.12,0,.23,0,.34s-.1.32.08.44a.39.39,0,0,0,.34,0l.08,0a1,1,0,0,0,.44-.44h0l0,0a1.89,1.89,0,0,0,.2-.32l0-.09a.07.07,0,0,0,0,0s0,0,0,0a.08.08,0,0,0,0,0c0-.09,0-.18.07-.26v0c0-.11,0-.21,0-.29v0a2.59,2.59,0,0,0,0-.28v0a2,2,0,0,0,0-.23s0,0,0,0a0,0,0,0,0,0,0l0-.07a5.68,5.68,0,0,0-.78-1.56,1.24,1.24,0,0,0,.37-.69,1.15,1.15,0,0,0,0-.26,3.6,3.6,0,0,0,0-.36,2.28,2.28,0,0,0-.14-.61.36.36,0,0,0-.69.11.73.73,0,0,1-.19.48s0,0-.07,0a.59.59,0,0,1-.28-.11.57.57,0,0,1-.23-.5,2.38,2.38,0,0,1,.18-.78.36.36,0,0,0-.16-.44.37.37,0,0,0-.46.07l0,0s0,0,0,0a.62.62,0,0,0,0-.11.84.84,0,0,0-.27-.33.83.83,0,0,0,.12-.19.7.7,0,0,0,0-.26s0-.08,0-.12h.54a.41.41,0,0,0,.17,0v.07a1.51,1.51,0,0,0,0,.39c.16.5.58.63.76.75a.37.37,0,0,0,.36,0,.36.36,0,0,0,.19-.3c0-.15,0-.28,0-.43v-.16l.16-.09a1.83,1.83,0,0,0,.38-.3,1.2,1.2,0,0,0,.29-.82,1.18,1.18,0,0,0,0-.18,2.78,2.78,0,0,0-.06-.4,7.72,7.72,0,0,1,1.36.83,3.68,3.68,0,0,0,1.95.76h0a2.37,2.37,0,0,0,1.74-.72A2.21,2.21,0,0,0,51.12,18a1.63,1.63,0,0,0-.1-.84Z"/><path id="Shape-10" data-name="Shape" class="cls-1" d="M32.78,25.17c0-.06-.09-.06-.15-.06a.67.67,0,0,1-.7-.37,1.64,1.64,0,0,1-.1-.45s0-.1,0-.11.17.09.2.1a.62.62,0,0,0,.8-.22,1.9,1.9,0,0,0,.14-.94c0-.17,0-.33,0-.5s0-.36,0-.54c0-.33.06-.67.07-1a4,4,0,0,1,.06-.49,2,2,0,0,1,.07-.34c.07-.15.21-.08.33-.14s.15-.23.16-.36A.94.94,0,0,1,34,19c-.21.18-.57.29-.77,0a1,1,0,0,1-.1-.73.45.45,0,0,0,.41.19.58.58,0,0,0,.37-.3c.21-.33.29-.72.5-1a5.51,5.51,0,0,1,.35-.48s.16-.15.13-.18l-.18-.23a.86.86,0,0,1-.16-.51,1.81,1.81,0,0,1,.17-.61,1.07,1.07,0,0,0,.75.52,1.08,1.08,0,0,0,.85-.36,7.42,7.42,0,0,0,.75-.81.62.62,0,0,1,.39-.25.57.57,0,0,1,.47.19,3.56,3.56,0,0,1-.08-2.55l.34.25a3,3,0,0,0,.36.25,2,2,0,0,0,.76.12,1.85,1.85,0,0,1,1.26.93,1.34,1.34,0,0,1,.81-.3,8.15,8.15,0,0,1,1,0c.32,0,.64,0,.95.09.14,0,.2.14.28.24l.15.2s0,.1.12.08a3,3,0,0,1,.9,0,1.53,1.53,0,0,1,.8.39l.12.12c0,.06.11.06.18.08a.4.4,0,0,1,.27.26.74.74,0,0,1,0,.41s-.1,0-.14,0l-.25,0a1.15,1.15,0,0,1,.23.56,1,1,0,0,1-.16.61,6.21,6.21,0,0,1-.8,1,.7.7,0,0,0,.07-.64c-.16-.27-.53-.17-.75,0s-.28.18-.4.26a1.14,1.14,0,0,0-.31.37c-.18.28-.41.51-.59.79a1.86,1.86,0,0,0-.32.93c0,.31.41,0,.53,0s.27-.2.4-.29.14,0,.18,0l.29,0a2.4,2.4,0,0,0,.46,0,.45.45,0,0,0,.36-.26,1.45,1.45,0,0,0,.12-.27,3.84,3.84,0,0,1,.18.81.91.91,0,0,1-.19.73,1.21,1.21,0,0,1-.3.24l-.18.09s-.13,0-.14.09a1.44,1.44,0,0,0,0,.36c0,.15,0,.28,0,.43-.22-.13-.52-.27-.59-.53s.06-.59-.17-.84c0,0-.1-.12-.13-.1a.81.81,0,0,0-.09.1l-.12.14s-.12,0-.16,0h-.46a1.34,1.34,0,0,0-.45.17.45.45,0,0,1,.1.44.61.61,0,0,1-.38.27l.29.27a.7.7,0,0,1,.24.25s0,.08,0,.13l.11.16c.07.11.12.24.18.34l.36-.41c-.21.55-.39,1.3.18,1.71a.64.64,0,0,0,.78.07,1.12,1.12,0,0,0,.32-.72,1.78,1.78,0,0,1,.11.51,2,2,0,0,1,0,.53.94.94,0,0,1-.53.67,5.6,5.6,0,0,1,1,1.82,1.69,1.69,0,0,1,0,1,1.52,1.52,0,0,1-.22.39.61.61,0,0,1-.17.16c-.06,0-.1.11-.17.13a1.71,1.71,0,0,1,.09-.54,1.16,1.16,0,0,0,0-.58,1.22,1.22,0,0,0-.3-.44,1.89,1.89,0,0,0-.22-.18l-.12-.07s-.08,0-.11,0a.49.49,0,0,0,.11.25s.12.14,0,.18-.2,0-.26,0h-.37a3.94,3.94,0,0,1-.68-.14.83.83,0,0,1-.26-.1c-.08-.06-.12-.16-.21-.19s0,.13.08.17l.15.27s.12.15,0,.18a.33.33,0,0,1-.17,0,2.07,2.07,0,0,1-.59-.14,1.05,1.05,0,0,1-.25-.14s-.06-.13-.13-.13a.28.28,0,0,0,.11.19.87.87,0,0,1,.13.25.87.87,0,0,0,.34.39c.32.2.79.47,1.08.09a1.05,1.05,0,0,1,0,.18c0,.07,0,.14-.06.22a.71.71,0,0,1-.14.34c-.09.1-.25.09-.36.1a1.69,1.69,0,0,1-.49,0,1,1,0,0,1-.41-.15c-.12-.09-.23-.2-.35-.28a.71.71,0,0,1-.17-.14s-.06-.1-.13-.12a3.59,3.59,0,0,0-.4-.14c-.14,0-.29-.08-.42-.1a.64.64,0,0,1-.19-.07s-.09-.1-.15-.12-.12,0-.17,0-.07.09-.07.16a.67.67,0,0,1-.19.38.73.73,0,0,1-.3.15.71.71,0,0,1-.4,0,1.4,1.4,0,0,1-.38-.18c-.09,0-.25-.15-.23-.27,0,.07.22.46.11.47a1,1,0,0,1-.37-.09,1.06,1.06,0,0,1-.54-.32c-.07-.08-.1-.2-.18-.27s-.21.08-.28.11a2.59,2.59,0,0,1-.72.19c-.52,0-.83-.27-1.29-.47a7.75,7.75,0,0,1-1.35-.63A2.15,2.15,0,0,1,33,25.6a1.28,1.28,0,0,1-.12-.11c0-.09,0-.21-.06-.32"/><path id="Shape-11" data-name="Shape" d="M39.5,26.56h.09a.91.91,0,0,1,.4.21c.21.15.57,0,.89.25.08.06.14.13.19.17a1.47,1.47,0,0,1,.18.13,1.35,1.35,0,0,0,.33.26.64.64,0,0,0,.33.09H42a1.08,1.08,0,0,0,.41-.1c.16-.08.25-.12.3-.24a.89.89,0,0,0,.08-.28.51.51,0,0,1-.29.07h-.14a1.93,1.93,0,0,1-.5-.18,1.32,1.32,0,0,1-.39-.26.88.88,0,0,1-.25-.42c0-.07,0-.15,0-.23s0-.1,0-.16a.22.22,0,0,1,0-.13h0a.1.1,0,0,1,.09,0h0c.11,0,.06,0,.09,0l0,0,.09.11.14.18.09.17h.1a3,3,0,0,0,.39,0h0l-.07-.09a1.36,1.36,0,0,1-.21-.36.56.56,0,0,1,0-.16v0a.13.13,0,0,1,.13-.11c.11,0,.11.06.13.08h0c.08.06.11.12.14.12l.21.13a3,3,0,0,0,.4.19,1,1,0,0,0,.25,0h.26l.31,0h.09a.43.43,0,0,0-.1-.16s-.19-.1-.24-.28a.1.1,0,0,1,.08-.12s0,0,0,0h0c.16,0,.23.12.28.13l.28.16a.87.87,0,0,1,.37.5,1.49,1.49,0,0,1,0,.29c0,.15,0,.28,0,.41s0,.26,0,.38a.79.79,0,0,0,0-.08,3.85,3.85,0,0,0,.24-.4,1.26,1.26,0,0,0,.1-.51,1.84,1.84,0,0,0-.06-.45,5.35,5.35,0,0,0-1-1.82.1.1,0,0,1,0-.09.1.1,0,0,1,.06-.07.84.84,0,0,0,.47-.59,1.07,1.07,0,0,0,0-.18c0-.11,0-.21,0-.32a.13.13,0,0,0,0-.06.84.84,0,0,1-.25.34.6.6,0,0,1-.37.13,1.06,1.06,0,0,1-.54-.19,1,1,0,0,1-.42-.88,2.59,2.59,0,0,1,.06-.48l0,0a.08.08,0,0,1-.09,0s-.06,0-.08-.06-.11-.24-.17-.33l-.11-.16a.23.23,0,0,1,0-.13h0c0-.07-.11-.13-.21-.21s-.21-.19-.29-.28a.09.09,0,0,1,0-.1.1.1,0,0,1,.07-.07.44.44,0,0,0,.31-.22s0,0,0-.08a.36.36,0,0,0-.08-.23.12.12,0,0,1,0-.1.1.1,0,0,1,.07-.09,1.45,1.45,0,0,1,.48-.18h.58l.1-.12.09-.11a.09.09,0,0,1,.08,0c.1,0,.1,0,.14.08l.06.06a.78.78,0,0,1,.17.56v.07a1.17,1.17,0,0,0,0,.26c0,.15.21.27.39.38a2.4,2.4,0,0,1,0-.25v-.21a.52.52,0,0,1,0-.18c.06-.15.19-.14.2-.16l.17-.09a1,1,0,0,0,.28-.23.71.71,0,0,0,.17-.51A.74.74,0,0,0,45,19a3.2,3.2,0,0,0-.09-.52v0a.56.56,0,0,1-.43.31h-.15l-.34,0-.29,0-.12,0c-.13.1-.26.2-.39.28a1.06,1.06,0,0,1-.47.21.21.21,0,0,1-.16-.07.23.23,0,0,1-.06-.18v0a2,2,0,0,1,.33-1c.19-.29.42-.52.59-.79a1.4,1.4,0,0,1,.33-.4,4.22,4.22,0,0,1,.41-.27,1.07,1.07,0,0,1,.48-.14.46.46,0,0,1,.41.23.51.51,0,0,1,.07.26,4,4,0,0,0,.47-.66,1.12,1.12,0,0,0,.15-.48v-.07a1.13,1.13,0,0,0-.21-.51.09.09,0,0,1,0-.1s0-.06.08-.06l.25,0h.06a.63.63,0,0,0,0-.23.22.22,0,0,0,0-.09.28.28,0,0,0-.21-.19.43.43,0,0,1-.22-.11l-.12-.12a1.44,1.44,0,0,0-.74-.37,3.59,3.59,0,0,0-.46,0,2.71,2.71,0,0,0-.4,0h0a.19.19,0,0,1-.18-.13c0-.07-.09-.13-.14-.2s-.13-.2-.21-.21c-.3,0-.62-.07-.93-.09H42l-.59,0a1.22,1.22,0,0,0-.75.28.08.08,0,0,1-.08,0,.07.07,0,0,1-.07,0,1.75,1.75,0,0,0-1.19-.88,2.25,2.25,0,0,1-.8-.14,3.92,3.92,0,0,1-.36-.27l-.22-.17a5.69,5.69,0,0,0-.16,1.21A2.21,2.21,0,0,0,38,14.38a.11.11,0,0,1,0,.14.1.1,0,0,1-.14,0,.52.52,0,0,0-.34-.16h0a.52.52,0,0,0-.32.22,7.62,7.62,0,0,1-.77.82,1.35,1.35,0,0,1-.81.4h-.12a1.19,1.19,0,0,1-.71-.39,1.41,1.41,0,0,0-.09.4v0a.78.78,0,0,0,.15.42c0,.08.11.15.17.24a.1.1,0,0,1,0,.07c0,.11-.06.11-.09.16l-.07.07a5.22,5.22,0,0,0-.35.47c-.16.24-.24.54-.38.81a2,2,0,0,0-.25.55v0s0,0,.08.15A.51.51,0,0,1,34,19c0,.3-.22.54-.22.75a1,1,0,0,1-.18.48,5,5,0,0,0-.23.71c-.08.21-.2.36-.25.54a3.35,3.35,0,0,0-.08.64,5.07,5.07,0,0,1,0,.54,2.05,2.05,0,0,0,0,.25v.3a1.86,1.86,0,0,1-.06.51.61.61,0,0,0,0,.19,4.81,4.81,0,0,0,.16.73c0,.13,0,.19,0,.24a2,2,0,0,0,.21.38,3,3,0,0,0,.62.79,2.27,2.27,0,0,0,.63.35c.24.11.38.26.56.33a1.68,1.68,0,0,0,.67.15,1.06,1.06,0,0,0,.56-.14,2.12,2.12,0,0,0,.24-.11.21.21,0,0,1,.17-.09.22.22,0,0,1,.19.12c.07.09.13.18.19.27s.08,0,.16.13a.38.38,0,0,0,.22.1l.29.09a.32.32,0,0,1,0-.15v0a.1.1,0,0,1,.07-.08s.08,0,.1,0L38,27s.07.06.08,0,.14,0,.23.07a1.33,1.33,0,0,0,.37.15h0c.08,0,.15-.07.25-.18a1.19,1.19,0,0,0,.22-.26.78.78,0,0,1,.09-.19.48.48,0,0,1,.26-.08Zm2,1.22a1.47,1.47,0,0,1-.37-.29.91.91,0,0,0-.15-.11c-.08-.06-.14-.13-.2-.17s-.54-.06-.88-.24c-.14-.09-.21-.17-.32-.18h-.07l-.06.15a1.54,1.54,0,0,1-.26.32.56.56,0,0,1-.4.26h0a1.28,1.28,0,0,1-.46-.17l-.21-.06a.18.18,0,0,1,0,.08.16.16,0,0,1-.07.12.13.13,0,0,1-.08,0,.55.55,0,0,1-.15,0l-.33-.11a.6.6,0,0,1-.33-.17s-.08,0-.16-.13-.13-.19-.2-.26l0,0h0c-.11.11-.24.11-.29.15a1.28,1.28,0,0,1-.66.16,1.78,1.78,0,0,1-.76-.17c-.22-.11-.37-.25-.56-.33a2.4,2.4,0,0,1-.69-.38,3.07,3.07,0,0,1-.66-.84c-.06-.12-.16-.26-.22-.41a2.22,2.22,0,0,1,0-.28,4.23,4.23,0,0,1-.16-.76.93.93,0,0,1,0-.24,1.72,1.72,0,0,0,0-.45v-.3a2.37,2.37,0,0,1,0-.26c0-.17,0-.34,0-.52a4.1,4.1,0,0,1,.08-.69,5,5,0,0,1,.25-.55,4.16,4.16,0,0,1,.24-.73.65.65,0,0,0,.15-.39c0-.3.23-.55.22-.74a.56.56,0,0,0,0-.12s-.1-.09-.1-.23a.18.18,0,0,1,0-.07,2.06,2.06,0,0,1,.27-.61c.14-.26.22-.55.39-.83a5.63,5.63,0,0,1,.36-.49l.09-.09a1.36,1.36,0,0,1-.32-.73v0a2,2,0,0,1,.18-.65.11.11,0,0,1,.1-.06.13.13,0,0,1,.1.06.94.94,0,0,0,.67.45h.09a1.11,1.11,0,0,0,.67-.34,7.23,7.23,0,0,0,.74-.8.76.76,0,0,1,.45-.28h.07a.55.55,0,0,1,.18,0,2.53,2.53,0,0,1-.15-.89,6.67,6.67,0,0,1,.2-1.41.13.13,0,0,1,.07-.08.12.12,0,0,1,.1,0l.34.25a2.48,2.48,0,0,0,.34.25,2,2,0,0,0,.73.11,1.91,1.91,0,0,1,1.27.88,1.37,1.37,0,0,1,.78-.25c.2,0,.4,0,.6,0h.38c.31,0,.64,0,1,.09s.27.2.34.28.1.13.15.21l0,0a3.11,3.11,0,0,1,.92,0,1.57,1.57,0,0,1,.85.42.85.85,0,0,1,.13.14l.13,0a.49.49,0,0,1,.33.33.6.6,0,0,1,0,.14.92.92,0,0,1-.07.33.19.19,0,0,1-.2.1h-.11a1.23,1.23,0,0,1,.16.46s0,.06,0,.09a1.28,1.28,0,0,1-.17.58,6.85,6.85,0,0,1-.81,1,.11.11,0,0,1-.14,0,.1.1,0,0,1,0-.14.85.85,0,0,0,.11-.37.32.32,0,0,0,0-.17.24.24,0,0,0-.24-.12.83.83,0,0,0-.37.11,3.48,3.48,0,0,0-.39.26,1.1,1.1,0,0,0-.29.34c-.18.29-.42.53-.59.79a1.78,1.78,0,0,0-.31.85v0s0,0,0,0h0a.84.84,0,0,0,.35-.18,3.57,3.57,0,0,0,.39-.29.14.14,0,0,1,.1,0,.75.75,0,0,1,.16,0l.29,0,.31,0h.13a.36.36,0,0,0,.28-.21,1.14,1.14,0,0,0,.11-.25.1.1,0,0,1,.1-.07.1.1,0,0,1,.1.07,3.46,3.46,0,0,1,.18.84s0,.11,0,.16a.92.92,0,0,1-.23.65,1.73,1.73,0,0,1-.33.26l-.18.1-.09,0a.37.37,0,0,0,0,.11v.22c0,.15,0,.28,0,.43a.1.1,0,0,1,0,.09.09.09,0,0,1-.1,0c-.21-.13-.55-.26-.64-.6a1.17,1.17,0,0,1,0-.31v-.07a.62.62,0,0,0-.11-.42l0,0,0,0a1.41,1.41,0,0,1-.13.15.24.24,0,0,1-.12,0h-.58a.89.89,0,0,0-.29.1.57.57,0,0,1,.06.28.39.39,0,0,1,0,.16.57.57,0,0,1-.29.27l.18.16a.82.82,0,0,1,.26.28.21.21,0,0,1,0,.1h0s.07.11.11.17a2.08,2.08,0,0,1,.11.22L43,21.3a.09.09,0,0,1,.13,0,.11.11,0,0,1,0,.13,2.73,2.73,0,0,0-.2.88.82.82,0,0,0,.76.86.35.35,0,0,0,.24-.08.94.94,0,0,0,.28-.66.09.09,0,0,1,.09-.09.1.1,0,0,1,.11.07,2.16,2.16,0,0,1,.12.53c0,.11,0,.23,0,.34a1.6,1.6,0,0,1,0,.22,1,1,0,0,1-.48.68A5.66,5.66,0,0,1,45,26a2.08,2.08,0,0,1,.07.5,1.53,1.53,0,0,1-.12.59,2.22,2.22,0,0,1-.27.42,1,1,0,0,1-.34.34.16.16,0,0,1-.1,0,.12.12,0,0,1-.06-.08v0a1.07,1.07,0,0,1,.06-.27c0-.12,0-.25,0-.38s0-.27,0-.4a1,1,0,0,0,0-.24A.65.65,0,0,0,44,26l0,0a.36.36,0,0,1,0,.15.19.19,0,0,1-.13.18.58.58,0,0,1-.18,0l-.31,0h-.25a1.23,1.23,0,0,1-.32,0,2.29,2.29,0,0,1-.44-.21l-.19-.12a.8.8,0,0,0,.1.16.51.51,0,0,1,.15.25.18.18,0,0,1-.18.17h-.1c-.15,0-.3,0-.41,0h0a.24.24,0,0,1-.21-.09c0-.07-.08-.14-.11-.18a.21.21,0,0,1,0-.06s0,.06,0,.08a.7.7,0,0,0,.2.33,1.1,1.1,0,0,0,.32.23,1.72,1.72,0,0,0,.44.16h.11a.28.28,0,0,0,.2-.06.33.33,0,0,1,.16-.11h0a.14.14,0,0,1,.12.08.18.18,0,0,1,0,.07v0a1.11,1.11,0,0,1-.1.47.79.79,0,0,1-.39.33,1.28,1.28,0,0,1-.49.12h-.1a2.81,2.81,0,0,1-.38-.15Z"/><path id="Shape-12" data-name="Shape" d="M41.11,27.52a2.76,2.76,0,0,1-.44-.45.14.14,0,0,1-.09,0,1.59,1.59,0,0,1-1.06-.41,1.84,1.84,0,0,1-.35-.93.1.1,0,0,1-.1,0A2.05,2.05,0,0,1,38.6,25a1.68,1.68,0,0,1-.11-.42l-.09.7a3.52,3.52,0,0,0,0,.46.86.86,0,0,0,.13.51.9.9,0,0,0,.73.31h.13a.16.16,0,0,1,.09,0,.12.12,0,0,1,0,.09.87.87,0,0,1-.3.63.68.68,0,0,1-.41.12,1.66,1.66,0,0,1-.39-.06.71.71,0,0,1-.2-.09.1.1,0,0,1,0,.12.11.11,0,0,1-.1.07A1.61,1.61,0,0,1,37,27.13a1.46,1.46,0,0,1-.39-.91.11.11,0,0,1,.09-.12.11.11,0,0,1,.12.09,1.3,1.3,0,0,0,.33.78,1.16,1.16,0,0,0,.63.27,1.06,1.06,0,0,1-.21-.35c-.09-.25-.14-.5-.23-.75a.1.1,0,0,1,.06-.13.1.1,0,0,1,.13,0c.06.14.12.26.19.4a2.46,2.46,0,0,0,.13.29,1.31,1.31,0,0,0,.54.42,1.28,1.28,0,0,0,.33,0,.43.43,0,0,0,.28-.08.63.63,0,0,0,.21-.36h0a1.12,1.12,0,0,1-.91-.4,1.09,1.09,0,0,1-.16-.63,3.37,3.37,0,0,1,0-.48,10.2,10.2,0,0,1,.32-1.81,2,2,0,0,1,.13-.4,1.25,1.25,0,0,1,.18-.37.1.1,0,0,1,.14,0,.11.11,0,0,1,0,.13,4.34,4.34,0,0,0-.28.71,2.58,2.58,0,0,0-.06.4l0,.22h0a.39.39,0,0,1,0,.1,2.48,2.48,0,0,0,.13.73,1.6,1.6,0,0,0,.26.43c0-.12,0-.23,0-.34v-.38a1.63,1.63,0,0,1,0-.23,3.09,3.09,0,0,1,.35-.92c0-.06.07-.12.1-.19h0a.1.1,0,0,1,0,0h.08a.1.1,0,0,1,0,.08.11.11,0,0,1,0,.06,3.46,3.46,0,0,0-.42,1l0,.21V25c0,.2,0,.42.07.63a1.86,1.86,0,0,0,.33.94,1.16,1.16,0,0,0,.74.31,2.28,2.28,0,0,1-.22-.61l-.06-.35a4.49,4.49,0,0,1-.09-.5h0a.1.1,0,0,1,.21,0h0c0,.16.06.32.08.48a3.3,3.3,0,0,0,.2.6,2.4,2.4,0,0,0,.71.89,1.24,1.24,0,0,0,.78.32.72.72,0,0,0,.25,0,.71.71,0,0,0,.49-.64.73.73,0,0,1-.35.1.62.62,0,0,1-.23,0,2,2,0,0,1-.66-.34,1.41,1.41,0,0,1-.37-.61,4.24,4.24,0,0,1-.24-.83.11.11,0,0,1,.07-.12.11.11,0,0,1,.13.06,2.62,2.62,0,0,0,.53.91.59.59,0,0,0,.42.16l.2,0c-.14-.16-.29-.3-.41-.48a2,2,0,0,1-.32-.71,3.36,3.36,0,0,1-.08-.82V24c0-.14,0-.27,0-.41a2.38,2.38,0,0,1,0-.25.1.1,0,0,1,.11-.1.1.1,0,0,1,.1.1c0,.22,0,.44,0,.66a3,3,0,0,0,.43,1.45,1.13,1.13,0,0,0,.75.52,4.37,4.37,0,0,0,.52,0l.41,0h0a1.68,1.68,0,0,0-.33-.43c-.16-.16-.37-.28-.55-.48a2.29,2.29,0,0,1-.4-.66,2.62,2.62,0,0,1-.13-.39s0-.07.08-.11a.11.11,0,0,1,.12,0s.28.52.3.57a3.26,3.26,0,0,0,.86.86,2.09,2.09,0,0,1,.76.86,1.4,1.4,0,0,1,.09.49,2,2,0,0,1-.08.55.14.14,0,0,1,.09,0,.11.11,0,0,1,0,.15l-.24.23a.1.1,0,0,1-.13,0,.11.11,0,0,1,0-.13,2.29,2.29,0,0,0,.2-.84,1.12,1.12,0,0,0-.07-.41,1.36,1.36,0,0,0-.36-.5,1.59,1.59,0,0,1,.1.23.1.1,0,0,1-.09.14h-.21l-.42,0a3.68,3.68,0,0,1-.55-.06,1.28,1.28,0,0,1-.57-.26l.3.34a.1.1,0,0,1,0,.16,1.21,1.21,0,0,1-.42.08.82.82,0,0,1-.57-.22l-.11-.11a1.06,1.06,0,0,0,.27.4,1.93,1.93,0,0,0,.58.3l.17,0a.66.66,0,0,0,.41-.18.09.09,0,0,1,.11,0,.11.11,0,0,1,.06.1v0a1,1,0,0,1-.66,1,1.12,1.12,0,0,1-.3,0,1.35,1.35,0,0,1-.9-.36"/><path id="Shape-13" data-name="Shape" d="M35.67,26.54a1.16,1.16,0,0,1-.27-.8,3.67,3.67,0,0,1,0-.46.11.11,0,0,1,.1-.09.11.11,0,0,1,.11.08,3.56,3.56,0,0,0,.21.67.43.43,0,0,0,.43.25h.1a.71.71,0,0,0,.72-.42,4,4,0,0,1-.48,0h-.09a.93.93,0,0,1-.64-.21,1.17,1.17,0,0,1-.28-.62,1,1,0,0,1,0-.17,1.23,1.23,0,0,1,.15-.54,2.45,2.45,0,0,0,.24-.58A3.56,3.56,0,0,0,36,23c0-.27,0-.55,0-.82s0-.47,0-.71a.1.1,0,0,1,.21,0c0,.24,0,.47,0,.71s0,.56,0,.83a3.4,3.4,0,0,1-.08.7,2.93,2.93,0,0,1-.26.63,1.12,1.12,0,0,0-.13.45.43.43,0,0,0,0,.12.92.92,0,0,0,.21.51.72.72,0,0,0,.51.15h.08a3.43,3.43,0,0,0,.63-.06.1.1,0,0,1,.1,0,.12.12,0,0,1,0,.1,1.17,1.17,0,0,1-.42.58,1,1,0,0,1-.57.15h-.11a.62.62,0,0,1-.61-.37.43.43,0,0,1,0-.11.81.81,0,0,0,.21.49.69.69,0,0,0,.53.21,1.61,1.61,0,0,0,.42-.07h0a.1.1,0,0,1,.13.07.1.1,0,0,1-.07.13,1.92,1.92,0,0,1-.47.07h0a.76.76,0,0,1-.67-.24"/><path id="Shape-14" data-name="Shape" d="M45.22,14.89,45,14.57a.1.1,0,0,1,.06-.14.14.14,0,0,1,.17,0l.18.32a.1.1,0,0,1-.06.14h0a.14.14,0,0,1-.12-.06"/><path id="Shape-15" data-name="Shape" d="M44.74,14.85c0-.09,0-.17-.07-.24s-.09-.09-.16-.15h0a.11.11,0,0,1,0-.15.12.12,0,0,1,.15,0,.72.72,0,0,1,.21.21c0,.09,0,.18.08.25a.1.1,0,0,1-.07.13h0s-.09,0-.1,0"/><path id="Shape-16" data-name="Shape" d="M42,18.33a.1.1,0,0,1,0-.15,3.9,3.9,0,0,0,.4-.4,1.85,1.85,0,0,0,.28-.47c.09-.19.21-.35.27-.53a2,2,0,0,0,.12-.56,2,2,0,0,1,.28-1.15,1,1,0,0,1,.42-.3,1.12,1.12,0,0,0,.22-.1,1.61,1.61,0,0,1,.26-.16.1.1,0,0,1,.13.06.1.1,0,0,1-.06.13,2.14,2.14,0,0,0-.23.14,2.29,2.29,0,0,1-.25.11.81.81,0,0,0-.34.24,1.94,1.94,0,0,0-.23,1,2,2,0,0,1-.13.63c-.08.2-.2.36-.29.54a2.86,2.86,0,0,1-.3.52,4.19,4.19,0,0,1-.42.41h0a.11.11,0,0,1-.07,0,.11.11,0,0,1-.08,0"/><path id="Shape-17" data-name="Shape" d="M42,18.94a.11.11,0,0,1,0-.14c.11-.23.26-.41.36-.61a1.92,1.92,0,0,1,.2-.29,1.35,1.35,0,0,1,.13-.13l.08-.07h0a.11.11,0,0,1,.14,0,.11.11,0,0,1,0,.14.88.88,0,0,1-.12.13l-.12.12a2.44,2.44,0,0,0-.18.27c-.12.21-.27.4-.36.6A.1.1,0,0,1,42,19l0,0"/><path id="Shape-18" data-name="Shape" d="M40.07,14.15a1.33,1.33,0,0,1-.47-.07.6.6,0,0,1-.34-.38.93.93,0,0,0-.21-.33,2.54,2.54,0,0,0-.4-.28.1.1,0,0,1,0-.14.1.1,0,0,1,.14,0,2.26,2.26,0,0,1,.44.31,1,1,0,0,1,.27.41c.07.15.1.23.23.27a1,1,0,0,0,.39.06h.08a.11.11,0,1,1,0,.22h-.09Z"/><path id="Shape-19" data-name="Shape" d="M38,14.56h0m.26,4a.1.1,0,0,1-.1-.09A6.14,6.14,0,0,1,38,17.39c0-.1,0-.19,0-.28a1.74,1.74,0,0,1,.54-1l.19-.41a.84.84,0,0,0-.3.43.1.1,0,0,1-.11.08.1.1,0,0,1-.1-.09,2.87,2.87,0,0,1,0-.29,1.21,1.21,0,0,1,.14-.62.81.81,0,0,1,.24-.24h-.15l-.21,0a.49.49,0,0,1-.28-.26l0-.09,0-.06,0,0s0,0,0-.09a.13.13,0,0,1,.07,0h0c.1,0,.06,0,.09.07l0,.06,0,.1h0a.4.4,0,0,0,.16.18l.15,0h.2l.42,0a.1.1,0,0,1,0,.2,1.06,1.06,0,0,0-.57.39.87.87,0,0,0-.11.41,4.22,4.22,0,0,1,.52-.45.1.1,0,0,1,.16.13l-.21.46.13-.07c.18-.11.35-.2.53-.29a3.63,3.63,0,0,0,.44-.27h0l0,0,.13-.11s0,0,.11,0l.06,0h0s0,.06,0,.09a.17.17,0,0,1,0,.11l-.07.07-.1.1a1.93,1.93,0,0,1-.46.29c-.21.11-.41.19-.6.28a3.57,3.57,0,0,0-.4.26,1.53,1.53,0,0,0-.51.9,2.09,2.09,0,0,0,0,.26,3.84,3.84,0,0,0,.07.66,2.63,2.63,0,0,1,.31-.5,2.37,2.37,0,0,1,.64-.54c.27-.17.54-.29.79-.46a1.69,1.69,0,0,0,.43-.7h0a.11.11,0,0,1,.14,0,.11.11,0,0,1,0,.14,1.72,1.72,0,0,1-.5.77c-.27.18-.54.31-.79.47a2.08,2.08,0,0,0-.59.5,2.54,2.54,0,0,0-.4.77.12.12,0,0,1-.1,0h0"/><path id="Shape-20" data-name="Shape" d="M35.23,18.16a8,8,0,0,1-.08-.83v-.2a1.26,1.26,0,0,1,.11-.59,2,2,0,0,1,.5-.53,3.31,3.31,0,0,1,.31-.23l.08,0a.14.14,0,0,1,.13.1l0,0a.11.11,0,0,1,0,.15.12.12,0,0,1-.1,0c-.08,0-.1,0-.11-.07l-.23.17a1.68,1.68,0,0,0-.45.46,1.12,1.12,0,0,0-.09.49v.2a4.08,4.08,0,0,0,0,.5l.06-.06.33-.3a5.12,5.12,0,0,1,.72-.48l.41-.19a1.41,1.41,0,0,0,.32-.14,1.58,1.58,0,0,0,.41-.61.1.1,0,0,1,.19.09,1.88,1.88,0,0,1-.48.69A1.5,1.5,0,0,1,37,17l-.39.17a4,4,0,0,0-.69.46l-.31.28a.49.49,0,0,0-.17.25.12.12,0,0,1-.1.1h0a.14.14,0,0,1-.08-.1"/><path id="Shape-21" data-name="Shape" d="M35.59,19.83a.12.12,0,0,1-.09-.06,2.22,2.22,0,0,1-.19-.87.83.83,0,0,1,0-.23,3.56,3.56,0,0,1,.37-1.12.1.1,0,0,1,.14,0,.11.11,0,0,1,0,.14,3.86,3.86,0,0,0-.35,1.06,1.38,1.38,0,0,0,0,.2,1.83,1.83,0,0,0,.11.61c.11-.16.19-.28.33-.47s.29-.34.5-.57a.11.11,0,0,1,.15,0,.11.11,0,0,1,0,.15c-.21.23-.3.32-.49.56a4.63,4.63,0,0,0-.43.63.28.28,0,0,1-.12,0h0"/><path id="Shape-22" data-name="Shape" d="M40.65,23.71a2.68,2.68,0,0,1-1.28-.34A1.71,1.71,0,0,1,38.9,23a1.18,1.18,0,0,1-.21-.64V22.1a.5.5,0,0,0,0,.1.12.12,0,0,1-.08.09.1.1,0,0,1-.11,0c-.14-.17-.28-.33-.4-.51a1.4,1.4,0,0,1-.3-.6.74.74,0,0,1,0-.15,1.48,1.48,0,0,1,.12-.53,4.89,4.89,0,0,1,.24-.59,3.32,3.32,0,0,1,.34-.54l.21-.26.08-.09a.88.88,0,0,1-.27-.06l-.13-.08a1.54,1.54,0,0,1-.34.43,5.43,5.43,0,0,0-.64.79,2.68,2.68,0,0,0-.48.92.75.75,0,0,0,0,.15.88.88,0,0,0,.27.62.12.12,0,0,1,0,.13.11.11,0,0,1-.12,0,2.11,2.11,0,0,1-1.24-.71,1.77,1.77,0,0,1-.24-.7,4.27,4.27,0,0,1-.07-.79v0a.1.1,0,0,1,.21,0v0a4.83,4.83,0,0,0,.06.76,1.52,1.52,0,0,0,.21.62,1.59,1.59,0,0,0,.83.54,1,1,0,0,1-.14-.51,1.11,1.11,0,0,1,0-.19,2.9,2.9,0,0,1,.51-1,5.43,5.43,0,0,1,.67-.81,1,1,0,0,0,.34-.5.45.45,0,0,1,0-.21v0a.09.09,0,0,1,.09-.09.1.1,0,0,1,.11.06.62.62,0,0,1,0,.22.31.31,0,0,0,.16.14.92.92,0,0,0,.25,0H39s.09,0,.1.12v0a.92.92,0,0,1-.2.27l-.2.26a4.12,4.12,0,0,0-.32.51,4.57,4.57,0,0,0-.22.56A1.4,1.4,0,0,0,38,21a.4.4,0,0,0,0,.11,1.27,1.27,0,0,0,.27.51c.08.11.17.22.25.31a3.85,3.85,0,0,1,.15-.73.14.14,0,0,1,.13-.1h0a.14.14,0,0,1,.07.06,0,0,0,0,1,0,0,.06.06,0,0,0,0,0,.62.62,0,0,0,0,.12v1a.9.9,0,0,0,.17.53,1.27,1.27,0,0,0,.4.35,2.41,2.41,0,0,0,1.17.31h0a1.33,1.33,0,0,0,.56-.1.79.79,0,0,0,.23-.14h0a1.53,1.53,0,0,1-1.07-.4,2,2,0,0,1-.65-1.34h0a.1.1,0,0,1,.21,0,1.8,1.8,0,0,0,.59,1.2,1.32,1.32,0,0,0,.92.34l.29,0a.1.1,0,0,1,.11,0,.1.1,0,0,1,0,.12,1.55,1.55,0,0,1-.51.38,1.65,1.65,0,0,1-.65.11l-.08,0"/><path id="Shape-23" data-name="Shape" d="M40.82,19.27a.61.61,0,0,1-.18-.35,1.8,1.8,0,0,1,0-.32v-.06a3.27,3.27,0,0,1,.12-.81h0a.1.1,0,0,1,.2.06,2.82,2.82,0,0,0-.11.75v0a1.27,1.27,0,0,0,0,.28.43.43,0,0,0,.13.25.76.76,0,0,0,.51.27.84.84,0,0,0,.39-.11,1.21,1.21,0,0,1-.57-.33.62.62,0,0,1-.17-.4v0a1,1,0,0,1,.07-.32.16.16,0,0,1,.14-.11.11.11,0,0,1,.11.11.09.09,0,0,1-.06.09.17.17,0,0,0,0,.08.88.88,0,0,0,0,.17h0a.4.4,0,0,0,.11.26,1.14,1.14,0,0,0,.71.32.12.12,0,0,1,.09.08.11.11,0,0,1,0,.11,1.29,1.29,0,0,1-.74.27.83.83,0,0,1-.66-.32"/><path id="Shape-24" data-name="Shape" d="M40.85,20.23a1.21,1.21,0,0,1-.86-.61,1.72,1.72,0,0,1-.23-.86c0-.1,0-.2,0-.29A1.39,1.39,0,0,1,40,17.8c.13-.2.3-.33.41-.5h0a.11.11,0,0,1,.18.12c-.14.2-.3.33-.41.5a1.23,1.23,0,0,0-.18.58,2.35,2.35,0,0,0,0,.27,1.46,1.46,0,0,0,.2.75,1,1,0,0,0,.7.51H41a2.2,2.2,0,0,0,.49-.08h0l-.17-.07a1,1,0,0,1-.37-.37,2.37,2.37,0,0,1-.27-.41.11.11,0,0,1,0-.14.11.11,0,0,1,.14,0,2.33,2.33,0,0,0,.25.37.91.91,0,0,0,.3.3.9.9,0,0,0,.4.09l.36,0a.11.11,0,0,1,.12.08.1.1,0,0,1-.07.12c-.24.08-.47.15-.72.21a2.32,2.32,0,0,1-.53.08h-.14"/><path id="Shape-25" data-name="Shape" d="M39.52,20.2a1.35,1.35,0,0,1-.52-.6,2.62,2.62,0,0,1-.15-.81c0-.06,0-.12,0-.17A1.05,1.05,0,0,1,39,18a1.9,1.9,0,0,1,.58-.54c.23-.14.45-.2.64-.31a.71.71,0,0,0,.34-.5.1.1,0,0,1,.11-.1.09.09,0,0,1,.1.11.87.87,0,0,1-.44.68c-.23.13-.45.2-.64.3a1.65,1.65,0,0,0-.52.48.86.86,0,0,0-.14.52,1,1,0,0,0,0,.16,2.35,2.35,0,0,0,.14.75,1.15,1.15,0,0,0,.44.5,1.25,1.25,0,0,0,.67.23h0c.18,0,.48-.06.55-.17h0a.11.11,0,0,1,.17.13,1,1,0,0,1-.71.24h0a1.68,1.68,0,0,1-.79-.27"/><path id="Shape-26" data-name="Shape" d="M41.63,23.16a.1.1,0,0,1,.09-.12,1.14,1.14,0,0,0,.82-.43,3.21,3.21,0,0,0,.33-.85,1.59,1.59,0,0,1-.68.47.89.89,0,0,1-.28,0,1.15,1.15,0,0,1-.91-.51.1.1,0,0,1,0-.13.11.11,0,0,1,.13,0,1,1,0,0,0,.43.11h.14a.68.68,0,0,0,.21-.1l-.15,0a1.24,1.24,0,0,1-.46-.29,5,5,0,0,1-.71-1,.12.12,0,0,1,0-.13.1.1,0,0,1,.12,0,3.61,3.61,0,0,0,.6.27.9.9,0,0,0,.29,0s.14,0,.25,0h0a.1.1,0,0,1,0,.21h0c-.06,0-.14,0-.25,0a1.12,1.12,0,0,1-.34,0,2.83,2.83,0,0,1-.31-.12,3.57,3.57,0,0,0,.47.6.93.93,0,0,0,.37.24l.14,0h0l.07,0a.34.34,0,0,1,.12,0s.06,0,.1.07a.41.41,0,0,1,0,0c0,.11-.07.14-.11.19l-.1.09a.9.9,0,0,1-.34.18l-.19,0h-.11a.86.86,0,0,0,.45.15l.22,0a2.3,2.3,0,0,0,.87-.72.1.1,0,0,1,.13,0,.11.11,0,0,1,0,.12,4.64,4.64,0,0,1-.46,1.3,1.31,1.31,0,0,1-1,.53h0s-.06,0-.07-.09"/><path id="Shape-27" data-name="Shape" d="M37.33,24a.12.12,0,0,1,0-.12,1.84,1.84,0,0,0,.42-.76,2,2,0,0,0,0-.42,2.44,2.44,0,0,0-.06-.53.09.09,0,0,1,.08-.12.1.1,0,0,1,.12.08,2.72,2.72,0,0,1,.06.57,1.88,1.88,0,0,1-.36,1.12,1.24,1.24,0,0,0,.77-.42,1,1,0,0,0,.25-.55v0a.9.9,0,0,0,0-.27c0-.06,0-.11,0-.16a.66.66,0,0,1-.08-.18.1.1,0,0,1,.2,0s0,.06.07.14a1.09,1.09,0,0,1,0,.17,1.21,1.21,0,0,1,.06.33v0a1.15,1.15,0,0,1-.3.67A1.67,1.67,0,0,1,37.4,24h0s0,0-.06,0"/><path id="Shape-28" data-name="Shape" d="M36.1,24.75a.11.11,0,0,1-.07-.11.1.1,0,0,1,.1-.09,1.18,1.18,0,0,0,.73-.26.77.77,0,0,0,.21-.57v-.09a1.68,1.68,0,0,0-.3-.83,6.68,6.68,0,0,0-.67-.73.1.1,0,0,1,0-.15.11.11,0,0,1,.15,0,6.25,6.25,0,0,1,.68.75,1.92,1.92,0,0,1,.34.94v.11a1,1,0,0,1-.27.72,1.31,1.31,0,0,1-.4.25,1.48,1.48,0,0,0,.29,0,1.26,1.26,0,0,0,.47-.09,1.4,1.4,0,0,0,.73-.89.1.1,0,0,1,.21,0,1.57,1.57,0,0,1-.85,1,1.35,1.35,0,0,1-.55.11,2.5,2.5,0,0,1-.79-.17"/><path id="Shape-29" data-name="Shape" d="M36.12,24.77c-.12,0-.33-.12-.38-.34v0a.64.64,0,0,1,.09-.27l.18-.3a2.64,2.64,0,0,1,.36-.55l.25-.23a2.33,2.33,0,0,0,.26-.21.11.11,0,0,1,.17.13,2.78,2.78,0,0,1-.29.24l-.25.21a2.6,2.6,0,0,0-.33.51,3,3,0,0,0-.17.3.46.46,0,0,0-.07.18v0c0,.07.13.14.26.19a.11.11,0,0,1,.06.14.12.12,0,0,1-.1.07l0,0"/><path id="Shape-30" data-name="Shape" d="M36.61,25.68v-.1a8.07,8.07,0,0,1,0-.81c0-.06.07-.1.15-.1s.14,0,.14.11c0,.27,0,.53,0,.8v.09h0c0,.06-.07.11-.14.11s-.15,0-.15-.1"/><path id="Shape-31" data-name="Shape" d="M34.64,22.11a1.46,1.46,0,0,1-.46-.38.1.1,0,0,1,0-.13.1.1,0,0,1,.13,0,1,1,0,0,0,.33.14.13.13,0,0,0,.1,0,.62.62,0,0,0,.09-.38v0a4.81,4.81,0,0,0-.06-.64,1.82,1.82,0,0,1,0-.33,2.56,2.56,0,0,1,0-.4.1.1,0,1,1,.21,0,2.53,2.53,0,0,0,0,.38c0,.1,0,.2,0,.3a4.67,4.67,0,0,1,.07.67v0a.77.77,0,0,1-.15.52.32.32,0,0,1-.19.1l0,0a1,1,0,0,0,.39.14h.09c.29-.09.49-.55.63-.87a.11.11,0,1,1,.2.08c-.14.31-.31.83-.76,1a.42.42,0,0,1-.16,0,1.14,1.14,0,0,1-.5-.17"/><path id="Shape-32" data-name="Shape" d="M34.2,23.13h0a.94.94,0,0,1-.65-.22,1.14,1.14,0,0,1-.37-.65.09.09,0,0,1,0-.1.11.11,0,0,1,.11,0,1,1,0,0,0,.43.11.3.3,0,0,0,.23-.08.74.74,0,0,0,.21-.52v0a1.93,1.93,0,0,0-.25-.76l-.18-.35a1.76,1.76,0,0,0-.21-.36.11.11,0,0,1,0-.15.1.1,0,0,1,.15,0,2.44,2.44,0,0,1,.24.4c.07.12.13.25.19.36a2.19,2.19,0,0,1,.27.84v0a.9.9,0,0,1-.28.67.55.55,0,0,1-.37.14,1,1,0,0,1-.3,0,1,1,0,0,0,.25.34.85.85,0,0,0,.51.17h0a.69.69,0,0,0,.55-.21.63.63,0,0,0,.16-.45v-.09h0a.1.1,0,0,1,.21,0v.11a.9.9,0,0,1-.21.59.92.92,0,0,1-.7.26Z"/><path id="Shape-33" data-name="Shape" d="M33.06,25.18a.8.8,0,0,1-.42-.17.58.58,0,0,1-.14-.18l0-.07h0s0,0-.07-.11a.08.08,0,0,1,0-.09l.07,0c.08,0,.09,0,.11.06l0,0h.16a.53.53,0,0,0,.31-.13c.2-.19.14-.55.18-.89a.1.1,0,0,1,.12-.09.1.1,0,0,1,.09.12c0,.28.06.71-.24,1a.71.71,0,0,1-.45.2h-.07l0,0a.54.54,0,0,0,.31.12h.09a.85.85,0,0,0,.63-.29,2.25,2.25,0,0,0,.43-.74,1.49,1.49,0,0,0,.12-.57,1.22,1.22,0,0,0,0-.32.09.09,0,0,1,.07-.13.1.1,0,0,1,.13.07,1.37,1.37,0,0,1,.06.39,1.81,1.81,0,0,1-.14.65,2.53,2.53,0,0,1-.47.81,1.08,1.08,0,0,1-.78.36.46.46,0,0,0-.13,0"/><path id="Shape-34" data-name="Shape" d="M33,23.48a.1.1,0,0,1-.1-.11c0-.14,0-.27,0-.4V22.5c0-.28,0-.55,0-.81s0-.56,0-.84a3,3,0,0,1,.07-.41.75.75,0,0,1,.17-.36.11.11,0,0,1,.15,0,.11.11,0,0,1,0,.15.75.75,0,0,0-.1.24c0,.13,0,.25-.07.39s0,.55,0,.83,0,.54,0,.8V23c0,.14,0,.27,0,.41a.1.1,0,0,1-.11.1Z"/><path id="Shape-35" data-name="Shape" d="M34.44,26.74a1.48,1.48,0,0,1-.47-.26.84.84,0,0,1-.24-.5,2.16,2.16,0,0,1,0-.5c0-.25,0-.48,0-.71a.1.1,0,0,1,.21,0c0,.24,0,.47,0,.7a2.38,2.38,0,0,0,0,.46.69.69,0,0,0,.18.39,1.15,1.15,0,0,0,.4.23h.15a1.43,1.43,0,0,1-.19-.46,2.44,2.44,0,0,1-.07-.6,4.14,4.14,0,0,1,0-.61.1.1,0,0,1,.21,0,3.86,3.86,0,0,0,0,.59,2.41,2.41,0,0,0,.06.54,1.25,1.25,0,0,0,.19.44.21.21,0,0,1,0,.11.16.16,0,0,1-.13.15.38.38,0,0,1-.15,0,.78.78,0,0,1-.18,0"/><path id="Shape-36" data-name="Shape" d="M37.57,21.15a1.08,1.08,0,0,1-.35-.8,1.66,1.66,0,0,1,.25-.85h0a.09.09,0,0,1,.14,0,.1.1,0,0,1,0,.14,1.47,1.47,0,0,0-.23.74.82.82,0,0,0,.12.45,2.09,2.09,0,0,1,.19-.73,1.5,1.5,0,0,1,.32-.42,1.47,1.47,0,0,1,.2-.16l.12-.07h0a.11.11,0,0,1,.18.12.49.49,0,0,1-.19.13.69.69,0,0,0-.17.14,1.21,1.21,0,0,0-.28.36,1.76,1.76,0,0,0-.18.81v.09a.11.11,0,0,1-.06.1h0s0,0-.06,0"/><path id="Shape-37" data-name="Shape" class="cls-2" d="M49.87,17.31c.19.65-.46,1.12-1,1.14a2,2,0,0,1-1-.28c-.31-.17-.61-.36-.92-.53a2.45,2.45,0,0,0-1.91-.34,2.24,2.24,0,0,0-.78.5,2.56,2.56,0,0,0-.6.74l0,.08.23,0A.11.11,0,0,0,44,18.6a1.63,1.63,0,0,1,.36-.32,1.15,1.15,0,0,1,.89-.16,5.31,5.31,0,0,1,1.79,1,3.32,3.32,0,0,0,1.75.71,2,2,0,0,0,1.51-.6,1.93,1.93,0,0,0,.34-2,1.18,1.18,0,0,0-.76-.74,1,1,0,0,0-1,.2.92.92,0,0,1,1,.6"/><path id="Shape-38" data-name="Shape" d="M45.29,18a5.34,5.34,0,0,1,1.83,1,3.32,3.32,0,0,0,1.69.69h0a1.92,1.92,0,0,0,1.4-.57,1.83,1.83,0,0,0,.33-1.84,1.07,1.07,0,0,0-.7-.68,1.19,1.19,0,0,0-.33,0,.84.84,0,0,0-.35.07.92.92,0,0,1,.79.66.74.74,0,0,1,0,.25,1.16,1.16,0,0,1-1.17,1h0a2.1,2.1,0,0,1-1-.29c-.32-.17-.62-.36-.92-.53a2.89,2.89,0,0,0-1.34-.41,1.44,1.44,0,0,0-.49.08,2.37,2.37,0,0,0-.75.48,2.71,2.71,0,0,0-.55.67l.1,0h0l0,0a1.88,1.88,0,0,1,.38-.35A1.16,1.16,0,0,1,45,18l.31,0ZM48.8,19.9a3.44,3.44,0,0,1-1.8-.72,5.38,5.38,0,0,0-1.75-1,1.13,1.13,0,0,0-.26,0,1,1,0,0,0-.56.17,1.53,1.53,0,0,0-.34.31.23.23,0,0,1-.18.1h-.08l-.22,0a.13.13,0,0,1-.07,0,.1.1,0,0,1,0-.09l0-.09a2.94,2.94,0,0,1,.62-.77,2.5,2.5,0,0,1,.82-.52,1.85,1.85,0,0,1,.55-.09,3,3,0,0,1,1.44.43c.31.18.61.37.91.53a1.91,1.91,0,0,0,.86.27h0c.47,0,1-.36,1-.81a.78.78,0,0,0,0-.2h0c-.06-.35-.49-.52-.86-.53a.09.09,0,0,1-.09-.06.09.09,0,0,1,0-.11.92.92,0,0,1,.7-.28,1.32,1.32,0,0,1,.39.06,1.3,1.3,0,0,1,.83.8,2,2,0,0,1,.14.72,1.94,1.94,0,0,1-.5,1.33,2.1,2.1,0,0,1-1.54.64Z"/><path id="Shape-39" data-name="Shape" d="M41.53,15.07a.1.1,0,0,1,.07-.13,1.16,1.16,0,0,0,.43-.25h0a.11.11,0,0,1,.15,0,.1.1,0,0,1,0,.15,1.35,1.35,0,0,1-.52.3h0a.08.08,0,0,1-.1-.07"/><path id="Shape-40" data-name="Shape" d="M42.25,16.18a.14.14,0,0,1,0-.06.1.1,0,0,1,0-.09h0a1.44,1.44,0,0,0,.37-.27h0a.25.25,0,0,0,.06-.11v0a.46.46,0,0,0,0-.17h0a.5.5,0,0,0,0-.13v0h0a.46.46,0,0,1-.31.23.12.12,0,0,1-.13-.07.1.1,0,0,1,.06-.13.38.38,0,0,0,.2-.14l0-.12h0a.1.1,0,0,1,0-.09h.1a.45.45,0,0,1,.16.15.51.51,0,0,1,.07.26h0a.72.72,0,0,1,0,.25.56.56,0,0,1-.13.2h0a1.75,1.75,0,0,1-.39.28h-.06a.07.07,0,0,1-.1,0"/><path id="Shape-41" data-name="Shape" d="M42.55,15.16l.12,0s0-.05,0-.07l-.1.09m-1.36.38a.1.1,0,0,1,0-.09.11.11,0,0,1,.07,0l.87-.17,0,0c.13-.1.25-.23.38-.34s0-.06.13-.07.12.09.14.13a1.37,1.37,0,0,1,.06.27v0a.1.1,0,0,1-.08.1l-.6.12a2.57,2.57,0,0,1-.44.18,1.64,1.64,0,0,1-.35.06.22.22,0,0,1-.23-.13"/><path id="Shape-42" data-name="Shape" d="M41.38,14.59a.54.54,0,0,0-.32.17.36.36,0,0,0-.11.19s.12,0,.12,0a.65.65,0,0,1,.39-.13,3.85,3.85,0,0,1,.48.13,1.34,1.34,0,0,0,.91-.07,1,1,0,0,0,.42-.73,1.52,1.52,0,0,1-.86.65c-.36,0-.69-.21-1-.16"/><path id="Shape-43" data-name="Shape" class="cls-1" d="M14.83,18.92a7.85,7.85,0,0,1,.07-1.35c0-.24.09-.46.11-.7s0-.43.08-.65a4.28,4.28,0,0,0,.07-.52,3.25,3.25,0,0,0,0-.45,1.34,1.34,0,0,1,0-.26c0-.19-.11-.22-.24-.31a1.14,1.14,0,0,1-.18-.21,1.33,1.33,0,0,0-.57-.52c-.19-.08,0-.7,0-.87a8.23,8.23,0,0,0-.19-.86.93.93,0,0,0-.32-.62c-.31-.19-.63.11-.87.27a2.3,2.3,0,0,1-.32.23,2.23,2.23,0,0,1-.64.08,2,2,0,0,0-1.3.79,1.92,1.92,0,0,0-.69-.18l-.63,0H8.74c-.31,0-.65,0-1,.09a.68.68,0,0,0-.37.21c-.08.09-.11.15-.14.18l-.09.12H6.86a4.73,4.73,0,0,0-.54,0,1.84,1.84,0,0,0-1,.49,1,1,0,0,1-.11.11l-.07,0a.76.76,0,0,0-.49.52.64.64,0,0,0,0,.2,1,1,0,0,0,.09.43.37.37,0,0,0,.18.19,2,2,0,0,0,0,.24s0,.08,0,.12a1.57,1.57,0,0,0,.2.7,3.37,3.37,0,0,0,.27.43A3.5,3.5,0,0,0,4,17.29c-.33.18-.62.37-.91.53a1.77,1.77,0,0,1-.74.25h0a1,1,0,0,1-.5-.19.48.48,0,0,1-.21-.36.31.31,0,0,1,0-.13h0a.31.31,0,0,1,.18-.22.87.87,0,0,1,.42-.1.37.37,0,0,0,.33-.22.36.36,0,0,0,0-.38,1.14,1.14,0,0,0-.9-.37,1.48,1.48,0,0,0-.46.07,1.57,1.57,0,0,0-1,1,2.31,2.31,0,0,0,.41,2.32,2.38,2.38,0,0,0,1.74.71h0a3.72,3.72,0,0,0,1.95-.76,7.66,7.66,0,0,1,1.36-.83,2.51,2.51,0,0,0-.06.4c0,.06,0,.12,0,.18a1.19,1.19,0,0,0,.29.82,1.59,1.59,0,0,0,.38.3l.15.09v.16c0,.15,0,.28,0,.43a.35.35,0,0,0,.19.3.37.37,0,0,0,.36,0c.17-.13.6-.26.76-.76a1.44,1.44,0,0,0,0-.38V20a.81.81,0,0,0,.16,0h.55s0,.08,0,.12a.61.61,0,0,0,0,.27.62.62,0,0,0,.12.19.77.77,0,0,0-.26.32.27.27,0,0,0,0,.12v0l0,0A.37.37,0,0,0,7.84,21a.36.36,0,0,0-.16.43,2.43,2.43,0,0,1,.18.79.57.57,0,0,1-.23.5.53.53,0,0,1-.27.11s0,0-.07,0a.72.72,0,0,1-.19-.48A.38.38,0,0,0,6.81,22a.38.38,0,0,0-.39.22,2.33,2.33,0,0,0-.14.61c0,.11,0,.23,0,.36a2.52,2.52,0,0,0,0,.26,1.27,1.27,0,0,0,.37.69,5.65,5.65,0,0,0-.78,1.56s0,0,0,.08v0s0,0,0,0,0,.16,0,.23v0a2.79,2.79,0,0,0,0,.28v0a2.75,2.75,0,0,0,0,.28,0,0,0,0,0,0,0,1,1,0,0,0,.07.25s0,0,0,0l0,0,0,0,0,.1a2.21,2.21,0,0,0,.19.31l0,0a1.18,1.18,0,0,0,.44.44l.09,0a.36.36,0,0,0,.34,0,.25.25,0,0,0,.13-.23,3.46,3.46,0,0,1-.14-1c0-.16.28-.24.4-.25s.33,0,.42.22l.06.12c.17.26,0,.59.16.86a1,1,0,0,0,.11.15.75.75,0,0,0,.31.18l.22.1a1.26,1.26,0,0,0,.37,0h.18A1.2,1.2,0,0,0,9.77,28l.16-.1a2.41,2.41,0,0,0,.26-.19,3.77,3.77,0,0,0,.29-.27l0,0a.28.28,0,0,1,.15,0h.1a1.55,1.55,0,0,0,.53-.14l.19-.09a1,1,0,0,0,.32.43,2.09,2.09,0,0,0,1.06.39,2.56,2.56,0,0,0,1.7-.45,1.37,1.37,0,0,0,.37-1.12,3.92,3.92,0,0,0-.2-1c0-.12,0-.23-.07-.35a2.35,2.35,0,0,1-.09-.29,4.35,4.35,0,0,1-.1-1.07c0-.39.09-.78.14-1.17a22,22,0,0,0,.18-2.9,4.62,4.62,0,0,0,0-.73Z"/><path id="Shape-44" data-name="Shape" class="cls-1" d="M16.62,27.51a2.7,2.7,0,0,1-.16-.73s0-.17-.08-.13-.18.12-.28.17a1.59,1.59,0,0,1-.74.16,2.57,2.57,0,0,1-.72-.19c-.07,0-.22-.16-.28-.11s-.11.19-.18.27a1.11,1.11,0,0,1-.54.32,1.62,1.62,0,0,1-.37.09c-.11,0,.11-.4.11-.47,0,.12-.14.22-.23.26a1.47,1.47,0,0,1-.38.18.8.8,0,0,1-.4,0,.69.69,0,0,1-.3-.15.67.67,0,0,1-.19-.38.16.16,0,0,0-.07-.16s-.12,0-.17,0-.1.09-.15.12a.42.42,0,0,1-.19.07c-.15,0-.29.07-.42.1a3.1,3.1,0,0,0-.4.14c-.06,0-.09.07-.13.12l-.17.14c-.13.09-.24.19-.35.28a1,1,0,0,1-.41.15,1.68,1.68,0,0,1-.49,0c-.12,0-.28,0-.36-.1a.63.63,0,0,1-.14-.34.77.77,0,0,1,0-.22,1.07,1.07,0,0,1,0-.18c.29.38.77.12,1.08-.09a.78.78,0,0,0,.33-.39,1.18,1.18,0,0,1,.13-.25c0-.06.1-.12.1-.19s-.09.09-.13.13a.62.62,0,0,1-.25.14,2,2,0,0,1-.59.14.34.34,0,0,1-.17,0c-.08,0,0-.14,0-.18l.15-.27s.11-.11.08-.17-.13.13-.21.19a.81.81,0,0,1-.26.1,5.19,5.19,0,0,1-.69.14H7.63c-.07,0-.2,0-.26,0s0-.14,0-.18a.49.49,0,0,0,.11-.25s-.07,0-.11,0l-.12.07a1.24,1.24,0,0,0-.22.18,1.29,1.29,0,0,0-.31.44,1.14,1.14,0,0,0,0,.58,1.66,1.66,0,0,1,.09.54c-.07,0-.11-.09-.17-.13a.89.89,0,0,1-.17-.16,1.42,1.42,0,0,1-.22-.39,1.61,1.61,0,0,1,0-1,5.76,5.76,0,0,1,1-1.82.92.92,0,0,1-.53-.66,1.82,1.82,0,0,1,0-.53,1.75,1.75,0,0,1,.11-.51,1.11,1.11,0,0,0,.31.72.64.64,0,0,0,.78-.07c.57-.4.38-1.17.18-1.71l.36.41a3.85,3.85,0,0,1,.18-.34.9.9,0,0,1,.11-.16s0-.08,0-.13A.63.63,0,0,1,9,20.89l.3-.27a.58.58,0,0,1-.38-.27A.45.45,0,0,1,9,19.9a1.26,1.26,0,0,0-.45-.17H8.11s-.13,0-.16,0a1.48,1.48,0,0,1-.12-.14s0-.08-.09-.1-.11.08-.13.1c-.22.25-.09.55-.17.84s-.37.4-.59.53c0-.15,0-.28,0-.43a1.5,1.5,0,0,0,0-.36s-.1-.07-.14-.09L6.52,20a1.46,1.46,0,0,1-.3-.25A.88.88,0,0,1,6,19a3.32,3.32,0,0,1,.18-.81,1.3,1.3,0,0,0,.12.27.49.49,0,0,0,.35.26,1.84,1.84,0,0,0,.46,0l.29,0s.15,0,.18,0,.27.2.4.29.52.36.53,0a1.77,1.77,0,0,0-.32-.93c-.18-.28-.41-.51-.59-.79a1.14,1.14,0,0,0-.31-.37,2.92,2.92,0,0,0-.41-.26c-.22-.13-.59-.23-.75,0a.7.7,0,0,0,.07.64,6.06,6.06,0,0,1-.79-1,1.1,1.1,0,0,1-.16-.61,1.23,1.23,0,0,1,.23-.56l-.25,0s-.12,0-.14,0a.72.72,0,0,1,0-.41.4.4,0,0,1,.27-.26.36.36,0,0,0,.18-.08l.12-.12a1.46,1.46,0,0,1,.8-.39,3.05,3.05,0,0,1,.9,0c.07,0,.08,0,.12-.08l.15-.2c.08-.11.13-.23.28-.25.31,0,.63-.07.94-.09a8.12,8.12,0,0,1,1,0,1.35,1.35,0,0,1,.81.3,1.87,1.87,0,0,1,1.26-.93,2.26,2.26,0,0,0,.77-.12A2.92,2.92,0,0,0,13,12.2l.34-.25a3.56,3.56,0,0,1-.08,2.55.57.57,0,0,1,.47-.19.62.62,0,0,1,.38.24,8.08,8.08,0,0,0,.75.81,1.09,1.09,0,0,0,.85.36,1,1,0,0,0,.75-.52,1.83,1.83,0,0,1,.17.61.87.87,0,0,1-.16.51c0,.08-.12.16-.18.23s.12.16.13.18a5.31,5.31,0,0,1,.35.48c.21.32.3.71.5,1a.56.56,0,0,0,.37.3.45.45,0,0,0,.41-.19,1,1,0,0,1-.11.73c-.2.26-.55.14-.77,0a1,1,0,0,1,.33.74c0,.14,0,.29.16.36s.26,0,.32.14a1,1,0,0,1,.07.34,4,4,0,0,1,.06.49c0,.32,0,.67.07,1s0,.36,0,.54,0,.33,0,.5a1.79,1.79,0,0,0,.14.94.63.63,0,0,0,.8.22s.18-.12.2-.1,0,.1,0,.11a1.73,1.73,0,0,1-.1.45.67.67,0,0,1-.7.37c-.06,0-.12,0-.14.06s0,.15,0,.22-.06.33-.1.5a1.8,1.8,0,0,0-.17.93c.09.28.48.21.68.11,0,.41-.29.87-.75.77a.58.58,0,0,0,.69.1.84.84,0,0,0,.42-.6c0,.72-.23,1.74-1.13,1.7-.67-.08-1.17-.81-1.4-1.42"/><path id="Shape-45" data-name="Shape" d="M18.07,28.8h.06a.8.8,0,0,0,.74-.48,2.07,2.07,0,0,0,.2-.62.84.84,0,0,1-.26.2.76.76,0,0,1-.33.08.62.62,0,0,1-.48-.21.1.1,0,0,1,.1-.17h.11a.58.58,0,0,0,.51-.53,1.07,1.07,0,0,1-.25,0,.39.39,0,0,1-.41-.27.82.82,0,0,1,0-.22,3,3,0,0,1,.2-.77c0-.16.07-.32.1-.49a1.21,1.21,0,0,1,0-.24.2.2,0,0,1,.23-.13h0a.56.56,0,0,0,.59-.31,1.61,1.61,0,0,0,.08-.34l0,0a.77.77,0,0,1-.32.07.7.7,0,0,1-.6-.32,1.53,1.53,0,0,1-.16-.74v-.24h0v0c0-.13,0-.25,0-.36v-.11a4.8,4.8,0,0,1,0-.54c0-.16,0-.33,0-.49l0-.25a1.83,1.83,0,0,1,0-.27c0-.17,0-.32,0-.48v-.19a.38.38,0,0,0,0-.18h-.14a.37.37,0,0,1-.24-.09.56.56,0,0,1-.16-.43.82.82,0,0,0-.26-.61l0,0h0a.11.11,0,0,1,0-.15.12.12,0,0,1,.15,0l0,0a.66.66,0,0,0,.36.14.28.28,0,0,0,.23-.11A.63.63,0,0,0,18,18.6v-.07a.59.59,0,0,1-.29.08h-.06a.68.68,0,0,1-.45-.35c-.22-.35-.31-.73-.5-1s-.23-.31-.34-.46l-.07-.08s-.07-.06-.09-.16a.17.17,0,0,1,0-.07l.17-.23a.78.78,0,0,0,.15-.42v0a1.42,1.42,0,0,0-.09-.39,1.22,1.22,0,0,1-.72.39h-.12a1.25,1.25,0,0,1-.81-.4,8.38,8.38,0,0,1-.76-.81.61.61,0,0,0-.32-.21h0a.51.51,0,0,0-.33.16.11.11,0,0,1-.17-.13,2.2,2.2,0,0,0,.27-1.11,6.39,6.39,0,0,0-.16-1.21l-.22.17a3.94,3.94,0,0,1-.37.26,2.22,2.22,0,0,1-.8.14,1.76,1.76,0,0,0-1.19.88.12.12,0,0,1-.07,0,.11.11,0,0,1-.08,0,1.19,1.19,0,0,0-.75-.28c-.2,0-.39,0-.59,0H8.89c-.31,0-.63,0-.93.09-.08,0-.12.08-.21.21l-.15.2a.24.24,0,0,1-.18.13h0a2.72,2.72,0,0,0-.4,0,2.41,2.41,0,0,0-.46,0,1.33,1.33,0,0,0-.74.37.72.72,0,0,0-.11.12.43.43,0,0,1-.22.11.31.31,0,0,0-.21.19.3.3,0,0,0,0,.09.84.84,0,0,0,0,.23h.07l.24,0a.09.09,0,0,1,.08.06.12.12,0,0,1,0,.1,1.15,1.15,0,0,0-.21.51v.07a1,1,0,0,0,.15.48,3.31,3.31,0,0,0,.47.66.53.53,0,0,1,.07-.26.46.46,0,0,1,.41-.23,1.1,1.1,0,0,1,.48.14,4.27,4.27,0,0,1,.41.27,1.33,1.33,0,0,1,.34.4c.17.26.4.5.59.79a1.88,1.88,0,0,1,.33,1v0a.24.24,0,0,1-.07.18.22.22,0,0,1-.16.07A1.11,1.11,0,0,1,8,19c-.14-.09-.27-.2-.39-.28l-.12,0-.3,0-.34,0H6.72a.56.56,0,0,1-.43-.31s0,0,0,0a3.12,3.12,0,0,0-.09.52s0,.1,0,.15a.69.69,0,0,0,.17.5,1.49,1.49,0,0,0,.28.23l.17.09s.13,0,.2.16a.55.55,0,0,1,0,.18v.21c0,.09,0,.18,0,.26.18-.11.35-.24.38-.38a1.25,1.25,0,0,0,0-.27v0a.73.73,0,0,1,.17-.56l.06-.07s0-.06.14-.08l.06,0a.79.79,0,0,1,.11.12l.1.12h.57a1.38,1.38,0,0,1,.48.18.09.09,0,0,1,.06.09.1.1,0,0,1,0,.1A.37.37,0,0,0,9,20.2a.52.52,0,0,0,0,.08c0,.1.18.17.31.21a.1.1,0,0,1,.07.07.1.1,0,0,1,0,.1l-.3.28a.66.66,0,0,0-.21.21v0a.16.16,0,0,1,0,.12l-.11.16c-.06.11-.11.23-.17.34a.15.15,0,0,1-.08.06.14.14,0,0,1-.09,0l0,0a2,2,0,0,1,.06.49,1,1,0,0,1-.42.88.92.92,0,0,1-.54.19.61.61,0,0,1-.37-.13.91.91,0,0,1-.25-.34.12.12,0,0,1,0,.06c0,.11,0,.22,0,.31a.6.6,0,0,0,0,.19.82.82,0,0,0,.47.59.1.1,0,0,1,.06.07.1.1,0,0,1,0,.09A5.53,5.53,0,0,0,6.4,26a1.71,1.71,0,0,0-.06.44,1.27,1.27,0,0,0,.1.51,2.84,2.84,0,0,0,.25.39l0,.07c0-.13,0-.26,0-.38s0-.27,0-.42a1.51,1.51,0,0,1,0-.29.81.81,0,0,1,.37-.5l.28-.16s.11-.12.27-.13h0a.08.08,0,0,1,.07,0,.11.11,0,0,1,0,.08c0,.19-.2.23-.24.28a1.2,1.2,0,0,0-.1.16h.09l.31,0H8a1,1,0,0,0,.26,0,2.15,2.15,0,0,0,.4-.19l.21-.13s.06-.06.14-.13H9l0,0s0,0,.11,0a.14.14,0,0,1,.13.12v0a.4.4,0,0,1,0,.15,2.76,2.76,0,0,1-.21.37L9,26.28H9a3.08,3.08,0,0,0,.39,0h.1s0-.1.1-.17.21-.27.27-.33,0,0,.08,0a.08.08,0,0,1,.07,0h0v0a.22.22,0,0,1,0,.13A1.32,1.32,0,0,1,10,26a1.87,1.87,0,0,1,0,.23.83.83,0,0,1-.25.42,1.21,1.21,0,0,1-.39.27,1.82,1.82,0,0,1-.5.18H8.71a.51.51,0,0,1-.29-.07,1,1,0,0,0,.08.28c.06.13.15.16.3.24a1.09,1.09,0,0,0,.41.1H9.3a.66.66,0,0,0,.33-.1,1.52,1.52,0,0,0,.31-.25l.18-.13c.06,0,.11-.1.19-.16.31-.24.68-.11.88-.26a1,1,0,0,1,.4-.21h.09a.2.2,0,0,1,.18.09c0,.07.06.15.09.19a1.17,1.17,0,0,0,.22.26c.09.11.16.19.24.18h0a1.31,1.31,0,0,0,.38-.15,2.15,2.15,0,0,1,.23-.07l.08,0,.11,0a.12.12,0,0,1,.1,0,.09.09,0,0,1,.07.08v0a.33.33,0,0,1,0,.15l.29-.1a.41.41,0,0,0,.23-.1c.08-.09.14-.1.16-.13l.19-.26a.24.24,0,0,1,.19-.12.18.18,0,0,1,.16.09s.12,0,.24.11a1.16,1.16,0,0,0,.56.14,1.68,1.68,0,0,0,.67-.15,1.39,1.39,0,0,0,.24-.14.18.18,0,0,1,.11,0,.16.16,0,0,1,.15.14.46.46,0,0,1,0,.1,3.14,3.14,0,0,0,.16.7h0c.27.6.76,1.29,1.41,1.32Zm0,.21c-.8,0-1.31-.83-1.54-1.45a4,4,0,0,1-.17-.73v0l-.21.12a2,2,0,0,1-.76.17,1.36,1.36,0,0,1-.66-.16s-.18,0-.29-.15h0l0,0c-.06.08-.12.18-.19.27a.8.8,0,0,1-.16.13.54.54,0,0,1-.33.17,3,3,0,0,0-.32.11.59.59,0,0,1-.15,0,.13.13,0,0,1-.08,0,.14.14,0,0,1-.07-.11.15.15,0,0,1,0-.08l-.21.06a1.23,1.23,0,0,1-.46.17h0a.51.51,0,0,1-.39-.26,1.75,1.75,0,0,1-.25-.31c0-.06,0-.12-.07-.16h-.07c-.12,0-.19.09-.33.18-.33.2-.68.08-.87.25s-.11.11-.2.17a.63.63,0,0,0-.15.11,1.45,1.45,0,0,1-.37.29.92.92,0,0,1-.42.12h-.1a1.34,1.34,0,0,1-.49-.12.72.72,0,0,1-.39-.33A1.31,1.31,0,0,1,8.23,27v0a.2.2,0,0,1,0-.07.11.11,0,0,1,.12-.08h0a.38.38,0,0,1,.14.1.28.28,0,0,0,.2.06h.11a1.75,1.75,0,0,0,.44-.16.84.84,0,0,0,.32-.23.67.67,0,0,0,.2-.33s0,0,0-.08l0,0a2,2,0,0,1-.11.19.21.21,0,0,1-.21.08h0c-.12,0-.26,0-.41,0h-.1a.18.18,0,0,1-.18-.17c0-.15.13-.21.15-.25a.9.9,0,0,0,.1-.16L8.82,26a2.22,2.22,0,0,1-.44.2.93.93,0,0,1-.33,0H7.79l-.31,0a.55.55,0,0,1-.18,0,.19.19,0,0,1-.13-.18.31.31,0,0,1,0-.15l0,0a.59.59,0,0,0-.29.38,1,1,0,0,0,0,.24c0,.13,0,.26,0,.4s0,.26,0,.38a1.29,1.29,0,0,1,.06.28v0a.09.09,0,0,1,0,.08.09.09,0,0,1-.1,0,.81.81,0,0,1-.33-.34A3.87,3.87,0,0,1,6.24,27a1.54,1.54,0,0,1-.12-.59,1.76,1.76,0,0,1,.07-.5,5.49,5.49,0,0,1,.92-1.8,1,1,0,0,1-.47-.68,1.47,1.47,0,0,1,0-.22,3.31,3.31,0,0,1,0-.33,1.69,1.69,0,0,1,.12-.53.1.1,0,0,1,.11-.06.12.12,0,0,1,.09.09.93.93,0,0,0,.28.66.34.34,0,0,0,.24.08A.81.81,0,0,0,7.88,23a.79.79,0,0,0,.33-.71A2.81,2.81,0,0,0,8,21.4a.11.11,0,0,1,0-.13.09.09,0,0,1,.13,0l.26.29a2,2,0,0,1,.11-.22l.11-.17h0a.25.25,0,0,1,0-.1.82.82,0,0,1,.26-.28l.18-.16a.53.53,0,0,1-.29-.27.44.44,0,0,1,0-.17.73.73,0,0,1,.06-.28.7.7,0,0,0-.29-.1H8a.21.21,0,0,1-.12,0,.9.9,0,0,1-.14-.15l0,0,0,0a.59.59,0,0,0-.11.43v0a1.24,1.24,0,0,1,0,.32c-.09.33-.43.47-.64.6a.09.09,0,0,1-.1,0,.1.1,0,0,1,0-.09c0-.15,0-.28,0-.43v-.22a.41.41,0,0,0,0-.11h0l-.08,0-.18-.1a1.65,1.65,0,0,1-.33-.25.9.9,0,0,1-.23-.65.84.84,0,0,1,0-.16,3.5,3.5,0,0,1,.18-.84.1.1,0,0,1,.1-.07.1.1,0,0,1,.1.07,2,2,0,0,0,.11.25.38.38,0,0,0,.28.22h.13l.32,0,.29,0a.6.6,0,0,1,.16,0,.15.15,0,0,1,.1,0l.39.29a1.19,1.19,0,0,0,.36.18h0a.06.06,0,0,0,0,0v0a1.79,1.79,0,0,0-.31-.85c-.17-.26-.4-.5-.59-.79A1.22,1.22,0,0,0,7.25,17c-.13-.09-.27-.19-.4-.26a.75.75,0,0,0-.37-.11.25.25,0,0,0-.24.12.29.29,0,0,0,0,.16.86.86,0,0,0,.11.37.11.11,0,0,1,0,.14.11.11,0,0,1-.14,0,6.67,6.67,0,0,1-.8-1,1.25,1.25,0,0,1-.17-.58v-.09a1.24,1.24,0,0,1,.16-.46H5.21a.2.2,0,0,1-.2-.1.91.91,0,0,1-.07-.33.72.72,0,0,1,0-.14.48.48,0,0,1,.33-.33c.09,0,.12,0,.14,0a.82.82,0,0,1,.13-.13,1.62,1.62,0,0,1,.85-.42,2.81,2.81,0,0,1,.5,0,3.08,3.08,0,0,1,.42,0l0,0,.15-.21a.55.55,0,0,1,.34-.28c.31,0,.64-.07,1-.09h.39l.6,0a1.46,1.46,0,0,1,.78.25,1.91,1.91,0,0,1,1.27-.88,2.29,2.29,0,0,0,.73-.11,2.34,2.34,0,0,0,.34-.26l.34-.25a.09.09,0,0,1,.1,0,.11.11,0,0,1,.07.08,6.76,6.76,0,0,1,.2,1.41,2.55,2.55,0,0,1-.15.89.55.55,0,0,1,.18,0h.07a.76.76,0,0,1,.45.28,7,7,0,0,0,.74.79,1.07,1.07,0,0,0,.68.34h.09a1,1,0,0,0,.67-.45.1.1,0,0,1,.1-.06.13.13,0,0,1,.1.06,1.78,1.78,0,0,1,.18.65v0a1,1,0,0,1-.18.53l-.14.19v0l.08.08a4.5,4.5,0,0,1,.36.49c.23.34.32.73.5,1a.46.46,0,0,0,.3.25h0a.37.37,0,0,0,.29-.15.1.1,0,0,1,.11,0,.1.1,0,0,1,.08.09c0,.09,0,.2,0,.29a.83.83,0,0,1-.15.52.44.44,0,0,1-.38.19h-.13a1.27,1.27,0,0,1,.09.42c0,.13,0,.24.08.28a.12.12,0,0,0,.1,0h.12a.24.24,0,0,1,.16.06.42.42,0,0,1,.1.32v.17c0,.17,0,.32,0,.5a1.86,1.86,0,0,0,0,.25l0,.25c0,.17,0,.34,0,.51a4.7,4.7,0,0,0,0,.52s0,.09,0,.13,0,.25,0,.36v0h0v.24a1.22,1.22,0,0,0,.12.63.5.5,0,0,0,.42.23.7.7,0,0,0,.24,0l.08,0a.29.29,0,0,1,.15-.06.1.1,0,0,1,.06,0c.07.06,0,.09,0,.11s0,.09,0,.1h0a1.69,1.69,0,0,1-.1.47.77.77,0,0,1-.78.43h-.06s0,.12,0,.19-.06.33-.1.5a3.18,3.18,0,0,0-.19.73,1,1,0,0,0,0,.16c0,.09.09.12.22.13a.86.86,0,0,0,.33-.08h.1a.1.1,0,0,1,0,.08V27a.85.85,0,0,1-.47.78h0a.5.5,0,0,0,.25-.06.73.73,0,0,0,.37-.52.11.11,0,0,1,.11-.09.11.11,0,0,1,.1.1v.13C19.29,28,19,29,18.12,29c0,0,0,0-.06,0Z"/><path id="Shape-46" data-name="Shape" d="M8.91,27.86a1,1,0,0,1-.66-1v0a.08.08,0,0,1,.06-.09.11.11,0,0,1,.11,0,.61.61,0,0,0,.4.18.52.52,0,0,0,.17,0,2,2,0,0,0,.59-.3,1.07,1.07,0,0,0,.27-.4l-.1.11a.79.79,0,0,1-.57.22,1.2,1.2,0,0,1-.42-.08.08.08,0,0,1-.06-.07.09.09,0,0,1,0-.09l.3-.34a1.33,1.33,0,0,1-.57.26,3.66,3.66,0,0,1-.55.06l-.42,0H7.27a.1.1,0,0,1-.08,0,.09.09,0,0,1,0-.09,1.46,1.46,0,0,1,.1-.23,1.27,1.27,0,0,0-.35.5,1.17,1.17,0,0,0-.07.41,2.31,2.31,0,0,0,.2.84.11.11,0,0,1,0,.13.11.11,0,0,1-.13,0l-.24-.23h0a.11.11,0,0,1,0-.15.1.1,0,0,1,.09,0,2,2,0,0,1-.08-.55,1.21,1.21,0,0,1,.09-.49,2.09,2.09,0,0,1,.76-.86,3.21,3.21,0,0,0,.86-.85s.29-.57.29-.57a.1.1,0,0,1,.13,0c.09,0,.06.1.07.11a2.52,2.52,0,0,1-.53,1c-.18.2-.39.32-.55.48a1.51,1.51,0,0,0-.32.43h0l.41,0a4.61,4.61,0,0,0,.52,0,1.14,1.14,0,0,0,.75-.52A3,3,0,0,0,9.61,24c0-.21,0-.44,0-.66a.1.1,0,0,1,.1-.1.11.11,0,0,1,.11.1v.23a3.2,3.2,0,0,1,0,.43v.23a3.32,3.32,0,0,1-.08.82,2.18,2.18,0,0,1-.32.72,5.1,5.1,0,0,1-.41.48.68.68,0,0,0,.2,0,.59.59,0,0,0,.42-.16,2.6,2.6,0,0,0,.53-.91.1.1,0,0,1,.13-.06.1.1,0,0,1,.07.12,4.8,4.8,0,0,1-.24.83,1.43,1.43,0,0,1-.37.61,2,2,0,0,1-.66.34,1,1,0,0,1-.23,0,.74.74,0,0,1-.35-.1.75.75,0,0,0,.75.68,1.3,1.3,0,0,0,.78-.32,2.49,2.49,0,0,0,.71-.89,2.92,2.92,0,0,0,.2-.59l.09-.5a.1.1,0,0,1,.21,0h0a4.73,4.73,0,0,1-.09.5l-.06.35a2.66,2.66,0,0,1-.22.61,1.13,1.13,0,0,0,.74-.31,1.87,1.87,0,0,0,.34-.94c0-.22.06-.42.07-.64v-.32a1.21,1.21,0,0,0,0-.19,3,3,0,0,0-.34-.88l-.08-.15a.1.1,0,0,1,0-.14.11.11,0,0,1,.08,0s0,0,0,0h0s0,0,0,0a1.58,1.58,0,0,0,.1.18,3.05,3.05,0,0,1,.36.93,1.35,1.35,0,0,1,0,.2c0,.06,0,.13,0,.19v.23c0,.12,0,.23,0,.34a1.57,1.57,0,0,0,.26-.43,2.48,2.48,0,0,0,.13-.73c0-.07,0-.1,0-.1h0c0-.07,0-.14,0-.22s0-.27-.06-.4h0a4.4,4.4,0,0,0-.27-.71.09.09,0,0,1,0-.13.11.11,0,0,1,.14,0,1.16,1.16,0,0,1,.18.37c0,.13.09.26.13.39a9.65,9.65,0,0,1,.32,1.83,3.68,3.68,0,0,1,0,.48,1,1,0,0,1-.16.62,1.09,1.09,0,0,1-.91.4h0a.58.58,0,0,0,.21.36.49.49,0,0,0,.29.08,1.19,1.19,0,0,0,.33,0,1.15,1.15,0,0,0,.54-.42.91.91,0,0,0,.13-.29l.18-.4a.1.1,0,0,1,.13-.06.1.1,0,0,1,.06.13c-.08.24-.14.49-.23.74a1.05,1.05,0,0,1-.21.35,1.16,1.16,0,0,0,.62-.27,1.23,1.23,0,0,0,.34-.78.1.1,0,0,1,.21,0,1.5,1.5,0,0,1-.4.91,1.59,1.59,0,0,1-1.06.36.1.1,0,0,1-.1-.07.1.1,0,0,1,0-.11l-.2.09a1.56,1.56,0,0,1-.39.06.72.72,0,0,1-.41-.12.87.87,0,0,1-.31-.63.16.16,0,0,1,0-.09.12.12,0,0,1,.09,0H12a.91.91,0,0,0,.73-.31.93.93,0,0,0,.13-.51,3.67,3.67,0,0,0,0-.46c0-.24,0-.46-.09-.7a1.68,1.68,0,0,1-.11.42,2,2,0,0,1-.46.69.09.09,0,0,1-.1,0,1.77,1.77,0,0,1-.36.93,1.6,1.6,0,0,1-1.06.41.14.14,0,0,1-.09,0,3.19,3.19,0,0,1-.44.45,1.41,1.41,0,0,1-.91.37l-.3-.07"/><path id="Shape-47" data-name="Shape" d="M14.87,26.82a1.86,1.86,0,0,1-.47-.07.1.1,0,1,1,.06-.2,1.52,1.52,0,0,0,.41.07.7.7,0,0,0,.53-.21.85.85,0,0,0,.21-.48l0,.1a.64.64,0,0,1-.61.37h-.11a1,1,0,0,1-.57-.15,1.2,1.2,0,0,1-.41-.58.09.09,0,0,1,0-.1.11.11,0,0,1,.1,0,3.4,3.4,0,0,0,.63.06h.08a.76.76,0,0,0,.51-.16.93.93,0,0,0,.21-.51.48.48,0,0,0,0-.12,1.1,1.1,0,0,0-.13-.45,3.77,3.77,0,0,1-.26-.63A4.24,4.24,0,0,1,15,23c0-.27,0-.54,0-.81s0-.49,0-.73h0a.1.1,0,0,1,.21,0c0,.24,0,.49,0,.73s0,.53,0,.8a3.74,3.74,0,0,0,.07.66,3.7,3.7,0,0,0,.24.58,1.21,1.21,0,0,1,.15.54.88.88,0,0,1,0,.17,1.12,1.12,0,0,1-.27.62,1,1,0,0,1-.64.21h-.09a3.81,3.81,0,0,1-.48,0,.92.92,0,0,0,.27.31.84.84,0,0,0,.45.11h.1c.22,0,.35-.07.43-.25a3.81,3.81,0,0,0,.2-.67.11.11,0,0,1,.11-.08.1.1,0,0,1,.1.09,3.36,3.36,0,0,1,0,.46,1.13,1.13,0,0,1-.28.8.85.85,0,0,1-.66.25Z"/><path id="Shape-48" data-name="Shape" d="M5.91,14.94a.09.09,0,0,1-.06-.14L6,14.48a.13.13,0,0,1,.16,0,.09.09,0,0,1,.06.14l-.17.32A.13.13,0,0,1,6,15h0"/><path id="Shape-49" data-name="Shape" d="M6.36,14.91a.1.1,0,0,1-.07-.13,1.63,1.63,0,0,1,.08-.25.62.62,0,0,1,.21-.22.1.1,0,1,1,.14.16c-.07.06-.16.12-.16.14s0,.16-.08.23a.1.1,0,0,1-.1.07s0,0,0,0"/><path id="Shape-50" data-name="Shape" d="M9.13,18.33c-.14-.13-.29-.26-.42-.41a2.68,2.68,0,0,1-.32-.52c-.09-.18-.2-.34-.29-.54A2.05,2.05,0,0,1,8,16.24a2,2,0,0,0-.23-1A.88.88,0,0,0,7.41,15a1.35,1.35,0,0,1-.25-.11.87.87,0,0,0-.23-.14.1.1,0,0,1-.06-.13A.09.09,0,0,1,7,14.52a1.29,1.29,0,0,1,.27.16c.06,0,.14.06.22.1a1,1,0,0,1,.42.3,2.06,2.06,0,0,1,.28,1.15,1.7,1.7,0,0,0,.12.56c.07.18.19.34.28.53a2,2,0,0,0,.29.47c.12.14.27.27.4.4a.12.12,0,0,1,0,.15.11.11,0,0,1-.08,0,.11.11,0,0,1-.07,0"/><path id="Shape-51" data-name="Shape" d="M9.11,18.89c-.1-.2-.24-.38-.35-.6A1.71,1.71,0,0,0,8.58,18a1.26,1.26,0,0,0-.12-.12s-.08,0-.12-.12a.1.1,0,0,1,0-.14.1.1,0,0,1,.14,0h0l0,0,.06.06s.08.07.13.13a2.07,2.07,0,0,1,.2.3c.11.2.26.38.37.61a.11.11,0,0,1,0,.14h0a.25.25,0,0,1-.08-.07"/><path id="Shape-52" data-name="Shape" d="M11.08,14.15h0A.1.1,0,0,1,11,14a.1.1,0,0,1,.11-.1h.07a1.27,1.27,0,0,0,.39,0c.12,0,.16-.13.23-.27a1.16,1.16,0,0,1,.26-.41,2.25,2.25,0,0,1,.44-.31.1.1,0,0,1,.14,0,.1.1,0,0,1,0,.14,2.52,2.52,0,0,0-.4.28.87.87,0,0,0-.21.33.61.61,0,0,1-.34.39,1.32,1.32,0,0,1-.47.07h-.07"/><path id="Shape-53" data-name="Shape" d="M12.86,18.47a2.13,2.13,0,0,0-1-1.27c-.26-.16-.53-.28-.8-.47a1.9,1.9,0,0,1-.5-.77.1.1,0,0,1,0-.14.11.11,0,0,1,.14,0,1.68,1.68,0,0,0,.43.7c.25.17.52.29.79.46a2.37,2.37,0,0,1,.64.54,2.57,2.57,0,0,1,.31.5A3.86,3.86,0,0,0,13,17.4a2.28,2.28,0,0,0,0-.25,1.56,1.56,0,0,0-.51-.9c-.13-.1-.26-.19-.4-.27s-.39-.18-.6-.28a1.81,1.81,0,0,1-.45-.29l-.17-.17s0,0,0-.11,0,0,0,0h0l0,0,.06,0c.12,0,.12.06.19.11l.12.11h0a4,4,0,0,0,.43.26l.52.28.14.08-.21-.46a.1.1,0,0,1,.16-.13,4.31,4.31,0,0,1,.52.45.85.85,0,0,0-.11-.41,1.05,1.05,0,0,0-.57-.39A.1.1,0,0,1,12,14.8a.1.1,0,0,1,.11-.08l.42,0h.2a.34.34,0,0,0,.15,0,.37.37,0,0,0,.17-.18h0v0s0,0,0,0a.38.38,0,0,1,.06-.11s0,0,.09,0,.07,0,.07,0h0a.1.1,0,0,1,0,.15h0a.08.08,0,0,0,0,0,.45.45,0,0,1,0,.1.52.52,0,0,1-.29.27.74.74,0,0,1-.21,0H12.6a1.13,1.13,0,0,1,.24.25,1.24,1.24,0,0,1,.14.62,2.38,2.38,0,0,1,0,.29.1.1,0,0,1-.1.09.11.11,0,0,1-.11-.08.88.88,0,0,0-.31-.43l.19.41a1.73,1.73,0,0,1,.54,1,2.76,2.76,0,0,1,0,.28,6.06,6.06,0,0,1-.14,1.06.11.11,0,0,1-.1.09h0s-.07,0-.09,0"/><path id="Shape-54" data-name="Shape" d="M15.89,18.25a.1.1,0,0,1-.1-.1c0-.07-.08-.17-.17-.25a3,3,0,0,0-.32-.28,4,4,0,0,0-.69-.46,2.75,2.75,0,0,0-.39-.17,1.85,1.85,0,0,1-.36-.16,1.79,1.79,0,0,1-.48-.69.1.1,0,0,1,.19-.09,1.56,1.56,0,0,0,.41.61,1.63,1.63,0,0,0,.32.14,2.2,2.2,0,0,1,.41.19,5.06,5.06,0,0,1,.72.48,3.13,3.13,0,0,1,.33.3l.06.06a4.08,4.08,0,0,0,0-.5v-.19a1.06,1.06,0,0,0-.09-.49,1.53,1.53,0,0,0-.45-.46A2.6,2.6,0,0,0,15,16a1,1,0,0,1-.29-.19h0a.11.11,0,0,1,0-.15.11.11,0,0,1,.15,0s.15.09.25.14l.32.23a1.74,1.74,0,0,1,.5.53,1.25,1.25,0,0,1,.11.59v.19a4.92,4.92,0,0,1-.08.84s0,.08-.08.08h0"/><path id="Shape-55" data-name="Shape" d="M15.54,19.78q-.25-.4-.53-.76c-.19-.23-.39-.44-.61-.67a.1.1,0,0,1,0-.15.1.1,0,0,1,.15,0c.21.23.42.44.62.68s.29.4.43.61a1.86,1.86,0,0,0,.11-.61,1.13,1.13,0,0,0,0-.2,3.83,3.83,0,0,0-.35-1.06h0a.1.1,0,1,1,.19-.09,4,4,0,0,1,.37,1.13,1.73,1.73,0,0,1,0,.23,2.45,2.45,0,0,1-.19.88.1.1,0,0,1-.09.06h0a.14.14,0,0,1-.1-.06"/><path id="Shape-56" data-name="Shape" d="M10.54,23.71a1.7,1.7,0,0,1-.65-.11,1.68,1.68,0,0,1-.51-.38.11.11,0,0,1,0-.12.09.09,0,0,1,.11,0l.29,0a1.32,1.32,0,0,0,.92-.34,1.81,1.81,0,0,0,.59-1.2.1.1,0,0,1,.21,0,2,2,0,0,1-.65,1.34,1.52,1.52,0,0,1-1.07.4h0a.75.75,0,0,0,.23.14,1.48,1.48,0,0,0,.56.1h0a2.33,2.33,0,0,0,1.17-.31,1.57,1.57,0,0,0,.41-.35,1,1,0,0,0,.17-.52v-1a1,1,0,0,1,0-.19s0,0,0,0h.07c.1,0,.1.07.12.1a.44.44,0,0,1,0,.12c0,.09,0,.21.07.32s0,.21,0,.29l.25-.31a1.16,1.16,0,0,0,.27-.51.44.44,0,0,0,0-.11,1.35,1.35,0,0,0-.11-.46,4.71,4.71,0,0,0-.22-.56,3.38,3.38,0,0,0-.32-.51l-.2-.26s-.15-.13-.2-.25a.1.1,0,0,1,0,0,.14.14,0,0,1,.1-.12h.14a.64.64,0,0,0,.25,0,.29.29,0,0,0,.15-.14.57.57,0,0,1,0-.21.1.1,0,0,1,.12-.06.12.12,0,0,1,.09.1v0a.44.44,0,0,1,0,.2,1.06,1.06,0,0,0,.34.5A6.48,6.48,0,0,1,14,20a2.92,2.92,0,0,1,.51,1,1.35,1.35,0,0,1,0,.19,1,1,0,0,1-.14.51,1.62,1.62,0,0,0,.84-.54,1.51,1.51,0,0,0,.2-.62,4.57,4.57,0,0,0,.06-.74v0a.1.1,0,0,1,.11-.1.1.1,0,0,1,.1.1v0a4.26,4.26,0,0,1-.07.78,1.76,1.76,0,0,1-.24.71,2.11,2.11,0,0,1-1.24.71.11.11,0,0,1-.12,0,.1.1,0,0,1,0-.13.89.89,0,0,0,.27-.62s0-.1,0-.15a2.65,2.65,0,0,0-.48-.92,5.55,5.55,0,0,0-.64-.79,1.67,1.67,0,0,1-.34-.43.51.51,0,0,1-.13.08.87.87,0,0,1-.27.06l.08.09.2.27a3.88,3.88,0,0,1,.34.54,4.92,4.92,0,0,1,.24.59,1.53,1.53,0,0,1,.12.53.74.74,0,0,1,0,.15,1.38,1.38,0,0,1-.3.6l-.4.51a.12.12,0,0,1-.11,0,.11.11,0,0,1-.08-.09.89.89,0,0,1,0-.11v.23a1.11,1.11,0,0,1-.21.64,1.63,1.63,0,0,1-.47.41,2.67,2.67,0,0,1-1.28.34s0,0,0,0"/><path id="Shape-57" data-name="Shape" d="M9,19.34a.09.09,0,0,1,0-.11.12.12,0,0,1,.09-.08,1.14,1.14,0,0,0,.71-.32.4.4,0,0,0,.11-.27v0a.87.87,0,0,0,0-.23.12.12,0,0,1-.06-.09.11.11,0,0,1,.11-.11.15.15,0,0,1,.14.11.49.49,0,0,1,0,.13,1.22,1.22,0,0,1,0,.2v0a.6.6,0,0,1-.17.41,1.26,1.26,0,0,1-.57.33,1,1,0,0,0,.39.11.73.73,0,0,0,.51-.27.43.43,0,0,0,.13-.25,1.77,1.77,0,0,0,0-.33,3.28,3.28,0,0,0-.11-.75.1.1,0,0,1,.07-.13.11.11,0,0,1,.13.07,3.28,3.28,0,0,1,.12.81,2.57,2.57,0,0,1,0,.37.62.62,0,0,1-.18.35.94.94,0,0,1-.67.33A1.36,1.36,0,0,1,9,19.34"/><path id="Shape-58" data-name="Shape" d="M9.72,20.16C9.47,20.1,9.24,20,9,20a.1.1,0,0,1-.07-.12.1.1,0,0,1,.12-.08,2.29,2.29,0,0,0,.36,0,.78.78,0,0,0,.4-.09.91.91,0,0,0,.3-.3,2.54,2.54,0,0,0,.25-.37.11.11,0,0,1,.2.08,2.14,2.14,0,0,1-.28.41,1.21,1.21,0,0,1-.37.36l-.17.07h0a2.25,2.25,0,0,0,.48.08h.11a1,1,0,0,0,.7-.51,1.46,1.46,0,0,0,.2-.75c0-.09,0-.18,0-.27a1.37,1.37,0,0,0-.18-.58c-.11-.17-.28-.3-.41-.5a.11.11,0,0,1,.18-.12c.11.17.29.3.41.5a1.53,1.53,0,0,1,.22.67c0,.1,0,.2,0,.29a1.71,1.71,0,0,1-.22.86,1.16,1.16,0,0,1-.86.61h-.13a1.43,1.43,0,0,1-.55-.06"/><path id="Shape-59" data-name="Shape" d="M10.88,20.45a1,1,0,0,1-.71-.25.1.1,0,1,1,.17-.13c.07.11.37.17.54.17h0a1.19,1.19,0,0,0,.67-.23,1.15,1.15,0,0,0,.44-.5,2.35,2.35,0,0,0,.14-.75s0-.11,0-.16A.85.85,0,0,0,12,18.1a1.62,1.62,0,0,0-.52-.48c-.19-.12-.41-.18-.64-.3a.9.9,0,0,1-.44-.68.1.1,0,0,1,.21,0,.69.69,0,0,0,.34.5c.19.11.42.18.65.31a1.79,1.79,0,0,1,.58.54,1,1,0,0,1,.18.63.9.9,0,0,1,0,.17,2.6,2.6,0,0,1-.15.81,1.38,1.38,0,0,1-.52.6,1.46,1.46,0,0,1-.79.26h0"/><path id="Shape-60" data-name="Shape" d="M9.48,23.25a1.32,1.32,0,0,1-1-.53,4.74,4.74,0,0,1-.46-1.3.11.11,0,0,1,0-.12.13.13,0,0,1,.13,0A2.24,2.24,0,0,0,9.1,22a.79.79,0,0,0,.22,0,.85.85,0,0,0,.45-.15h-.1l-.19,0a.83.83,0,0,1-.34-.18L9,21.66s-.1-.08-.11-.19a.13.13,0,0,1,0-.06h0a.07.07,0,0,1,.06,0H9a1.09,1.09,0,0,1,.19.06h0l.14,0a.93.93,0,0,0,.37-.24,3.56,3.56,0,0,0,.47-.6,1.67,1.67,0,0,1-.3.12,1.59,1.59,0,0,1-.34,0c-.11,0-.19,0-.25,0h0a.1.1,0,0,1,0-.21h0c.11,0,.19,0,.24,0a.9.9,0,0,0,.29,0,4.15,4.15,0,0,0,.6-.27.11.11,0,0,1,.12,0,.1.1,0,0,1,0,.13,4.33,4.33,0,0,1-.71,1,1.25,1.25,0,0,1-.46.29l-.15,0a.52.52,0,0,0,.21.1h.14a1.13,1.13,0,0,0,.43-.11.11.11,0,0,1,.13,0,.1.1,0,0,1,0,.13,1.17,1.17,0,0,1-.91.51.68.68,0,0,1-.27,0,1.75,1.75,0,0,1-.68-.47,3.22,3.22,0,0,0,.33.85,1.08,1.08,0,0,0,.82.43.1.1,0,0,1,.09.12.1.1,0,0,1-.1.09Z"/><path id="Shape-61" data-name="Shape" d="M13.8,24a1.67,1.67,0,0,1-1.16-.53,1.22,1.22,0,0,1-.29-.67v0a1.33,1.33,0,0,1,.06-.34c0-.06,0-.11,0-.17s.07-.12.07-.14h0a.1.1,0,1,1,.2,0,.61.61,0,0,1-.08.18s0,.1,0,.16a1,1,0,0,0,0,.28v0a1,1,0,0,0,.25.55,1.36,1.36,0,0,0,.77.42,1.81,1.81,0,0,1-.3-.64,2,2,0,0,1-.06-.47,2.8,2.8,0,0,1,.06-.57.1.1,0,0,1,.12-.08.1.1,0,0,1,.08.12,2.45,2.45,0,0,0-.06.53,2,2,0,0,0,0,.42,1.89,1.89,0,0,0,.41.76.1.1,0,0,1,0,.12.09.09,0,0,1-.09.06l0,0"/><path id="Shape-62" data-name="Shape" d="M13.8,24.79a1.57,1.57,0,0,1-.85-1,.1.1,0,0,1,.21,0,1.35,1.35,0,0,0,.73.89,1.11,1.11,0,0,0,.47.09l.29,0a1,1,0,0,1-.4-.25,1,1,0,0,1-.27-.72v-.11a1.83,1.83,0,0,1,.34-.94,7.37,7.37,0,0,1,.69-.75.11.11,0,0,1,.15,0,.1.1,0,0,1,0,.15,6.94,6.94,0,0,0-.67.73,1.67,1.67,0,0,0-.3.83v.09a.77.77,0,0,0,.21.57,1.19,1.19,0,0,0,.73.27.1.1,0,0,1,.1.09.09.09,0,0,1-.07.11,2.3,2.3,0,0,1-.78.16,1.38,1.38,0,0,1-.57-.12"/><path id="Shape-63" data-name="Shape" d="M15,24.71a.1.1,0,0,1,.06-.14c.13,0,.26-.12.26-.19v0a.45.45,0,0,0-.07-.18l-.18-.3a2.18,2.18,0,0,0-.33-.51l-.25-.23a1.68,1.68,0,0,1-.29-.24h0a.1.1,0,0,1,0-.15.1.1,0,0,1,.15,0,2.23,2.23,0,0,0,.26.21,1.9,1.9,0,0,1,.26.24,3,3,0,0,1,.36.55l.18.31a.64.64,0,0,1,.09.27v0c0,.23-.27.29-.38.34h0a.08.08,0,0,1-.09-.06"/><path id="Shape-64" data-name="Shape" d="M14.56,25.79c-.08,0-.15,0-.14-.11v-.12c0-.26,0-.52,0-.77h0c0-.06.06-.11.14-.11s.15,0,.15.1c0,.26,0,.52,0,.78v.12c0,.06-.07.11-.15.11Z"/><path id="Shape-65" data-name="Shape" d="M15.94,22.24c-.43-.15-.61-.68-.76-1a.1.1,0,0,1,.06-.14.11.11,0,0,1,.14,0c.14.32.33.79.63.87h.09a.94.94,0,0,0,.39-.14l0,0a.3.3,0,0,1-.19-.1.72.72,0,0,1-.15-.52v0a5,5,0,0,1,.07-.68,1.53,1.53,0,0,0,0-.3c0-.13,0-.25,0-.38a.1.1,0,0,1,.09-.12.11.11,0,0,1,.12.09c0,.14,0,.26,0,.4s0,.22,0,.33a4.89,4.89,0,0,0-.07.64v0a.61.61,0,0,0,.09.38.12.12,0,0,0,.1,0,.78.78,0,0,0,.33-.14.11.11,0,0,1,.13,0,.11.11,0,0,1,0,.13,1.37,1.37,0,0,1-.47.38,1,1,0,0,1-.49.16.15.15,0,0,1-.17,0"/><path id="Shape-66" data-name="Shape" d="M17,23.13a.91.91,0,0,1-.71-.27.85.85,0,0,1-.21-.6v-.1a.1.1,0,0,1,.21,0v.08a.66.66,0,0,0,.16.46.7.7,0,0,0,.55.21h0a.75.75,0,0,0,.51-.17,1,1,0,0,0,.26-.34,1,1,0,0,1-.31,0,.52.52,0,0,1-.36-.14,1,1,0,0,1-.28-.67v0a2.17,2.17,0,0,1,.27-.84c.06-.12.12-.25.19-.36a1.59,1.59,0,0,1,.24-.4.1.1,0,1,1,.16.14,1.77,1.77,0,0,0-.21.36c-.06.12-.13.24-.18.35a2.06,2.06,0,0,0-.25.76v0a.75.75,0,0,0,.21.52.31.31,0,0,0,.23.08,1.49,1.49,0,0,0,.43-.11.09.09,0,0,1,.11,0,.1.1,0,0,1,0,.1,1.22,1.22,0,0,1-.38.65,1,1,0,0,1-.65.22h0"/><path id="Shape-67" data-name="Shape" d="M17.28,24.83A2.5,2.5,0,0,1,16.8,24a1.81,1.81,0,0,1-.14-.65,1.36,1.36,0,0,1,.06-.39h0a.1.1,0,0,1,.13-.07.11.11,0,0,1,.07.13.91.91,0,0,0,0,.32,1.7,1.7,0,0,0,.12.58,2.41,2.41,0,0,0,.43.75.85.85,0,0,0,.63.29h.09a.53.53,0,0,0,.3-.12l0,0H18.4a.64.64,0,0,1-.44-.2c-.3-.3-.2-.73-.24-1a.1.1,0,0,1,.09-.12.1.1,0,0,1,.12.09c0,.34,0,.71.18.89a.43.43,0,0,0,.3.13h.16l0,0a.12.12,0,0,1,.11-.06l.06,0a.12.12,0,0,1,.06.1c0,.11-.06.09-.07.11h0l0,.08a.8.8,0,0,1-.14.18.72.72,0,0,1-.42.17h-.11a1,1,0,0,1-.8-.35"/><path id="Shape-68" data-name="Shape" d="M18.15,23.38c0-.14,0-.27,0-.41v-.46c0-.26,0-.53,0-.8s0-.56,0-.83a2.58,2.58,0,0,0-.06-.38c0-.09-.07-.24-.1-.25a.11.11,0,0,1,0-.15.11.11,0,0,1,.15,0,.62.62,0,0,1,.17.36,3,3,0,0,1,.07.41c0,.28,0,.57,0,.84s0,.54,0,.82V23c0,.14,0,.27,0,.4a.1.1,0,0,1-.1.11h0c-.07,0-.12-.06-.12-.12"/><path id="Shape-69" data-name="Shape" d="M16.46,26.75a.16.16,0,0,1-.13-.15.18.18,0,0,1,0-.11,1.5,1.5,0,0,0,.2-.44,2,2,0,0,0,.06-.54,4,4,0,0,0,0-.59.1.1,0,0,1,.09-.12.1.1,0,0,1,.12.09,4.31,4.31,0,0,1,0,.62,2.56,2.56,0,0,1-.07.6,1.46,1.46,0,0,1-.2.46h.15a1.11,1.11,0,0,0,.39-.23.72.72,0,0,0,.18-.39,2.34,2.34,0,0,0,0-.45c0-.22,0-.46,0-.71h0a.1.1,0,0,1,.21,0c0,.24,0,.47,0,.71a2.16,2.16,0,0,1,0,.5.91.91,0,0,1-.24.5,1.5,1.5,0,0,1-.47.26l-.18,0-.14,0"/><path id="Shape-70" data-name="Shape" d="M18,27.79a1.06,1.06,0,0,1-.43-1v0a.1.1,0,0,1,.12-.09.1.1,0,0,1,.09.11h0c0,.3.09.67.33.78h0a.1.1,0,0,1,0,.14.1.1,0,0,1-.09.06,0,0,0,0,1,0,0"/><path id="Shape-71" data-name="Shape" d="M13.55,21.17a.11.11,0,0,1-.06-.1V21a1.76,1.76,0,0,0-.18-.81,1.41,1.41,0,0,0-.28-.36.9.9,0,0,0-.16-.13.64.64,0,0,1-.19-.13.11.11,0,1,1,.17-.13l.13.08a1.6,1.6,0,0,1,.2.16,1.47,1.47,0,0,1,.31.42,1.71,1.71,0,0,1,.19.73.91.91,0,0,0,.12-.45,1.47,1.47,0,0,0-.23-.74.11.11,0,0,1,0-.15.1.1,0,0,1,.14,0,1.62,1.62,0,0,1,.26.85,1,1,0,0,1-.35.8.1.1,0,0,1-.07,0h0"/><path id="Shape-72" data-name="Shape" class="cls-2" d="M1.36,17.31c.08-.43.57-.61,1-.61a1,1,0,0,0-1-.2,1.18,1.18,0,0,0-.76.74A1.93,1.93,0,0,0,.91,19.2a2,2,0,0,0,1.5.6,3.35,3.35,0,0,0,1.75-.71,5.5,5.5,0,0,1,1.79-1,1.15,1.15,0,0,1,.9.16,1.91,1.91,0,0,1,.36.32c0,.06.08.08.15.06l.23,0,0-.08a2.78,2.78,0,0,0-.6-.74,2.41,2.41,0,0,0-.78-.5,2.44,2.44,0,0,0-1.91.34c-.32.17-.61.37-.92.53a1.93,1.93,0,0,1-1,.28c-.57,0-1.22-.48-1-1.13"/><path id="Shape-73" data-name="Shape" d="M1.69,16.57a1.24,1.24,0,0,0-.33,0,1.11,1.11,0,0,0-.7.68A1.83,1.83,0,0,0,1,19.14a1.92,1.92,0,0,0,1.4.57h0A3.23,3.23,0,0,0,4.11,19a5.35,5.35,0,0,1,1.83-1l.3,0a1.15,1.15,0,0,1,.68.2,2.23,2.23,0,0,1,.38.34s0,0,0,0h0l.1,0a2.53,2.53,0,0,0-.55-.67,2.51,2.51,0,0,0-.74-.48,1.66,1.66,0,0,0-.49-.08,2.92,2.92,0,0,0-1.34.41c-.31.17-.6.36-.92.53a2.1,2.1,0,0,1-1,.29h0a1.16,1.16,0,0,1-1.17-1,.78.78,0,0,1,0-.25A.92.92,0,0,1,2,16.64a.85.85,0,0,0-.36-.07ZM.84,19.27a2,2,0,0,1-.36-2,1.3,1.3,0,0,1,.83-.8,1.26,1.26,0,0,1,.39-.06.87.87,0,0,1,.7.28.11.11,0,0,1,0,.11.09.09,0,0,1-.09.06c-.36,0-.8.18-.86.53h0a.74.74,0,0,0,0,.2c0,.44.5.79,1,.81h0a1.87,1.87,0,0,0,.86-.27c.31-.16.6-.35.91-.53a3,3,0,0,1,1.44-.43,1.86,1.86,0,0,1,.56.09,2.51,2.51,0,0,1,.82.52,3,3,0,0,1,.62.77.28.28,0,0,1,0,.08.09.09,0,0,1,0,.1.1.1,0,0,1-.08.06l-.22,0H7.32a.23.23,0,0,1-.18-.1,1.79,1.79,0,0,0-.34-.31.93.93,0,0,0-.55-.17,1.12,1.12,0,0,0-.26,0,5.42,5.42,0,0,0-1.75,1,3.63,3.63,0,0,1-1.82.7h0a2.13,2.13,0,0,1-1.54-.63Z"/><path id="Shape-74" data-name="Shape" d="M9.57,15.14a1.35,1.35,0,0,1-.52-.3.1.1,0,0,1,0-.15.11.11,0,0,1,.15,0,1.17,1.17,0,0,0,.43.25.1.1,0,0,1,.07.13.11.11,0,0,1-.1.07s0,0,0,0"/><path id="Shape-75" data-name="Shape" d="M8.85,16.23h0a1.11,1.11,0,0,1-.53-.49.72.72,0,0,1,0-.25.46.46,0,0,1,.23-.42h.1l0,0h0a.14.14,0,0,1,0,.06v0a.29.29,0,0,0,0,.11.45.45,0,0,0,.2.15.1.1,0,0,1,.06.13.11.11,0,0,1-.13.07.48.48,0,0,1-.31-.23h0s0,0,0,0h0a.5.5,0,0,0,0,.13.35.35,0,0,0,0,.18c.07.18.25.27.44.39,0,0,0,0,0,0h0l0,0v0a.07.07,0,0,1,0,0l0,0,0,0h0s0,0,0,0"/><path id="Shape-76" data-name="Shape" d="M8.68,15.16l-.11-.1s0,.05,0,.07l.13,0m.78.45A1.56,1.56,0,0,1,9,15.43l-.59-.12h0l-.07,0h0a.11.11,0,0,1,0-.08h0c0-.09,0-.18.06-.26a.15.15,0,0,1,.14-.13.16.16,0,0,1,.13.07c.15.12.26.26.38.34l0,0,.87.17s.06,0,.07,0a.1.1,0,0,1,0,.09c0,.12-.16.12-.23.13a1.64,1.64,0,0,1-.35-.06"/><path id="Shape-77" data-name="Shape" d="M9.85,14.59c-.36,0-.69.22-1,.16a1.52,1.52,0,0,1-.86-.65,1,1,0,0,0,.42.73,1.34,1.34,0,0,0,.92.07,3.83,3.83,0,0,1,.48-.13.65.65,0,0,1,.39.13s.12.09.13,0-.07-.15-.11-.19a.63.63,0,0,0-.33-.17"/><path id="Shape-78" data-name="Shape" class="cls-1" d="M17.81,22.56a3.13,3.13,0,0,1-.06.46,1.59,1.59,0,0,1-.2.46.64.64,0,0,0,0,.38,2,2,0,0,1,0,.43.62.62,0,0,1-.17.38,1,1,0,0,1-.55.26h-.15a1,1,0,0,0-.29.07l-.18.07c-.08,0-.16,0-.24,0s-.2,0-.29,0-.12.15-.17.23a1.6,1.6,0,0,1-.25.32,1.13,1.13,0,0,1-.25.18l-.25.14s0,0-.06,0a.27.27,0,0,0-.1.21,1.31,1.31,0,0,1-.1.43,1.31,1.31,0,0,0-.08.21,1.52,1.52,0,0,1,0,.22s0,.09,0,.13,0,.08,0,.11a1.32,1.32,0,0,1,0,.2,1.53,1.53,0,0,0,0,.2c0,.12.07.23.11.34a4.16,4.16,0,0,0,.26.58,4.24,4.24,0,0,0,.64.86,4.12,4.12,0,0,0,.49.44,3.44,3.44,0,0,0,.54.32,4.12,4.12,0,0,0,.54.23l.54.16c.18,0,.36.08.54.1a5.31,5.31,0,0,0,.54,0l.53,0,.78,0,.76-.08c.25,0,.5-.07.74-.12l.71-.16.45-.12.43-.13.41-.14.27-.1c.32.13.63.23.95.32a10.33,10.33,0,0,0,1.07.26c.36.07.72.12,1.07.16a9.78,9.78,0,0,0,1.06,0,10.17,10.17,0,0,0,2.06-.21A10.67,10.67,0,0,0,31.86,30a9.36,9.36,0,0,0,1.74-1,8.49,8.49,0,0,0,1.11-.87c.25-.24.5-.45.74-.7a8.58,8.58,0,0,0,.65-.79,3.47,3.47,0,0,0,.4-.61.88.88,0,0,0,.08-.39,1.59,1.59,0,0,0-.09-.49l-.07-.2a1.4,1.4,0,0,1,0-.21c0-.12,0-.25-.07-.37a1.74,1.74,0,0,1,0-.32.28.28,0,0,1,0-.13l.08-.16c.11-.21.22-.42.32-.63a11.74,11.74,0,0,0,.53-1.29l.12-.41a6.33,6.33,0,0,0,.26-1c0-.35,0-.73,0-1.1s0-.49,0-.72a13.48,13.48,0,0,0-.29-1.72h0a5,5,0,0,0-.14-.5c0-.14.21-.16.15-.29a10.47,10.47,0,0,0-3-3.94,17.14,17.14,0,0,0-2.53-1.63,14.07,14.07,0,0,0-1.34-.64c-.36-.16-.74-.29-1.1-.42a.4.4,0,0,1,0-.11c0-.07,0-.14,0-.21V9c0-.13,0-.24,0-.36s0-.25,0-.37,0-.25-.07-.38-.07-.25-.11-.39,0-.14-.08-.22L29,7.07a2.18,2.18,0,0,0-.12-.21l-.14-.22-.17-.21-.2-.21A2.13,2.13,0,0,0,28.11,6l-.26-.17a2.43,2.43,0,0,0-.36-.18,2.56,2.56,0,0,0-.39-.13,2.63,2.63,0,0,0-.4-.09l-.41,0a3.18,3.18,0,0,0-.62.06,3.29,3.29,0,0,0-.56.17,3.71,3.71,0,0,0-.49.24,3.16,3.16,0,0,0-.42.29,4.89,4.89,0,0,0-.52.49,4.35,4.35,0,0,0-.43.53c-.13.18-.25.36-.37.54s-.22.37-.3.56-.1.21-.15.31-.09.21-.14.3a3.21,3.21,0,0,0-.12.3s0,.09,0,.13c-.36.11-.72.24-1.07.37s-.84.35-1.25.54A12.15,12.15,0,0,0,14.3,15c-.19.27.1.57,0,.87a2.15,2.15,0,0,0-.1,1,4.67,4.67,0,0,0,.52,2A13.88,13.88,0,0,0,16,20.81a1.18,1.18,0,0,0,.25.25,4.23,4.23,0,0,1,.45.39,1.11,1.11,0,0,0,.48.26.92.92,0,0,1,.5.3,1,1,0,0,1,.19.42.13.13,0,0,0,0,.12Z"/><path id="Shape-79" data-name="Shape" d="M21.17,15.25l.26-.2.24-.19.22-.18.21-.17,0-.29,0-.29c0-.1,0-.2,0-.29s0-.2,0-.29l-.13.15-.14.15-.13.16-.13.16c-.15.18-.29.35-.42.55s-.29.38-.41.58-.27.39-.39.6-.24.41-.34.61l.34-.29.33-.26.31-.25.29-.23m-.68-1.79a7,7,0,0,1,.55-.63,5.06,5.06,0,0,1,.59-.53,6.56,6.56,0,0,1,.63-.42,4.4,4.4,0,0,1,.66-.29c0,.12,0,.24,0,.35l0,.36c0,.13,0,.25,0,.37s0,.25,0,.38,0,.31,0,.47a3.71,3.71,0,0,0,0,.46c0,.16,0,.3,0,.45s0,.29.07.43a3.92,3.92,0,0,1-.5.49l-.58.48c-.21.17-.41.34-.62.53a5.19,5.19,0,0,0-.59.64l-.25.32.27.3a1,1,0,0,1,.13.17L21,18l.12.2c.1.17.33.42.09.54a1,1,0,0,1-.53,0,1.78,1.78,0,0,1-.39-.1,2.15,2.15,0,0,1-.34-.15,2.21,2.21,0,0,1-.3-.2,1.85,1.85,0,0,1-.25-.23,2.59,2.59,0,0,1-.19-.27,1.85,1.85,0,0,1-.12-.29,1.68,1.68,0,0,1-.06-.33.18.18,0,0,0,0-.07v-.17a3.39,3.39,0,0,1,.14-.92,6.47,6.47,0,0,1,.34-.91,9,9,0,0,1,1-1.64"/><path id="Shape-80" data-name="Shape" d="M37.76,19.25a2.43,2.43,0,0,1,0,.25c0,.09,0,.17,0,.26a2.45,2.45,0,0,1,0,.25c0,.09,0,.17,0,.26a11.23,11.23,0,0,1-.16,2.1,10.47,10.47,0,0,1-.54,1.94,10.08,10.08,0,0,1-.9,1.75,9.57,9.57,0,0,1-2.7,2.74,10,10,0,0,1-1.71.92,9.58,9.58,0,0,1-1.89.58,10.69,10.69,0,0,1-2,.2c-.34,0-.69,0-1,0a9.88,9.88,0,0,1-1.05-.16c-.35-.07-.71-.16-1.06-.25s-.71-.23-1.06-.37l-.38.15-.4.14-.43.13L22,30.2c-.23,0-.46.11-.71.15s-.48.09-.74.12-.5.06-.75.08l-.76,0-.52,0-.52,0a4.83,4.83,0,0,1-.52-.1,5.15,5.15,0,0,1-.52-.15,5.49,5.49,0,0,1-.51-.21,4.57,4.57,0,0,1-.5-.3,2.86,2.86,0,0,1-.45-.4,2.94,2.94,0,0,1-.38-.51,2.54,2.54,0,0,1-.2-.39,3.14,3.14,0,0,1,.77-3.25,3.31,3.31,0,0,1,1-.74,4.08,4.08,0,0,1,1.41-.33,6.58,6.58,0,0,1,1.39.09,15.08,15.08,0,0,1,1.74.42,3.66,3.66,0,0,1,1,.39s.21-1,.22-1.13a10.75,10.75,0,0,0-.08-1.78c0-.14,0-.28,0-.43a5.44,5.44,0,0,1-.4.45,5.15,5.15,0,0,1-.48.42,4.71,4.71,0,0,1-.57.36,4.47,4.47,0,0,1-.66.27l-.37.1-.37.07-.37,0h-.37a4.76,4.76,0,0,1-1.06-.12,5.27,5.27,0,0,1-1-.33,5.45,5.45,0,0,1-.86-.52,4.62,4.62,0,0,1-.72-.67,4.76,4.76,0,0,1-.57-.78,5.26,5.26,0,0,1-.68-1.84,5.87,5.87,0,0,1-.08-1V18a.52.52,0,0,1,0-.13s0-.09,0-.14,0-.09,0-.14a6.69,6.69,0,0,1,.17-.87,7.52,7.52,0,0,1,.27-.83,7.92,7.92,0,0,1,.37-.78c.14-.25.29-.49.44-.73a6.92,6.92,0,0,1,.51-.68c.18-.22.36-.42.56-.62a8.1,8.1,0,0,1,.61-.57c.21-.18.42-.35.65-.52s.77-.54,1.16-.78.81-.46,1.22-.66.83-.37,1.24-.54.83-.29,1.24-.42c0-.1.07-.2.11-.29L22.5,9l.13-.29.15-.3a5.63,5.63,0,0,1,.3-.54,6.11,6.11,0,0,1,.34-.52c.13-.17.27-.33.41-.49a5.71,5.71,0,0,1,.49-.46,2.7,2.7,0,0,1,.38-.26,3.27,3.27,0,0,1,.45-.23,2.85,2.85,0,0,1,.51-.16,2.58,2.58,0,0,1,.56-.06l.37,0a2.18,2.18,0,0,1,.37.08l.35.12.33.17a1.13,1.13,0,0,1,.23.15l.2.17.18.18a.84.84,0,0,1,.15.19,1.93,1.93,0,0,1,.13.19,1.39,1.39,0,0,1,.1.19,1.4,1.4,0,0,1,.08.19,1.33,1.33,0,0,1,.07.19c0,.12.07.25.1.36a2.1,2.1,0,0,1,.06.35,2,2,0,0,1,0,.34c0,.12,0,.23,0,.34v.2a1.32,1.32,0,0,1,0,.2c0,.07,0,.13,0,.2s0,.13,0,.19c.46.16.92.32,1.37.51s.89.4,1.33.64.86.49,1.27.76a13.16,13.16,0,0,1,1.19.9,10.51,10.51,0,0,1,1.32,1.33,10.34,10.34,0,0,1,1.88,3.4,7.94,7.94,0,0,1,.46,2l-1.05.09a9.13,9.13,0,0,0-.38-1.84,9,9,0,0,0-1.68-3,10,10,0,0,0-1.19-1.21,11.93,11.93,0,0,0-1.27-1,13.82,13.82,0,0,0-1.39-.78c-.48-.24-1-.45-1.47-.64s-1-.35-1.51-.49c0-.11,0-.24.07-.35s0-.25,0-.37,0-.25,0-.38,0-.25,0-.38a2.75,2.75,0,0,0,0-.28l0-.27a2.66,2.66,0,0,0,0-.27c0-.09,0-.18-.07-.26a1.72,1.72,0,0,0-.1-.25c0-.08-.09-.16-.14-.24a1.34,1.34,0,0,0-.19-.21,1.05,1.05,0,0,0-.24-.18l-.23-.11-.23-.08-.23,0-.23,0a1.45,1.45,0,0,0-.35,0,1.72,1.72,0,0,0-.32.1L25.29,7a2.59,2.59,0,0,0-.27.2,4,4,0,0,0-.66.69,6.14,6.14,0,0,0-.53.83,7.07,7.07,0,0,0-.4.88c-.11.29-.21.58-.28.84-.42.11-.86.23-1.29.38s-.87.32-1.3.52a13.37,13.37,0,0,0-1.28.67,14.28,14.28,0,0,0-1.2.79,11,11,0,0,0-1.14,1A8,8,0,0,0,16,14.92a6.55,6.55,0,0,0-.69,1.3,5.92,5.92,0,0,0-.36,1.45.37.37,0,0,0,0,.11.4.4,0,0,0,0,.11.41.41,0,0,1,0,.11v.11a4.76,4.76,0,0,0,.06.82,4.82,4.82,0,0,0,.21.77,3.59,3.59,0,0,0,.34.71A5,5,0,0,0,16,21a4,4,0,0,0,1.24.94,4,4,0,0,0,1.58.35h.29l.29,0,.29-.06.3-.08a3.21,3.21,0,0,0,.53-.23,2.85,2.85,0,0,0,.46-.31,4.68,4.68,0,0,0,.4-.37c.12-.14.24-.27.34-.42s.21-.29.3-.44.19-.3.28-.46.17-.31.26-.46l.24-.45.22-.4c0,.39.12.79.18,1.19s.13.79.19,1.2.14.85.16,1.27c0,.13-.06.26,0,.37s.18.29.24.45a1.4,1.4,0,0,1,.07.35,8.13,8.13,0,0,1,0,1.2c0,.32-.09.64-.09,1a.84.84,0,0,1-.39.66l-.47.32a.4.4,0,0,1-.33.08.78.78,0,0,1-.51-.27c-.1-.12-.17-.27-.28-.39a.73.73,0,0,0-.41-.19c-.13,0-.27,0-.39-.09a2.14,2.14,0,0,0-.23-.07,5,5,0,0,0-.77,0,4.19,4.19,0,0,0-2.15.38,1.15,1.15,0,0,0-.56.69,1.56,1.56,0,0,0,0,.79,1.85,1.85,0,0,0,.74.94A5,5,0,0,0,19,29a1.55,1.55,0,0,0,.52.13c.3,0,.61.09.91.13a5.31,5.31,0,0,0,.69,0,1.38,1.38,0,0,0,.8-.12,3.39,3.39,0,0,1,.82-.29,8.16,8.16,0,0,0,.93-.36c.35.16.71.29,1.06.41a10.4,10.4,0,0,0,1.06.28,8.09,8.09,0,0,0,1.05.17,9.29,9.29,0,0,0,2.84-.12,8.29,8.29,0,0,0,1.69-.52,8.67,8.67,0,0,0,2.84-1.92,8.54,8.54,0,0,0,1.08-1.35,8.68,8.68,0,0,0,.8-1.56,9.19,9.19,0,0,0,.49-1.74,10,10,0,0,0,.15-1.89,1.59,1.59,0,0,0,0-.23c0-.08,0-.15,0-.23s0-.16,0-.24a1.74,1.74,0,0,1,0-.24l1-.08Z"/><path id="Shape-81" data-name="Shape" d="M29.21,19.11a19.21,19.21,0,0,1-.5,2.79,19.84,19.84,0,0,1-.81,2.46,21.35,21.35,0,0,1-1.11,2.27,3.5,3.5,0,0,0,.44-.07,2.92,2.92,0,0,0,.42-.12l.41-.16c.14-.06.27-.14.4-.21a3.36,3.36,0,0,0,.46-.31c.15-.12.3-.24.45-.38a5.85,5.85,0,0,0,.42-.44c.14-.16.28-.32.4-.5a7.58,7.58,0,0,0,.69-1.16,8.47,8.47,0,0,0,.51-1.3,9.47,9.47,0,0,0,.31-1.38,8.32,8.32,0,0,0,.1-1.39V18.9a7.57,7.57,0,0,0-.17-1.28,7.24,7.24,0,0,0-.36-1.15,6.39,6.39,0,0,0-.53-1,6.68,6.68,0,0,0-.67-.89c-.17-.19-.33-.36-.51-.53a6.43,6.43,0,0,0-.56-.46c-.2-.15-.4-.28-.61-.41s-.42-.25-.64-.35c-.06.12-.13.23-.19.34l-.19.33-.19.33c-.07.11-.35.71-.42.81a2.75,2.75,0,0,0,1.35.43,4.84,4.84,0,0,0,1.23,0,29.62,29.62,0,0,1-.16,4m2.21,6a7.54,7.54,0,0,1-1,1.1,6.68,6.68,0,0,1-1.13.84,5.43,5.43,0,0,1-1.28.54,5.22,5.22,0,0,1-1.42.19h-.4l-.41,0-.42-.08L25,27.53a21.89,21.89,0,0,0,1.4-2.31,21.3,21.3,0,0,0,1.13-2.67,20.74,20.74,0,0,0,1.06-6.33v-.37l-.38-.1-.48-.12-.46-.11-.43-.12-.38-.13-.28-.13a2.12,2.12,0,0,1-.22-.14.93.93,0,0,1-.18-.16,1.36,1.36,0,0,1-.14-.19l.46-.74c.16-.24.3-.49.45-.74s.29-.51.43-.76.28-.53.4-.79a9.15,9.15,0,0,1,2.19,1,8.54,8.54,0,0,1,1.83,1.59,7.71,7.71,0,0,1,1.3,2.12A7.92,7.92,0,0,1,33.25,19a.27.27,0,0,0,0,.09v.26a9,9,0,0,1-.11,1.53,10.15,10.15,0,0,1-.35,1.52,9.27,9.27,0,0,1-.58,1.44,9.56,9.56,0,0,1-.79,1.27"/><path id="Shape-82" data-name="Shape" class="cls-2" d="M22,26.67a4.6,4.6,0,0,0-.86-.4,6.76,6.76,0,0,0-1-.28A5.88,5.88,0,0,0,19,25.88a3.55,3.55,0,0,0-.57,0,1.91,1.91,0,0,0-.52.17,1.25,1.25,0,0,0-.42.36,1.08,1.08,0,0,0-.18.56v0a1,1,0,0,0,.2.62,1.27,1.27,0,0,0,.49.39,2.29,2.29,0,0,0,.62.18,4,4,0,0,0,.69,0,6.7,6.7,0,0,0,.88-.06c.29,0,.58-.08.85-.14s.52-.12.74-.18a5,5,0,0,0,.55-.2.37.37,0,0,0,.2-.47,1.21,1.21,0,0,0-.54-.59m2.55-12.16a.36.36,0,0,0,.3-.17c.16-.23.3-.46.45-.7s.3-.48.43-.72.27-.5.39-.75.21-.44.3-.67a1.31,1.31,0,0,0,.15-.5.58.58,0,0,0-.3-.41,1.5,1.5,0,0,0-.62-.13h-.57a1.69,1.69,0,0,0-.44.07.55.55,0,0,0-.29.16,1,1,0,0,0-.1.18.72.72,0,0,1-.08.11,1,1,0,0,0-.09.18,6.67,6.67,0,0,0-.13.73,5.77,5.77,0,0,0-.06.83v.08a4.83,4.83,0,0,0,.06.75,2.51,2.51,0,0,0,.25.76.38.38,0,0,0,.32.2s0,0,0,0m0-3.72h1.84a.38.38,0,0,0,.37-.35c0-.21,0-.42,0-.64V9.52a2.5,2.5,0,0,0,0-.38,2.41,2.41,0,0,0-.13-.65,1.52,1.52,0,0,0-.36-.57.34.34,0,0,0-.29-.1,1.47,1.47,0,0,0-.89.35,1.8,1.8,0,0,0-.47.7,5.25,5.25,0,0,0-.25.74,5.36,5.36,0,0,1-.22.65.39.39,0,0,0,0,.37.37.37,0,0,0,.31.15m-4.45,6.92.27.3.12.14.11.16.06.09-.32-.08-.29-.13L19.84,18l-.19-.18a1.42,1.42,0,0,1-.14-.2.81.81,0,0,1-.09-.22.85.85,0,0,1,0-.24V17h0a2.9,2.9,0,0,1,.12-.79,5,5,0,0,1,.32-.83,8.3,8.3,0,0,1,1-1.53,6.09,6.09,0,0,1,.52-.59,6.43,6.43,0,0,1,.55-.49,4.18,4.18,0,0,1,.57-.37v0c0,.13,0,.25,0,.38s0,.25,0,.38v.06c0,.14,0,.28,0,.42s0,.31,0,.47,0,.31,0,.47a2.15,2.15,0,0,0,0,.25l-.33.29-.58.47c-.21.17-.42.34-.64.55a5.19,5.19,0,0,0-.63.68l-.25.32a.41.41,0,0,0,0,.54m17.21,2.51a1.72,1.72,0,0,0,0-.24c0-.08,0-.16,0-.24s0-.16,0-.24a1.87,1.87,0,0,0,0-.25l-.37,0,.37,0a9.61,9.61,0,0,0-.4-2,8.78,8.78,0,0,0-.75-1.72,9.26,9.26,0,0,0-1-1.5,11,11,0,0,0-1.26-1.27,12.21,12.21,0,0,0-1.34-1A13.08,13.08,0,0,0,31.05,11a14,14,0,0,0-1.53-.66c-.4-.16-.82-.29-1.23-.41v0l.06-.39c0-.14,0-.27,0-.41s0-.27,0-.41,0-.21,0-.31l0-.31a3,3,0,0,0-.06-.31,1.62,1.62,0,0,0-.09-.3,2.16,2.16,0,0,0-.13-.3,2.28,2.28,0,0,0-.18-.29,1.51,1.51,0,0,0-.24-.26,1.74,1.74,0,0,0-.31-.23l-.27-.14-.28-.1A2.32,2.32,0,0,0,26.54,6l-.29,0a3.19,3.19,0,0,0-.43,0,2.77,2.77,0,0,0-.39.12,2.55,2.55,0,0,0-.36.18,2.81,2.81,0,0,0-.33.23,4.87,4.87,0,0,0-.74.76,5.84,5.84,0,0,0-.57.9,8.06,8.06,0,0,0-.43.94c-.09.24-.17.46-.23.68-.37.1-.75.22-1.13.35s-.91.34-1.36.55a14.08,14.08,0,0,0-1.33.7,13.49,13.49,0,0,0-1.26.84,11.13,11.13,0,0,0-1.2,1,8.61,8.61,0,0,0-1,1.22,6.83,6.83,0,0,0-.74,1.4,6.39,6.39,0,0,0-.39,1.58s0,.08,0,.11,0,.1,0,.13a.41.41,0,0,1,0,.12v.21a4.41,4.41,0,0,0,.07.81,5.21,5.21,0,0,0,.23.86,4.36,4.36,0,0,0,.37.78,4.1,4.1,0,0,0,.51.71,4.56,4.56,0,0,0,.63.59,4.48,4.48,0,0,0,.75.45,4.08,4.08,0,0,0,.85.29,4,4,0,0,0,.91.11H19l.33,0,.32-.06.33-.09a3.8,3.8,0,0,0,.61-.25,3.53,3.53,0,0,0,.52-.35,3.48,3.48,0,0,0,.44-.42,5.27,5.27,0,0,0,.38-.46,5.1,5.1,0,0,0,.32-.48l.29-.48c.07-.12.14-.23.2-.36,0,0,0,.07,0,.11.07.4.13.81.19,1.21s.11.79.15,1.18a6.71,6.71,0,0,1-.55,3.65,4.07,4.07,0,0,0-.56-.2,10,10,0,0,0-4-.71,2.7,2.7,0,0,0-2.62,2.27,2.27,2.27,0,0,0,1.5,2.4,5.41,5.41,0,0,0,1.42.33l.65,0a10.31,10.31,0,0,0,1.35-.09c.45-.06.89-.14,1.31-.24s.83-.21,1.19-.32.58-.21.83-.31c.33.14.65.25,1,.36s.75.23,1.11.3a11,11,0,0,0,1.11.18,10.24,10.24,0,0,0,1.09.06,10.39,10.39,0,0,0,1.92-.19,8.28,8.28,0,0,0,1.78-.55,8.75,8.75,0,0,0,1.61-.87,9.36,9.36,0,0,0,1.4-1.17,9.19,9.19,0,0,0,2-3.09,10.31,10.31,0,0,0,.52-1.84,10.62,10.62,0,0,0,.16-1.79.28.28,0,0,0,.07-.22m-5,.52A10.78,10.78,0,0,1,32,22.21a9.47,9.47,0,0,1-.52,1.4,8.88,8.88,0,0,1-.7,1.25s0,0,0,0a7.62,7.62,0,0,1-.86,1,5.32,5.32,0,0,1-1,.79,4.81,4.81,0,0,1-1.1.5,4.09,4.09,0,0,1-1.21.18H26.3l-.35,0-.23,0a19.6,19.6,0,0,0,1-1.91,22,22,0,0,0,1.07-2.76,22.93,22.93,0,0,0,.73-3.11,23.86,23.86,0,0,0,.29-3.44l0-.47a3.59,3.59,0,0,1-1.67-.16,2,2,0,0,1-1.12-.78l.39-.7c.15-.25.29-.51.42-.76l.41-.79.23-.48a8.23,8.23,0,0,1,1.61.86,7.28,7.28,0,0,1,1.62,1.53,7.49,7.49,0,0,1,1.15,2,8.48,8.48,0,0,1,.51,2.53s0,.06,0,.09v.38a10.72,10.72,0,0,1-.1,1.36"/><path id="Shape-83" data-name="Shape" class="cls-1" d="M18.62,28.17a6.73,6.73,0,0,0,3.58-.56,6.41,6.41,0,0,0-3.37-1.07c-1.62,0-1.82,1.41-.22,1.63m8.55-17A8.41,8.41,0,0,1,33.35,20c-.5,7-5.82,9.47-8.89,7.54,2.23-2.64,3.5-6.32,3.63-11.28-1.65-.09-2.49-.66-2.73-1.61a10.65,10.65,0,0,0,1.71-3.22l.09-.25M24.41,11a9.13,9.13,0,0,1,1,0,6.72,6.72,0,0,1,.77,0,12.72,12.72,0,0,1-1.77,3.13,6.5,6.5,0,0,1,0-3.14m2-.83c-.31,0-.63,0-1,0s-.67,0-1,0a6.28,6.28,0,0,1,.67-1.81c.54-1,1.21-.74,1.33.26a4.81,4.81,0,0,1,0,1.56M23.64,28.39C27.4,30.2,35.12,30.09,36.75,22c1.1-5.47-3.44-10.73-9.34-11.74.68-2.71.11-3.93-1.1-3.85S24,8,23.42,10.29C19,11.13,15,14.57,14.79,18a3.83,3.83,0,0,0,3.74,4c1.79.08,3.11-1.81,3.7-3.15-2.12.86-4.3-.33-3.72-2.62.72-2.87,2.38-4.52,4.73-5.1a10.5,10.5,0,0,0,0,4,14.89,14.89,0,0,1-2.33,2l.62.92a19.76,19.76,0,0,0,1.69-1.23c.06,3.33,1.87,7-.09,9.94-2.68-1.26-5.18-1.72-6.4-.75-1.57,1.25-.63,3.09,1,3.29a12.21,12.21,0,0,0,5.89-.94"/></g></g></g></g></g></g></svg>