<svg xmlns="http://www.w3.org/2000/svg" viewBox="0 0 211 211"><defs><style>.cls-1{fill:none;}.cls-2{fill:#c49653;}.cls-3{fill:#241e1b;}</style></defs><title>dinamo riga</title><g id="Layer_2" data-name="Layer 2"><g id="Layer_1-2" data-name="Layer 1"><rect class="cls-1" width="211" height="211"/><path id="Shape" class="cls-2" d="M164.33,121.65c-.58-3.85-2-9.85-3.35-15.39-.38-1.69-2.27-9.35-4.08-16.62l-2.42-9.81c-.35-1.31-.62-2.42-.81-3.16a7.7,7.7,0,0,1-.23-.92v-.27h0a2.27,2.27,0,0,0-1.12-1.12h-.65a1.65,1.65,0,0,0-.77,0c-.46,0-3.85.35-6,.35h-1A20.89,20.89,0,0,1,133.7,71.4a37.28,37.28,0,0,1-6-5.89c-.54-.58-1.69.88-8.46,2a115.7,115.7,0,0,1-17.35,1,57.33,57.33,0,0,1-10.93-.23c-8.16-1.42-9.08-3.85-9.66-3.12a44.36,44.36,0,0,1-5.46,6.5,13.66,13.66,0,0,1-9.2,3H59.48a1.89,1.89,0,0,0-1.35.58,1.77,1.77,0,0,0-.42.58v.88c-.92,3.46-6.77,27.2-7.7,30.36-1.31,5.39-2.81,11.54-3.35,15.39a37,37,0,0,0-.54,6,30.78,30.78,0,0,0,10.73,23.32,76.49,76.49,0,0,0,27.24,14.77,64.25,64.25,0,0,1,12.08,6.23,49.75,49.75,0,0,1,5,3.85l4.27,3.85,4.39-3.85a48.25,48.25,0,0,1,4.12-3.27l.88-.62a63.6,63.6,0,0,1,12-6.19,76.53,76.53,0,0,0,27.24-14.77,30.78,30.78,0,0,0,10.73-23.32,57.71,57.71,0,0,0-.54-6.89"/><path id="Shape-2" class="cls-3" d="M126.88,67.79a89.88,89.88,0,0,1-21.28,3c-7.7,0-16.47.31-23.43-3.31L80,70.4a16,16,0,0,1-13,6.23,70.22,70.22,0,0,1-7.35-.31s-6.85,27.36-7.7,30.78c-1.31,5.39-2.81,11.54-3.35,15.08C45.08,142.78,60.43,155.71,84.75,164a65.1,65.1,0,0,1,12.5,6.43c3.08,2,8.46,6.5,8.23,7.7-.23-1,5.19-5.5,8.27-7.7a67.37,67.37,0,0,1,12.5-6.43c24.28-8.27,39.63-21.2,36.13-41.79-.58-3.58-2-9.7-3.35-15.08-.77-3.31-7.7-30.78-7.7-30.78a67.33,67.33,0,0,1-7.35.35,21.7,21.7,0,0,1-12-4.39"/><path id="Shape-3" d="M151.4,76h0m0,0h0m.38,0h0m0,.31h0m-91.73,0a2,2,0,0,1-.23.88A30,30,0,0,0,59,80.29c-.65,2.62-1.54,6.16-2.42,9.77-1.81,7.27-3.85,14.93-4.08,16.58-1.31,5.39-2.81,11.54-3.35,15a33,33,0,0,0-.62,6c0,17.2,14.54,28.4,36.48,35.9A66.22,66.22,0,0,1,97.57,170a49.06,49.06,0,0,1,5.31,4.12,17.7,17.7,0,0,1,2.89,3,16.2,16.2,0,0,1,2.85-3,49.44,49.44,0,0,1,5.35-4.16,65.41,65.41,0,0,1,12.54-6.43c21.93-7.46,36.48-18.7,36.48-35.9a32.86,32.86,0,0,0-.5-5.66c-.58-3.54-2-9.7-3.35-15-.73-3.16-7-28.24-7.7-30.55h-7.31A21.82,21.82,0,0,1,132,71.9l-5.12-4.12a93.11,93.11,0,0,1-20.58,3.12h-.54c-7.7,0-16.35.31-23.36-3.27L80.3,70.4a16.24,16.24,0,0,1-13.12,6.35H66.06c-2.19,0-5.35-.27-6.12-.35h0m45.48,101.31v-.62a6.58,6.58,0,0,0-.65-.77,23.66,23.66,0,0,0-2-1.89,49.21,49.21,0,0,0-5.23-4.08A65,65,0,0,0,84.76,164C62.75,156.51,48,145.16,48,127.69a33.32,33.32,0,0,1,.54-5.66c.58-3.58,2-9.73,3.35-15.08.69-2.89,5.93-24.16,7.31-29.51a7.7,7.7,0,0,1,.35-1.27h0s3.85.35,6.23.35h1.08a15.89,15.89,0,0,0,12.81-6.16l2.19-2.89h0c6.85,3.58,15.66,3.19,23.32,3.31h1.08a93.61,93.61,0,0,0,20.66-3h0L132.16,72a21.59,21.59,0,0,0,11.89,4.35h1.08c2.31,0,5.77-.31,6.19-.35h0a1.69,1.69,0,0,0,0,.23,2,2,0,0,0,.23.88,28.81,28.81,0,0,1,.81,3.16c.65,2.65,1.54,6.16,2.42,9.81,1.81,7.27,3.85,14.93,4.08,16.62,1.31,5.39,2.81,11.54,3.39,15.08a33.71,33.71,0,0,1,.5,5.73c0,17.47-14.77,28.82-36.74,36.32a67.64,67.64,0,0,0-12,6.62,53.87,53.87,0,0,0-5.23,4.08l-.27.27a20.74,20.74,0,0,0-1.85,1.85l-.58.73a.54.54,0,0,1-.35.5h-.23"/><path id="Shape-4" class="cls-2" d="M110.71,48.55l3.23-3.12.77,4.42-3.23,3.08ZM96.13,49.86l.77-4.46,3.19,3.12-.77,4.42-3.23-3.08Zm33,3.85-3.85-3.85.92-5.16a1,1,0,0,0-.38-1,.92.92,0,0,0-1,0L120,46.28l-4.81-2.73a1,1,0,0,0-.58,0,.92.92,0,0,0-.5-.27l-5.39-.81-2.39-4.92a1,1,0,0,0-1-.54,1,1,0,0,0-.88.54l-2.27,4.85-5.39.81a1,1,0,0,0-.54.27.81.81,0,0,0-.58,0L90.86,46l-4.77-2.42a1,1,0,0,0-1,0,1,1,0,0,0-.38,1l1,5.35-3.85,3.85a1,1,0,0,0,.54,1.62l5.39.77L89.93,61a1,1,0,0,0,.88.54h0a1,1,0,0,0,.85-.54l2.46-4.73,5.39-.81a.81.81,0,0,0,.5-.27.65.65,0,0,0,.54,0l4.77-2.77,4.81,2.54h.46a.85.85,0,0,0,.5.23l5.39.81,2.39,4.85a.92.92,0,0,0,.88.54,1,1,0,0,0,1-.42l2.42-4.69,5.39-.77a.88.88,0,0,0,.77-.65.81.81,0,0,0,0-1Z"/><path id="Shape-5" d="M105.48,51.13l4.77,2.5-.92-5.27a.35.35,0,0,1,0-.27l3.85-3.85-5.31-.77a.35.35,0,0,1-.23,0l-2.39-4.85-2.39,4.81a.27.27,0,0,1-.23,0l-5.08.88,3.85,3.85a.23.23,0,0,1,0,.27l-.92,5.27,4.77-2.58h.23m5,3.23-5.23-2.69-5.12,2.69a.31.31,0,0,1-.31,0,.35.35,0,0,1,0-.27l1-5.69-4.16-3.85a.27.27,0,0,1,0-.31.23.23,0,0,1,.23,0l5.77-.85,2.58-5.54a.27.27,0,0,1,.27,0,.38.38,0,0,1,.27,0L108.37,43l5.73.85a.23.23,0,0,1,.23,0,.27.27,0,0,1,0,.31L110.17,48l1,5.69a.31.31,0,0,1,0,.27h-.31"/><path id="Shape-6" d="M116.5,50.2a.35.35,0,0,1,0,.27l-3.85,3.85,5.31.81a.31.31,0,0,1,.23,0l2.23,5,2.39-4.77a.27.27,0,0,1,.23,0l5.35-.77-3.85-3.85a.23.23,0,0,1,0-.27l1-5.27-4.77,2.5h-.27l-4.73-2.54.85,5.27Zm3.85,10.43-2.54-5.19L112,54.59a.23.23,0,0,1-.23,0,.27.27,0,0,1,0-.31L116,50.43l-1-5.69a.31.31,0,0,1,.42-.31l5.12,2.73,5.16-2.69a.31.31,0,0,1,.31,0,.35.35,0,0,1,0,.27l-.88,5.39L129.2,54a.31.31,0,0,1,0,.31.23.23,0,0,1-.23,0l-5.77.81-2.58,5.16a.27.27,0,0,1-.27,0h-.23Z"/><path id="Shape-7" d="M85.27,44.7v0Zm1.39,5.54a.38.38,0,0,1,0,.27L82.8,54.36l5.35.77a.31.31,0,0,1,.23,0l2.31,5L93,55.28a.27.27,0,0,1,.23,0l5.31-.81-3.85-3.85a.23.23,0,0,1,0-.27l.81-5.66-4.73,2.54h-.27l-4.69-2.31.88,5.31ZM90.5,60.67l-2.58-5.16L82,54.74a.23.23,0,0,1-.23,0,.31.31,0,0,1,0-.31l4.12-3.85-.81-5.89a.23.23,0,0,1,0-.27.31.31,0,0,1,.31,0l5.16,2.69,5.12-2.73a.27.27,0,0,1,.31,0,.35.35,0,0,1,0,.27l-1,5.69,4.16,3.85a.31.31,0,0,1,0,.31.23.23,0,0,1-.23,0l-5.35,1L91,60.67a.27.27,0,0,1-.27,0,.42.42,0,0,1-.27,0Z"/><path id="Shape-8" class="cls-3" d="M133.06,121.92c-.54-3.42-2-9.27-3.27-14.39-.77-3.16-7.43-29.36-7.46-29.36a57.72,57.72,0,0,1-7.16.31,24.43,24.43,0,0,1-16.62-8.7,77.45,77.45,0,0,1-21,2.54V175.06a.5.5,0,0,1,0,.23c0-1,5.08-5.39,8-7.31a64.56,64.56,0,0,1,12.16-6.19c23.7-7.7,38.67-20.2,35.24-39.9"/><path id="Shape-9" class="cls-2" d="M196.27,102.88A6.08,6.08,0,0,0,192.42,99a6.73,6.73,0,0,0-1.77-.27,4.46,4.46,0,0,0-3.5,1.42,1.39,1.39,0,0,0,0,1.46,1.5,1.5,0,0,0,1.23.85,3.85,3.85,0,0,1,1.62.38,1.19,1.19,0,0,1,.69.85h0a2.58,2.58,0,0,1,0,.5,1.85,1.85,0,0,1-.81,1.39,3.5,3.5,0,0,1-2,.73h0a6.31,6.31,0,0,1-2.85-.92c-1.12-.62-2.27-1.31-3.54-2a13.74,13.74,0,0,0-5-1.73,10.2,10.2,0,0,0,1.08-1.65,5.58,5.58,0,0,0,.77-2.69V95.87a1.58,1.58,0,0,0,.69-.73,4.16,4.16,0,0,0,.35-1.69,2.35,2.35,0,0,0,0-.73A2.92,2.92,0,0,0,177,90.87h0a2,2,0,0,0-.42-.42,7.08,7.08,0,0,0-3.85-1.89,12.31,12.31,0,0,0-2.08,0h-1.35L169,88.1a6.77,6.77,0,0,0-.54-.69A2.39,2.39,0,0,0,167,86.6a33.13,33.13,0,0,0-3.85-.35h-4a7.23,7.23,0,0,0-2.65.69,8.12,8.12,0,0,0-5-3,10.35,10.35,0,0,1-2.46-.31,14.35,14.35,0,0,1-1.19-.88l-1.31-1a1.31,1.31,0,0,0-1.31,0,1.27,1.27,0,0,0-.88,1,18.31,18.31,0,0,0-.73,7.27c0,.65,0,.54-.46.81-2.35,1-3.54,3.46-5.58,4.85a3.5,3.5,0,0,0-1,1.19,1.92,1.92,0,0,0-.31.54,8.47,8.47,0,0,0,0,1,36.71,36.71,0,0,0-.42,3.85c-.27,3.35,0,6.85,0,10.23v3.85a33.51,33.51,0,0,0,.62,6.19c.46,2.58.69,5.19,1.27,7.7h0c.23.92.31,1.92.54,2.85a3.58,3.58,0,0,1,0,.88,1.77,1.77,0,0,1,0,.62,4.42,4.42,0,0,0,0,.73,1.35,1.35,0,0,1,0,.35,3.31,3.31,0,0,1-.69.92,16.54,16.54,0,0,0-2.12,2.12,2.54,2.54,0,0,0-.5,1.12v.54c0,.15-.27,0-.31.31s.42.46.65.54a10.89,10.89,0,0,0,2.69.5h1.35a10.81,10.81,0,0,0,1.54-.27,2.87,2.87,0,0,1,1.73.77,6.66,6.66,0,0,0,2.31,1.12,6.85,6.85,0,0,0,1.46.23,2.35,2.35,0,0,0,.73,0l.58-.31h1.5a2.19,2.19,0,0,0,1.08-.27,2.54,2.54,0,0,0,1-.5,4,4,0,0,0,1.19-1.65,2.73,2.73,0,0,0,.77.35,6.43,6.43,0,0,0,2,.5h.38a1.19,1.19,0,0,1,.54,0l.27.23a10.66,10.66,0,0,0,1.12,1,7.31,7.31,0,0,0,1,.73l.62.38a4.66,4.66,0,0,0,1.85.54h.5a6,6,0,0,0,1.39,0,3.85,3.85,0,0,0,.85-.38,2.23,2.23,0,0,0,1.19-.69,3.85,3.85,0,0,0,.81-1.46,6.81,6.81,0,0,0,.31-.77,7.31,7.31,0,0,0,0-1.58c0-.23-.31-.77,0-1a1.27,1.27,0,0,1,.58-.23,5.46,5.46,0,0,1,1.35,0,10.93,10.93,0,0,0,1.12,0h.38c.15,0,0,.5,0,.88a6.15,6.15,0,0,0,0,.81,2.23,2.23,0,0,1,0,.73v1.31c0,.42-.38,1.23.31,1.69a1.5,1.5,0,0,0,1.31,0h.31a3.85,3.85,0,0,0,1.69-1.69h0a7.27,7.27,0,0,0,.77-1.23v-.35h0a1.37,1.37,0,0,1,.27-1h0v-1.12h0a10,10,0,0,0,0-1.08h0a7.69,7.69,0,0,0,0-.88h0v-.27a21.85,21.85,0,0,0-3-6,4.77,4.77,0,0,0,1.42-2.65,4.42,4.42,0,0,0,0-1,13.85,13.85,0,0,0,0-1.39,8.77,8.77,0,0,0-.54-2.35,1.39,1.39,0,0,0-2.65.42,2.81,2.81,0,0,1-.73,1.85h-.27a2.27,2.27,0,0,1-1.08-.42,2.19,2.19,0,0,1-.88-1.92,9.16,9.16,0,0,1,.69-3,1.39,1.39,0,0,0-.62-1.69,1.42,1.42,0,0,0-1.77.27h0a2.39,2.39,0,0,0,0-.42,3.23,3.23,0,0,0-1-1.27,3.19,3.19,0,0,0,.46-.73,2.69,2.69,0,0,0,0-1v-.46h2.08a1.58,1.58,0,0,0,.65,0v.27a5.81,5.81,0,0,0,0,1.5c.62,1.92,2.23,2.42,2.92,2.89a1.42,1.42,0,0,0,1.39,0A1.39,1.39,0,0,0,172,118v-2.27l.62-.35a7,7,0,0,0,1.46-1.15,4.62,4.62,0,0,0,1.12-3.16,4.54,4.54,0,0,0,0-.69,10.7,10.7,0,0,0-.23-1.54,29.7,29.7,0,0,1,5.23,3.19,14.16,14.16,0,0,0,7.5,2.92h0a9.12,9.12,0,0,0,6.69-2.77,8.5,8.5,0,0,0,2.31-5.89,6.27,6.27,0,0,0-.38-3.23Z"/><path id="Shape-10" class="cls-2" d="M81.55,133.85c0-.23-.35-.23-.58-.23a2.58,2.58,0,0,1-2.69-1.42,6.31,6.31,0,0,1-.38-1.73V130s.65.35.77.38a2.39,2.39,0,0,0,3.08-.85,7.31,7.31,0,0,0,.54-3.62v-4c0-1.27.23-2.58.27-3.85a15.39,15.39,0,0,1,.23-1.89,7.7,7.7,0,0,1,.27-1.31c.27-.58.81-.31,1.27-.54s.58-.88.62-1.39a3.62,3.62,0,0,1,1.31-2.89c-.81.69-2.19,1.12-3,0a3.85,3.85,0,0,1-.38-2.81,1.73,1.73,0,0,0,1.58.73,2.23,2.23,0,0,0,1.42-1.15c.81-1.27,1.12-2.77,1.92-3.85a21.2,21.2,0,0,1,1.35-1.85s.62-.58.5-.69L89,99.61a3.31,3.31,0,0,1-.62-2A7,7,0,0,1,89,95.3a3.66,3.66,0,0,0,6.16.62,28.55,28.55,0,0,0,2.89-3.12,2.39,2.39,0,0,1,1.5-1,2.19,2.19,0,0,1,1.81.73,13.7,13.7,0,0,1-.31-9.81l1.31,1a11.54,11.54,0,0,0,1.39,1,7.7,7.7,0,0,0,2.92.46,7.12,7.12,0,0,1,4.85,3.58,5.16,5.16,0,0,1,3.12-1.15,31.36,31.36,0,0,1,3.85,0,13,13,0,0,1,3.66.35c.54,0,.77.54,1.08.92l.58.77s0,.38.46.31a11.54,11.54,0,0,1,3.46,0,5.89,5.89,0,0,1,3.08,1.5l.46.46c0,.23.42.23.69.31a1.54,1.54,0,0,1,1,1,2.85,2.85,0,0,1,0,1.58h-1.5a4.42,4.42,0,0,1,.88,2.15,3.85,3.85,0,0,1-.62,2.35,23.89,23.89,0,0,1-3.08,3.85,2.69,2.69,0,0,0,.27-2.46c-.62-1-2-.65-2.89,0a13.33,13.33,0,0,1-1.54,1,4.39,4.39,0,0,0-1.19,1.42c-.69,1.08-1.58,2-2.27,3a7.16,7.16,0,0,0-1.23,3.58c0,1.19,1.58,0,2,0s1-.77,1.54-1.12.54,0,.69,0h1.12a9.23,9.23,0,0,0,1.77,0,1.73,1.73,0,0,0,1.39-1,5.58,5.58,0,0,0,.46-1,14.77,14.77,0,0,1,.69,3.12,3.5,3.5,0,0,1-.73,2.81,4.66,4.66,0,0,1-1.15.92l-.69.35s-.5,0-.54.35a5.54,5.54,0,0,0,0,1.39v1.65c-.85-.5-2-1-2.27-2s.23-2.27-.65-3.23c0,0-.38-.46-.5-.38a3.12,3.12,0,0,0-.35.38l-.46.54H119.8a5.16,5.16,0,0,0-1.73.65,1.73,1.73,0,0,1,.38,1.69,2.35,2.35,0,0,1-1.46,1l1.12,1a2.69,2.69,0,0,1,.92,1v.5l.42.62c.27.42.46.92.69,1.31l1.39-1.58c-.81,2.12-1.5,5,.69,6.58a2.46,2.46,0,0,0,3,.27,4.31,4.31,0,0,0,1.23-2.77,6.85,6.85,0,0,1,.42,2,7.69,7.69,0,0,1,0,2,3.62,3.62,0,0,1-2,2.58,21.55,21.55,0,0,1,3.85,7,6.5,6.5,0,0,1,0,3.85,5.85,5.85,0,0,1-.85,1.5,2.35,2.35,0,0,1-.65.62c-.23,0-.38.42-.65.5a6.58,6.58,0,0,1,.35-2.08,4.46,4.46,0,0,0,0-2.23,4.69,4.69,0,0,0-1.15-1.69,7.27,7.27,0,0,0-.85-.69l-.46-.27H124a1.89,1.89,0,0,0,.42,1s.46.54,0,.69a2.13,2.13,0,0,1-1,0H122a15.16,15.16,0,0,1-2.62-.54,3.19,3.19,0,0,1-1-.38c-.31-.23-.46-.62-.81-.73s0,.5.31.65l.58,1s.46.58,0,.69a1.27,1.27,0,0,1-.65,0,8,8,0,0,1-2.27-.54,4,4,0,0,1-1-.54s-.23-.5-.5-.5a1.08,1.08,0,0,0,.42.73,3.35,3.35,0,0,1,.5,1,3.35,3.35,0,0,0,1.31,1.5c1.23.77,3,1.81,4.16.35a4,4,0,0,1,0,.69,1.24,1.24,0,0,1-.23.85,2.73,2.73,0,0,1-.54,1.31c-.35.38-1,.35-1.39.38a6.5,6.5,0,0,1-1.89,0,3.85,3.85,0,0,1-1.58-.58c-.46-.35-.88-.77-1.35-1.08a2.73,2.73,0,0,1-.65-.54s-.23-.38-.5-.46a13.81,13.81,0,0,0-1.54-.54,11,11,0,0,1-1.62-.38,2.46,2.46,0,0,1-.73-.27,2.07,2.07,0,0,0-.58-.46,1.86,1.86,0,0,0-.65,0c-.19,0-.27.35-.27.62a2.58,2.58,0,0,1-.73,1.46,2.81,2.81,0,0,1-1.15.58,2.73,2.73,0,0,1-1.54,0,5.39,5.39,0,0,1-1.46-.69,1.11,1.11,0,0,1-.88-1c0,.27.85,1.77.42,1.81a3.85,3.85,0,0,1-1.42-.35,4.08,4.08,0,0,1-2.08-1.23c-.27-.31-.38-.77-.69-1s-.81.31-1.08.42a10,10,0,0,1-2.77.73c-2,0-3.19-1-5-1.81a29.82,29.82,0,0,1-5.19-2.42,8.27,8.27,0,0,1-1-.58,4.93,4.93,0,0,1-.46-.42,2.49,2.49,0,0,0-.23-1.23"/><path id="Shape-11" d="M152,139.2h.35a3.5,3.5,0,0,1,1.54.81c.81.58,2.19,0,3.42,1,.31.23.54.5.73.65a5.66,5.66,0,0,1,.69.5,5.19,5.19,0,0,0,1.27,1,2.46,2.46,0,0,0,1.27.35h.35a4.16,4.16,0,0,0,1.58-.38c.62-.31,1-.46,1.15-.92a3.42,3.42,0,0,0,.31-1.08,2,2,0,0,1-1.12.27H163a7.43,7.43,0,0,1-1.92-.69,5.08,5.08,0,0,1-1.5-1,3.39,3.39,0,0,1-1-1.62v-1.5a.85.85,0,0,1,0-.5h0a.38.38,0,0,1,.35,0h.35l.35.42.54.69.35.65H161a11.54,11.54,0,0,0,1.5,0h0l-.27-.35a5.23,5.23,0,0,1-.81-1.39,2.15,2.15,0,0,1,0-.62h0a.5.5,0,0,1,.5-.42c.42,0,.42.23.5.31h0c.31.23.42.46.54.46l.81.5a11.54,11.54,0,0,0,1.54.73,3.85,3.85,0,0,0,1,0h2.54a1.65,1.65,0,0,0-.38-.62,2,2,0,0,1-.92-1.08.38.38,0,0,1,.29-.46h0c.62,0,.88.46,1.08.5l1.08.62a3.35,3.35,0,0,1,1.42,1.92,5.73,5.73,0,0,1,0,1.12v3a3,3,0,0,0,0-.31,14.81,14.81,0,0,0,.92-1.54,4.85,4.85,0,0,0,.38-2,7.08,7.08,0,0,0-.23-1.73,20.58,20.58,0,0,0-3.85-7,.51.51,0,0,1,.23-.62,3.23,3.23,0,0,0,1.81-2.27,4.12,4.12,0,0,0,0-.69v-1.23a.5.5,0,0,0,0-.23,3.23,3.23,0,0,1-1,1.31,2.31,2.31,0,0,1-1.42.5,4.08,4.08,0,0,1-2.08-.73,3.85,3.85,0,0,1-1.62-3.39,10,10,0,0,1,.23-1.85h0a.31.31,0,0,1-.35,0,.34.34,0,0,1-.31-.23,8,8,0,0,0-.65-1.27l-.42-.62a.88.88,0,0,1,0-.5h0c0-.27-.42-.5-.81-.81a9.9,9.9,0,0,1-1.12-1.08.35.35,0,0,1,0-.38.38.38,0,0,1,.27-.27,1.69,1.69,0,0,0,1.19-.85V114a1.39,1.39,0,0,0-.31-.88.46.46,0,0,1,0-.38.38.38,0,0,1,.27-.35,5.58,5.58,0,0,1,1.85-.69h2.23l.38-.46.35-.42a.35.35,0,0,1,.31,0c.38,0,.38,0,.54.31l.23.23a3,3,0,0,1,.65,2.15v.27a4.5,4.5,0,0,0,0,1c0,.58.81,1,1.5,1.46a9.23,9.23,0,0,1,0-1v-.81a2,2,0,0,1,0-.69c.23-.58.73-.54.77-.62l.65-.35a3.85,3.85,0,0,0,1.08-.88,2.73,2.73,0,0,0,.65-2,2.85,2.85,0,0,0-.54.12,12.31,12.31,0,0,0-.35-2h0a2.15,2.15,0,0,1-1.65,1.19h-3.46a18.2,18.2,0,0,1-1.5,1.08,4.08,4.08,0,0,1-1.81.81.81.81,0,0,1-.62-.27.88.88,0,0,1-.23-.69h0a7.7,7.7,0,0,1,1.27-3.85c.73-1.12,1.62-2,2.27-3a5.39,5.39,0,0,1,1.27-1.54,16.24,16.24,0,0,1,1.58-1,4.12,4.12,0,0,1,1.85-.54,1.77,1.77,0,0,1,1.58.88,2,2,0,0,1,.27,1,15.39,15.39,0,0,0,1.81-2.54,4.31,4.31,0,0,0,.58-1.85v-.27a4.35,4.35,0,0,0-.81-2,.35.35,0,0,1,0-.38s0-.23.31-.23h1.19a2.42,2.42,0,0,0,0-.88.85.85,0,0,0,0-.35,1.08,1.08,0,0,0-.81-.73,1.65,1.65,0,0,1-.85-.42l-.46-.46a5.54,5.54,0,0,0-2.85-1.42,13.81,13.81,0,0,0-1.77,0,10.43,10.43,0,0,0-1.54,0h0a.73.73,0,0,1-.69-.5c0-.27-.35-.5-.54-.77s-.5-.77-.81-.81c-1.15,0-2.39-.27-3.58-.35h-3.46a4.69,4.69,0,0,0-2.89,1.08.31.31,0,0,1-.31,0,.27.27,0,0,1-.27,0,6.73,6.73,0,0,0-4.58-3.39,8.66,8.66,0,0,1-3.08-.54,15.08,15.08,0,0,1-1.39-1l-.85-.65a21.89,21.89,0,0,0-.62,4.66,8.5,8.5,0,0,0,.85,4,.42.42,0,0,1,0,.54.38.38,0,0,1-.54,0,2,2,0,0,0-1.31-.62h0a2,2,0,0,0-1.23.85,29.32,29.32,0,0,1-3,3.16,5.19,5.19,0,0,1-3.12,1.54h-.46a4.58,4.58,0,0,1-2.73-1.5,5.43,5.43,0,0,0-.35,1.54h0a3,3,0,0,0,.58,1.62c0,.31.42.58.65.92a.38.38,0,0,1,0,.27c0,.42-.23.42-.35.62l-.27.27a20.08,20.08,0,0,0-1.35,1.81,33.3,33.3,0,0,0-1.46,3.12,7.7,7.7,0,0,0-1,2.12h0l.31.58a2,2,0,0,1,.15,1c0,1.15-.85,2.08-.85,2.89a3.85,3.85,0,0,1-.69,1.85,19.24,19.24,0,0,0-.88,2.73c-.31.81-.77,1.39-1,2.08a12.89,12.89,0,0,0-.31,2.46,19.5,19.5,0,0,1,0,2.08,7.89,7.89,0,0,0,0,1v1.15a7.16,7.16,0,0,1-.23,2,2.35,2.35,0,0,0,0,.73,18.51,18.51,0,0,0,.62,2.81v.92a7.7,7.7,0,0,0,.81,1.46,11.54,11.54,0,0,0,2.39,3,8.73,8.73,0,0,0,2.42,1.35c.92.42,1.46,1,2.15,1.27a6.46,6.46,0,0,0,2.58.58,4.08,4.08,0,0,0,2.15-.54,8.16,8.16,0,0,0,.92-.42.81.81,0,0,1,.65-.35.85.85,0,0,1,.73.46c.27.35.5.69.73,1s.31,0,.62.5a1.46,1.46,0,0,0,.85.38l1.12.35a1.23,1.23,0,0,1,0-.58h0a.38.38,0,0,1,.27-.31h.38l-.08-.08s.27.23.31,0,.54,0,.88.27a5.12,5.12,0,0,0,1.42.58h0c.31,0,.58-.27,1-.69a4.58,4.58,0,0,0,.85-1,3,3,0,0,1,.35-.73,1.85,1.85,0,0,1,1-.31Zm7.7,4.69a5.66,5.66,0,0,1-1.42-1.12,3.5,3.5,0,0,0-.58-.42c-.31-.23-.54-.5-.77-.65a16.32,16.32,0,0,1-3.39-.92c-.54-.35-.81-.65-1.23-.69h-.27l-.23.58a5.93,5.93,0,0,1-1,1.23,2.15,2.15,0,0,1-1.54,1h0a4.92,4.92,0,0,1-1.77-.65l-.81-.23a.69.69,0,0,1,0,.31.62.62,0,0,1-.27.46.5.5,0,0,1-.31,0,2.12,2.12,0,0,1-.58,0l-1.27-.42a2.31,2.31,0,0,1-1.27-.65s-.31,0-.62-.5a4.76,4.76,0,0,0-.77-1h0c-.42.42-.92.42-1.12.58a4.93,4.93,0,0,1-2.54.62,6.85,6.85,0,0,1-2.92-.65c-.85-.42-1.42-1-2.15-1.27a9.23,9.23,0,0,1-2.65-1.46,11.81,11.81,0,0,1-2.54-3.23c-.23-.46-.62-1-.85-1.58a8.54,8.54,0,0,1,0-1.08,16.28,16.28,0,0,1-.62-2.92,3.58,3.58,0,0,1,0-.92,6.62,6.62,0,0,0,0-1.73v-1.15a9.12,9.12,0,0,1,0-1v-2a15.77,15.77,0,0,1,.31-2.65,19.24,19.24,0,0,1,1-2.12,16,16,0,0,1,.92-2.81,2.5,2.5,0,0,0,.58-1.5c0-1.15.88-2.12.85-2.85a2.15,2.15,0,0,0,0-.46,1.29,1.29,0,0,1-.38-.88.69.69,0,0,1,0-.27,7.93,7.93,0,0,1,1-2.35c.54-1,.85-2.12,1.5-3.19a21.66,21.66,0,0,1,1.39-1.89l.35-.35a5.23,5.23,0,0,1-1.23-2.81h0a7.7,7.7,0,0,1,.69-2.5.42.42,0,0,1,.38-.23.5.5,0,0,1,.38.23,3.62,3.62,0,0,0,2.58,1.73h.35a4.27,4.27,0,0,0,2.58-1.31,27.82,27.82,0,0,0,2.85-3.08A2.92,2.92,0,0,1,144.06,92h.27a2.12,2.12,0,0,1,.69,0,9.73,9.73,0,0,1-.58-3.42,25.66,25.66,0,0,1,.77-5.43.5.5,0,0,1,.27-.31.46.46,0,0,1,.38,0l1.31,1a9.54,9.54,0,0,0,1.31,1,7.7,7.7,0,0,0,2.81.42,7.35,7.35,0,0,1,4.89,3.39,5.27,5.27,0,0,1,3-1H163a15.22,15.22,0,0,1,3.85.35c1.39.35,1,.77,1.31,1.08a5.26,5.26,0,0,1,.58.81h0a12,12,0,0,1,3.54,0,6,6,0,0,1,3.27,1.62,3.27,3.27,0,0,1,.5.54h.5a1.89,1.89,0,0,1,1.27,1.27,2.31,2.31,0,0,1,0,.54,3.54,3.54,0,0,1-.27,1.27.73.73,0,0,1-.77.38h-.42a4.73,4.73,0,0,1,.62,1.77v.35a4.92,4.92,0,0,1-.65,2.23,26.36,26.36,0,0,1-3.12,3.85.42.42,0,0,1-.54,0,.38.38,0,0,1,0-.54,3.27,3.27,0,0,0,.42-1.42,1.23,1.23,0,0,0,0-.65.92.92,0,0,0-.92-.46,3.19,3.19,0,0,0-1.42.42,13.39,13.39,0,0,0-1.5,1,4.23,4.23,0,0,0-1.12,1.31c-.69,1.12-1.62,2-2.27,3a6.85,6.85,0,0,0-1.19,3.27h0A3.23,3.23,0,0,0,166,109a13.74,13.74,0,0,0,1.5-1.12.54.54,0,0,1,.38,0,2.89,2.89,0,0,1,.62,0h2.81a1.39,1.39,0,0,0,1.08-.81,4.39,4.39,0,0,0,.42-1,.41.41,0,0,1,.77,0,13.31,13.31,0,0,1,.69,3.23v.62a3.54,3.54,0,0,1-.88,2.5,6.66,6.66,0,0,1-1.27,1l-.69.38H171a1.42,1.42,0,0,0,0,.42v2.5a.38.38,0,0,1,0,.35.35.35,0,0,1-.38,0c-.81-.5-2.12-1-2.46-2.31a4.5,4.5,0,0,1,0-1.19v-.27a2.39,2.39,0,0,0-.42-1.62h0a5.43,5.43,0,0,1-.5.58.92.92,0,0,1-.46,0h-2.23a3.42,3.42,0,0,0-1.12.38,2.19,2.19,0,0,1,.23,1.08,1.5,1.5,0,0,1,0,.62,2.19,2.19,0,0,1-1.12,1l.69.62a3.16,3.16,0,0,1,1,1.08.81.81,0,0,1,0,.38h0l.42.65a8,8,0,0,1,.42.85h.38a.35.35,0,0,1,.49,0h0a.42.42,0,0,1,0,.5,10.5,10.5,0,0,0-.77,3.39,3.16,3.16,0,0,0,2.92,3.31,1.35,1.35,0,0,0,.92-.31,3.62,3.62,0,0,0,1.08-2.54.35.35,0,0,1,.35-.35h0a.38.38,0,0,1,.42.27,8.31,8.31,0,0,1,.46,2v1.31a6.16,6.16,0,0,1,0,.85,3.85,3.85,0,0,1-1.85,2.62,21.78,21.78,0,0,1,3.66,7,8,8,0,0,1,.27,1.92,5.89,5.89,0,0,1-.46,2.27,8.54,8.54,0,0,1-1,1.62,3.85,3.85,0,0,1-1.31,1.31.62.62,0,0,1-.38,0,.46.46,0,0,1-.23-.31h0a4.12,4.12,0,0,1,.23-1v-3a3.85,3.85,0,0,0,0-.92,2.5,2.5,0,0,0-.92-1.85h0a1.39,1.39,0,0,1,0,.58.73.73,0,0,1-.5.69,2.23,2.23,0,0,1-.69,0H166a4.73,4.73,0,0,1-1.23,0,8.81,8.81,0,0,1-1.69-.81l-.73-.46a3.08,3.08,0,0,0,.38.62,2,2,0,0,1,.58,1,.69.69,0,0,1-.69.65h-2a.92.92,0,0,1-.81-.35c0-.27-.31-.54-.42-.69a.81.81,0,0,1,0-.23v.31a2.69,2.69,0,0,0,.77,1.27,4.23,4.23,0,0,0,1.23.88,6.62,6.62,0,0,0,1.69.62h.42a1.08,1.08,0,0,0,.77-.23,1.27,1.27,0,0,1,.62-.42h0a.54.54,0,0,1,.46.31.69.69,0,0,1,0,.27h0a4.27,4.27,0,0,1-.38,1.81,3,3,0,0,1-1.5,1.27,4.93,4.93,0,0,1-1.89.46h-.38a10.81,10.81,0,0,1-1.46-.58Z"/><path id="Shape-12" d="M158.22,142.89a10.62,10.62,0,0,1-1.69-1.73.54.54,0,0,1-.35,0,6.12,6.12,0,0,1-4.08-1.58,7.08,7.08,0,0,1-1.35-3.58.38.38,0,0,1-.38,0,7.89,7.89,0,0,1-1.81-2.81,6.46,6.46,0,0,1-.42-1.62l-.35,2.69a13.54,13.54,0,0,0,0,1.77,3.31,3.31,0,0,0,.5,2,3.46,3.46,0,0,0,2.81,1.19h.5a.62.62,0,0,1,.35,0,.46.46,0,0,1,0,.35,3.35,3.35,0,0,1-1.15,2.42,2.62,2.62,0,0,1-1.58.46,6.39,6.39,0,0,1-1.5-.23,2.73,2.73,0,0,1-.77-.35.38.38,0,0,1,0,.46.42.42,0,0,1-.38.27,6.19,6.19,0,0,1-4.16-1.19,5.62,5.62,0,0,1-1.5-3.5.41.41,0,1,1,.81-.12,5,5,0,0,0,1.27,3,4.46,4.46,0,0,0,2.42,1,4.08,4.08,0,0,1-.81-1.35c-.35-1-.54-1.92-.88-2.89a.38.38,0,0,1,.22-.5h0a.38.38,0,0,1,.5,0c.23.54.46,1,.73,1.54a9.47,9.47,0,0,0,.5,1.12,5,5,0,0,0,2.08,1.62,4.93,4.93,0,0,0,1.27,0,1.65,1.65,0,0,0,1.08-.31,2.42,2.42,0,0,0,.81-1.39h0a4.31,4.31,0,0,1-3.5-1.54,4.19,4.19,0,0,1-.62-2.42,13,13,0,0,1,0-1.85,39.25,39.25,0,0,1,1.23-7,7.7,7.7,0,0,1,.5-1.54,4.81,4.81,0,0,1,.69-1.42.38.38,0,0,1,.54,0,.42.42,0,0,1,0,.5,16.7,16.7,0,0,0-1.08,2.73,9.93,9.93,0,0,0-.23,1.54v.85h0a1.5,1.5,0,0,1,0,.38,9.54,9.54,0,0,0,.5,2.81,6.16,6.16,0,0,0,1,1.65v-2.77a6.27,6.27,0,0,1,0-.88,11.89,11.89,0,0,1,1.35-3.54c0-.23.27-.46.38-.73H152a.38.38,0,0,1,0,.31.42.42,0,0,1,0,.23,13.31,13.31,0,0,0-1.62,3.85v2.35a7.57,7.57,0,0,0,.27,2.42,7.16,7.16,0,0,0,1.27,3.62,4.46,4.46,0,0,0,2.85,1.19,8.77,8.77,0,0,1-.85-2.35l-.23-1.35a17.27,17.27,0,0,1-.35-1.92h0a.4.4,0,1,1,.81,0h0a15.41,15.41,0,0,0,.31,1.85,12.7,12.7,0,0,0,.77,2.31,9.23,9.23,0,0,0,2.73,3.42,4.77,4.77,0,0,0,3,1.23,2.77,2.77,0,0,0,1,0,2.73,2.73,0,0,0,1.89-2.46,2.81,2.81,0,0,1-1.35.38,2.39,2.39,0,0,1-.88,0,7.7,7.7,0,0,1-2.54-1.31,5.43,5.43,0,0,1-1.42-2.35,16.31,16.31,0,0,1-.92-3.19.4.4,0,0,1,.77-.23,10.08,10.08,0,0,0,2,3.5,2.27,2.27,0,0,0,1.62.62h.77a18.15,18.15,0,0,1-1.58-1.85,7.7,7.7,0,0,1-1.23-2.73,12.93,12.93,0,0,1-.31-3.16v-3.08a9.16,9.16,0,0,1,0-1,.38.38,0,0,1,.38-.39h0a.38.38,0,0,1,.38.38v2.54a11.54,11.54,0,0,0,1.65,5.58,4.35,4.35,0,0,0,2.89,2,16.81,16.81,0,0,0,2,0h1.58a6.46,6.46,0,0,0-1.27-1.65c-.62-.62-1.42-1.08-2.12-1.85a8.81,8.81,0,0,1-1.54-2.54,10.08,10.08,0,0,1-.5-1.5.51.51,0,0,1,.31-.42.42.42,0,0,1,.46,0s1.08,2,1.15,2.19a12.54,12.54,0,0,0,3.31,3.31,8,8,0,0,1,2.92,3.31,5.39,5.39,0,0,1,.35,1.89,7.7,7.7,0,0,1-.31,2.12.54.54,0,0,1,.35,0,.42.42,0,0,1,0,.58l-.92.88a.38.38,0,0,1-.5,0,.42.42,0,0,1,0-.5,8.81,8.81,0,0,0,.77-3.23,4.31,4.31,0,0,0-.27-1.58,5.23,5.23,0,0,0-1.39-1.92,6.12,6.12,0,0,1,.38.88.38.38,0,0,1-.35.54h-2.42a14.16,14.16,0,0,1-2.12-.23,4.93,4.93,0,0,1-2.19-1l1.15,1.31a.38.38,0,0,1,.08.54l-.08.08a4.66,4.66,0,0,1-1.62.31,3.16,3.16,0,0,1-2.19-.85l-.42-.42a4.08,4.08,0,0,0,1,1.54,7.43,7.43,0,0,0,2.23,1.15h.65a2.54,2.54,0,0,0,1.58-.69.35.35,0,0,1,.42,0,.42.42,0,0,1,.23.38h0a3.85,3.85,0,0,1-2.54,3.85,4.31,4.31,0,0,1-1.15,0,5.19,5.19,0,0,1-3.46-1.39"/><path id="Shape-13" d="M137.29,139.12a4.46,4.46,0,0,1-1-3.08,14.12,14.12,0,0,1,0-1.77.41.41,0,0,1,.81,0,13.7,13.7,0,0,0,.81,2.58,1.65,1.65,0,0,0,1.65,1h.38a2.73,2.73,0,0,0,2.77-1.62,15.39,15.39,0,0,1-1.85,0h-.35a3.58,3.58,0,0,1-2.46-.81,4.5,4.5,0,0,1-1.08-2.39,3.85,3.85,0,0,1,0-.65,4.73,4.73,0,0,1,.58-2.08,9.43,9.43,0,0,0,.92-2.23,13.7,13.7,0,0,0,.12-2.5v-5.89a.4.4,0,1,1,.81,0v5.93a13.08,13.08,0,0,1-.31,2.69,11.27,11.27,0,0,1-1,2.42,4.31,4.31,0,0,0-.5,1.73,1.65,1.65,0,0,0,0,.46,3.54,3.54,0,0,0,.81,2,2.77,2.77,0,0,0,2,.58h.31a13.2,13.2,0,0,0,2.42-.23.38.38,0,0,1,.38,0,.46.46,0,0,1,0,.38,4.5,4.5,0,0,1-1.62,2.23,3.85,3.85,0,0,1-2.19.58h-.42a2.39,2.39,0,0,1-2.35-1.42,1.65,1.65,0,0,1,0-.42,3.12,3.12,0,0,0,.81,1.89,2.65,2.65,0,0,0,2,.81,6.19,6.19,0,0,0,1.62-.27h0a.38.38,0,0,1,.49.24v0a.38.38,0,0,1-.24.49h0a7.39,7.39,0,0,1-1.81.27h0a2.92,2.92,0,0,1-2.58-.92"/><path id="Shape-14" d="M174,94.3l-.85-1.23a.38.38,0,0,1,.17-.52l.06,0a.54.54,0,0,1,.65,0l.69,1.23a.38.38,0,0,1-.17.52l-.06,0h0a.54.54,0,0,1-.46-.23"/><path id="Shape-15" d="M172.19,94.14a1.15,1.15,0,0,0-.27-.92c-.27-.27-.35-.35-.62-.58h0a.42.42,0,0,1,0-.58.46.46,0,0,1,.58,0,2.77,2.77,0,0,1,.81.81,1.13,1.13,0,0,0,.31,1,.38.38,0,0,1-.24.49h-.42"/><path id="Shape-16" d="M161.64,107.53a.38.38,0,0,1,0-.54l0,0a15,15,0,0,0,1.54-1.54,7.12,7.12,0,0,0,1.08-1.81,20.45,20.45,0,0,0,1-2,7.7,7.7,0,0,0,.46-2.15A7.7,7.7,0,0,1,166.84,95a3.85,3.85,0,0,1,1.62-1.15,4.31,4.31,0,0,0,.85-.38,6.19,6.19,0,0,1,1-.62.38.38,0,0,1,.5.22h0a.38.38,0,0,1-.22.5h0a8.23,8.23,0,0,0-.88.54,8.81,8.81,0,0,1-1,.42,3.12,3.12,0,0,0-1.31.92,7.46,7.46,0,0,0-.88,3.85,7.7,7.7,0,0,1-.5,2.42c-.31.77-.77,1.39-1.12,2.08a11,11,0,0,1-1.15,2,16.12,16.12,0,0,1-1.62,1.58h0a.42.42,0,0,1-.27,0,.42.42,0,0,1-.31,0"/><path id="Shape-17" d="M161.64,109.88a.42.42,0,0,1,0-.54c.42-.88,1-1.58,1.39-2.35a7.39,7.39,0,0,1,.77-1.12,5.19,5.19,0,0,1,.5-.5l.31-.27h0a.38.38,0,0,1,.54.54,3.39,3.39,0,0,1-.46.5l-.46.46a9.39,9.39,0,0,0-.69,1c-.46.81-1,1.54-1.39,2.31a.38.38,0,0,1-.5.15h0"/><path id="Shape-18" d="M154.22,91.45a5.12,5.12,0,0,1-1.81-.27,2.31,2.31,0,0,1-1.31-1.46,3.58,3.58,0,0,0-.81-1.27,9.77,9.77,0,0,0-1.54-1.08.38.38,0,1,1,.54-.54A8.7,8.7,0,0,1,151,88a3.85,3.85,0,0,1,1,1.58c.27.58.38.88.88,1a3.85,3.85,0,0,0,1.5.23h.31a.42.42,0,1,1,0,.85h-.35Z"/><path id="Shape-19" d="M146.25,93h0m1,15.39a.38.38,0,0,1-.38-.35,23.62,23.62,0,0,1-.62-4.16v-1.08A6.69,6.69,0,0,1,148.33,99l.73-1.58a3.23,3.23,0,0,0-1.15,1.65.41.41,0,0,1-.81,0,11,11,0,0,1,0-1.12,4.66,4.66,0,0,1,.54-2.39,3.12,3.12,0,0,1,.92-.92h-1.39a1.89,1.89,0,0,1-1.08-1V93h0v-.35a.5.5,0,0,1,.27,0h0c.38,0,.23,0,.35.27v.62h0a1.54,1.54,0,0,0,.62.69h3a.38.38,0,0,1,0,.77,4.08,4.08,0,0,0-2.19,1.5,3.35,3.35,0,0,0-.42,1.58,16.24,16.24,0,0,1,2-1.73.4.4,0,0,1,.62.5l-.81,1.77.5-.27c.69-.42,1.35-.77,2-1.12a14,14,0,0,0,1.69-1h0l.5-.42h.65v.35a.65.65,0,0,1,0,.42l-.27.27-.38.38a7.43,7.43,0,0,1-1.77,1.12c-.81.42-1.58.73-2.31,1.08a13.74,13.74,0,0,0-1.54,1,5.89,5.89,0,0,0-2,3.46,8,8,0,0,0,0,1,14.78,14.78,0,0,0,.27,2.54,10.12,10.12,0,0,1,1.19-1.92,9.12,9.12,0,0,1,2.46-2.08c1-.65,2.08-1.12,3-1.77A6.5,6.5,0,0,0,155.26,99h0a.38.38,0,1,1,.54.54,6.62,6.62,0,0,1-1.92,3c-1,.69-2.08,1.19-3,1.81a8,8,0,0,0-2.27,1.92,9.77,9.77,0,0,0-1.54,3,.46.46,0,0,1-.38,0h0"/><path id="Shape-20" d="M135.59,106.88a30.78,30.78,0,0,1-.31-3.19v-.77a4.85,4.85,0,0,1,.42-2.27,7.7,7.7,0,0,1,1.92-2,12.73,12.73,0,0,1,1.19-.88h.31a.54.54,0,0,1,.5.38h0a.42.42,0,0,1,0,.58.46.46,0,0,1-.38,0c-.31,0-.38,0-.42-.27l-.88.65a6.46,6.46,0,0,0-1.73,1.77,4.31,4.31,0,0,0-.35,1.89v.77a15.7,15.7,0,0,0,0,1.92l.23-.23,1.27-1.15a19.7,19.7,0,0,1,2.77-1.85l1.58-.73a5.43,5.43,0,0,0,1.23-.54,6.08,6.08,0,0,0,1.58-2.35.4.4,0,1,1,.73.35,7.23,7.23,0,0,1-1.85,2.65,5.77,5.77,0,0,1-1,.85l-1.5.65a15.39,15.39,0,0,0-2.65,1.77l-1.19,1.08a1.89,1.89,0,0,0-.65,1,.46.46,0,0,1-.38.38h0a.54.54,0,0,1-.31-.38"/><path id="Shape-21" d="M137,113.3a.46.46,0,0,1-.35-.23,8.54,8.54,0,0,1-.73-3.35,3.19,3.19,0,0,1,0-.88,13.7,13.7,0,0,1,1.42-4.31.38.38,0,0,1,.54,0,.42.42,0,0,1,0,.54,14.85,14.85,0,0,0-1.35,4.08,5.31,5.31,0,0,0,0,.77,7,7,0,0,0,.42,2.35c.42-.62.73-1.08,1.27-1.81a28,28,0,0,1,1.92-2.19.41.41,0,0,1,.58.58c-.81.88-1.15,1.23-1.89,2.15a17.81,17.81,0,0,0-1.65,2.42,1.08,1.08,0,0,1-.46,0h0"/><path id="Shape-22" d="M156.45,128.23a10.31,10.31,0,0,1-4.92-1.31,6.58,6.58,0,0,1-1.81-1.42,4.54,4.54,0,0,1-.81-2.46v-1a1.92,1.92,0,0,0,0,.38.46.46,0,0,1-.31.35.38.38,0,0,1-.42,0,24.61,24.61,0,0,1-1.54-2,5.39,5.39,0,0,1-1.15-2.31,2.85,2.85,0,0,1,0-.58,5.69,5.69,0,0,1,.46-2,18.81,18.81,0,0,1,.92-2.27,12.77,12.77,0,0,1,1.31-2.08l.81-1,.31-.35a3.39,3.39,0,0,1-1-.23l-.5-.31a5.93,5.93,0,0,1-1.31,1.65,20.89,20.89,0,0,0-2.46,3,10.31,10.31,0,0,0-1.85,3.54,2.89,2.89,0,0,0,0,.58,3.39,3.39,0,0,0,1,2.39.46.46,0,0,1,0,.5.42.42,0,0,1-.46,0,8.12,8.12,0,0,1-4.77-2.73,6.81,6.81,0,0,1-.92-2.69,16.43,16.43,0,0,1-.27-3h0a.4.4,0,1,1,.81,0h0a18.58,18.58,0,0,0,.23,2.92,5.85,5.85,0,0,0,.81,2.39,6.12,6.12,0,0,0,3.19,2.08,3.85,3.85,0,0,1-.54-2,4.27,4.27,0,0,1,0-.73,11.16,11.16,0,0,1,2-3.85,20.89,20.89,0,0,1,2.58-3.12,3.85,3.85,0,0,0,1.31-1.92,1.73,1.73,0,0,1,0-.81h0a.35.35,0,0,1,.35-.35h0a.38.38,0,0,1,.42.23,2.39,2.39,0,0,1,0,.85,1.19,1.19,0,0,0,.62.54,3.54,3.54,0,0,0,1,0h.65s.35,0,.38.46h0a3.54,3.54,0,0,1-.77,1l-.77,1a15.85,15.85,0,0,0-1.23,2,17.58,17.58,0,0,0-.85,2.15,5.39,5.39,0,0,0-.62,2,1.54,1.54,0,0,0,0,.42,4.89,4.89,0,0,0,1,2c.31.42.65.85,1,1.19a14.81,14.81,0,0,1,.58-2.81.54.54,0,0,1,.5-.38h0a.54.54,0,0,1,.27.23h0a2.39,2.39,0,0,0,0,.46v3.85a3.46,3.46,0,0,0,.65,2,4.89,4.89,0,0,0,1.54,1.35,9.27,9.27,0,0,0,4.5,1.19h0a5.12,5.12,0,0,0,2.15-.38,3,3,0,0,0,.88-.54h0a5.89,5.89,0,0,1-4.12-1.54,7.7,7.7,0,0,1-2.5-5.16h0a.4.4,0,1,1,.81,0,6.93,6.93,0,0,0,2.27,4.62,5.08,5.08,0,0,0,3.54,1.31h1.12a.31.31,0,1,1,.42.46,6,6,0,0,1-2,1.46,6.35,6.35,0,0,1-2.5.42h-.31"/><path id="Shape-23" d="M157.1,111.15a2.35,2.35,0,0,1-.69-1.35,6.93,6.93,0,0,1,0-1.23v-.23a12.58,12.58,0,0,1,.46-3.12h0a.4.4,0,1,1,.77.23,10.85,10.85,0,0,0-.42,2.89h0a4.89,4.89,0,0,0,0,1.08,1.65,1.65,0,0,0,.5,1,2.92,2.92,0,0,0,2,1,3.23,3.23,0,0,0,1.5-.42,4.66,4.66,0,0,1-2.19-1.27,2.39,2.39,0,0,1-.65-1.54h0a3.85,3.85,0,0,1,.27-1.23.62.62,0,0,1,.54-.42.42.42,0,0,1,.42.42h0a.35.35,0,0,1-.23.35.65.65,0,0,0,0,.31,3.39,3.39,0,0,0,0,.65h0a1.54,1.54,0,0,0,.42,1,4.39,4.39,0,0,0,2.73,1.23.46.46,0,0,1,.35.31.42.42,0,0,1,0,.42,5,5,0,0,1-2.85,1,3.19,3.19,0,0,1-2.54-1.23"/><path id="Shape-24" d="M157.22,114.84a4.66,4.66,0,0,1-3.31-2.35,6.62,6.62,0,0,1-.88-3.31v-1.12a5.35,5.35,0,0,1,.92-2.58c.5-.77,1.15-1.27,1.58-1.92h0a.42.42,0,0,1,.69.46c-.54.77-1.15,1.27-1.58,1.92a4.73,4.73,0,0,0-.69,2.23,9,9,0,0,0,0,1,5.62,5.62,0,0,0,.77,2.89,3.85,3.85,0,0,0,2.69,2h.38a8.46,8.46,0,0,0,1.89-.31h0l-.65-.27a3.85,3.85,0,0,1-1.42-1.42,9.12,9.12,0,0,1-1-1.58.38.38,0,1,1,.54-.54,9,9,0,0,0,1,1.42,3.5,3.5,0,0,0,1.15,1.15,3.46,3.46,0,0,0,1.54.35h1.39a.42.42,0,0,1,.46.31.38.38,0,0,1-.27.46c-.92.31-1.81.58-2.77.81a8.93,8.93,0,0,1-2,.31H157"/><path id="Shape-25" d="M152.1,114.73a5.19,5.19,0,0,1-2-2.31,10.08,10.08,0,0,1-.58-3.12v-.65a4,4,0,0,1,.58-2.39,7.31,7.31,0,0,1,2.23-2.08c.88-.54,1.73-.77,2.46-1.19a2.73,2.73,0,0,0,1.31-1.92.38.38,0,0,1,.38-.39h0a.35.35,0,0,1,.38.42,3.35,3.35,0,0,1-1.69,2.62c-.88.5-1.73.77-2.46,1.15a6.35,6.35,0,0,0-2,1.85,3.31,3.31,0,0,0-.54,2,3.85,3.85,0,0,0,0,.62,9,9,0,0,0,.54,2.89,4.42,4.42,0,0,0,1.69,1.92A4.81,4.81,0,0,0,155,115h0c.69,0,1.85-.23,2.12-.65h0a.42.42,0,0,1,.65.5,3.85,3.85,0,0,1-2.73.92h0a6.46,6.46,0,0,1-3-1"/><path id="Shape-26" d="M160.22,126.12a.38.38,0,0,1,.3-.45h0a4.39,4.39,0,0,0,3.16-1.65,12.35,12.35,0,0,0,1.27-3.27,6.12,6.12,0,0,1-2.62,1.81,3.42,3.42,0,0,1-1.08,0,4.42,4.42,0,0,1-3.5-2,.38.38,0,0,1,0-.5.42.42,0,0,1,.5,0,3.85,3.85,0,0,0,1.65.42h.54a2.62,2.62,0,0,0,.81-.38h-.58a4.77,4.77,0,0,1-1.77-1.12,19.24,19.24,0,0,1-2.73-3.85.46.46,0,0,1,0-.5.38.38,0,0,1,.46,0,13.89,13.89,0,0,0,2.31,1,3.46,3.46,0,0,0,1.12,0h1a.4.4,0,0,1,0,.81h-1a4.31,4.31,0,0,1-1.31,0,10.89,10.89,0,0,1-1.19-.46,13.74,13.74,0,0,0,1.81,2.31,3.58,3.58,0,0,0,1.42.92h.81a1.31,1.31,0,0,1,.46,0,.48.48,0,0,1,.38.27h0c0,.42-.27.54-.42.73l-.38.35a3.46,3.46,0,0,1-1.31.69h-1.15a3.31,3.31,0,0,0,1.73.58h.85a8.85,8.85,0,0,0,3.35-2.77.38.38,0,0,1,.5,0,.42.42,0,0,1,0,.46,17.85,17.85,0,0,1-1.77,5,5,5,0,0,1-3.85,2h0s-.23,0-.27-.35"/><path id="Shape-27" d="M143.67,129.35a.46.46,0,0,1,0-.46,7.08,7.08,0,0,0,1.62-2.92,7.7,7.7,0,0,0,0-1.62,9.39,9.39,0,0,0-.23-2,.35.35,0,0,1,.21-.44l.1,0a.38.38,0,0,1,.46.29v0a10.47,10.47,0,0,1,.23,2.19,7.23,7.23,0,0,1-1.39,4.31,4.77,4.77,0,0,0,3-1.62,3.85,3.85,0,0,0,1-2.12h0a3.46,3.46,0,0,0,0-1v-.62a2.54,2.54,0,0,1-.31-.69.38.38,0,1,1,.77,0,.92.92,0,0,0,.27.54,4.19,4.19,0,0,1,0,.65,4.66,4.66,0,0,1,.23,1.27h0a4.42,4.42,0,0,1-1.15,2.58,6.43,6.43,0,0,1-4.46,1.73h-.23"/><path id="Shape-28" d="M138.94,132.23a.42.42,0,0,1-.27-.42.38.38,0,0,1,.38-.35,4.54,4.54,0,0,0,2.81-1,3,3,0,0,0,.81-2.19v-.35a6.46,6.46,0,0,0-1.15-3.19,25.7,25.7,0,0,0-2.58-2.81.38.38,0,0,1,0-.54l0,0a.42.42,0,0,1,.58,0,24,24,0,0,1,2.62,2.89,7.39,7.39,0,0,1,1.31,3.62v.42a3.85,3.85,0,0,1-1,2.77,5,5,0,0,1-1.54,1,5.69,5.69,0,0,0,1.12,0,4.85,4.85,0,0,0,1.81-.35,5.39,5.39,0,0,0,2.81-3.42.4.4,0,0,1,.81,0,6,6,0,0,1-3.27,3.85,5.19,5.19,0,0,1-2.12.42,9.62,9.62,0,0,1-3-.65"/><path id="Shape-29" d="M139,132.31a1.71,1.71,0,0,1-1.46-1.31h0a2.46,2.46,0,0,1,.35-1l.69-1.15a10.16,10.16,0,0,1,1.39-2.12l1-.88a9,9,0,0,0,1-.81.42.42,0,0,1,.65.5,10.7,10.7,0,0,1-1.12.92l-1,.81a10,10,0,0,0-1.27,2,11.54,11.54,0,0,0-.65,1.15,1.77,1.77,0,0,0-.27.69h0c0,.27.5.54,1,.73a.42.42,0,0,1,.23.54.46.46,0,0,1-.38.27h0"/><path id="Shape-30" d="M140.9,135.81v-.38a31.05,31.05,0,0,1,0-3.12c0-.23.27-.38.58-.38s.54,0,.54.42v3.42h0c0,.23-.27.42-.54.42s-.58,0-.58-.38"/><path id="Shape-31" d="M133.32,122.08a5.62,5.62,0,0,1-1.77-1.46.35.35,0,0,1,.5-.5,3.85,3.85,0,0,0,1.27.54.5.5,0,0,0,.38,0,2.39,2.39,0,0,0,.35-1.46h0a18.51,18.51,0,0,0-.23-2.46,7,7,0,0,1,0-1.27,9.85,9.85,0,0,1,0-1.54.4.4,0,1,1,.81,0,9.74,9.74,0,0,0,0,1.46v1.15a18,18,0,0,1,.27,2.58h0a3,3,0,0,1-.58,2,1.23,1.23,0,0,1-.73.38h0a3.85,3.85,0,0,0,1.5.54h.35c1.12-.35,1.89-2.12,2.42-3.35a.42.42,0,1,1,.77.31c-.54,1.19-1.19,3.19-2.92,3.85a1.62,1.62,0,0,1-.62,0,4.39,4.39,0,0,1-1.92-.65"/><path id="Shape-32" d="M131.63,126h0a3.62,3.62,0,0,1-2.5-.85,4.39,4.39,0,0,1-1.42-2.5.35.35,0,0,1,0-.38.42.42,0,0,1,.42,0,3.85,3.85,0,0,0,1.65.42,1.15,1.15,0,0,0,.88-.31,2.85,2.85,0,0,0,.81-2h0a7.43,7.43,0,0,0-1-2.92l-.69-1.35a6.77,6.77,0,0,0-.81-1.39.42.42,0,0,1,0-.58.38.38,0,0,1,.54,0l0,0a9.39,9.39,0,0,1,.92,1.54c.27.46.5,1,.73,1.39a8.43,8.43,0,0,1,1,3.23h0a3.46,3.46,0,0,1-1.08,2.58,2.12,2.12,0,0,1-1.42.54,3.85,3.85,0,0,1-1.15,0,3.85,3.85,0,0,0,1,1.31,3.27,3.27,0,0,0,2,.65h0a2.65,2.65,0,0,0,2.12-.81,2.42,2.42,0,0,0,.62-1.73v-.35h0a.4.4,0,0,1,.81,0v.42a3.46,3.46,0,0,1-.81,2.27,3.54,3.54,0,0,1-2.69,1Z"/><path id="Shape-33" d="M103.87,133.89a3.08,3.08,0,0,1-1.62-.65,2.23,2.23,0,0,1-.54-.69v-.27h0l-.27-.42a.31.31,0,0,1,0-.35h.27c.31,0,.35,0,.42.23h.62a2,2,0,0,0,1.19-.5c.77-.73.54-2.12.69-3.42a.38.38,0,0,1,.41-.35h0a.38.38,0,0,1,.35.41v0c0,1.08.23,2.73-.92,3.85a2.73,2.73,0,0,1-1.73.77h-.27a2.08,2.08,0,0,0,1.19.46h.35a3.27,3.27,0,0,0,2.42-1.12,8.66,8.66,0,0,0,1.65-2.85,5.73,5.73,0,0,0,.46-2.19,4.69,4.69,0,0,0,0-1.23.35.35,0,0,1,.15-.47l.12,0a.38.38,0,0,1,.49.24v0a5.27,5.27,0,0,1,.23,1.5,7,7,0,0,1-.54,2.5,9.73,9.73,0,0,1-1.81,3.12,4.16,4.16,0,0,1-3,1.39,1.77,1.77,0,0,0-.5,0"/><path id="Shape-34" d="M127,127.35a.38.38,0,0,1-.38-.42v-9.7a11.54,11.54,0,0,1,.27-1.58,2.89,2.89,0,0,1,.65-1.39.41.41,0,1,1,.58.58,2.89,2.89,0,0,0-.38.92,3,3,0,0,1-.27,1.5c-.27.54,0,2.12,0,3.19v6.62a.38.38,0,0,1-.38.39h0Z"/><path id="Shape-35" d="M132.56,139.89a5.69,5.69,0,0,1-1.81-1,3.23,3.23,0,0,1-.92-1.92,8.31,8.31,0,0,1,0-1.92v-2.73a.4.4,0,0,1,.81,0V135a9.16,9.16,0,0,0,0,1.77,2.65,2.65,0,0,0,.69,1.5,4.42,4.42,0,0,0,1.54.88h.58a5.5,5.5,0,0,1-.73-1.77,9.39,9.39,0,0,1-.27-2.31,15.93,15.93,0,0,1,0-2.35.4.4,0,0,1,.81,0,14.85,14.85,0,0,0,0,2.27,9.27,9.27,0,0,0,.23,2.08,4.81,4.81,0,0,0,.73,1.69.81.81,0,0,1,0,.42.62.62,0,0,1-.5.58,1.46,1.46,0,0,1-.58,0,3,3,0,0,1-.69,0"/><path id="Shape-36" d="M144.6,118.38a4.16,4.16,0,0,1-1.35-3.08,6.39,6.39,0,0,1,1-3.27h0a.35.35,0,0,1,.49-.05l.05.05a.38.38,0,0,1,0,.54,5.66,5.66,0,0,0-.88,2.85,3.15,3.15,0,0,0,.46,1.73,8,8,0,0,1,.73-2.81,5.77,5.77,0,0,1,1.23-1.62,5.66,5.66,0,0,1,.77-.62l.46-.27h0a.42.42,0,0,1,.69.46,1.89,1.89,0,0,1-.73.5,2.65,2.65,0,0,0-.65.54,4.66,4.66,0,0,0-1.08,1.39,6.77,6.77,0,0,0-.69,3.12v.35a.42.42,0,0,1-.23.38h-.23"/><path id="Shape-37" class="cls-3" d="M191.92,103.61c.73,2.5-1.77,4.31-3.85,4.39a7.7,7.7,0,0,1-3.85-1.08c-1.19-.65-2.35-1.39-3.54-2a9.43,9.43,0,0,0-7.35-1.31,8.62,8.62,0,0,0-3,1.92,9.85,9.85,0,0,0-2.31,2.85v.31h.88a.42.42,0,0,0,.42-.08,6.27,6.27,0,0,1,1.39-1.23,4.42,4.42,0,0,1,3.42-.62,20.43,20.43,0,0,1,6.89,3.85,12.77,12.77,0,0,0,6.73,2.73,7.7,7.7,0,0,0,5.81-2.31,7.43,7.43,0,0,0,1.31-7.7,4.54,4.54,0,0,0-2.92-2.85,3.85,3.85,0,0,0-3.85.77,3.54,3.54,0,0,1,3.85,2.31"/><path id="Shape-38" d="M174.3,106.26a20.55,20.55,0,0,1,7,3.85,12.77,12.77,0,0,0,6.5,2.65h0a7.39,7.39,0,0,0,5.39-2.19,7,7,0,0,0,1.27-7.08,4.12,4.12,0,0,0-2.69-2.62,4.58,4.58,0,0,0-1.27,0,3.23,3.23,0,0,0-1.35.27,3.54,3.54,0,0,1,3,2.54,2.85,2.85,0,0,1,0,1,4.46,4.46,0,0,1-4.5,3.85h0a8.08,8.08,0,0,1-3.85-1.12c-1.23-.65-2.39-1.39-3.54-2a11.12,11.12,0,0,0-5.16-1.58,5.54,5.54,0,0,0-1.89.31,9.12,9.12,0,0,0-2.89,1.85,10.43,10.43,0,0,0-2.12,2.58h.38a7.23,7.23,0,0,1,1.46-1.35,4.46,4.46,0,0,1,3-.88h1.12Zm13.51,7.31a13.24,13.24,0,0,1-6.93-2.77,20.7,20.7,0,0,0-6.73-3.85,4.35,4.35,0,0,0-1,0,3.85,3.85,0,0,0-2.15.65,5.89,5.89,0,0,0-1.31,1.19.88.88,0,0,1-.69.38h-1.15a.5.5,0,0,1-.27,0,.38.38,0,0,1,0-.35v-.35a11.31,11.31,0,0,1,2.39-3,9.62,9.62,0,0,1,3.16-2,7.12,7.12,0,0,1,2.12-.35,11.54,11.54,0,0,1,5.54,1.65c1.19.69,2.35,1.42,3.5,2a7.35,7.35,0,0,0,3.31,1h0c1.81,0,3.85-1.39,3.85-3.12a3,3,0,0,0,0-.77h0c-.23-1.35-1.89-2-3.31-2a.44.44,0,0,1-.35-.65,3.54,3.54,0,0,1,2.69-1.08,5.08,5.08,0,0,1,1.5.23,5,5,0,0,1,3.19,3.08,7.7,7.7,0,0,1,.54,2.77,7.46,7.46,0,0,1-1.92,5.12,8.08,8.08,0,0,1-5.93,2.46Z"/><path id="Shape-39" d="M159.83,95a.38.38,0,0,1,.24-.49h0a4.46,4.46,0,0,0,1.65-1h0a.42.42,0,0,1,.58,0,.38.38,0,0,1,0,.54l0,0a5.19,5.19,0,0,1-2,1.15h0A.31.31,0,0,1,160,95v0"/><path id="Shape-40" d="M162.61,99.26a.54.54,0,0,1,0-.23.38.38,0,0,1,0-.35h0a5.54,5.54,0,0,0,1.42-1h0a1,1,0,0,0,.23-.42h0a1.77,1.77,0,0,0,0-.65h0a1.92,1.92,0,0,0,0-.5h0a1.77,1.77,0,0,1-1.19.88.46.46,0,0,1-.5-.27.38.38,0,0,1,.22-.5h0a1.46,1.46,0,0,0,.77-.54v-.46h0a.38.38,0,0,1,0-.35H164a1.73,1.73,0,0,1,.62.58,2,2,0,0,1,.27,1h0a2.77,2.77,0,0,1,0,1,2.15,2.15,0,0,1-.5.77h0a6.73,6.73,0,0,1-1.5,1.08h-.23a.27.27,0,0,1-.38,0h0"/><path id="Shape-41" d="M163.76,95.34h.46v-.27l-.38.35m-5.23,1.46a.38.38,0,0,1,0-.35.42.42,0,0,1,.27,0l3.35-.65h0c.5-.38,1-.88,1.46-1.31s0-.23.5-.27.46.35.54.5a5.27,5.27,0,0,1,.23,1h0a.38.38,0,0,1-.31.38l-2.31.46a9.89,9.89,0,0,1-1.69.69,6.31,6.31,0,0,1-1.35.23.85.85,0,0,1-.88-.5"/><path id="Shape-42" d="M159.26,93.14a2.08,2.08,0,0,0-1.23.65,1.39,1.39,0,0,0-.42.73h.46a2.5,2.5,0,0,1,1.5-.5,14.81,14.81,0,0,1,1.85.5,5.16,5.16,0,0,0,3.5-.27,3.85,3.85,0,0,0,1.62-2.81,5.85,5.85,0,0,1-3.31,2.5c-1.39,0-2.65-.81-3.85-.62"/><path id="Shape-43" class="cls-2" d="M57.1,109.8a30.2,30.2,0,0,1,.27-5.19c0-.92.35-1.77.42-2.69a8.92,8.92,0,0,1,.31-2.5,16.47,16.47,0,0,0,.27-2,12.5,12.5,0,0,0,0-1.73,5.16,5.16,0,0,1,0-1c0-.73-.42-.85-.92-1.19a4.39,4.39,0,0,1-.69-.81,5.12,5.12,0,0,0-2.19-2c-.73-.31,0-2.69,0-3.35A31.67,31.67,0,0,0,53.83,84a3.58,3.58,0,0,0-1.23-2.39c-1.19-.73-2.42.42-3.35,1a8.85,8.85,0,0,1-1.23.88,8.58,8.58,0,0,1-2.46.31,7.7,7.7,0,0,0-5,3,7.39,7.39,0,0,0-2.65-.69H33.67a15.07,15.07,0,0,0-3.85.35,2.62,2.62,0,0,0-1.42.81c-.31.35-.42.58-.54.69l-.35.46H26.44a18.2,18.2,0,0,0-2.08,0,7.08,7.08,0,0,0-3.85,1.89,3.85,3.85,0,0,1-.42.42h-.27a2.92,2.92,0,0,0-1.89,2,2.46,2.46,0,0,0,0,.77,3.85,3.85,0,0,0,.35,1.65A1.42,1.42,0,0,0,19,96a7.7,7.7,0,0,0,0,.92v.46a6,6,0,0,0,.77,2.69,13,13,0,0,0,1,1.65,13.47,13.47,0,0,0-5.35,1.81c-1.27.69-2.39,1.42-3.5,2a6.81,6.81,0,0,1-2.85,1h0a3.85,3.85,0,0,1-1.92-.73,1.85,1.85,0,0,1-.81-1.39,1.19,1.19,0,0,1,0-.5h0a1.19,1.19,0,0,1,.69-.85,3.35,3.35,0,0,1,1.62-.38,1.42,1.42,0,0,0,1.27-.85,1.39,1.39,0,0,0,0-1.46A4.39,4.39,0,0,0,6.47,99a5.69,5.69,0,0,0-1.77.27,6,6,0,0,0-3.85,3.85A8.89,8.89,0,0,0,2.43,112a9.16,9.16,0,0,0,6.69,2.73h0a14.31,14.31,0,0,0,7.5-2.92,29.47,29.47,0,0,1,5.23-3.19,9.66,9.66,0,0,0-.23,1.54v.69A4.58,4.58,0,0,0,22.74,114a6.12,6.12,0,0,0,1.46,1.15l.58.35v2.27a1.35,1.35,0,0,0,.73,1.15,1.42,1.42,0,0,0,1.39,0c.65-.5,2.31-1,2.92-2.92a5.54,5.54,0,0,0,0-1.46V114a3.12,3.12,0,0,0,.62,0h2.12v.46a2.35,2.35,0,0,0,0,1,2.39,2.39,0,0,0,.46.73,3,3,0,0,0-1,1.23,1,1,0,0,0,0,.46h0a1.42,1.42,0,0,0-1.81-.08,1.39,1.39,0,0,0-.62,1.65,9.35,9.35,0,0,1,.69,3,2.19,2.19,0,0,1-.88,1.92,2,2,0,0,1-1,.42h-.27a2.77,2.77,0,0,1-.73-1.85,1.35,1.35,0,0,0-2.62-.5,9,9,0,0,0-.54,2.35v1.39a9.7,9.7,0,0,0,0,1,4.89,4.89,0,0,0,1.42,2.65,21.74,21.74,0,0,0-3,6v.31h0v.88h0a10.73,10.73,0,0,0,0,1.08h0a10.58,10.58,0,0,0,0,1.08h0a3.85,3.85,0,0,0,.27,1h0v.38a8.5,8.5,0,0,0,.73,1.19h0a4.54,4.54,0,0,0,1.69,1.69h.35a1.39,1.39,0,0,0,1.31,0,1,1,0,0,0,.5-.88,13.31,13.31,0,0,1-.54-3.85c0-.62,1.08-.92,1.54-1a1.46,1.46,0,0,1,1.62.85l.23.46c.65,1,0,2.27.62,3.31a3.85,3.85,0,0,0,.42.58,2.89,2.89,0,0,0,1.19.69l.85.38a4.85,4.85,0,0,0,1.42,0h.69a4.62,4.62,0,0,0,2.12.69l.62-.38a9.27,9.27,0,0,0,1-.73,14.5,14.5,0,0,0,1.12-1h0a1.08,1.08,0,0,1,.58,0h.38a6,6,0,0,0,2-.54l.73-.35a3.85,3.85,0,0,0,1.23,1.65,8,8,0,0,0,4.08,1.5,9.85,9.85,0,0,0,6.54-1.73,5.27,5.27,0,0,0,1.42-4.31A15.08,15.08,0,0,0,56.6,135a2.43,2.43,0,0,0-.27-1.35A9,9,0,0,1,56,132.5a16.74,16.74,0,0,1-.38-4.12,35.91,35.91,0,0,1,.54-4.5,84.65,84.65,0,0,0,.69-11.16,17.78,17.78,0,0,0,0-2.81Z"/><path id="Shape-44" class="cls-2" d="M64,142.85a10.39,10.39,0,0,1-.62-2.81s0-.65-.31-.5-.69.46-1.08.65a6.12,6.12,0,0,1-2.85.62,9.89,9.89,0,0,1-2.77-.73c-.27,0-.85-.62-1.08-.42s-.42.73-.69,1a4.27,4.27,0,0,1-2.08,1.23,6.23,6.23,0,0,1-1.42.35c-.42,0,.42-1.54.42-1.81,0,.46-.54.85-.88,1a5.66,5.66,0,0,1-1.46.69,3.08,3.08,0,0,1-1.54,0,2.65,2.65,0,0,1-1.15-.58,2.58,2.58,0,0,1-.73-1.46.62.62,0,0,0-.27-.62h-.65c-.19,0-.38.35-.58.46a1.62,1.62,0,0,1-.73.27,7.09,7.09,0,0,0-1.62.38,11.93,11.93,0,0,0-1.54.54c-.23,0-.35.27-.5.46l-.65.54c-.5.35-.92.73-1.35,1.08a3.85,3.85,0,0,1-1.58.58,6.46,6.46,0,0,1-1.89,0c-.46,0-1.08,0-1.39-.38a2.42,2.42,0,0,1-.54-1.31,3,3,0,0,1,0-.85,4.12,4.12,0,0,1,0-.69c1.12,1.46,3,.46,4.16-.35a3,3,0,0,0,1.27-1.5,4.54,4.54,0,0,1,.5-1c0-.23.38-.46.38-.73s-.35.35-.5.5a2.39,2.39,0,0,1-1,.54,7.7,7.7,0,0,1-2.27.54,1.31,1.31,0,0,1-.65,0c-.31,0,0-.54,0-.69l.58-1s.42-.42.31-.65-.5.5-.81.73a3.12,3.12,0,0,1-1,.38,20,20,0,0,1-2.65.54H28.4c-.23,0,0-.54,0-.69a1.89,1.89,0,0,0,.42-1H28.4l-.46.27a4.77,4.77,0,0,0-.85.69,5,5,0,0,0-1.19,1.69,4.39,4.39,0,0,0,0,2.23,6.39,6.39,0,0,1,.35,2.08c-.27,0-.42-.35-.65-.5a3.42,3.42,0,0,1-.65-.62,5.46,5.46,0,0,1-.85-1.5,6.19,6.19,0,0,1,0-3.85,22.16,22.16,0,0,1,3.85-7,3.54,3.54,0,0,1-2-2.54,7,7,0,0,1,0-2,6.73,6.73,0,0,1,.42-2A4.27,4.27,0,0,0,27.51,126a2.46,2.46,0,0,0,3-.27c2.19-1.54,1.46-4.5.69-6.58l1.39,1.58q.31-.67.69-1.31a3.46,3.46,0,0,1,.42-.62v-.5a2.42,2.42,0,0,1,1-.88l1.15-1a2.23,2.23,0,0,1-1.46-1,1.73,1.73,0,0,1,.31-1.73,4.85,4.85,0,0,0-1.73-.65H30.63a5.69,5.69,0,0,1-.46-.54.41.41,0,0,0-.35-.38c-.35-.08-.42.31-.5.38-.85,1-.35,2.12-.65,3.23s-1.42,1.54-2.27,2V116a5.77,5.77,0,0,0,0-1.39s-.38-.27-.54-.35l-.73-.31A5.62,5.62,0,0,1,24,113a3.39,3.39,0,0,1-.85-2.89,12.77,12.77,0,0,1,.69-3.12,5,5,0,0,0,.46,1,1.89,1.89,0,0,0,1.35,1,7.08,7.08,0,0,0,1.77,0h1.81c.12,0,1,.77,1.54,1.12s2,1.39,2,0a6.81,6.81,0,0,0-1.23-3.58c-.69-1.08-1.58-2-2.27-3a4.39,4.39,0,0,0-1.19-1.42,11.24,11.24,0,0,0-1.58-1c-.85-.5-2.27-.88-2.89,0a2.69,2.69,0,0,0,.27,2.46,23.32,23.32,0,0,1-3-3.85,4.23,4.23,0,0,1-.62-2.35,4.73,4.73,0,0,1,.88-2.15h-1.5a2.77,2.77,0,0,1,0-1.58,1.54,1.54,0,0,1,1-1,1.39,1.39,0,0,0,.69-.31l.46-.46a5.62,5.62,0,0,1,3.08-1.5,11.74,11.74,0,0,1,3.46,0c.27,0,.31,0,.46-.31l.58-.77c.31-.42.5-.88,1.08-1,1.19,0,2.42-.27,3.62-.35a31.24,31.24,0,0,1,3.85,0,5.19,5.19,0,0,1,3.12,1.15,7.2,7.2,0,0,1,4.85-3.58,8.7,8.7,0,0,0,3-.46,11.23,11.23,0,0,0,1.19-1.15l1.31-1a13.7,13.7,0,0,1-.31,9.81,2.19,2.19,0,0,1,1.81-.73,2.39,2.39,0,0,1,1.46.92,31.09,31.09,0,0,0,2.89,3.12,4.19,4.19,0,0,0,3.27,1.39,3.85,3.85,0,0,0,2.89-2A7,7,0,0,1,64,97.84a3.35,3.35,0,0,1-.62,2c0,.31-.46.62-.69.88s.46.62.5.69a20.43,20.43,0,0,1,1.35,1.85c.81,1.23,1.15,2.73,1.92,3.85a2.15,2.15,0,0,0,1.42,1.15,1.73,1.73,0,0,0,1.58-.73,3.85,3.85,0,0,1-.42,2.81c-.77,1-2.12.54-3,0a3.85,3.85,0,0,1,1.27,2.85c0,.54,0,1.12.62,1.39s1,0,1.23.54a3.85,3.85,0,0,1,.27,1.31,15.39,15.39,0,0,1,.23,1.89,18.69,18.69,0,0,0,.27,3.85,5.17,5.17,0,0,1,0,2.08v1.92a6.89,6.89,0,0,0,.54,3.62,2.42,2.42,0,0,0,3.08.85s.69-.46.77-.38,0,.38,0,.42a6.66,6.66,0,0,1-.38,1.73,2.58,2.58,0,0,1-2.69,1.42c-.23,0-.46,0-.54.23a3.11,3.11,0,0,0,0,.85,16.6,16.6,0,0,1-.38,1.92,6.93,6.93,0,0,0-.65,3.58c.35,1.08,1.85.81,2.62.42,0,1.58-1.12,3.35-2.89,3a2.23,2.23,0,0,0,2.65.38,3.23,3.23,0,0,0,1.62-2.31c0,2.77-.88,6.69-4.35,6.54-2.58-.31-4.5-3.12-5.39-5.46"/><path id="Shape-45" d="M69.57,147.82h.23A3.08,3.08,0,0,0,72.65,146a8,8,0,0,0,.77-2.39,3.23,3.23,0,0,1-1,.77,2.92,2.92,0,0,1-1.27.31,2.39,2.39,0,0,1-1.85-.81.38.38,0,0,1,.38-.65h.42a2.23,2.23,0,0,0,2-2,4.12,4.12,0,0,1-1,0,1.5,1.5,0,0,1-1.58-1,3.16,3.16,0,0,1,0-.85,11.54,11.54,0,0,1,.77-3,11.72,11.72,0,0,1,.38-1.89,4.66,4.66,0,0,1,0-.92.77.77,0,0,1,.88-.5h0a2.15,2.15,0,0,0,2.27-1.19,6.19,6.19,0,0,0,.31-1.31h0a3,3,0,0,1-1.23.27,2.69,2.69,0,0,1-2.31-1.23,5.89,5.89,0,0,1-.62-2.85v-.92h0V124a18.47,18.47,0,0,1,0-2.08V119a7,7,0,0,1,0-1v-2.58a1.46,1.46,0,0,0,0-.69h-.54a1.42,1.42,0,0,1-.92-.35,2.15,2.15,0,0,1-.62-1.65,3.16,3.16,0,0,0-1-2.35h0a.42.42,0,0,1,0-.58.46.46,0,0,1,.58,0h0a2.54,2.54,0,0,0,1.39.54,1.08,1.08,0,0,0,.88-.42,2.42,2.42,0,0,0-.46-1.35v-.27a2.27,2.27,0,0,1-1.12.31H68a2.62,2.62,0,0,1-1.73-1.35c-.85-1.35-1.19-2.81-1.92-3.85s-.88-1.19-1.31-1.77l-.27-.31a1.18,1.18,0,0,1-.35-.62.65.65,0,0,1,0-.27l.65-.88A3,3,0,0,0,63.61,98h0a5.46,5.46,0,0,0-.35-1.5A4.69,4.69,0,0,1,60.49,98H60a4.81,4.81,0,0,1-3.12-1.54A32.24,32.24,0,0,1,54,93.3a2.35,2.35,0,0,0-1.23-.81h0a2,2,0,0,0-1.27.62.42.42,0,0,1-.65-.5,8.46,8.46,0,0,0,1-4.27,24.59,24.59,0,0,0-.62-4.66l-.85.65a15.16,15.16,0,0,1-1.42,1,8.54,8.54,0,0,1-3.08.54,6.77,6.77,0,0,0-4.58,3.39.46.46,0,0,1-.27,0,.42.42,0,0,1-.31,0,4.58,4.58,0,0,0-2.89-1.08H34.25a12.43,12.43,0,0,0-3.58.35c-.31,0-.46.31-.81.81l-.58.77a.92.92,0,0,1-.69.5h0a10.47,10.47,0,0,0-1.54,0,9.27,9.27,0,0,0-1.77,0A5.12,5.12,0,0,0,22.44,92a2.77,2.77,0,0,0-.42.46,1.65,1.65,0,0,1-.85.42,1.19,1.19,0,0,0-.81.73,1.15,1.15,0,0,0,0,.35,3.23,3.23,0,0,0,0,.88h1.19a.35.35,0,0,1,.31.23.46.46,0,0,1,0,.38,4.42,4.42,0,0,0-.81,2v.27a3.85,3.85,0,0,0,.58,1.85,12.74,12.74,0,0,0,1.81,2.54,2,2,0,0,1,.27-1,1.77,1.77,0,0,1,1.58-.88,4.23,4.23,0,0,1,1.85.54,16.43,16.43,0,0,1,1.58,1A5.12,5.12,0,0,1,30,103.34c.65,1,1.54,1.92,2.27,3a7.23,7.23,0,0,1,1.27,3.85h0a.92.92,0,0,1-.27.69.85.85,0,0,1-.62.27,4.27,4.27,0,0,1-1.85-1.08c-.54-.35-1-.77-1.5-1.08H25.9a2.15,2.15,0,0,1-1.65-1.19h0a12,12,0,0,0-.35,2v.58a2.65,2.65,0,0,0,.65,1.92,5.73,5.73,0,0,0,1.08.88l.65.35a.91.91,0,0,1,.77.62,2.12,2.12,0,0,1,0,.69v1.81c.69-.42,1.35-.92,1.46-1.46a4.81,4.81,0,0,0,0-1h0a2.81,2.81,0,0,1,.65-2.15l.23-.27s0-.23.54-.31h.23a3,3,0,0,1,.42.46l.38.46h2.19a5.31,5.31,0,0,1,1.85.69.35.35,0,0,1,.23.35.38.38,0,0,1,0,.38,1.42,1.42,0,0,0-.58.92,2,2,0,0,0,0,.31c0,.38.69.65,1.19.81a.5.5,0,0,1,.27.65L35,117.58a2.54,2.54,0,0,0-.81.81h0a.62.62,0,0,1,0,.46l-.42.62c-.23.42-.42.88-.65,1.31a.58.58,0,0,1-.31.23.54.54,0,0,1-.35,0h0a7.7,7.7,0,0,1,.23,1.89,3.85,3.85,0,0,1-1.62,3.39A3.54,3.54,0,0,1,29,127a2.35,2.35,0,0,1-1.42-.5,3.5,3.5,0,0,1-1-1.31.46.46,0,0,1,0,.23v1.19a2.31,2.31,0,0,0,0,.73,3.16,3.16,0,0,0,1.81,2.27.51.51,0,0,1,.23.62,21.28,21.28,0,0,0-4,6.81,6.58,6.58,0,0,0-.23,1.69,4.89,4.89,0,0,0,.38,2,10.93,10.93,0,0,0,1,1.5v-2.81a5.81,5.81,0,0,1,0-1.12,3.12,3.12,0,0,1,1.42-1.92l1.08-.62a1.7,1.7,0,0,1,1-.5h0a.31.31,0,0,1,.27,0,.42.42,0,0,1,0,.31c0,.73-.77.88-.92,1.08a4.62,4.62,0,0,0-.38.62h2.54a3.85,3.85,0,0,0,1,0,8.27,8.27,0,0,0,1.54-.73l.81-.5s.23-.23.54-.5h.38a.54.54,0,0,1,.5.46h0a1.54,1.54,0,0,1,0,.58,10.62,10.62,0,0,1-.81,1.42l-.12.15h0a11.85,11.85,0,0,0,1.5,0h.38a.86.86,0,0,1,.38-.65,9.45,9.45,0,0,0,1-1.27c.23-.23,0,0,.31,0a.31.31,0,0,1,.27,0h0a.85.85,0,0,1,0,.5q0,.17,0,.35a7.2,7.2,0,0,1,0,.88,3.19,3.19,0,0,1-1,1.62,4.66,4.66,0,0,1-1.5,1,7,7,0,0,1-1.92.69h-.58a2,2,0,0,1-1.12-.27,3.85,3.85,0,0,0,.31,1.08c.23.5.58.62,1.15.92a4.19,4.19,0,0,0,1.58.38h.35A2.54,2.54,0,0,0,37.1,143a5.85,5.85,0,0,0,1.19-1l.69-.5c.23,0,.42-.38.73-.62,1.19-.92,2.62-.42,3.39-1a3.85,3.85,0,0,1,1.54-.81H45a.77.77,0,0,1,.69.35,1.44,1.44,0,0,0,.35.73,4.5,4.5,0,0,0,.85,1c.35.42.62.73.92.69h0a5,5,0,0,0,1.46-.58,8.27,8.27,0,0,1,.88-.27h.73a.46.46,0,0,1,.38,0,.35.35,0,0,1,.27.31h0a1.27,1.27,0,0,1,0,.58l1.12-.38a1.58,1.58,0,0,0,.88-.38c.31-.35.54-.38.62-.5l.73-1a.92.92,0,0,1,.73-.46.69.69,0,0,1,.62.35,1.49,1.49,0,0,1,.92.42,4.46,4.46,0,0,0,2.15.54,6.46,6.46,0,0,0,2.58-.58,5.35,5.35,0,0,0,.92-.54.69.69,0,0,1,.42,0,.62.62,0,0,1,.58.54,1.77,1.77,0,0,1,0,.38,12.08,12.08,0,0,0,.62,2.69h0c1,2.31,2.92,5,5.43,5.08Zm0,.81c-3.08,0-5-3.19-5.93-5.58a15.39,15.39,0,0,1-.65-2.81h0l-.81.46a7.7,7.7,0,0,1-2.92.65,5.23,5.23,0,0,1-2.54-.62,1.49,1.49,0,0,1-1.12-.58h0c-.23.31-.46.69-.73,1a3.08,3.08,0,0,1-.62.5,2.08,2.08,0,0,1-1.27.65,11.54,11.54,0,0,0-1.23.42,2.27,2.27,0,0,1-.58,0,.5.5,0,0,1-.31,0,.54.54,0,0,1-.27-.42.58.58,0,0,1,0-.31l-.81.23a4.73,4.73,0,0,1-1.77.65h0a2,2,0,0,1-1.5-1,6.73,6.73,0,0,1-1-1.19.59.59,0,0,0-.27-.62H45c-.46,0-.73.35-1.27.69-1.27.77-2.62.31-3.35,1s-.42.42-.77.65a2.42,2.42,0,0,0-.58.42A5.58,5.58,0,0,1,37.63,144a3.54,3.54,0,0,1-1.62.46h-.38a5.16,5.16,0,0,1-1.89-.46,2.77,2.77,0,0,1-1.5-1.27,5,5,0,0,1-.54-1.81h0a.77.77,0,0,1,0-.27.42.42,0,0,1,.46-.31h0a1.46,1.46,0,0,1,.54.38,1.08,1.08,0,0,0,.77.23h.42a6.73,6.73,0,0,0,1.69-.62,3.23,3.23,0,0,0,1.23-.88,2.58,2.58,0,0,0,.77-1.27v-.31h0a7.7,7.7,0,0,1-.42.73.81.81,0,0,1-.81.31h-2a.69.69,0,0,1-.69-.65c0-.58.5-.81.58-1a3.46,3.46,0,0,0,.38-.62L34,137a8.54,8.54,0,0,1-1.69.77,3.58,3.58,0,0,1-1.27,0H28.82a2.12,2.12,0,0,1-.69,0,.73.73,0,0,1-.5-.69,1.19,1.19,0,0,1,0-.58h0A2.27,2.27,0,0,0,26.51,138a3.85,3.85,0,0,0,0,.92v3a5,5,0,0,1,.23,1.08h0a.25.25,0,0,1-.38.31A3.12,3.12,0,0,1,25.09,142a14.89,14.89,0,0,1-1-1.12,5.93,5.93,0,0,1-.46-2.27,6.77,6.77,0,0,1,.27-1.92,21.12,21.12,0,0,1,3.54-6.93,3.85,3.85,0,0,1-1.81-2.62,5.66,5.66,0,0,1,0-.85q0-.63,0-1.27a6.5,6.5,0,0,1,.46-2,.38.38,0,0,1,.42-.23.46.46,0,0,1,.35.35,3.58,3.58,0,0,0,1.08,2.54,1.31,1.31,0,0,0,.92.31,3.12,3.12,0,0,0,1.54-.46,3,3,0,0,0,1.27-2.73,10.81,10.81,0,0,0-.81-3.42.42.42,0,0,1,0-.5.35.35,0,0,1,.49,0h0l1,1.12a7.7,7.7,0,0,1,.42-.85l.42-.65h0a1,1,0,0,1,0-.38,3.16,3.16,0,0,1,1-1.08l.69-.62a2,2,0,0,1-1.12-1,1.69,1.69,0,0,1,0-.65,2.81,2.81,0,0,1,.23-1.08,2.69,2.69,0,0,0-1.12-.38h-2a.81.81,0,0,1-.46,0,3.46,3.46,0,0,1-.54-.58h0a2.27,2.27,0,0,0-.42,1.65h0a4.77,4.77,0,0,1,0,1.23c-.35,1.27-1.65,1.81-2.46,2.31a.35.35,0,0,1-.38,0,.38.38,0,0,1,0-.35V115a1.58,1.58,0,0,0,0-.42h-.31l-.69-.38a6.35,6.35,0,0,1-1.27-1,3.46,3.46,0,0,1-.88-2.5,3.23,3.23,0,0,1,0-.62,13.47,13.47,0,0,1,.69-3.23.41.41,0,0,1,.77,0,7.7,7.7,0,0,0,.42,1,1.46,1.46,0,0,0,1.08.85h2.85a2.31,2.31,0,0,1,.62,0,.58.58,0,0,1,.38,0l1.5,1.12a4.58,4.58,0,0,0,1.39.69h0a6.89,6.89,0,0,0-1.19-3.27c-.65-1-1.54-1.92-2.27-3a4.69,4.69,0,0,0-1.69-1.77,17.41,17.41,0,0,0-1.54-1A2.89,2.89,0,0,0,25,101a1,1,0,0,0-.92.46,1.12,1.12,0,0,0,0,.62,3.31,3.31,0,0,0,.42,1.42.38.38,0,1,1-.54.54,25.66,25.66,0,0,1-3.08-3.85A4.81,4.81,0,0,1,20.2,98v-.35a4.77,4.77,0,0,1,.62-1.77h-.73a.77.77,0,0,1-.77-.38A3.5,3.5,0,0,1,19,94.18a2.77,2.77,0,0,1,0-.54,1.85,1.85,0,0,1,1.27-1.27h.54a3.16,3.16,0,0,1,.5-.5,6.23,6.23,0,0,1,3.27-1.62,10.81,10.81,0,0,1,1.92,0,11.85,11.85,0,0,1,1.62,0h0l.58-.81a2.12,2.12,0,0,1,1.31-1.08c1.19,0,2.46-.27,3.85-.35h3.81a5.62,5.62,0,0,1,3,1A7.35,7.35,0,0,1,45.6,85.6a8.81,8.81,0,0,0,2.81-.42,9,9,0,0,0,1.31-1l1.31-1a.35.35,0,0,1,.38,0,.42.42,0,0,1,.27.31,26,26,0,0,1,.77,5.43,9.81,9.81,0,0,1-.58,3.42,2.12,2.12,0,0,1,.69,0h.27a2.92,2.92,0,0,1,1.73,1.08,26.93,26.93,0,0,0,2.85,3A4.12,4.12,0,0,0,60,97.8h.35A3.85,3.85,0,0,0,63,96.07a.38.38,0,0,1,.38-.23.5.5,0,0,1,.38.23,6.85,6.85,0,0,1,.69,2.5h0a3.85,3.85,0,0,1-.69,2l-.54.73h0l.31.31a17.31,17.31,0,0,1,1.39,1.89c.88,1.31,1.23,2.81,1.92,3.85a1.77,1.77,0,0,0,1.15,1h0a1.42,1.42,0,0,0,1.12-.58.54.54,0,0,1,.73.35v1.12a3.19,3.19,0,0,1-.58,2,1.69,1.69,0,0,1-1.46.73h-.5a4.89,4.89,0,0,1,.35,1.62c0,.5,0,.92.31,1.08a.46.46,0,0,0,.38,0h.46a.92.92,0,0,1,.62.23,1.62,1.62,0,0,1,.38,1.23v2.58a7.16,7.16,0,0,0,0,1v2.92a18.08,18.08,0,0,0,0,2v1.89h0v.92a4.69,4.69,0,0,0,.46,2.42,1.92,1.92,0,0,0,1.62.88,2.69,2.69,0,0,0,.92,0h.31a1.12,1.12,0,0,1,.58-.23.38.38,0,0,1,.23,0c.27.23,0,.35,0,.42v.38h0a6.5,6.5,0,0,1-.38,1.81,3,3,0,0,1-3,1.65h-.23v.73a16.6,16.6,0,0,1-.38,1.92,12.24,12.24,0,0,0-.73,2.81,3.85,3.85,0,0,0,0,.62c0,.35.35.46.85.5a3.31,3.31,0,0,0,1.27-.31h.38a.38.38,0,0,1,0,.31v-.42a3.27,3.27,0,0,1-1.81,3h0a1.92,1.92,0,0,0,1-.23,2.81,2.81,0,0,0,1.42-2,.41.41,0,0,1,.81,0v.5c1.23,2.54.12,6.39-3.27,6.39h-.23Z"/><path id="Shape-46" d="M34.33,144.2a3.85,3.85,0,0,1-2.54-3.85h0A.31.31,0,0,1,32,140a.42.42,0,0,1,.42,0,2.35,2.35,0,0,0,1.54.69,2,2,0,0,0,.65,0,7.7,7.7,0,0,0,2.27-1.15,4.12,4.12,0,0,0,1-1.54l-.38.42a3,3,0,0,1-2.19.85,4.62,4.62,0,0,1-1.62-.31.31.31,0,0,1-.23-.27.35.35,0,0,1,0-.35L34.67,137a5.12,5.12,0,0,1-2.19,1,14.08,14.08,0,0,1-2.12.23H28a.38.38,0,0,1-.31,0,.35.35,0,0,1,0-.35,5.62,5.62,0,0,1,.38-.88A4.89,4.89,0,0,0,26.75,139a4.5,4.5,0,0,0-.27,1.58,8.89,8.89,0,0,0,.77,3.23.35.35,0,1,1-.5.5l-.92-.88h0a.42.42,0,0,1,0-.58.38.38,0,0,1,.35,0,7.7,7.7,0,0,1-.31-2.12,4.66,4.66,0,0,1,.35-1.89,8,8,0,0,1,2.92-3.31,12.35,12.35,0,0,0,3.31-3.27L33.56,130a.38.38,0,0,1,.5,0c.35,0,.23.38.27.42a9.7,9.7,0,0,1-2,3.85c-.69.77-1.5,1.23-2.12,1.85a5.81,5.81,0,0,0-1.23,1.65h1.58a17.74,17.74,0,0,0,2,0,4.39,4.39,0,0,0,2.89-2A11.54,11.54,0,0,0,37,129.35v-2.54a.38.38,0,0,1,.38-.38h0a.42.42,0,0,1,.42.38v.88a12.31,12.31,0,0,1,0,1.65v.88a12.77,12.77,0,0,1-.31,3.16,8.39,8.39,0,0,1-1.23,2.77A19.62,19.62,0,0,1,34.71,138a2.62,2.62,0,0,0,.77,0,2.27,2.27,0,0,0,1.62-.62,10,10,0,0,0,2-3.5.38.38,0,0,1,.49-.23h0a.38.38,0,0,1,.27.46,18.47,18.47,0,0,1-.92,3.19,5.5,5.5,0,0,1-1.42,2.35A7.7,7.7,0,0,1,35,141a3.85,3.85,0,0,1-.88,0,2.85,2.85,0,0,1-1.35-.38,2.89,2.89,0,0,0,2.89,2.62,5,5,0,0,0,3-1.23,9.58,9.58,0,0,0,2.73-3.42,11.24,11.24,0,0,0,.77-2.27l.35-1.92a.4.4,0,0,1,.81,0h0a18.2,18.2,0,0,1-.35,1.92l-.23,1.35A10.23,10.23,0,0,1,41.9,140a4.35,4.35,0,0,0,2.85-1.19,7.2,7.2,0,0,0,1.31-3.62c0-.85.23-1.62.27-2.46v-1.23a4.66,4.66,0,0,0,0-.73A11.54,11.54,0,0,0,45,127.35l-.31-.58a.38.38,0,0,1,0-.54.42.42,0,0,1,.31,0h0a6.08,6.08,0,0,0,.38.69,11.74,11.74,0,0,1,1.39,3.58,5.19,5.19,0,0,1,0,.77v2.92a6,6,0,0,0,1-1.65,9.54,9.54,0,0,0,.5-2.81v-.38h0v-.85a4,4,0,0,0-.23-1.54h0a16.93,16.93,0,0,0-1-2.73.35.35,0,0,1,0-.49h0a.42.42,0,0,1,.54,0,4.46,4.46,0,0,1,.69,1.42,5.74,5.74,0,0,0,.5,1.5,37.13,37.13,0,0,1,1.23,7,14.16,14.16,0,0,1,0,1.85,3.85,3.85,0,0,1-.62,2.39,4.19,4.19,0,0,1-3.5,1.54h0a2.23,2.23,0,0,0,.81,1.39,1.89,1.89,0,0,0,1.12.31,4.58,4.58,0,0,0,1.27,0,4.42,4.42,0,0,0,2.08-1.62,3.5,3.5,0,0,0,.5-1.12l.69-1.54a.38.38,0,0,1,.49-.23h0a.38.38,0,0,1,.23.49h0c-.31.92-.54,1.89-.88,2.85a4,4,0,0,1-.81,1.35,4.46,4.46,0,0,0,2.39-1,4.73,4.73,0,0,0,1.31-3,.4.4,0,0,1,.81,0,5.77,5.77,0,0,1-1.54,3.5,6.12,6.12,0,0,1-4.08,1.39.48.48,0,0,1-.38-.69l-.77.35a6,6,0,0,1-1.5.23,2.77,2.77,0,0,1-1.58-.46,3.35,3.35,0,0,1-1.19-2.42.62.62,0,0,1,0-.35.46.46,0,0,1,.35,0h1A3.5,3.5,0,0,0,49,137.66a3.58,3.58,0,0,0,.5-2,14.12,14.12,0,0,0,0-1.77,7.22,7.22,0,0,0-.35-2.69,6.46,6.46,0,0,1-.42,1.62A7.7,7.7,0,0,1,47,135.51a.35.35,0,0,1-.38,0,6.81,6.81,0,0,1-1.39,3.58,6.16,6.16,0,0,1-4.08,1.58.54.54,0,0,1-.35,0,12.27,12.27,0,0,1-1.69,1.73,5.43,5.43,0,0,1-3.5,1.42l-1.15-.27"/><path id="Shape-47" d="M57.26,140.2a7.16,7.16,0,0,1-1.81-.27.4.4,0,0,1,.23-.77h0a5.85,5.85,0,0,0,1.58.27,2.69,2.69,0,0,0,2-.81,3.27,3.27,0,0,0,.81-1.85v.38a2.46,2.46,0,0,1-2.35,1.42h-.42a3.85,3.85,0,0,1-2.19-.58,4.62,4.62,0,0,1-1.58-2.23.35.35,0,0,1,0-.38.42.42,0,0,1,.38,0,13.08,13.08,0,0,0,2.42.23h.31a2.92,2.92,0,0,0,2-.62,3.58,3.58,0,0,0,.81-2,1.85,1.85,0,0,0,0-.46,4.23,4.23,0,0,0-.5-1.73,14.51,14.51,0,0,1-1-2.42,16.31,16.31,0,0,1-.19-2.92v-5.93h0a.4.4,0,0,1,.81,0v5.89a14.39,14.39,0,0,0,.27,2.54,14.24,14.24,0,0,0,.92,2.23,4.66,4.66,0,0,1,.58,2.08,3.39,3.39,0,0,1,0,.65,4.31,4.31,0,0,1-1,2.39,3.85,3.85,0,0,1-2.46.81h-.35a14.66,14.66,0,0,1-1.85,0,3.54,3.54,0,0,0,1,1.19,3.23,3.23,0,0,0,1.73.42h.38a1.56,1.56,0,0,0,1.65-1,14.66,14.66,0,0,0,.77-2.58.42.42,0,0,1,.42-.31.38.38,0,0,1,.38.35A12.93,12.93,0,0,1,61,136,4.35,4.35,0,0,1,60,139.12a3.27,3.27,0,0,1-2.54,1Z"/><path id="Shape-48" d="M22.78,94.49a.35.35,0,0,1-.23-.54l.58-1.23a.5.5,0,0,1,.62,0,.35.35,0,0,1,.23.54l-.65,1.23a.5.5,0,0,1-.19.23h0"/><path id="Shape-49" d="M24.51,94.37a.38.38,0,0,1-.28-.47v0a6.27,6.27,0,0,1,.31-1,2.39,2.39,0,0,1,.81-.85.41.41,0,0,1,.54.62h0c-.27.23-.62.46-.62.54a1.27,1.27,0,0,1-.31.88.38.38,0,0,1-.38.27h0"/><path id="Shape-50" d="M35.17,107.53A20.76,20.76,0,0,1,33.56,106a10.31,10.31,0,0,1-1.23-2c-.35-.69-.77-1.31-1.12-2.08a7.89,7.89,0,0,1-.38-2.39,7.7,7.7,0,0,0-.88-3.85,3.39,3.39,0,0,0-1.39-.92,5.19,5.19,0,0,1-1-.42,3.35,3.35,0,0,0-.88-.54.38.38,0,0,1-.23-.49h0a.35.35,0,0,1,.5-.38,5,5,0,0,1,1,.62,2.65,2.65,0,0,1,.85.38A3.85,3.85,0,0,1,30.48,95a7.93,7.93,0,0,1,1.08,4.42,6.54,6.54,0,0,0,.46,2.15c.27.69.73,1.31,1.08,2a7.7,7.7,0,0,0,1.12,1.81c.46.54,1,1,1.54,1.54a.46.46,0,0,1,0,.58.42.42,0,0,1-.31,0,.42.42,0,0,1-.27,0"/><path id="Shape-51" d="M35.09,109.69c-.38-.77-.92-1.46-1.35-2.31a6.58,6.58,0,0,0-.69-1.12,4.85,4.85,0,0,0-.46-.46s-.31,0-.46-.46a.38.38,0,0,1,.54-.54h0l.23.23a5.52,5.52,0,0,1,.5.5,8,8,0,0,1,.77,1.15c.42.77,1,1.46,1.42,2.35a.42.42,0,0,1,0,.54h0a1,1,0,0,1-.31-.27"/><path id="Shape-52" d="M42.67,91.45h0a.51.51,0,0,1,.08-1h.31a4.89,4.89,0,0,0,1.5,0c.46,0,.62-.5.88-1a4.46,4.46,0,0,1,1-1.58,8.66,8.66,0,0,1,1.69-1.19.38.38,0,0,1,.54.54,9.7,9.7,0,0,0-1.54,1.08,3.35,3.35,0,0,0-.81,1.27A2.35,2.35,0,0,1,45,91.07a5.08,5.08,0,0,1-1.81.27h-.27"/><path id="Shape-53" d="M49.52,108.07a8.2,8.2,0,0,0-3.85-4.89c-1-.62-2-1.08-3.08-1.81a7.31,7.31,0,0,1-1.92-3,.38.38,0,0,1,0-.54.42.42,0,0,1,.54,0,6.46,6.46,0,0,0,1.65,2.69c1,.65,2,1.12,3,1.77a9.12,9.12,0,0,1,2.46,2.08,9.89,9.89,0,0,1,1.19,1.92,14.85,14.85,0,0,0,.5-2.39,8.77,8.77,0,0,0,0-1,6,6,0,0,0-2-3.46,13.49,13.49,0,0,0-1.54-1c-.54-.31-1.5-.69-2.31-1.08a7,7,0,0,1-1.73-1.12l-.65-.65v-.42h.23c.46,0,.46.23.73.42l.46.42h0a15.39,15.39,0,0,0,1.65,1l2,1.08.54.31-.81-1.77a.4.4,0,0,1,.62-.5,16.58,16.58,0,0,1,2,1.73,3.27,3.27,0,0,0-.42-1.58,4,4,0,0,0-2.19-1.5.5.5,0,1,1-.46-.88.38.38,0,0,1,.42-.31H49a1.31,1.31,0,0,0,.58,0,1.42,1.42,0,0,0,.65-.69h0a1.46,1.46,0,0,1,.23-.42h.62a.38.38,0,0,1,0,.54l0,0h0a1.73,1.73,0,0,1,0,.38,2,2,0,0,1-1.12,1,2.85,2.85,0,0,1-.81,0h-.65a4.35,4.35,0,0,1,.92,1A4.77,4.77,0,0,1,50,97.88,9.16,9.16,0,0,1,50,99a.38.38,0,0,1-.38.35.42.42,0,0,1-.42-.31A3.39,3.39,0,0,0,48,97.38L48.72,99a6.66,6.66,0,0,1,2.08,3.85,10.62,10.62,0,0,1,0,1.08,23.32,23.32,0,0,1-.54,4.08.42.42,0,0,1-.38.35h-.35"/><path id="Shape-54" d="M61.18,107.23a.38.38,0,0,1-.38-.38h0a1.72,1.72,0,0,0-.65-1,11.54,11.54,0,0,0-1.23-1.08A15.39,15.39,0,0,0,56.26,103a10.58,10.58,0,0,0-1.5-.65,7.12,7.12,0,0,1-1.39-.62,6.89,6.89,0,0,1-1.85-2.65.4.4,0,0,1,.73-.35,6,6,0,0,0,1.58,2.35,6.27,6.27,0,0,0,1.23.54,8.47,8.47,0,0,1,1.58.73,19.47,19.47,0,0,1,2.77,1.85,12,12,0,0,1,1.27,1.15l.23.23a15.7,15.7,0,0,0,0-1.92V103a4.08,4.08,0,0,0-.35-1.89,5.89,5.89,0,0,0-1.73-1.77,10,10,0,0,0-1.08-.73,3.85,3.85,0,0,1-1.12-.73h0a.41.41,0,1,1,.58-.58s.58.35,1,.54l1.23.88a6.69,6.69,0,0,1,1.92,2,4.81,4.81,0,0,1,.42,2.27v.73a18.93,18.93,0,0,1-.31,3.23.3.3,0,0,1-.31.31h0"/><path id="Shape-55" d="M59.83,113.11a34.8,34.8,0,0,0-2-2.92c-.73-.88-1.5-1.69-2.35-2.58a.38.38,0,0,1,0-.54l0,0a.38.38,0,0,1,.54,0l0,0c.81.88,1.62,1.69,2.39,2.62A22.44,22.44,0,0,1,60.07,112a7.16,7.16,0,0,0,.42-2.35,4.35,4.35,0,0,0,0-.77,14.74,14.74,0,0,0-1.35-4.08h0a.4.4,0,0,1,.73-.35,15.39,15.39,0,0,1,1.42,4.35,6.66,6.66,0,0,1,0,.88,9.43,9.43,0,0,1-.73,3.39.38.38,0,0,1-.35.23h0a.54.54,0,0,1-.38-.23"/><path id="Shape-56" d="M40.6,128.23a6.54,6.54,0,0,1-2.5-.42,6.46,6.46,0,0,1-2-1.46.42.42,0,0,1,0-.46.35.35,0,0,1,.42,0h1.12a5.08,5.08,0,0,0,3.54-1.31A7,7,0,0,0,43.48,120a.4.4,0,0,1,.81,0,7.7,7.7,0,0,1-2.5,5.16,5.85,5.85,0,0,1-4.12,1.54h0a2.89,2.89,0,0,0,.88.54,5.69,5.69,0,0,0,2.15.38h0a9,9,0,0,0,4.5-1.19A6,6,0,0,0,46.79,125a3.85,3.85,0,0,0,.65-2v-3.85a3.85,3.85,0,0,1,0-.73h.27c.38,0,.38.27.46.38a1.69,1.69,0,0,1,0,.46,2.18,2.18,0,0,0,.27,1.23c.27.42,0,.81,0,1.12l1-1.19a4.46,4.46,0,0,0,1-2,1.69,1.69,0,0,0,0-.42,5.19,5.19,0,0,0-.42-1.77,18.12,18.12,0,0,0-.85-2.15,13,13,0,0,0-1.23-2l-.77-1a3.38,3.38,0,0,1-.77-1h0a.54.54,0,0,1,.38-.46h.54a2.46,2.46,0,0,0,1,0,1.12,1.12,0,0,0,.58-.54,2.19,2.19,0,0,1,0-.81.38.38,0,0,1,.46-.23.46.46,0,0,1,.35.38h0a1.69,1.69,0,0,1,0,.77A4.08,4.08,0,0,0,51,111.27,24.93,24.93,0,0,1,53.91,114a11.24,11.24,0,0,1,2,3.85,5.19,5.19,0,0,1,0,.73,3.85,3.85,0,0,1-.54,2,6.23,6.23,0,0,0,3.23-2.08,5.81,5.81,0,0,0,.77-2.39,17.58,17.58,0,0,0,.23-2.85h0a.38.38,0,0,1,.38-.39h0a.38.38,0,0,1,.38.38h0a16.39,16.39,0,0,1-.27,3,6.77,6.77,0,0,1-.92,2.73,8.12,8.12,0,0,1-4.77,2.73.42.42,0,0,1-.46,0,.38.38,0,0,1,0-.5,3.42,3.42,0,0,0,1-2.39v-.58a10.2,10.2,0,0,0-1.85-3.54,21.35,21.35,0,0,0-2.46-3A6.43,6.43,0,0,1,49.37,110a2,2,0,0,1-.5.31,3.35,3.35,0,0,1-1,.23l.31.35.77,1A14.93,14.93,0,0,1,50.22,114a18.93,18.93,0,0,1,.92,2.27,5.89,5.89,0,0,1,.46,2,2.85,2.85,0,0,1,0,.58,5.31,5.31,0,0,1-1.15,2.31l-1.54,2a.46.46,0,0,1-.42,0,.42.42,0,0,1-.31-.35,3.42,3.42,0,0,1,0-.42v.88a4.27,4.27,0,0,1-.81,2.46,6.27,6.27,0,0,1-1.81,1.58,10.27,10.27,0,0,1-4.92,1.31h0"/><path id="Shape-57" d="M34.67,111.42a.35.35,0,0,1,0-.42.46.46,0,0,1,.35-.31,4.39,4.39,0,0,0,2.73-1.23,1.54,1.54,0,0,0,.42-1h0a3.35,3.35,0,0,0,0-.88.46.46,0,0,1-.23-.35.42.42,0,0,1,.42-.42h0a.58.58,0,0,1,.54.42,1.89,1.89,0,0,1,0,.5,4.69,4.69,0,0,1,0,.77h0a2.31,2.31,0,0,1-.65,1.58,4.85,4.85,0,0,1-2.19,1.27,3.85,3.85,0,0,0,1.5.42,2.81,2.81,0,0,0,2-1,1.65,1.65,0,0,0,.5-1,6.81,6.81,0,0,0,0-1.27,12.62,12.62,0,0,0-.42-2.89.38.38,0,0,1,.24-.49h0a.42.42,0,0,1,.5.27,12.62,12.62,0,0,1,.46,3.12,9.89,9.89,0,0,1,0,1.42,2.39,2.39,0,0,1-.69,1.35,3.62,3.62,0,0,1-2.58,1.27,5.23,5.23,0,0,1-2.89-1.08"/><path id="Shape-58" d="M37.44,114.57a12.4,12.4,0,0,0-2.77-.62.4.4,0,0,1,.18-.77h0a8.81,8.81,0,0,0,1.39,0,3,3,0,0,0,1.54-.35,3.5,3.5,0,0,0,1.15-1.15,9.77,9.77,0,0,0,1-1.42.42.42,0,0,1,.77.31,8.23,8.23,0,0,1-1.08,1.58,4.66,4.66,0,0,1-1.42,1.39l-.65.27h0a8.66,8.66,0,0,0,1.85.31h.42a3.85,3.85,0,0,0,2.69-2,5.62,5.62,0,0,0,.77-2.89v-1a5.27,5.27,0,0,0-.69-2.23c-.42-.65-1.08-1.15-1.58-1.92a.42.42,0,0,1,.69-.46c.42.65,1.12,1.15,1.58,1.92a5.89,5.89,0,0,1,.85,2.58v1.12a6.58,6.58,0,0,1-.85,3.31,4.46,4.46,0,0,1-3.31,2.35h-.5a5.5,5.5,0,0,1-2.12-.23"/><path id="Shape-59" d="M41.9,115.69a3.85,3.85,0,0,1-2.73-1,.41.41,0,1,1,.65-.5h0c.27.42,1.42.65,2.08.65h0a4.58,4.58,0,0,0,2.58-.88,4.42,4.42,0,0,0,1.69-1.92,9,9,0,0,0,.54-2.89v-.62a3.27,3.27,0,0,0-.5-1.92,6.23,6.23,0,0,0-2-1.85c-.73-.46-1.58-.69-2.46-1.15A3.46,3.46,0,0,1,40.06,101a.4.4,0,0,1,.81,0h0A2.65,2.65,0,0,0,42.17,103c.73.42,1.62.69,2.5,1.19a6.89,6.89,0,0,1,2.23,2.08,3.85,3.85,0,0,1,.69,2.42,3.46,3.46,0,0,1,0,.65,10,10,0,0,1-.58,3.12,5.31,5.31,0,0,1-2,2.31,5.62,5.62,0,0,1-3,1h0"/><path id="Shape-60" d="M36.52,126.46a5.08,5.08,0,0,1-3.85-2,18.24,18.24,0,0,1-1.77-5,.42.42,0,0,1,0-.46.5.5,0,0,1,.5,0,8.62,8.62,0,0,0,3.66,2.69,3,3,0,0,0,.85,0,3.27,3.27,0,0,0,1.73-.58H36.52a3.19,3.19,0,0,1-1.31-.69l-.54,0a1.22,1.22,0,0,1-.42-.73.5.5,0,0,1,0-.23h0a.27.27,0,0,1,.23,0h.19a4.19,4.19,0,0,1,.73.23h.54a3.58,3.58,0,0,0,1.42-.92,13.7,13.7,0,0,0,1.81-2.31,6.43,6.43,0,0,1-1.15.46,6.12,6.12,0,0,1-1.31,0h-1a.4.4,0,1,1,0-.81h.92a3.46,3.46,0,0,0,1.12,0,16,16,0,0,0,2.31-1,.42.42,0,0,1,.46,0,.38.38,0,0,1,0,.5,16.66,16.66,0,0,1-2.73,3.85,4.81,4.81,0,0,1-1.77,1.12h-.58a2,2,0,0,0,.81.38h.54a4.35,4.35,0,0,0,1.65-.42.42.42,0,0,1,.5,0,.38.38,0,0,1,0,.5,4.5,4.5,0,0,1-3.5,2,2.62,2.62,0,0,1-1,0,6.73,6.73,0,0,1-2.62-1.81,12.39,12.39,0,0,0,1.27,3.27A4.16,4.16,0,0,0,36.25,126a.38.38,0,0,1,.35.41v0a.38.38,0,0,1-.38.35Z"/><path id="Shape-61" d="M53.14,129.35a6.43,6.43,0,0,1-4.46-2,4.69,4.69,0,0,1-1.12-2.58h0a5.12,5.12,0,0,1,.23-1.31v-.65c0-.23.27-.46.27-.54h0a.38.38,0,0,1,.77,0h0a2.35,2.35,0,0,1-.31.69v.62a3.85,3.85,0,0,0,0,1.08h0a3.85,3.85,0,0,0,1,2.12,5.23,5.23,0,0,0,3,1.62,7,7,0,0,1-1.15-2.46,7.7,7.7,0,0,1-.23-1.81,10.77,10.77,0,0,1,.23-2.19.38.38,0,0,1,.45-.31h0a.38.38,0,0,1,.31.45v0a9.43,9.43,0,0,0-.23,2,7.7,7.7,0,0,0,0,1.62,7.27,7.27,0,0,0,1.58,2.92.38.38,0,0,1,0,.46.35.35,0,0,1-.35.23h0"/><path id="Shape-62" d="M53.14,132.39a6,6,0,0,1-3.27-3.85.4.4,0,0,1,.81,0h0A5.19,5.19,0,0,0,53.49,132a4.27,4.27,0,0,0,1.81.35h1.12a3.73,3.73,0,0,1-2.58-3.73v-.42a7,7,0,0,1,1.31-3.62,28.36,28.36,0,0,1,2.65-2.89.42.42,0,0,1,.58,0,.38.38,0,0,1,0,.54l0,0A26.7,26.7,0,0,0,55.79,125a6.43,6.43,0,0,0-1.15,3.19v.35a3,3,0,0,0,.81,2.19,4.58,4.58,0,0,0,2.81,1,.38.38,0,0,1,.38.35.35.35,0,0,1-.25.42h0a8.85,8.85,0,0,1-3,.62,5.31,5.31,0,0,1-2.19-.46"/><path id="Shape-63" d="M57.76,132.08a.38.38,0,0,1,.17-.52l.06,0c.5,0,1-.46,1-.73h0a1.73,1.73,0,0,0-.27-.69L58,129a8.39,8.39,0,0,0-1.27-2l-1-.88a6.46,6.46,0,0,1-1.12-.92h0a.38.38,0,0,1,0-.54l0,0a.38.38,0,0,1,.54,0l0,0a8.58,8.58,0,0,0,1,.81,7.31,7.31,0,0,1,1,.92,11.54,11.54,0,0,1,1.39,2.12l.69,1.19a2.46,2.46,0,0,1,.35,1h0c0,.88-1,1.12-1.46,1.31h0a.31.31,0,0,1-.35-.23"/><path id="Shape-64" d="M56.06,136.24c-.31,0-.58,0-.54-.42v-3.42h0a.49.49,0,0,1,.54-.42c.31,0,.58,0,.58.38v3.46C56.64,136,56.37,136.24,56.06,136.24Z"/><path id="Shape-65" d="M61.37,122.58C59.72,122,59,120,58.45,118.73a.38.38,0,0,1,.17-.52l.06,0a.42.42,0,0,1,.54,0c.54,1.23,1.27,3,2.42,3.35H62a3.62,3.62,0,0,0,1.5-.54h0a1.15,1.15,0,0,1-.73-.38,2.77,2.77,0,0,1-.58-2h0a19.24,19.24,0,0,1,.27-2.62,5.89,5.89,0,0,0,0-1.15v-1.46a.38.38,0,0,1,.3-.45h0a.42.42,0,0,1,.46.35v2.81a18.81,18.81,0,0,0-.27,2.46h0a2.35,2.35,0,0,0,.35,1.46.46.46,0,0,0,.38,0,3,3,0,0,0,1.27-.54.35.35,0,0,1,.5.5,5.27,5.27,0,0,1-1.81,1.46,3.85,3.85,0,0,1-1.89.62.58.58,0,0,1-.65,0"/><path id="Shape-66" d="M65.45,126a3.5,3.5,0,0,1-2.73-1,3.27,3.27,0,0,1-.81-2.31v-.38a.4.4,0,0,1,.81,0v.31a2.54,2.54,0,0,0,.62,1.77,2.69,2.69,0,0,0,2.12.81h0a2.89,2.89,0,0,0,2-.65,3.85,3.85,0,0,0,1-1.31,3.85,3.85,0,0,1-1.19,0,2,2,0,0,1-1.39-.54,3.85,3.85,0,0,1-1.08-2.58h0a8.35,8.35,0,0,1,1-3.23c.23-.46.46-1,.73-1.39a6.12,6.12,0,0,1,.92-1.54.41.41,0,0,1,.62.54h0a6.81,6.81,0,0,0-.81,1.39c-.23.46-.5.92-.69,1.35a7.93,7.93,0,0,0-1,2.92h0a2.89,2.89,0,0,0,.81,2,1.19,1.19,0,0,0,.88.31A5.73,5.73,0,0,0,69,122a.35.35,0,0,1,.42,0,.38.38,0,0,1,0,.38,4.69,4.69,0,0,1-1.46,2.5,3.85,3.85,0,0,1-2.5.85h0"/><path id="Shape-67" d="M66.53,132.54a9.62,9.62,0,0,1-1.85-3.19,7,7,0,0,1-.54-2.5,5.23,5.23,0,0,1,.23-1.5h0a.38.38,0,0,1,.47-.28h0a.42.42,0,0,1,.27.5,3.5,3.5,0,0,0,0,1.23,6.54,6.54,0,0,0,.46,2.23,9.27,9.27,0,0,0,1.65,2.89A3.27,3.27,0,0,0,69.68,133H70a2,2,0,0,0,1.15-.46h-.35a2.46,2.46,0,0,1-1.69-.77c-1.15-1.15-.77-2.81-.92-3.85a.38.38,0,0,1,.3-.45h0a.38.38,0,0,1,.45.3v0c0,1.31,0,2.73.69,3.42a1.65,1.65,0,0,0,1.15.5h.62a.46.46,0,0,1,.42-.23h.23a.46.46,0,0,1,.23.38c0,.42-.23.35-.27.42h0v.31a3.08,3.08,0,0,1-.54.69A2.77,2.77,0,0,1,70,134h-.42a3.85,3.85,0,0,1-3.08-1.35"/><path id="Shape-68" d="M69.88,127v-9.62a9.93,9.93,0,0,0-.23-1.46,1.61,1.61,0,0,0-.38-1,.41.41,0,0,1,.58-.58,2.39,2.39,0,0,1,.65,1.39,11.54,11.54,0,0,1,.27,1.58V127a.38.38,0,0,1-.34.42h0a.47.47,0,0,1-.46-.46"/><path id="Shape-69" d="M63.37,139.93a.62.62,0,0,1-.5-.58.69.69,0,0,1,0-.42,5.77,5.77,0,0,0,.77-1.69,7.7,7.7,0,0,0,.23-2.08,15.39,15.39,0,0,0,0-2.27.38.38,0,0,1,.3-.45h0a.38.38,0,0,1,.45.3v0a16.58,16.58,0,0,1,0,2.39,9.85,9.85,0,0,1-.27,2.31,5.62,5.62,0,0,1-.77,1.77h.58a4.27,4.27,0,0,0,1.5-.88,2.77,2.77,0,0,0,.69-1.5,9,9,0,0,0,0-1.73v-2.73h0a.4.4,0,0,1,.81,0v2.73a8.31,8.31,0,0,1,0,1.92A3.5,3.5,0,0,1,66.3,139a5.77,5.77,0,0,1-1.81,1H63.26"/><path id="Shape-70" d="M69.3,143.93a4.08,4.08,0,0,1-1.65-3.85h0a.38.38,0,0,1,.41-.35h0a.38.38,0,0,1,.35.42h0c0,1.15.35,2.58,1.27,3h0a.51.51,0,0,1-.35.77h0"/><path id="Shape-71" d="M52.18,118.46a.42.42,0,0,1-.23-.38v-.27a6.77,6.77,0,0,0-.69-3.12,5.43,5.43,0,0,0-1.08-1.39,3.46,3.46,0,0,0-.62-.5,2.46,2.46,0,0,1-.73-.5.42.42,0,1,1,.65-.5l.5.31a6.16,6.16,0,0,1,.77.62,5.66,5.66,0,0,1,1.19,1.62,6.58,6.58,0,0,1,.73,2.81,3.5,3.5,0,0,0,.46-1.73,5.66,5.66,0,0,0-.88-2.85.42.42,0,0,1,0-.58.38.38,0,0,1,.54,0,6.23,6.23,0,0,1,1,3.27,3.85,3.85,0,0,1-1.35,3.08.38.38,0,0,1-.27,0h0"/><path id="Shape-72" class="cls-3" d="M5.28,103.61c.31-1.65,2.19-2.35,3.85-2.35a3.85,3.85,0,0,0-3.85-.77,4.54,4.54,0,0,0-2.92,2.85,7.43,7.43,0,0,0,1.19,7.54,7.7,7.7,0,0,0,5.77,2.31A12.89,12.89,0,0,0,16,110.46a21.16,21.16,0,0,1,6.89-3.85,4.42,4.42,0,0,1,3.46.62,7.35,7.35,0,0,1,1.39,1.23c0,.23.31.31.58.23h.88v-.31a10.7,10.7,0,0,0-2.31-2.85,9.27,9.27,0,0,0-3-1.92,9.39,9.39,0,0,0-7.35,1.31c-1.23.65-2.35,1.42-3.54,2A7.43,7.43,0,0,1,9.2,108c-2.19,0-4.69-1.85-3.85-4.35"/><path id="Shape-73" d="M6.55,100.76a4.77,4.77,0,0,0-1.27,0,4.27,4.27,0,0,0-2.69,2.62,7,7,0,0,0,1.31,7.27,7.39,7.39,0,0,0,5.39,2.19h0a12.43,12.43,0,0,0,6.58-2.73,20.58,20.58,0,0,1,7-3.85h1.15a4.42,4.42,0,0,1,2.62.77,8.58,8.58,0,0,1,1.46,1.31h.38a9.73,9.73,0,0,0-2.12-2.58,9.66,9.66,0,0,0-2.85-1.85,6.39,6.39,0,0,0-1.89-.31,11.24,11.24,0,0,0-5.16,1.58c-1.19.65-2.31,1.39-3.54,2a8.08,8.08,0,0,1-3.85,1.12h0a4.46,4.46,0,0,1-4.5-3.85,3,3,0,0,1,0-1A3.54,3.54,0,0,1,7.74,101a3.27,3.27,0,0,0-1.39-.27ZM3.27,111.15a7.7,7.7,0,0,1-1.39-7.7,5,5,0,0,1,3.19-3.08,4.85,4.85,0,0,1,1.5-.23,3.35,3.35,0,0,1,2.69,1.08.42.42,0,0,1,0,.42.35.35,0,0,1-.35.23c-1.39,0-3.08.69-3.31,2h0a2.85,2.85,0,0,0,0,.77c0,1.69,1.92,3,3.85,3.12h0a7.2,7.2,0,0,0,3.31-1c1.19-.62,2.31-1.35,3.5-2a11.54,11.54,0,0,1,5.54-1.65,7.16,7.16,0,0,1,2.15.35,9.66,9.66,0,0,1,3.16,2,11.54,11.54,0,0,1,2.39,3,1.08,1.08,0,0,1,0,.31.35.35,0,0,1,0,.38.38.38,0,0,1-.31.23h-1a.88.88,0,0,1-.69-.38,6.89,6.89,0,0,0-1.31-1.19,3.58,3.58,0,0,0-2.12-.65,4.31,4.31,0,0,0-1,0,20.85,20.85,0,0,0-6.73,3.85,14,14,0,0,1-7,2.69h0a8.2,8.2,0,0,1-5.93-2.42Z"/><path id="Shape-74" d="M36.86,95.26a5.19,5.19,0,0,1-2-1.15.38.38,0,0,1,0-.54l0,0a.42.42,0,0,1,.58,0,4.5,4.5,0,0,0,1.65,1,.38.38,0,0,1,.28.47v0a.42.42,0,0,1-.38.27h0"/><path id="Shape-75" d="M34.09,99.45h0a4.27,4.27,0,0,1-2-1.89,2.77,2.77,0,0,1,0-1A1.77,1.77,0,0,1,32.94,95h.38a.54.54,0,0,1,0,.23h0a1.12,1.12,0,0,0,0,.42,1.73,1.73,0,0,0,.77.58.38.38,0,0,1,.23.49h0a.42.42,0,0,1-.5.27,1.85,1.85,0,0,1-1.19-.88h0a1.92,1.92,0,0,0,0,.5,1.35,1.35,0,0,0,0,.69c.27.69,1,1,1.69,1.5h0"/><path id="Shape-76" d="M33.44,95.34,33,95v.27h.5m3,1.73a6,6,0,0,1-1.85-.58l-2.27-.46h-.27a.42.42,0,0,1,0-.31h0a1.55,1.55,0,0,1,.23-1,.58.58,0,0,1,.54-.5.62.62,0,0,1,.5.27c.58.46,1,1,1.46,1.31h0l3.35.65h.27a.38.38,0,0,1,0,.35c0,.46-.62.46-.88.5A6.31,6.31,0,0,1,36.25,97"/><path id="Shape-77" d="M37.94,93.14c-1.39,0-2.65.85-3.85.62a5.85,5.85,0,0,1-3.31-2.5,3.85,3.85,0,0,0,1.62,2.81,5.16,5.16,0,0,0,3.54.27,14.74,14.74,0,0,1,1.85-.5,2.5,2.5,0,0,1,1.5.5s.46.35.5,0-.27-.58-.42-.73A2.42,2.42,0,0,0,38.1,93"/><path id="Shape-78" class="cls-2" d="M74.3,123.81a12,12,0,0,1-.23,1.77,6.12,6.12,0,0,1-.77,1.77,2.46,2.46,0,0,0,0,1.46,7.7,7.7,0,0,1,0,1.65,2.39,2.39,0,0,1-.65,1.46,3.85,3.85,0,0,1-2.12,1h-.58a3.85,3.85,0,0,0-1.12.27l-.69.27h-2c-.35,0-.46.58-.65.88a6.16,6.16,0,0,1-1,1.23,4.35,4.35,0,0,1-1,.69l-1,.54h-.23a1,1,0,0,0-.38.81,5,5,0,0,1-.38,1.65,5,5,0,0,0-.31.81,5.85,5.85,0,0,1,0,.85v.92a5.08,5.08,0,0,1,0,.77,5.89,5.89,0,0,0,0,.77,4,4,0,0,0,.42,1.31,16,16,0,0,0,1,2.23,16.31,16.31,0,0,0,2.46,3.31A15.85,15.85,0,0,0,67,151.93a13.24,13.24,0,0,0,2.08,1.23,15.85,15.85,0,0,0,2.08.88l2.08.62a19.68,19.68,0,0,1,2.08.38,20.43,20.43,0,0,0,2.08,0h5l2.92-.31a14.18,14.18,0,0,0,2.85-.46l2.73-.62,1.73-.46,1.65-.5,1.58-.54,1-.38a34,34,0,0,0,3.66,1.23,39.74,39.74,0,0,0,4.12,1c1.39.27,2.77.46,4.12.62a37.63,37.63,0,0,0,4.08,0,39.13,39.13,0,0,0,7.93-.81,41.05,41.05,0,0,0,7.5-1.39,36,36,0,0,0,6.69-3.85,32.67,32.67,0,0,0,4.27-3.35c1-.92,1.92-1.73,2.85-2.69a33,33,0,0,0,2.5-3,13.35,13.35,0,0,0,1.54-2.35,3.39,3.39,0,0,0,.31-1.5,6.12,6.12,0,0,0-.35-1.89l-.27-.77a5.39,5.39,0,0,1,0-.81,2.69,2.69,0,0,0-.27-1.42,6.69,6.69,0,0,1,0-1.23,1.08,1.08,0,0,1,0-.5l.31-.62c.42-.81.85-1.62,1.23-2.42a45.17,45.17,0,0,0,2-5l.46-1.58a24.35,24.35,0,0,0,1-3.85v-7a51.87,51.87,0,0,0-1.12-6.62h0a19.24,19.24,0,0,0-.54-1.92c0-.54.81-.62.58-1.12a40.28,40.28,0,0,0-11.54-15.16,66,66,0,0,0-9.73-6.27,54.14,54.14,0,0,0-5.16-2.46c-1.39-.62-2.85-1.12-4.23-1.62a1.54,1.54,0,0,1,0-.42V68.83a2.9,2.9,0,0,0-.27-1.46,6.69,6.69,0,0,1-.42-1.5c-.15-.54,0-.54-.31-.85l-.58-.81a8.39,8.39,0,0,0-.46-.81l-.54-.85-.65-.81-.77-.81a8.2,8.2,0,0,0-1-.85l-1-.65a9.35,9.35,0,0,0-1.39-.69,9.85,9.85,0,0,0-1.5-.5,10.12,10.12,0,0,0-1.54-.35h-1.58a12.24,12.24,0,0,0-2.39.23,12.66,12.66,0,0,0-2.15.65,14.27,14.27,0,0,0-1.89.92,12.16,12.16,0,0,0-1.62,1.12,18.81,18.81,0,0,0-2,1.89,16.74,16.74,0,0,0-1.65,2c-.5.69-1,1.39-1.42,2.08A13,13,0,0,0,92.65,69a12,12,0,0,1-.58,1.19c-.19.38-.35.81-.54,1.15a12.35,12.35,0,0,0-.46,1.15V73c-1.39.42-2.77.92-4.12,1.42s-3.23,1.35-4.81,2.08A46.75,46.75,0,0,0,60.79,94.72c-.73,1,.38,2.19,0,3.35a8.27,8.27,0,0,0-.38,3.85,18,18,0,0,0,2,7.7,53.41,53.41,0,0,0,4.92,7.46,4.54,4.54,0,0,0,1,1,16.28,16.28,0,0,1,1.73,1.5,4.27,4.27,0,0,0,1.85,1,3.54,3.54,0,0,1,1.92,1.15,3.85,3.85,0,0,1,.73,1.62.5.5,0,0,0,0,.46Z"/><path id="Shape-79" d="M81.5,95.68l1-.77.92-.73.85-.69.81-.65V88.37l-.5.58-.54.58-.5.62-.5.62a21.93,21.93,0,0,0-1.62,2.12c-.5.77-1.12,1.46-1.58,2.23s-1,1.5-1.5,2.31S77.42,99,77,99.76l1.31-1.12,1.27-1,1.19-1,1.12-.88M79.3,88.91a26.93,26.93,0,0,1,2.12-2.42,19.47,19.47,0,0,1,2.27-2,25.24,25.24,0,0,1,2.42-1.62,16.93,16.93,0,0,1,2.54-1.12v7.43a14.27,14.27,0,0,0,0,1.77v1.73a3.49,3.49,0,0,0,.27,1.65A15.08,15.08,0,0,1,87,96.18L84.77,98c-.81.65-1.58,1.31-2.39,2a20,20,0,0,0-2.27,2.46l-1,1.23,1,1.15a3.85,3.85,0,0,1,.5.65l.15.69.46.77c.38.65,1.27,1.62.35,2.08a3.85,3.85,0,0,1-2,0,6.85,6.85,0,0,1-1.5-.38,8.27,8.27,0,0,1-1.31-.58,8.5,8.5,0,0,1-1.15-.77,7.12,7.12,0,0,1-1-.88,10,10,0,0,1-.73-1,7.12,7.12,0,0,1-.46-1.12,6.46,6.46,0,0,1-.23-1.27.69.69,0,0,0,0-.27v-.65a13,13,0,0,1,.54-3.54,24.89,24.89,0,0,1,1.31-3.5A34.63,34.63,0,0,1,79,88.8"/><path id="Shape-80" d="M151.58,111.07a9.35,9.35,0,0,1,0,1v1a9.43,9.43,0,0,1,0,1v1a43.21,43.21,0,0,1-.62,8.08,40.28,40.28,0,0,1-2.08,7.46,38.78,38.78,0,0,1-3.46,6.73A36.82,36.82,0,0,1,135,147.82a38.48,38.48,0,0,1-6.58,3.54,36.86,36.86,0,0,1-7.27,2.23,41.13,41.13,0,0,1-7.7.77h-3.85a38,38,0,0,1-4-.62c-1.35-.27-2.73-.62-4.08-1a34.28,34.28,0,0,1-4.08-1.42l-1.46.58-1.54.54-1.65.5-1.85.23a19.31,19.31,0,0,0-2.73.58c-1,.15-1.85.35-2.85.46s-1.92.23-2.89.31H75.55a18.59,18.59,0,0,1-2-.38,19.81,19.81,0,0,1-2-.58,21.12,21.12,0,0,1-2-.81,17.58,17.58,0,0,1-1.92-1.15,11,11,0,0,1-1.73-1.54,11.31,11.31,0,0,1-1.46-2,9.77,9.77,0,0,1-.77-1.5,12.08,12.08,0,0,1,3-12.5,12.74,12.74,0,0,1,3.85-2.85A15.7,15.7,0,0,1,75.93,130a25.32,25.32,0,0,1,5.35.35A58,58,0,0,1,88,132a14.08,14.08,0,0,1,3.85,1.5s.81-3.85.85-4.35a41.36,41.36,0,0,0-.31-6.85v-1.65a20.93,20.93,0,0,1-1.54,1.73A19.82,19.82,0,0,1,89,124a18.12,18.12,0,0,1-2.19,1.39,17.2,17.2,0,0,1-2.54,1l-1.42.38L81.4,127H78.55a18.31,18.31,0,0,1-4.08-.46,20.28,20.28,0,0,1-3.85-1.27,21,21,0,0,1-3.31-2,17.78,17.78,0,0,1-2.77-2.58,18.31,18.31,0,0,1-2.19-3,20.24,20.24,0,0,1-2.62-7.08,22.59,22.59,0,0,1-.31-3.85v-.54a2,2,0,0,1,0-.5v-1.08a25.74,25.74,0,0,1,.65-3.35,28.93,28.93,0,0,1,1-3.19,30.47,30.47,0,0,1,1.42-3c.54-1,1.12-1.89,1.69-2.81a26.63,26.63,0,0,1,2-2.62,31.71,31.71,0,0,1,2.15-2.39,31.17,31.17,0,0,1,2.35-2.19c.81-.69,1.62-1.35,2.5-2s3-2.08,4.46-3,3.12-1.77,4.69-2.54,3.19-1.42,4.77-2.08,3.19-1.12,4.77-1.62a3,3,0,0,1,.42-1.12l.54-1.15.5-1.12.58-1.15a21.66,21.66,0,0,1,1.15-2.08,23.51,23.51,0,0,1,1.31-2c.5-.65,1-1.27,1.58-1.89a22,22,0,0,1,1.89-1.77,10.39,10.39,0,0,1,1.46-1,12.58,12.58,0,0,1,1.73-.88,11,11,0,0,1,2-.62,9.93,9.93,0,0,1,2.15-.23h1.42a8.39,8.39,0,0,1,1.42.31l1.35.46,1.27.65a4.35,4.35,0,0,1,.88.58l.77.65.69.69a3.23,3.23,0,0,1,.58.73,7.43,7.43,0,0,1,.5.73,9.42,9.42,0,0,1,.69,1.46,5.12,5.12,0,0,1,.27.73,5.69,5.69,0,0,0,.38,1.39,8.08,8.08,0,0,1,.23,1.35,7.69,7.69,0,0,1,0,1.31V72a5.08,5.08,0,0,1,0,.77v1.5c1.77.62,3.54,1.23,5.27,2A56.6,56.6,0,0,1,128,78.71c1.69.92,3.31,1.89,4.89,2.92a50.63,50.63,0,0,1,4.58,3.46,40.44,40.44,0,0,1,5.08,5.12,39.78,39.78,0,0,1,7.23,13.08,30.55,30.55,0,0,1,1.77,7.7l-4,.35a35.13,35.13,0,0,0-1.46-7.08,34.63,34.63,0,0,0-6.46-11.54A38.48,38.48,0,0,0,135,88.06a45.9,45.9,0,0,0-4.89-3.85,53.17,53.17,0,0,0-5.35-3c-1.85-.92-3.85-1.73-5.66-2.46a54,54,0,0,0-5.81-1.89,2.43,2.43,0,0,1,.27-1.35c.27-.42,0-1,0-1.42V71.17a10.58,10.58,0,0,0,0-1.08v-1a10.24,10.24,0,0,0,0-1,1.37,1.37,0,0,0-.27-1,6.62,6.62,0,0,0-.38-1c0-.31-.35-.62-.54-.92a5.16,5.16,0,0,0-.73-.81,4,4,0,0,0-.92-.69l-.88-.42L109,62.9h-1.77a5.58,5.58,0,0,0-1.35,0,6.62,6.62,0,0,0-1.23.38l-1,.65a10,10,0,0,0-1,.77A15.39,15.39,0,0,0,100,67.36a23.62,23.62,0,0,0-2,3.19,27.2,27.2,0,0,0-1.54,3.39c-.42,1.12-.81,2.23-1.08,3.23-1.62.42-3.31.88-5,1.46s-3.35,1.23-5,2a51.44,51.44,0,0,0-4.92,2.58,54.94,54.94,0,0,0-4.62,3,42.32,42.32,0,0,0-4.39,3.85,30.78,30.78,0,0,0-3.62,4.31,25.2,25.2,0,0,0-2.65,5A22.78,22.78,0,0,0,63.81,105a1.42,1.42,0,0,0,0,.42,1.54,1.54,0,0,0,0,.42,1.58,1.58,0,0,1,0,.42v.42a18.31,18.31,0,0,0,.23,3.16,18.55,18.55,0,0,0,.81,3,13.81,13.81,0,0,0,1.31,2.73,19.24,19.24,0,0,0,1.69,2.27,14.29,14.29,0,0,0,10.85,5h2.23l1.12-.23,1.15-.31a12.35,12.35,0,0,0,2-.88A11,11,0,0,0,87,120.15a18,18,0,0,0,1.54-1.42,17.16,17.16,0,0,0,1.31-1.62c.38-.58.81-1.12,1.15-1.69s.73-1.15,1.08-1.77.65-1.19,1-1.77l.92-1.73.85-1.54a32.16,32.16,0,0,0,.69,4.58c.23,1.54.5,3,.73,4.62s.54,3.27.62,4.89c0,.5-.23,1,0,1.42a14.14,14.14,0,0,1,.92,1.73,5.39,5.39,0,0,1,.27,1.35,31.28,31.28,0,0,1,0,4.62c0,1.23-.35,2.46-.35,3.85a3.23,3.23,0,0,1-1.5,2.54l-1.81,1.23a1.54,1.54,0,0,1-1.27.31,3,3,0,0,1-2-1c-.38-.46-.65-1-1.08-1.5a2.81,2.81,0,0,0-1.58-.73,2.35,2.35,0,0,1-1.5-.35,8.23,8.23,0,0,0-.88-.27,19.24,19.24,0,0,0-3,0,16.12,16.12,0,0,0-8.27,1.46A4.42,4.42,0,0,0,72.78,140a6,6,0,0,0,0,3,7.12,7.12,0,0,0,2.85,3.62,19.24,19.24,0,0,0,3.77,2,6,6,0,0,0,2,.5,27.4,27.4,0,0,1,3.5.5,20.43,20.43,0,0,0,2.65,0,5.31,5.31,0,0,0,3.08-.46A13,13,0,0,1,93.79,148a31.4,31.4,0,0,0,3.58-1.39c1.35.62,2.73,1.12,4.08,1.58a40,40,0,0,0,4.08,1.08,31.13,31.13,0,0,0,4,.65,35.74,35.74,0,0,0,10.93-.46,31.9,31.9,0,0,0,6.5-2,33.36,33.36,0,0,0,10.93-7.39,32.86,32.86,0,0,0,4.16-5.19,33.4,33.4,0,0,0,3.08-6,35.36,35.36,0,0,0,1.89-6.69,38.48,38.48,0,0,0,.58-7.27,6.12,6.12,0,0,0,0-.88v-1.81a6.7,6.7,0,0,1,0-.92l3.85-.31Z"/><path id="Shape-81" d="M105.83,110.53a73.91,73.91,0,0,1-1.92,10.73,76.34,76.34,0,0,1-3.12,9.47,82.15,82.15,0,0,1-4.27,8.73,13.47,13.47,0,0,0,1.69-.27,11.24,11.24,0,0,0,1.62-.46l1.58-.62c.54-.23,1-.54,1.54-.81a12.93,12.93,0,0,0,1.77-1.19c.58-.46,1.15-.92,1.73-1.46a22.51,22.51,0,0,0,1.62-1.69A18.73,18.73,0,0,0,109.6,131a29.16,29.16,0,0,0,2.65-4.46,32.59,32.59,0,0,0,2-5,36.44,36.44,0,0,0,1.19-5.31,32,32,0,0,0,.38-5.35v-1.19a29.13,29.13,0,0,0-.65-4.92,27.86,27.86,0,0,0-1.39-4.42,24.59,24.59,0,0,0-2-3.85,25.7,25.7,0,0,0-2.58-3.42c-.65-.73-1.27-1.39-2-2A24.74,24.74,0,0,0,105,89.3c-.77-.58-1.54-1.08-2.35-1.58a22,22,0,0,0-2.46-1.35c-.23.46-.5.88-.73,1.31l-.73,1.27L98,90.22c-.27.42-1.35,2.73-1.62,3.12A10.58,10.58,0,0,0,101.59,95a18.62,18.62,0,0,0,4.73,0,114,114,0,0,1-.62,15.39m8.5,23.09a29,29,0,0,1-3.85,4.23,25.7,25.7,0,0,1-4.35,3.23,20.89,20.89,0,0,1-4.92,2.08,20.08,20.08,0,0,1-5.46.73H92.51l-1.62-.31-1.27-.5A84.22,84.22,0,0,0,95,134a82,82,0,0,0,4.35-10.27,79.8,79.8,0,0,0,4.08-24.36V98L102,97.61l-1.85-.46-1.77-.42-1.65-.46-1.46-.5-1.08-.5a8.16,8.16,0,0,1-.85-.54,3.58,3.58,0,0,1-.69-.62,5.23,5.23,0,0,1-.54-.73l1.77-2.85c.62-.92,1.15-1.89,1.73-2.85s1.12-2,1.65-2.92,1.08-2,1.54-3a35.21,35.21,0,0,1,8.43,3.85,32.86,32.86,0,0,1,7,6.12,29.67,29.67,0,0,1,5,8.16,30.47,30.47,0,0,1,2.12,10.27,1,1,0,0,0,0,.35v1a34.63,34.63,0,0,1-.42,5.89,39.05,39.05,0,0,1-1.35,5.85,35.67,35.67,0,0,1-2.23,5.54,36.78,36.78,0,0,1-3,4.89"/><path id="Shape-82" class="cls-3" d="M90.63,139.62a17.7,17.7,0,0,0-3.31-1.54A26,26,0,0,0,83.47,137a22.62,22.62,0,0,0-4.39-.42,13.66,13.66,0,0,0-2.19,0,7.35,7.35,0,0,0-2,.65,4.81,4.81,0,0,0-1.62,1.39,4.16,4.16,0,0,0-.69,2.15h0a3.85,3.85,0,0,0,.77,2.39,4.89,4.89,0,0,0,1.89,1.5,8.81,8.81,0,0,0,2.39.69,15.39,15.39,0,0,0,2.65,0,25.78,25.78,0,0,0,3.39-.23,15.28,15.28,0,0,0,3.27-.54c1-.23,2-.46,2.85-.69a19.24,19.24,0,0,0,2.12-.77,1.42,1.42,0,0,0,.77-1.81A4.66,4.66,0,0,0,90.59,139m9.81-46.79a1.39,1.39,0,0,0,1.15-.65c.62-.88,1.15-1.77,1.73-2.69s1.15-1.85,1.65-2.77,1-1.92,1.5-2.89.81-1.69,1.15-2.58a5,5,0,0,0,.58-1.92A2.23,2.23,0,0,0,107,77.18a5.77,5.77,0,0,0-2.39-.5h-2.19a6.5,6.5,0,0,0-1.69.27,2.12,2.12,0,0,0-1.12.62,3.85,3.85,0,0,0-.38.69,2.77,2.77,0,0,1-.31.42,3.85,3.85,0,0,0-.35.69,25.66,25.66,0,0,0-.5,2.81,22.2,22.2,0,0,0-.23,3.19v.31a18.58,18.58,0,0,0,.23,2.89,9.66,9.66,0,0,0,1,2.92,1.46,1.46,0,0,0,1.23.77h0m0-14.31h7.08a1.46,1.46,0,0,0,1.42-1.35v-3a9.62,9.62,0,0,0,0-1.46,9.27,9.27,0,0,0-.5-2.5,5.85,5.85,0,0,0-1.39-2.19,1.31,1.31,0,0,0-1.12-.38,5.66,5.66,0,0,0-3.42,1.35,6.93,6.93,0,0,0-1.81,2.69,20.2,20.2,0,0,0-1,2.85,20.62,20.62,0,0,1-.85,2.5,1.5,1.5,0,0,0,0,1.42,1.42,1.42,0,0,0,1.19.58M82.81,105.11l1,1.15.46.54.42.62.23.35-1.23-.31-1.12-.5-.31-.69-.73-.69a5.46,5.46,0,0,1-.54-.77,3.12,3.12,0,0,1-.35-.85,3.27,3.27,0,0,1,0-.92v-.62h0a11.16,11.16,0,0,1,.46-3,19.24,19.24,0,0,1,1.23-3.19,31.94,31.94,0,0,1,3.85-5.89,23.43,23.43,0,0,1,2-2.27,24.74,24.74,0,0,1,2.12-1.89,16.08,16.08,0,0,1,2.19-1.42h0V93.1a8.27,8.27,0,0,0,0,1l-1.27,1.12L89,97c-.81.65-1.62,1.31-2.46,2.12a20,20,0,0,0-2.42,2.62l-1,1.23a1.58,1.58,0,0,0,0,2.08m66.22,9.66a6.62,6.62,0,0,0,0-.92v-1.85a7.19,7.19,0,0,0,0-1h0a37,37,0,0,0-1.54-7.7A33.78,33.78,0,0,0,145,96.64a35.63,35.63,0,0,0-3.85-5.77A42.32,42.32,0,0,0,136.3,86a47,47,0,0,0-5.16-3.85,50.33,50.33,0,0,0-5.69-2.81,53.87,53.87,0,0,0-5.89-2.54c-1.54-.62-3.16-1.12-4.73-1.58h0l.23-1.5V68.17a11.54,11.54,0,0,0-.23-1.19,6.23,6.23,0,0,0-.35-1.15,8.31,8.31,0,0,0-.5-1.15,8.77,8.77,0,0,0-.69-1.12,5.81,5.81,0,0,0-.92-1,6.69,6.69,0,0,0-1.19-.88l-1-.54-1.08-.38a8.93,8.93,0,0,0-1-.65H107a12.27,12.27,0,0,0-1.65,0,10.66,10.66,0,0,0-1.5.46,9.81,9.81,0,0,0-1.39.69,10.81,10.81,0,0,0-1.27.88,18.74,18.74,0,0,0-2.85,2.92,22.47,22.47,0,0,0-2.19,3.46,31,31,0,0,0-1.65,3.62c-.35.92-.65,1.77-.88,2.62-1.42.38-2.89.85-4.35,1.35s-3.5,1.31-5.23,2.12a54.17,54.17,0,0,0-5.12,2.69A51.9,51.9,0,0,0,74,84.14,42.82,42.82,0,0,0,69.42,88a33.13,33.13,0,0,0-3.85,4.69,26.28,26.28,0,0,0-2.85,5.39,24.59,24.59,0,0,0-1.5,6.08v.92a1.58,1.58,0,0,1,0,.46v.81a17,17,0,0,0,.27,3.12,20,20,0,0,0,.88,3.31,16.78,16.78,0,0,0,1.42,3,15.78,15.78,0,0,0,2,2.73,17.55,17.55,0,0,0,2.42,2.27,17.24,17.24,0,0,0,2.89,1.73,15.7,15.7,0,0,0,3.27,1.12,15.39,15.39,0,0,0,3.5.42h2.5l1.23-.23,1.27-.35a14.62,14.62,0,0,0,2.35-1,13.58,13.58,0,0,0,2-1.35,13.39,13.39,0,0,0,1.69-1.62,20.28,20.28,0,0,0,1.46-1.77,19.62,19.62,0,0,0,1.23-1.85l1.12-1.85c.27-.46.54-.88.77-1.39v.42c.27,1.54.5,3.12.73,4.66s.42,3,.58,4.54a25.82,25.82,0,0,1-2.12,14,15.66,15.66,0,0,0-2.15-.77,38.48,38.48,0,0,0-15.39-2.73A10.39,10.39,0,0,0,65,141.58a8.73,8.73,0,0,0,5.77,9.23,20.82,20.82,0,0,0,5.46,1.27h2.5a39.67,39.67,0,0,0,5.19-.35,50.86,50.86,0,0,0,5-.92c1.62-.38,3.19-.81,4.58-1.23s2.23-.81,3.19-1.19c1.27.54,2.5,1,3.85,1.39a41.16,41.16,0,0,0,4.27,1.15,42.32,42.32,0,0,0,4.27.69,39.4,39.4,0,0,0,4.19.23,40,40,0,0,0,7.39-.73A31.86,31.86,0,0,0,127.6,149a33.67,33.67,0,0,0,6.19-3.35,36,36,0,0,0,5.39-4.5,35.36,35.36,0,0,0,7.7-11.89,39.67,39.67,0,0,0,2-7.08,40.86,40.86,0,0,0,.62-6.89,1.08,1.08,0,0,0,.27-.85m-19.24,2a41.48,41.48,0,0,1-1.42,6,36.44,36.44,0,0,1-2,5.39,34.17,34.17,0,0,1-2.69,4.81h0a29.32,29.32,0,0,1-3.31,3.85,20.47,20.47,0,0,1-3.85,3,18.51,18.51,0,0,1-4.23,1.92,15.74,15.74,0,0,1-4.66.69h-3.42a75.41,75.41,0,0,0,3.85-7.35,84.65,84.65,0,0,0,4.12-10.62,88.23,88.23,0,0,0,2.81-12A91.8,91.8,0,0,0,116.83,99V97.18a13.81,13.81,0,0,1-6.43-.62,7.7,7.7,0,0,1-4.31-3l1.5-2.69c.58-1,1.12-2,1.62-2.92l1.58-3,.88-1.85a31.67,31.67,0,0,1,6.19,3.31,28,28,0,0,1,6.23,5.89,28.82,28.82,0,0,1,4.42,7.7,32.63,32.63,0,0,1,2,9.73v1.81a41.25,41.25,0,0,1-.38,5.23"/><path id="Shape-83" class="cls-2" d="M77.68,145.39a25.89,25.89,0,0,0,13.77-2.15,24.66,24.66,0,0,0-13-4.12c-6.23,0-7,5.43-.85,6.27M110.54,80a32.36,32.36,0,0,1,23.82,34c-1.92,26.93-22.39,36.44-34.21,29,8.58-10.16,13.47-24.32,14-43.4-6.35-.35-9.58-2.54-10.5-6.19A41,41,0,0,0,110.19,81l.35-1M100,79.33a35.13,35.13,0,0,1,3.85,0,25.86,25.86,0,0,1,3,0,48.94,48.94,0,0,1-6.81,12,25,25,0,0,1,0-12.08m7.7-3.19H100a24.16,24.16,0,0,1,2.58-7c2.08-3.85,4.66-2.85,5.12,1a18.51,18.51,0,0,1,0,6M97,146.24c14.47,7,44.17,6.54,50.44-24.59,4.23-21-13.24-41.29-35.94-45.17,2.62-10.43.42-15.12-4.23-14.81S98.38,67.79,96.15,76.6c-17,3.23-32.4,16.47-33.21,29.67A14.74,14.74,0,0,0,77,121.64h.33c6.89.31,12-7,14.24-12.12-8.16,3.31-16.54-1.27-14.31-10.08,2.77-11,9.16-17.39,18.2-19.62a40.4,40.4,0,0,0,0,15.39,57.29,57.29,0,0,1-9,7.7l2.39,3.54a76,76,0,0,0,6.5-4.73c.23,12.81,7.2,26.93-.35,38.25-10.31-4.85-19.93-6.62-24.62-2.89-6,4.81-2.42,11.89,3.85,12.66a47,47,0,0,0,22.66-3.62"/></g></g></svg>