<svg xmlns="http://www.w3.org/2000/svg" viewBox="0 0 211 211"><defs><style>.cls-1{fill:none;}.cls-2{fill:#c49653;}</style></defs><title>football</title><g id="Layer_2" data-name="Layer 2"><g id="Layer_1-2" data-name="Layer 1"><rect class="cls-1" width="211" height="211"/><g id="Layer_2-2" data-name="Layer 2"><g id="Layer_1-2-2" data-name="Layer 1-2"><path class="cls-2" d="M96.33,40.44h18.34a5.63,5.63,0,0,0,1.17.52q42.33,8.25,53.54,49.92c.66,2.38,1.09,4.82,1.62,7.21V113.8a10.42,10.42,0,0,0-.61,1.83,62.4,62.4,0,0,1-20.25,38.12c-11.46,10.51-25.05,16.62-40.94,17.2C78.92,172,52.38,154,43.42,125.71c-1.56-4.93-2.31-10.11-3.43-15.18V100.7a10.72,10.72,0,0,0,.57-1.81c3.58-27,18.32-45.29,43.6-55.09C88.07,42.3,92.27,41.54,96.33,40.44Zm59,36.68a19.23,19.23,0,0,0,3,1.79A10.28,10.28,0,0,1,165,86.61c.78,3.28,2,6.39,3,9.59,0-3.24-1-6.24-1.45-9.31-1-6.55-6-8.23-11.27-9.7A7.19,7.19,0,0,0,153.1,76c-3.51-.58-5.46-3-7.64-5.54-4.16-4.84-8.8-9.27-13.13-14a5.46,5.46,0,0,1-1.18-3c-.18-1.93-.05-3.89-.05-5.84a9.79,9.79,0,0,0-.66,4.68c.14,2.28-.69,3.11-3.11,3.39-4.74.55-9.62,1.05-14,2.7s-8.4,2-12.39-.62L90.82,55.5l-7.68-1.18V46.56C72.6,48.7,55.54,63.07,51.34,73.19h4.53c4.93.12,4.66.31,5.24,5.19.66,6,2.09,11.86,3.18,17.79L64.22,96a37.51,37.51,0,0,1-1.3,4.85q-3.52,8.73-7.29,17.37c-.39.9-1.4,2.08-2.2,2.14-3,.26-6.13.1-9.17.1v.94c2.62,0,5.37.36,7.93-.1s3.23.66,4.54,2.37c4.19,5.53,8.61,10.9,13.27,16,1.59,1.75,3,3.09,3,5.68,0,2,.76,3.87,1.19,5.8a19.86,19.86,0,0,0-.5-6.14c-.52-2.25,0-3.47,2.36-4.4a164.56,164.56,0,0,0,15.2-6.78,7.41,7.41,0,0,1,6.38-.34c7.3,2.43,14.75,4.45,22.15,6.62.77.79,2,1.45,2.24,2.38,1.59,5.36,3,10.78,4.38,16.09,2.57-.3,5.38-.59,8.18-1,10.59-1.41,18.34-6.39,21.62-17.13,1.51-5,3.28-9.91,4.72-14.22-1.21,2.41-3.28,2.14-6,.62-3.12-1.74-6.55-2.9-9.83-4.42a19.38,19.38,0,0,1-2.86-2,12.55,12.55,0,0,1-1.88,3.13c-5.24,4.91-10.53,9.77-16,14.46-1.23,1.07-3.07,1.43-4.63,2.12a11,11,0,0,0-1.8-1c-6.6-2.12-13.21-4.25-19.84-6.29a5,5,0,0,1-3.74-4.33c-1.44-7-3.18-14-4.62-21-.28-1.36.29-2.9.47-4.36L107.36,87c1.39-.44,3-1.56,4.13-1.21,8,2.36,15.91,5.08,23.84,7.7.52.18.85.95,1,1.19.93-1.78,1.66-3.45,2.62-5,1.89-2.93,4-5.73,5.9-8.67,3.47-5.42,3.43-5.44,9.73-3.93A2.27,2.27,0,0,0,155.29,77.12Zm-43.24,90.2c-16.08.73-26.32-1.6-34.32-8l-4.05,1.42C86.18,166.87,98.38,171.31,112.05,167.32Z"/><path class="cls-2" d="M107.31,87,90.14,103.29a18,18,0,0,1-4,0c-6-1.4-11.91-3.12-17.92-4.37-2-.42-3.28-1.17-4-2.93l.08.16c-.82-4.93-1.88-9.83-2.36-14.78-.29-3-.88-7.07.66-9.11,7.09-9.24,14.77-18.11,28.26-16.8l10.09,2.25c.5.49.92,1.22,1.51,1.43,3,1.07,4.29,3.11,4.59,6.29.48,5,1.24,9.89,2.17,14.78C109.68,82.94,109.43,85.14,107.31,87Z"/></g></g></g></g></svg>