<svg xmlns="http://www.w3.org/2000/svg" viewBox="0 0 211 211"><defs><style>.cls-1{fill:none;}.cls-2{fill:#af905a;fill-rule:evenodd;}</style></defs><title>gumball</title><g id="Layer_2" data-name="Layer 2"><g id="Layer_1-2" data-name="Layer 1"><rect class="cls-1" width="211" height="211"/><path class="cls-2" d="M45.37,139.83l3,1.19c-1.28-2.45-2.59-4.68-3.64-7q-14-31.36,2.35-61.6a4,4,0,0,0,.63-1.68c0-7.35,3.84-12.28,10.37-14.84C62,54.36,65,51.8,68.31,49.6a65.89,65.89,0,0,1,32.29-11c18.25-1.23,34.38,4.12,48.45,15.78A3.73,3.73,0,0,0,151,55c2.64.24,5.29.45,7.94.54,1.79.06,1.37,1.64,1.94,2.53s-.17,1.17-.7,1.56-.9.69-1.36,1c-1.49,1.12-1.6,1.87-.43,3.37a65.14,65.14,0,0,1,10.69,19.78q9.3,28.63-5.28,55a4.58,4.58,0,0,0-.68,1.82c-.34,6.85-4.05,11.46-10,14.2a48.82,48.82,0,0,0-8.32,5,67.12,67.12,0,0,1-81.39-2.11,7.81,7.81,0,0,0-2-.91c-.25-.1-.57-.05-.84-.13a14.6,14.6,0,0,0-7.59-.07c-1,.24-1.59-.14-2-1.22-1.69-4.77-3.48-9.51-5.24-14.26C45.64,140.83,45.56,140.47,45.37,139.83Zm86.09,8.39a4,4,0,0,0,.31.61c4.46,5.49,10.22,6.86,16.86,5.22,8.55-2.11,13.21-8.93,11.78-17a14.15,14.15,0,0,0-11-11.73,17.86,17.86,0,0,0-16.25,4.77,11.41,11.41,0,0,0-1.25,1.72c-7.47-9.17-16.95-9.13-26.81-.28-8-8.68-16.4-8.81-26.28-.36-.64-3.71-3.34-5.22-6.57-6-5.66-1.31-11-.09-16.16,2.23-2.6,1.16-2.59,1.19-4.62-.77,0,0-.15,0-.34,0,1,3.34,2,6.65,3,10,1.37-1.62,2.57-3.2,3.94-4.61a8.15,8.15,0,0,1,5.39-2.59c2.13-.14,3.56.62,4.09,2.11a4.08,4.08,0,0,1-1.7,4.85c-2.32,1.33-4.72,3.19-7.6.78l2.45,8.3a2.72,2.72,0,0,0,.65-1.45A2.26,2.26,0,0,1,63,142a3.74,3.74,0,0,1,4,.28c1.21,1,1.29,2.36,1,3.77a4.22,4.22,0,0,1-3,3.49,11.56,11.56,0,0,1-4,.46,16.55,16.55,0,0,1-8.27-3.13c-1.21-.83-2.36-1.73-3.78-2.78l4.09,10c.12-.81.18-1.25.24-1.74a2.49,2.49,0,0,1,.62.08A32.35,32.35,0,0,0,68,154.67c4.32-.18,8.35-1.2,11.47-4.47,8.85,6.75,15.72,6.29,25.28-1.66C111.9,158,125.22,155.6,131.46,148.22Zm-60.1-45.47a31.94,31.94,0,0,0,4.06-2.5A4.41,4.41,0,0,0,74,92.48a19.5,19.5,0,0,0-4.72-.89c-4.44-.33-8.89-.55-13.34-.78-2.75-.15-5.5-.25-8.25-.38a15.48,15.48,0,0,0,3.55,1.9A1.85,1.85,0,0,1,52.49,94c1.15,7.05,2.3,14.11,3.58,21.13.28,1.5-.2,2.07-1.48,2.59-1.89.76-3.7,1.71-5.53,2.58,5.83-.39,11.58-1,17.31-1.65,4.65-.52,9.29-1.1,13-4.69.18,3.17-3,3.55-4.39,5.57l17.92-1.34c-1.68-1.24-3.11-2-2-4.24,1.5-3.06,1.25-3.18,4.83-3.34,2.87-.13,2.82-.11,3.7,2.66a2.76,2.76,0,0,1-.54,3c-1.13,1.31-2.09,2.76-3.3,4.41l14.63-3.86.2.48-3.13,2.26c3.84-.12,7.56-.46,11.28-.79,4.2-.37,8.4-.75,12.61-1.08,1.27-.1,2.07.87,1.83,1.73l2.84,1.44c.08-.39.16-.83.24-1.28,6.84-.4,13.6-.75,20.36-1.24,1.81-.13,3.25.11,4.21,1.78.13.24.43.38.64.57l.34-.15-3.06-15.81a6.83,6.83,0,0,0-1.2,2c-.42.9-.62,2.16-1.33,2.61-2.17,1.37-4.53,2.42-7,3.67-1.08-5.78-2.07-11.32-3.18-16.84a2,2,0,0,1,1-2.42c1.12-.73,2.16-1.58,3.53-2.59l-18,2a10.39,10.39,0,0,0,3,1.17A1.51,1.51,0,0,1,136.87,96c-.25,6.44-.4,12.89-.61,19.33a6.33,6.33,0,0,1-.27,1.21h-.42c-.91-4-1.81-8-2.8-12.29-.54,1.21-.89,2-1.27,2.85s-.55,1.84-1.17,2.21c-2.16,1.3-4.47,2.35-6.8,3.53a6.52,6.52,0,0,1-.29-.84c-1-5.53-2.08-11.07-3-16.62a1.78,1.78,0,0,1,.65-1.34c1.13-.95,2.37-1.79,3.57-2.67l-.12-.25-17.46,1.92a10.91,10.91,0,0,0,3.23,1.24c1,.21,1.23.72,1.18,1.68-.25,5.11-.43,10.23-.65,15.34,0,1.08-.16,2.15-.25,3.22l-.38.3c-.54-.53-1.3-1-1.59-1.59-2.34-5-4.58-10.09-6.86-15.14L99.2,93l4.45-1.68-.09-.24-21.32-.67-.29.34c2.69.79,3.09,2.31,2.31,4.76-1.28,4-2.17,8.2-3.27,12.53C79.09,103.69,75.18,103.41,71.37,102.75ZM84.75,79.92c1.15,2.53-.68,3.35-2.24,4.38a24.47,24.47,0,0,1-13.78,4.25c-8.09-.06-14.62-3.14-18.91-10.26a10.36,10.36,0,0,0-.64-.83l-4,10.35c7.52.4,14.63.69,21.7,1.19a37.51,37.51,0,0,1,8.35,1.41c3.52,1.09,5,3.91,4.18,7.49A24.82,24.82,0,0,1,77.7,102l2,1.26c.7-2.7,1.3-5.33,2.09-7.89a2.34,2.34,0,0,0-1-3c-1.47-1.13-2.82-2.42-4.22-3.64l.17-.28,29.51.85.38,1.46L129,89.26a21.2,21.2,0,0,1-2.81,3c-2.89,2.07-3.91,4.49-2.74,8a72.08,72.08,0,0,1,1.78,8.88c2.22-.77,3.92-1.8,4.86-4a52.68,52.68,0,0,1,2.79-5.1,10.6,10.6,0,0,1,.69-.92c.21.71.36,1.23.52,1.76.21-.9.09-1.81.25-2.66.27-1.47-.29-2.07-1.69-2.45-2.94-.76-2.89-.83-2.59-3.83.09-.86.39-1.22,1.29-1.32,7.62-.82,15.25-1.69,22.87-2.53,1.49-.16,3-.28,4.48-.42-3.13,2.61-6.31,4.92-9.46,7.26-.36.27-.81.82-.75,1.16.73,4.33,1.55,8.64,2.35,13,2.17-.78,3.87-1.73,4.64-4.07.84-2.6,2.12-5.06,3.23-7.57.15-.35.35-.68.72-1.38,1,5.23,1.86,10,2.74,14.87s1.75,9.65,2.66,14.7a5.65,5.65,0,0,0,.28-.51,62.76,62.76,0,0,0,.57-37.75c-.24-.83-.66-1-1.42-1-6.44,0-12.89,0-19.34,0h-3.35c-.85,2.24-.85,2.25-3.1,2.06l-18-1.52c-3-.26-6-.52-9.06-.83-.29,0-.54-.32-1-.6C101.28,90.37,91.21,89.36,84.75,79.92Zm32.72,4.29,21.3,1.9c-1.37-.94-2.85-1.53-4.23-2.31a2.49,2.49,0,0,1-1.12-1.55c-.53-3.18-.94-6.37-1.37-9.56-.37-2.69-.72-5.38-1.07-8.07l.3-.08,6.86,13.76c2.89-4.78,5.66-9.32,8.42-13.86a1,1,0,0,1,.17.79c-1,4.9-2.13,9.8-3.13,14.71a3,3,0,0,1-1.84,2.44,20.82,20.82,0,0,0-2.16,1.22c0,.1.06.2.09.3l22.09.74a41.18,41.18,0,0,0-3.6-2.42,2.21,2.21,0,0,1-.9-1.38c-.68-5.83-1.21-11.68-2-17.5-.31-2.3-.18-4.17,2.14-5.29.07,0,.09-.15.23-.42l-14.94-1-2.5,9.69a2.23,2.23,0,0,1-.56-1.09c-.65-2.76-1.34-5.52-1.93-8.29-.18-.81-.54-1-1.28-.88-3.84.51-7.7,1-11.55,1.47l-5.16.69a6.68,6.68,0,0,0,2.32,1.33c1.05.33,1.3.91,1.18,2-.63,5.74-1.26,11.49-1.69,17.25-.18,2.44-.57,4.44-3.35,5A4.62,4.62,0,0,0,117.47,84.21ZM79,58.13a20.58,20.58,0,0,0-3.5-1.49c-7.4-1.63-14.4-.79-20.63,3.89a11.51,11.51,0,0,0-4.23,6.4c-1.49,5.64.78,11.57,5.84,15.36,7.14,5.33,18.21,5.14,25.35-.5a1.9,1.9,0,0,0,.57-1.41,56.69,56.69,0,0,0-.7-5.77c-.41-2.25-.5-4.3,1.81-5.65.14-.08.21-.28.38-.54a7.16,7.16,0,0,0-.76-.14c-3.36-.21-6.71-.44-10.07-.57a3.49,3.49,0,0,1-2.75-1.15,24.53,24.53,0,0,0-2-1.86c0,2,0,3.81,0,5.64s.22,3.69.33,5.53l.29.2A4.28,4.28,0,0,1,74,73.57c-.52,1.75-1,3.43-1.55,5.07a1.41,1.41,0,0,1-1.07.64,7.66,7.66,0,0,1-5.76-1.92c-2.4-2.15-3-5-2.78-8,.37-5.59,4.27-9,9.85-8.65a12.72,12.72,0,0,1,8.42,4.23A7.15,7.15,0,0,1,82,66.29l.45-.42q-.59-5.67-1.2-11.33L81,54.49ZM70.07,157c19.3,14.49,50.21,15.28,71.05,0a17.67,17.67,0,0,1-9.84-5c-9.82,6.94-16.89,7-26.74.12l-1.2.92c-6.54,5-15.93,5.64-22.24,1.43a2.47,2.47,0,0,0-3.09-.06,31,31,0,0,1-5.26,2.06A21.46,21.46,0,0,1,70.07,157ZM104.7,58.92a30.16,30.16,0,0,1,2.06,4.18A6.09,6.09,0,0,1,104.59,70a5.43,5.43,0,0,1-6.25-.31c-1.91-1.43-2.57-3.94-1.76-6.69a13.78,13.78,0,0,1,4.27-6.26,4.07,4.07,0,0,1,1.09-.5l-.45-.52-14.54,2c0,.06,0,.13,0,.2l6.76.91c-1.16.89-2,1.53-2.87,2.22a15.6,15.6,0,0,0-4.9,6.34c-2.43,6.19.86,13.94,7.33,17,5.92,2.84,11.55,1.56,16.9-1.63,3-1.79,5.49-4.19,6.38-7.69,1.37-5.46-.66-9.83-4.83-13.35l-1.24-1,5.94-3.34-.1-.24Zm37-4.64c-22.56-16.18-52.2-14.22-70.71-1L78.8,55c1.09-1.86.7-4.91,4-5.43q.44,3,.89,6.08L110.29,52l.13.21-4.85,3.82a3.57,3.57,0,0,0,1.52,0c3.28-.51,6.55-1,9.83-1.5.46-.06,1.32.13,1.4.38.33,1.12,1.06,1,1.88.88,5.61-.63,11.2-1.23,16.79-1.88,1.06-.12,1.69.08,2,1.21a16.72,16.72,0,0,0,.95,2.46C140.86,56.63,139.81,54.85,141.71,54.28Zm-90.25,83.1.37-.13Q49,128.1,46.1,119l7.37-3.48a2.09,2.09,0,0,0,.08-.4q-1.64-9.94-3.31-19.87a1.3,1.3,0,0,0-.57-.87c-1.74-.8-3.52-1.54-5.46-2.38C41,108.19,43.33,123.26,51.46,137.38Zm83.91-12.11a9.83,9.83,0,0,1-.78-1.2,2.33,2.33,0,0,0-3.09-1.4,28,28,0,0,1-3.08.39l1.2-2.14c-.38,0-.57-.06-.76-.05-9.79.38-19.59.76-29.39,1.18a14.09,14.09,0,0,0-2.71.7,45.38,45.38,0,0,1,4.64,2.09,45,45,0,0,1,4,2.92c7.24-6.34,19.46-7.55,26.52,0Zm3.18-1.47c4.62-1.46,9.14-1.9,13.64-.25s7.57,5,9.66,9.66c.78-1.81,1.48-3.34,2.09-4.9a1.23,1.23,0,0,0-.31-1c-1.7-2-3.42-4.06-5.18-6a1.9,1.9,0,0,0-1.31-.59q-5.83.21-11.63.54c-2.4.13-4.79.34-7.35.52C138.31,122.54,138.42,123.11,138.55,123.8Zm-58.31,2.92a19.66,19.66,0,0,1,9.3-3.81c1.55-.18,2.14-1,2.75-2.27L74,122.81ZM114.66,61c3.5,3.83,5.23,7.93,4.61,12.83s-3.77,8.2-7.54,11c2.13-1.09,4.2-2.21,6.19-3.45a2.33,2.33,0,0,0,1-1.49c.65-5.83,1.23-11.67,1.81-17.5,0-.26,0-.71-.1-.78a14.94,14.94,0,0,0-3.47-1.55C116.47,60,115.64,60.66,114.66,61ZM101.4,59.71a8.37,8.37,0,0,0-2.71,4.89c-.21,2.21,1,3.75,3,3.8,1.74,0,3-1.54,2.91-3.64C104.51,62.45,103.1,61,101.4,59.71ZM50.83,122.79c.92.85,1.65,1.45,2.28,2.14s1.16.59,2,.3a63.1,63.1,0,0,1,8.23-2.55,56.57,56.57,0,0,1,7.43-.56c.13-.5.29-1.1.42-1.63Zm57.23-16,.64-.06c0-3.12,0-6.23,0-9.35,0-.35-.21-.91-.46-1-1.75-.63-3.55-1.17-5.7-1.86C104.48,98.84,106.26,102.81,108.06,106.78Zm55.83-23.49.41-.28q-2.56-5.19-5.14-10.36l-.38.17c.24,2.24.48,4.5.77,6.74a1.92,1.92,0,0,0,.63,1.14C161.39,81.6,162.65,82.43,163.89,83.29Zm-105,64.26.32-.19c-1-3.4-1.94-6.81-3-10.52-.68,1.63-1.24,2.92-1.74,4.24a1.13,1.13,0,0,0,.09.92C56,143.86,57.42,145.7,58.86,147.55Zm79.25-66.36-3.35-4.83c-.09.13-.13.17-.13.2.26,1.25.52,2.49.79,3.74.41,1.89,1.58,2.42,3.3,1.5,2.15-1.17,3-2.88,2.73-5.59ZM59.19,134.28a3.57,3.57,0,0,0,5.5-.12,2.32,2.32,0,0,0,.48-1.86c-.08-.31-1.13-.58-1.69-.5A6.91,6.91,0,0,0,59.19,134.28ZM96.69,113c-3,0-3,0-3.55,2.32l2.21,1.7C95.82,115.56,97.76,114.91,96.69,113ZM70.51,63.18l-.47.56c.52.35,1,.93,1.59,1,2,.3,4,.42,5.94.61A8.13,8.13,0,0,0,70.51,63.18Zm13.67-2.85c.18,1.36.31,2.45.49,3.84l2.95-3.64ZM63,147.59c2-.42,2.76-1.15,2.66-2.5,0-.37-.44-1-.6-1-.48.06-1.17.29-1.33.65A17.33,17.33,0,0,0,63,147.59Z"/><path class="cls-2" d="M144.48,162.88a3.29,3.29,0,1,1,6.57-.08,3.37,3.37,0,0,1-3.26,3.29A3.31,3.31,0,0,1,144.48,162.88Zm5.74.05a2.49,2.49,0,0,0-2.35-2.65,2.6,2.6,0,0,0-2.66,2.4,2.5,2.5,0,0,0,2.41,2.6A2.37,2.37,0,0,0,150.23,162.93Z"/><path class="cls-2" d="M123.72,137.64A32.85,32.85,0,0,1,118.8,136c-1.94-1-2.08-5.22-.31-6.47a2,2,0,0,1,1.35-.14,10.87,10.87,0,0,1,7.51,5.32c.47.77-.1,1.86-1.17,2.3a3.25,3.25,0,0,1-.82.21c-.52.06-1,.09-1.56.13Zm.37-2.92.2-.4-4.21-2.62C119.37,134.12,121.11,135.22,124.09,134.71Z"/><path class="cls-2" d="M150.46,137.59a33.29,33.29,0,0,1-5-1.62c-2-1-2.08-5.16-.33-6.45a1.59,1.59,0,0,1,1.06-.15A10.5,10.5,0,0,1,154,134.8c.47.77-.34,2-1.48,2.27a16.81,16.81,0,0,1-2,.25C150.52,137.41,150.49,137.5,150.46,137.59Zm.25-2.66.24-.57-4.12-2.68c-.86,1.75-.75,2.24.64,2.66A27,27,0,0,0,150.71,134.93Z"/><path class="cls-2" d="M97.23,137.7a32.47,32.47,0,0,1-4.92-1.55c-2-1-2.2-5.2-.4-6.56a1.58,1.58,0,0,1,1.07-.15,10.67,10.67,0,0,1,7.76,5.38c.71,1.16-.26,1.79-1.06,2.19a9,9,0,0,1-2.32.49Zm-3.53-5.9-.54.35c.05.59-.13,1.47.2,1.74A6,6,0,0,0,97.58,135l.22-.46Z"/><path class="cls-2" d="M76.43,135.33c-.26,1.11-.54,2.32-.83,3.56l-3.75-1.3Z"/><path class="cls-2" d="M60.68,113.45c.23-2,.4-3.93.7-5.88.06-.38.53-.76.89-1a2.82,2.82,0,0,1,.94-.25c1.2-.31,2.47-.44,3.18.77s0,2.42-.95,3.26c-1.39,1.23-2.92,2.32-4.38,3.47Z"/><path class="cls-2" d="M94,96.54l2.66,7.55-5.56,1.86c.9-3.33,1.72-6.35,2.53-9.38Z"/><path class="cls-2" d="M62.08,100.65c-.21-2.16-.39-4-.58-5.93a6.91,6.91,0,0,1,4.49,1c1.53,1,1.51,2.63-.1,3.5A27.47,27.47,0,0,1,62.08,100.65Z"/><path class="cls-2" d="M149.79,163.54l-1.83.1a2.24,2.24,0,0,1,.16.43c0,.24,0,.48,0,.73-.28-.06-.65,0-.81-.19-.61-.65-1.16-1.36-1.85-2.17.55-.45,1-1,1.54-1.21a1.92,1.92,0,0,1,1.45.51A10.54,10.54,0,0,1,149.79,163.54Z"/></g></g></svg>