<svg xmlns="http://www.w3.org/2000/svg" viewBox="0 0 211 211"><defs><style>.cls-1{fill:none;}.cls-2{fill:#c49653;}</style></defs><title>new barbersjop</title><g id="Layer_2" data-name="Layer 2"><g id="Layer_1-2" data-name="Layer 1"><rect class="cls-1" width="211" height="211"/><path class="cls-2" d="M83.57,108.45c0-1.85.06-3.71,0-5.56-.05-1.18.48-.84,1.09-.57L102.08,110q12.22,5.39,24.45,10.76a1.2,1.2,0,0,1,.88,1.3c0,3.71,0,7.42,0,11.12,0,.84-.16,1-1,.66q-21-9.25-42-18.44a1.19,1.19,0,0,1-.84-1.32C83.61,112.23,83.57,110.34,83.57,108.45Z"/><path class="cls-2" d="M83.57,77.41l9.17,4q16.84,7.43,33.67,14.86a1.36,1.36,0,0,1,1,1.47q-.07,5.45,0,10.9c0,.95-.19,1-1,.66Q105.51,100.14,84.63,91a1.48,1.48,0,0,1-1.08-1.63C83.6,85.47,83.57,81.54,83.57,77.41Z"/><path class="cls-2" d="M83.83,64.47h25.79a2.87,2.87,0,0,1,1.17.29c5.18,2.27,10.34,4.57,15.53,6.81a1.5,1.5,0,0,1,1.07,1.64c-.06,3.41,0,6.82,0,10.23,0,.75,0,1.1-1,.68q-20.93-9.56-41.88-19.07c-.26-.12-.51-.27-.76-.41Z"/><path class="cls-2" d="M127,146.41h-2.65q-11.29,0-22.57,0a5.07,5.07,0,0,1-2.14-.46q-7.54-3.36-15.12-6.65a1.29,1.29,0,0,1-.94-1.39c0-3.48,0-7,0-10.45,0-.69,0-1.07.89-.68q21.08,9.62,42.17,19.21a3.78,3.78,0,0,1,.36.22Z"/><path class="cls-2" d="M105.55,155.06c5.48,0,11,0,16.45,0,1,0,1.12.28.73,1.12-2,4.24-5.41,6.84-9.68,8.47a9.39,9.39,0,0,1-1.37.44,4.58,4.58,0,0,0-2.88,1.71c-1.67,2.09-5.63,1.77-7.1-.45a2.38,2.38,0,0,0-1.54-1c-5.1-1.39-9.25-4-11.72-8.9-.66-1.3-.64-1.31.77-1.31h16.34Z"/><path class="cls-2" d="M111.51,55.94H89.16c-1.34,0-1.39-.06-.82-1.28,2.16-4.56,5.94-7.14,10.58-8.68a12.45,12.45,0,0,1,1.71-.44,1.34,1.34,0,0,0,1-.75c1.61-2.82,6.53-2.49,7.8.07a1.33,1.33,0,0,0,1,.71c5.07,1.3,9.27,3.86,11.88,8.57.92,1.66.9,1.68-.94,1.68h-9.9Z"/><path class="cls-2" d="M105.44,63.12H83.86c-1.58,0-2.3-.35-2.32-1.15s.8-1.25,2.38-1.25h42.94a4.59,4.59,0,0,1,1.74.27,1.09,1.09,0,0,1,.81,1c0,.53-.36.76-.76,1a2.7,2.7,0,0,1-1.41.19Z"/><path class="cls-2" d="M105.54,150.2H84.4a7.68,7.68,0,0,1-1.77-.13c-.53-.13-1.09-.41-1-1.11s.51-.88,1-1a5.35,5.35,0,0,1,1.31-.18h43.16a5.75,5.75,0,0,1,1.42.19c.48.12.91.37.94,1s-.4.92-.91,1.11a5.11,5.11,0,0,1-1.87.16Z"/><path class="cls-2" d="M127.49,151.58a4.6,4.6,0,0,1-4.09,2.35c-3.74,0-7.49,0-11.23,0H87.72a4.82,4.82,0,0,1-4.27-2.36Z"/><path class="cls-2" d="M127.37,59.34H83.57a4.13,4.13,0,0,1,3-2.19,8.71,8.71,0,0,1,2.09-.21q16.9,0,33.8,0a6.12,6.12,0,0,1,3.89,1A2.46,2.46,0,0,1,127.37,59.34Z"/></g></g></svg>